<?xml version="1.0" standalone="no"?>
<svg version="1.0" xmlns="http://www.w3.org/2000/svg"
 width="1350.000000pt" height="1350.000000pt" viewBox="0 0 1350.000000 1350.000000"
 preserveAspectRatio="xMidYMid meet">
<metadata>
Created by potrace 1.10, written by Peter Selinger 2001-2011
</metadata>
<g transform="translate(0.000000,1350.000000) scale(0.100000,-0.100000)"
stroke="none">
<path d="M945 11564 c-119 -31 -195 -130 -195 -254 0 -69 26 -137 71 -186 28
-30 99 -63 153 -70 53 -8 150 12 167 33 23 27 71 13 212 -61 132 -69 218 -113
517 -268 63 -33 167 -87 230 -120 63 -33 167 -87 230 -120 205 -106 372 -192
535 -278 88 -46 210 -109 270 -140 103 -54 181 -94 460 -240 63 -33 167 -87
230 -120 63 -33 168 -87 233 -120 64 -33 125 -70 135 -82 10 -12 62 -69 115
-127 53 -57 102 -109 107 -115 6 -6 48 -54 95 -106 47 -52 92 -101 100 -110
79 -86 127 -139 200 -220 47 -52 92 -101 100 -110 46 -49 212 -232 246 -270
21 -25 66 -74 100 -110 34 -36 83 -90 110 -120 26 -30 64 -72 83 -94 20 -21
47 -50 60 -65 13 -14 65 -71 116 -126 50 -55 109 -120 131 -145 21 -25 64 -71
94 -104 30 -32 60 -64 65 -70 48 -55 114 -127 194 -215 53 -57 101 -109 106
-115 6 -6 47 -53 93 -103 78 -86 82 -93 82 -137 0 -31 -5 -48 -14 -52 -10 -4
-208 118 -236 146 -3 3 -32 23 -65 45 -33 22 -61 43 -63 48 -2 4 -8 7 -12 7
-8 0 -248 157 -260 170 -3 3 -13 10 -22 15 -9 6 -131 87 -270 181 -139 94
-390 262 -558 375 -168 112 -307 206 -310 209 -6 6 -203 140 -228 155 -30 18
-77 49 -82 55 -3 3 -106 73 -230 155 -431 288 -655 439 -660 446 -6 9 -162 87
-435 219 -209 100 -393 190 -675 328 -102 49 -248 120 -325 157 -77 37 -234
114 -350 170 -115 56 -254 123 -307 149 -103 49 -119 65 -132 136 -23 118
-169 206 -298 179 -80 -17 -134 -57 -184 -134 -27 -43 -27 -196 1 -240 48 -76
103 -117 180 -133 86 -18 194 15 249 77 11 11 27 21 36 21 10 0 87 -34 171
-76 272 -133 451 -221 594 -289 77 -37 230 -111 340 -165 828 -404 945 -460
954 -460 9 0 738 -486 751 -500 4 -5 229 -156 419 -282 31 -20 61 -41 66 -45
6 -5 129 -88 275 -185 234 -156 759 -509 800 -538 8 -6 38 -25 65 -43 124 -81
240 -163 243 -169 2 -5 8 -8 13 -8 9 0 65 -36 79 -50 3 -3 13 -9 22 -15 9 -5
116 -77 237 -158 l221 -148 0 -40 c0 -42 -21 -62 -43 -40 -6 6 -17 11 -25 11
-8 0 -30 7 -50 16 -21 8 -50 21 -67 28 -16 8 -50 21 -75 31 -25 9 -58 23 -75
30 -16 7 -55 23 -85 34 -30 12 -64 26 -75 31 -11 4 -45 18 -75 30 -30 11 -64
25 -75 30 -11 4 -60 24 -110 45 -49 20 -99 40 -110 44 -11 5 -40 16 -65 26
-57 21 -107 43 -143 61 -16 8 -33 14 -39 14 -5 0 -26 7 -46 16 -21 8 -50 21
-67 28 -16 8 -50 21 -75 31 -25 9 -58 23 -75 30 -16 7 -50 20 -75 30 -25 9
-61 24 -80 32 -73 32 -96 41 -140 58 -25 9 -58 23 -75 30 -16 7 -55 23 -85 34
-30 12 -64 26 -75 31 -11 4 -45 18 -75 30 -53 20 -67 26 -135 55 -16 7 -50 20
-75 30 -25 9 -58 23 -75 30 -16 7 -66 27 -110 45 -44 17 -93 38 -108 46 -16 8
-33 14 -39 14 -5 0 -26 7 -46 16 -21 8 -53 22 -72 31 -19 8 -48 21 -63 29 -16
8 -35 14 -44 14 -8 0 -27 6 -41 13 -50 26 -97 45 -192 82 -52 20 -111 43 -130
51 -49 22 -68 29 -130 54 -30 11 -64 25 -75 29 -11 5 -56 23 -100 41 -44 17
-93 38 -110 45 -16 7 -55 23 -85 34 -78 31 -101 41 -133 57 -16 8 -33 14 -39
14 -5 0 -24 6 -41 14 -18 7 -72 30 -122 50 -49 21 -99 41 -110 46 -11 4 -45
18 -75 30 -53 20 -67 26 -135 55 -16 7 -50 20 -75 30 -25 9 -58 23 -73 31 -16
8 -33 14 -39 14 -9 0 -30 8 -113 45 -16 7 -55 23 -85 34 -60 24 -89 36 -135
56 -16 8 -73 30 -125 49 -142 54 -144 56 -150 118 -9 85 -53 162 -119 206 -55
36 -58 37 -146 36 -80 0 -95 -3 -132 -27 -88 -56 -123 -121 -123 -229 0 -76
17 -121 67 -173 39 -43 70 -60 132 -75 68 -16 147 -1 209 41 48 33 72 36 110
15 28 -15 43 -22 177 -76 44 -17 94 -38 110 -45 17 -7 55 -23 85 -34 30 -12
64 -26 75 -30 11 -5 40 -17 65 -27 25 -9 65 -26 90 -36 75 -32 83 -35 130 -53
25 -9 59 -23 75 -30 17 -7 50 -20 75 -30 25 -9 59 -23 75 -30 17 -7 66 -27
110 -45 44 -17 93 -38 108 -46 16 -8 33 -14 39 -14 9 0 30 -8 113 -45 17 -7
55 -23 85 -34 30 -12 64 -26 75 -31 11 -4 45 -18 75 -30 55 -21 77 -30 135
-55 17 -7 55 -23 85 -34 64 -26 94 -38 135 -57 17 -7 42 -16 58 -20 15 -3 30
-10 33 -15 3 -5 12 -9 20 -9 7 0 43 -14 77 -30 35 -16 67 -30 71 -30 5 0 22
-6 39 -14 18 -7 52 -21 77 -31 25 -10 65 -27 90 -37 75 -32 83 -35 130 -53 25
-9 59 -23 75 -30 17 -7 55 -23 85 -34 30 -12 64 -26 75 -31 11 -4 45 -18 75
-30 55 -21 77 -30 135 -55 17 -7 55 -23 85 -34 30 -12 64 -26 75 -31 11 -4 45
-18 75 -30 77 -30 101 -40 133 -56 16 -8 33 -14 38 -14 6 0 31 -9 57 -21 26
-11 58 -25 72 -30 14 -6 38 -17 53 -25 16 -8 33 -14 39 -14 5 0 24 -6 41 -14
18 -7 57 -23 87 -35 53 -21 67 -27 135 -56 17 -7 50 -20 75 -30 25 -9 59 -23
75 -30 17 -7 55 -23 85 -34 30 -12 64 -26 75 -30 11 -5 56 -23 100 -41 44 -17
93 -38 108 -46 16 -8 33 -14 39 -14 5 0 26 -7 46 -16 21 -8 52 -22 70 -29 18
-8 47 -21 65 -28 17 -8 50 -21 72 -30 70 -26 165 -65 240 -97 11 -4 47 -19 80
-31 82 -31 85 -35 85 -89 0 -58 -11 -64 -77 -46 -26 8 -68 17 -93 20 -25 4
-58 11 -75 16 -16 5 -59 14 -95 20 -71 13 -176 33 -285 56 -38 8 -83 17 -100
20 -16 3 -59 11 -95 19 -36 7 -101 21 -145 30 -121 24 -215 44 -270 56 -27 6
-79 15 -114 20 -36 6 -73 15 -82 20 -10 5 -30 9 -45 9 -15 0 -55 6 -88 14 -68
15 -182 39 -296 62 -41 8 -109 22 -150 30 -104 21 -206 42 -265 55 -27 5 -77
15 -110 20 -33 5 -73 13 -90 19 -16 5 -59 14 -95 20 -67 12 -148 28 -273 55
-39 9 -99 20 -132 25 -33 6 -73 15 -89 20 -16 6 -40 10 -53 10 -13 0 -68 21
-121 46 -53 26 -153 73 -222 106 -69 32 -165 79 -215 103 -49 24 -135 64 -190
90 -55 26 -154 73 -220 105 -222 107 -330 158 -400 190 -38 18 -124 58 -190
90 -66 31 -163 78 -216 103 -104 50 -109 56 -109 135 0 55 -53 141 -108 176
-57 36 -141 51 -205 35 -92 -22 -166 -85 -181 -156 -4 -18 -12 -35 -17 -38
-15 -10 -10 -87 10 -139 23 -62 61 -109 114 -144 38 -24 51 -27 132 -27 85 0
93 2 138 33 26 17 59 32 72 32 13 0 63 -20 112 -44 48 -24 147 -72 218 -106
72 -33 171 -81 220 -104 50 -24 149 -71 220 -105 72 -34 157 -75 190 -91 33
-16 107 -51 165 -78 129 -61 288 -137 440 -209 63 -30 151 -72 195 -93 44 -20
107 -43 140 -50 33 -6 94 -18 135 -27 41 -8 107 -21 145 -29 39 -8 84 -17 100
-20 17 -3 59 -11 95 -19 36 -7 101 -21 145 -30 171 -34 232 -47 290 -60 33 -8
80 -16 105 -20 25 -3 59 -10 75 -15 17 -5 59 -14 95 -20 36 -6 97 -18 135 -26
39 -8 96 -19 128 -24 32 -6 67 -14 77 -20 10 -5 33 -10 50 -10 18 0 59 -6 93
-14 34 -8 96 -22 137 -30 41 -8 98 -20 125 -26 28 -6 77 -16 110 -21 33 -5 73
-14 90 -19 30 -9 101 -23 210 -41 33 -5 73 -13 90 -18 38 -12 124 -29 195 -40
30 -5 75 -14 100 -19 25 -6 79 -18 120 -26 41 -9 98 -21 125 -27 28 -5 73 -14
102 -19 28 -4 57 -11 62 -15 15 -9 14 -60 -2 -74 -9 -7 -185 -14 -538 -21
-288 -6 -636 -15 -774 -20 -137 -5 -365 -9 -505 -10 -140 0 -313 -5 -385 -10
-71 -5 -332 -12 -580 -16 l-450 -6 -825 413 c-454 227 -838 421 -853 432 -27
18 -28 23 -22 67 8 60 -22 152 -66 200 -42 46 -134 90 -189 90 -95 0 -188 -55
-235 -141 -24 -44 -28 -65 -28 -123 0 -106 50 -186 148 -236 60 -31 164 -28
232 7 l53 26 453 -227 c248 -125 459 -231 467 -236 8 -5 51 -27 95 -48 127
-61 289 -142 305 -152 8 -5 35 -19 60 -30 25 -12 52 -25 60 -30 8 -5 80 -42
160 -82 l145 -73 150 3 c951 20 1521 34 2155 52 724 22 958 24 975 10 22 -19
22 -271 -1 -294 -14 -14 -77 -16 -542 -16 -290 -1 -651 -5 -802 -10 -151 -5
-709 -12 -1240 -16 -531 -3 -1041 -9 -1135 -13 -183 -8 -207 -4 -224 42 -12
30 -44 62 -94 95 -38 24 -51 27 -132 27 -80 0 -94 -3 -131 -27 -75 -48 -134
-149 -134 -228 0 -76 55 -174 121 -215 53 -34 147 -50 204 -36 82 21 139 67
179 144 11 21 24 41 30 46 10 9 960 23 2431 37 363 3 662 7 665 9 4 2 185 5
404 6 329 1 400 -1 407 -12 14 -22 11 -393 -3 -407 -7 -7 -30 -12 -52 -12 -23
0 -57 -5 -77 -10 -20 -6 -83 -14 -140 -19 -122 -11 -264 -27 -369 -43 -41 -6
-115 -14 -165 -19 -136 -12 -283 -29 -350 -40 -33 -5 -103 -14 -155 -19 -102
-9 -225 -23 -360 -41 -47 -7 -125 -15 -175 -20 -99 -8 -229 -23 -345 -40 -41
-6 -115 -15 -165 -19 -101 -9 -242 -26 -357 -42 -43 -5 -115 -14 -160 -18
-117 -11 -265 -28 -393 -45 -60 -8 -130 -16 -155 -19 -95 -8 -268 -27 -325
-37 -33 -5 -103 -14 -155 -19 -126 -11 -268 -28 -360 -41 -41 -7 -118 -15
-170 -20 -52 -4 -129 -13 -170 -20 l-74 -12 -21 28 c-68 95 -125 128 -226 129
-90 1 -133 -17 -194 -81 -78 -81 -94 -188 -42 -290 40 -80 74 -107 175 -138
50 -16 57 -16 118 1 82 22 143 73 180 152 15 31 32 60 38 64 6 4 31 8 56 8 25
0 86 7 135 15 50 8 115 15 146 15 31 0 69 4 85 10 16 5 76 14 134 19 129 12
270 28 374 43 43 6 117 14 165 18 141 13 292 30 356 41 33 5 103 14 155 19
123 12 255 27 355 41 44 6 121 15 170 19 120 10 276 29 350 41 33 5 103 14
155 19 190 18 306 31 370 42 36 6 106 14 155 19 115 9 264 26 385 45 53 8 114
14 136 14 22 0 67 5 100 11 32 6 102 15 154 19 169 15 304 30 363 41 31 5 101
14 155 19 53 6 118 13 143 16 45 6 47 5 57 -25 6 -17 10 -60 9 -97 -2 -60 -5
-68 -32 -90 -16 -13 -48 -34 -70 -46 -22 -12 -56 -30 -75 -41 -19 -10 -57 -32
-85 -48 -27 -17 -63 -37 -80 -45 -16 -8 -52 -28 -80 -45 -27 -16 -63 -37 -80
-45 -16 -8 -46 -24 -65 -36 -19 -11 -64 -36 -100 -56 -36 -19 -69 -38 -75 -42
-9 -6 -74 -42 -175 -96 -19 -11 -40 -25 -48 -31 -7 -7 -18 -13 -23 -13 -5 0
-26 -10 -47 -23 -20 -13 -68 -41 -107 -62 -38 -21 -88 -49 -110 -62 -22 -12
-47 -26 -55 -30 -8 -4 -44 -24 -79 -46 -35 -21 -74 -43 -85 -48 -12 -5 -48
-25 -81 -44 -33 -19 -69 -39 -80 -45 -11 -5 -47 -25 -80 -44 -33 -19 -82 -47
-110 -62 -82 -45 -98 -54 -150 -85 -27 -16 -61 -35 -75 -41 -14 -7 -41 -24
-60 -39 -29 -22 -49 -28 -105 -31 -80 -5 -207 -23 -313 -44 -40 -8 -95 -14
-122 -14 -27 0 -61 -5 -76 -11 -16 -5 -66 -14 -113 -19 -48 -5 -115 -14 -151
-20 -82 -12 -264 -38 -310 -44 -67 -8 -195 -27 -285 -41 -49 -8 -106 -16 -125
-19 -19 -2 -74 -10 -121 -16 l-85 -13 -61 60 c-89 88 -183 114 -283 76 -50
-19 -57 -24 -101 -67 -72 -72 -91 -201 -43 -294 50 -97 124 -142 232 -142 115
0 196 56 248 170 15 33 29 60 33 61 3 0 40 4 81 9 82 9 192 25 285 41 33 6 94
15 135 20 41 4 95 13 120 18 25 6 68 10 96 11 28 0 64 4 80 10 16 5 67 15 114
20 47 6 128 17 180 24 52 8 136 19 185 25 50 7 110 16 135 22 25 5 83 14 130
19 134 15 213 31 235 46 10 8 28 14 37 14 18 0 104 43 203 101 28 17 64 37 80
45 17 8 46 24 65 36 19 11 60 34 90 50 30 17 80 45 111 64 31 19 59 34 62 34
5 0 140 76 177 100 8 5 38 21 65 35 28 14 57 30 65 35 58 36 157 93 174 101
12 5 35 17 51 27 17 10 62 36 100 56 39 21 75 42 80 46 6 4 46 27 90 51 123
66 127 68 180 100 28 16 64 37 80 45 17 8 53 28 80 45 28 16 64 37 80 45 17 8
37 19 45 24 78 50 154 90 169 90 27 0 31 -19 31 -133 -1 -76 -5 -110 -18 -134
-16 -31 -131 -203 -142 -213 -3 -3 -23 -32 -45 -65 -22 -33 -42 -62 -45 -65
-3 -3 -34 -48 -70 -100 -35 -52 -88 -129 -117 -170 -29 -41 -86 -124 -127
-185 -41 -60 -97 -141 -123 -180 -27 -38 -71 -101 -98 -140 -26 -38 -68 -99
-93 -135 -25 -36 -73 -106 -107 -155 -111 -164 -106 -159 -230 -195 -29 -8
-79 -25 -120 -41 -11 -4 -54 -17 -95 -30 -41 -12 -88 -27 -105 -34 -16 -6 -97
-33 -180 -60 -82 -26 -163 -53 -180 -60 -16 -6 -77 -27 -135 -45 -58 -18 -112
-36 -120 -40 -9 -4 -30 -11 -49 -15 -18 -4 -44 -13 -59 -21 -15 -8 -34 -14
-43 -14 -9 0 -30 -7 -45 -15 -16 -8 -39 -15 -51 -15 -12 0 -24 -4 -27 -9 -4
-5 -24 -12 -46 -16 -22 -4 -42 -11 -46 -16 -10 -16 -61 -9 -79 11 -33 37 -102
60 -177 60 -101 0 -164 -37 -223 -131 -24 -38 -28 -54 -28 -124 -1 -75 1 -83
35 -136 72 -112 193 -155 310 -111 50 19 103 60 129 102 15 24 41 103 53 162
5 23 16 29 93 53 49 15 102 33 118 40 17 6 57 20 90 30 33 10 74 24 92 32 17
7 38 13 46 13 8 0 28 7 43 15 16 8 36 15 45 15 9 0 30 7 45 15 16 8 38 15 49
15 12 0 25 4 30 9 6 6 28 14 50 20 43 10 91 26 142 48 17 7 38 13 46 13 8 0
28 7 43 15 16 8 37 15 47 15 9 0 25 4 35 9 17 9 89 34 147 51 29 8 66 20 135
46 19 7 69 22 110 35 72 22 106 45 138 94 7 11 40 61 74 110 34 50 90 133 126
185 36 52 67 97 71 100 3 3 11 13 16 22 6 9 33 50 60 90 28 41 75 110 105 153
30 44 57 82 60 85 3 3 23 32 45 65 22 33 42 62 45 65 3 3 28 39 56 80 28 41
77 113 109 160 33 47 76 110 97 141 36 56 64 77 79 62 4 -4 9 -123 11 -263 l3
-255 29 -52 c32 -59 104 -129 156 -155 61 -30 153 -42 219 -29 82 16 130 42
183 99 89 95 91 103 96 380 3 175 7 242 15 242 18 -1 39 -21 73 -70 45 -64
168 -243 220 -320 24 -36 68 -99 97 -140 73 -103 220 -317 232 -338 6 -9 13
-19 16 -22 4 -3 35 -48 71 -100 36 -52 85 -124 110 -160 24 -36 64 -93 87
-128 49 -71 52 -73 147 -103 38 -11 85 -27 104 -34 73 -26 106 -37 135 -45 54
-16 130 -41 145 -49 9 -5 31 -12 50 -16 19 -4 40 -11 45 -15 6 -4 21 -10 35
-13 14 -3 41 -11 60 -17 19 -7 51 -18 70 -25 19 -7 69 -23 110 -35 41 -13 79
-27 85 -31 5 -5 18 -9 30 -9 11 0 33 -7 49 -15 15 -8 35 -15 43 -15 8 0 29 -6
46 -13 18 -8 59 -22 92 -32 33 -10 74 -24 90 -30 17 -7 69 -25 118 -40 77 -24
88 -30 93 -53 23 -115 49 -169 102 -217 67 -61 167 -80 252 -48 67 25 98 50
138 112 34 53 36 61 35 136 0 70 -4 86 -28 124 -60 96 -122 131 -229 131 -78
0 -115 -13 -165 -57 -26 -23 -75 -31 -85 -14 -4 5 -24 12 -46 16 -22 4 -42 11
-46 16 -3 5 -15 9 -27 9 -12 0 -35 7 -51 15 -15 8 -36 15 -45 15 -9 0 -28 6
-43 14 -15 8 -41 17 -59 21 -19 4 -40 11 -49 15 -8 4 -62 22 -120 40 -58 18
-118 39 -135 45 -16 7 -97 34 -180 60 -82 27 -163 54 -180 60 -16 7 -97 33
-180 60 -135 42 -177 57 -252 86 -13 5 -23 13 -23 18 0 5 -7 16 -15 24 -8 9
-43 57 -78 109 -35 51 -84 122 -109 158 -25 36 -67 97 -93 135 -27 39 -71 102
-98 140 -26 39 -82 120 -123 180 -41 61 -98 144 -127 185 -29 41 -82 118 -117
170 -36 52 -67 97 -70 100 -7 7 -30 41 -133 192 l-87 128 0 135 0 135 26 0
c15 0 60 -20 101 -45 40 -25 76 -45 80 -45 3 0 39 -20 80 -45 40 -25 78 -45
83 -45 5 0 15 -6 22 -12 7 -7 33 -23 58 -36 25 -13 59 -31 75 -41 17 -10 66
-37 110 -61 44 -23 85 -46 90 -50 6 -4 42 -25 80 -46 39 -20 84 -46 100 -56
17 -10 39 -22 51 -27 17 -8 116 -65 174 -101 8 -5 38 -21 65 -35 28 -14 57
-30 65 -35 37 -24 172 -100 177 -100 3 0 31 -15 62 -34 31 -19 81 -47 111 -64
30 -16 71 -39 90 -50 19 -12 49 -28 65 -36 17 -8 53 -28 80 -45 96 -56 185
-101 201 -101 9 0 28 -6 42 -14 25 -14 113 -33 192 -42 50 -6 231 -32 320 -45
125 -19 260 -38 350 -49 47 -5 98 -15 114 -20 16 -6 52 -10 80 -10 28 -1 71
-5 96 -11 25 -5 79 -14 120 -19 70 -8 100 -12 275 -41 39 -6 104 -15 145 -19
41 -5 78 -9 81 -9 4 -1 18 -28 33 -61 52 -114 133 -170 248 -170 106 0 175 40
229 135 24 41 29 62 29 116 0 117 -62 211 -166 250 -104 40 -197 16 -287 -74
l-60 -59 -56 6 c-31 4 -81 11 -111 16 -104 18 -195 31 -280 41 -47 5 -105 13
-130 18 -25 6 -85 15 -135 22 -49 6 -133 18 -185 25 -52 8 -133 18 -181 23
-47 6 -97 15 -113 20 -15 6 -47 11 -71 11 -25 0 -80 6 -122 14 -125 23 -243
39 -318 44 -58 3 -75 9 -106 33 -20 16 -40 29 -44 29 -4 0 -41 20 -82 45 -40
25 -76 45 -78 45 -2 0 -27 14 -55 30 -28 17 -79 45 -113 64 -137 74 -184 100
-219 123 -21 13 -40 23 -44 23 -4 0 -39 19 -78 43 -39 24 -78 46 -86 50 -8 4
-33 18 -55 30 -22 13 -71 41 -110 62 -38 21 -86 48 -105 60 -19 12 -42 25 -50
28 -8 4 -33 18 -55 30 -22 13 -71 41 -110 62 -38 21 -74 41 -80 45 -5 4 -39
23 -75 42 -36 20 -81 45 -100 56 -19 12 -48 28 -65 36 -16 8 -52 29 -80 45
-27 17 -63 37 -80 45 -16 8 -52 29 -80 45 -27 17 -63 37 -80 45 -151 76 -155
81 -155 191 0 115 3 119 96 105 118 -17 235 -31 336 -40 54 -5 131 -13 170
-19 79 -11 207 -26 358 -41 52 -5 127 -14 165 -20 116 -16 255 -32 350 -40 50
-4 119 -12 155 -18 64 -11 180 -24 370 -42 52 -5 122 -14 155 -19 68 -11 235
-31 310 -37 46 -4 179 -19 385 -44 47 -6 128 -15 180 -20 52 -5 122 -14 155
-19 64 -11 215 -28 356 -41 48 -4 122 -12 165 -18 124 -17 250 -32 364 -42 58
-5 123 -14 145 -19 22 -5 83 -12 135 -16 52 -3 113 -10 135 -15 22 -5 63 -10
90 -10 28 0 55 -4 61 -8 6 -4 23 -33 38 -64 37 -79 98 -130 180 -152 61 -17
68 -17 118 -1 100 31 141 63 179 142 47 98 30 208 -46 286 -61 64 -104 82
-194 81 -94 -2 -153 -31 -207 -105 l-37 -51 -60 7 c-33 4 -74 11 -91 16 -17 5
-55 9 -85 9 -31 0 -98 6 -151 14 -104 16 -242 32 -390 46 -52 5 -122 14 -155
19 -57 10 -230 29 -325 37 -25 3 -94 11 -155 19 -141 19 -278 34 -386 44 -48
5 -122 13 -165 19 -116 16 -257 32 -359 42 -49 4 -124 13 -165 19 -113 16
-244 32 -350 41 -52 4 -129 13 -170 19 -89 13 -229 29 -360 42 -52 5 -122 13
-155 18 -64 11 -218 28 -355 41 -47 4 -119 12 -160 18 -93 14 -248 32 -361 42
-73 6 -129 14 -245 36 -21 4 -22 11 -29 159 -8 164 -4 240 13 257 9 9 766 13
781 4 3 -3 312 -7 686 -10 1420 -13 2410 -28 2421 -37 6 -5 19 -25 30 -46 51
-99 130 -148 240 -147 54 1 82 6 118 25 56 28 113 92 122 138 4 17 11 34 15
37 15 9 10 85 -8 134 -22 59 -66 115 -117 148 -36 23 -51 26 -127 27 -66 0
-94 -4 -124 -20 -44 -22 -89 -66 -111 -107 -8 -15 -20 -31 -28 -35 -8 -4 -81
-5 -163 -2 -81 4 -389 7 -683 8 -294 1 -809 6 -1145 12 -335 6 -901 14 -1257
17 -355 4 -650 11 -655 15 -13 14 -17 262 -4 286 11 20 19 21 174 20 89 0 284
-4 432 -9 149 -6 412 -12 585 -15 173 -3 450 -10 615 -16 257 -8 538 -15 1330
-31 l140 -3 145 73 c80 40 152 77 160 82 8 5 35 18 60 30 25 11 52 25 60 30 8
5 60 32 115 59 190 93 270 133 285 141 8 5 219 111 468 236 l452 227 53 -26
c68 -35 172 -38 232 -7 98 50 148 130 148 236 0 58 -4 79 -28 123 -46 85 -139
141 -233 141 -55 0 -140 -39 -184 -84 -49 -50 -82 -143 -73 -205 5 -37 3 -50
-10 -61 -9 -8 -393 -202 -853 -433 l-837 -419 -450 6 c-247 4 -508 11 -580 16
-71 5 -247 10 -390 10 -143 1 -372 5 -510 10 -137 5 -479 14 -758 20 -311 6
-516 14 -528 20 -22 12 -26 64 -7 77 7 4 33 11 58 15 25 4 77 14 115 22 39 8
97 20 130 26 33 7 85 18 116 26 30 8 70 14 88 14 18 0 41 5 51 10 10 6 45 14
77 20 32 5 90 16 128 24 39 8 99 20 135 26 36 6 79 15 95 20 17 6 57 14 90 19
33 5 83 15 110 21 50 11 134 28 275 56 41 9 104 22 140 29 36 8 79 16 95 19
17 3 62 12 100 20 39 8 99 20 135 26 36 6 79 15 95 20 17 6 57 14 90 19 33 5
83 15 110 20 56 13 150 32 270 56 44 9 109 23 145 30 36 8 79 16 95 19 17 3
62 12 100 20 39 8 99 19 135 26 36 6 79 15 95 20 17 5 48 12 70 16 22 3 76 23
120 44 44 21 132 63 195 93 63 30 165 78 225 107 61 29 157 75 215 102 58 28
148 70 200 95 137 65 272 129 375 179 50 23 149 71 220 104 72 34 170 82 218
106 49 24 99 44 112 44 13 0 46 -15 72 -32 45 -31 53 -33 138 -33 81 0 94 3
132 27 53 35 91 82 114 144 20 52 25 129 10 139 -5 3 -13 20 -17 38 -15 71
-89 134 -181 156 -64 16 -148 1 -205 -35 -55 -35 -108 -121 -108 -176 0 -79
-5 -85 -109 -135 -53 -25 -150 -72 -216 -103 -66 -32 -151 -72 -190 -90 -70
-32 -178 -83 -400 -190 -66 -32 -165 -79 -220 -105 -55 -26 -140 -66 -190 -90
-49 -24 -142 -68 -205 -98 -63 -30 -163 -78 -222 -106 -59 -28 -118 -51 -131
-51 -13 0 -37 -4 -53 -10 -16 -5 -56 -14 -89 -20 -33 -5 -91 -16 -130 -25
-112 -24 -205 -43 -275 -55 -36 -6 -79 -15 -95 -20 -17 -6 -57 -14 -90 -19
-33 -5 -82 -15 -110 -21 -27 -6 -81 -17 -120 -25 -326 -65 -505 -102 -591
-121 -33 -8 -73 -14 -88 -14 -15 0 -35 -4 -45 -9 -9 -5 -46 -14 -82 -20 -35
-6 -95 -17 -134 -25 -38 -8 -97 -20 -130 -26 -33 -7 -85 -18 -116 -26 -30 -8
-68 -14 -83 -14 -15 0 -35 -4 -45 -9 -9 -5 -46 -14 -82 -20 -35 -6 -95 -17
-134 -25 -38 -8 -106 -21 -150 -30 -44 -8 -87 -17 -95 -20 -8 -3 -42 -10 -75
-16 -33 -5 -94 -16 -135 -25 -41 -9 -94 -18 -117 -22 -41 -5 -42 -5 -48 31
-10 50 10 76 81 104 33 13 68 28 79 32 73 32 151 63 238 96 41 16 64 26 137
57 19 8 55 23 80 32 25 10 59 23 75 30 17 8 66 28 110 45 44 18 89 36 100 41
11 4 45 18 75 30 30 11 69 27 85 34 17 7 50 21 75 30 25 10 59 23 75 30 68 29
82 35 135 56 30 12 69 28 87 35 17 8 36 14 41 14 6 0 23 6 39 14 15 8 39 19
53 25 14 5 46 19 72 30 26 12 51 21 57 21 5 0 22 6 38 14 32 16 56 26 133 56
30 12 64 26 75 30 11 5 45 19 75 31 30 11 69 27 85 34 58 25 80 34 135 55 30
12 64 26 75 30 11 5 45 19 75 31 30 11 69 27 85 34 17 7 50 21 75 30 25 10 59
23 75 30 68 29 82 35 135 56 30 12 69 28 87 35 17 8 37 14 45 14 8 0 18 4 24
9 8 8 60 30 159 68 22 9 54 21 70 28 68 29 82 35 135 56 30 11 69 27 85 34 83
37 104 45 113 45 6 0 23 6 39 14 32 16 56 26 133 56 63 25 77 31 142 59 26 12
51 21 57 21 5 0 22 6 38 14 15 8 64 29 108 46 44 18 94 38 110 45 17 7 50 21
75 30 25 10 54 21 65 26 11 4 45 18 75 30 30 11 69 27 85 34 83 37 104 45 113
45 6 0 23 6 39 14 36 18 86 39 143 61 25 10 59 23 75 30 68 29 82 35 135 56
96 38 124 50 152 65 38 21 62 18 110 -15 62 -42 141 -57 209 -41 62 15 93 32
132 75 50 52 67 97 67 173 0 108 -35 173 -123 229 -37 24 -52 27 -132 27 -88
1 -91 0 -146 -36 -66 -45 -110 -121 -119 -208 -6 -63 -3 -60 -150 -116 -52
-19 -108 -41 -125 -49 -46 -20 -75 -32 -135 -55 -30 -12 -64 -26 -75 -30 -11
-5 -45 -19 -75 -31 -30 -11 -68 -27 -85 -34 -16 -7 -50 -21 -75 -30 -25 -10
-58 -23 -75 -30 -68 -29 -82 -35 -135 -55 -30 -12 -64 -26 -75 -30 -11 -5 -60
-25 -110 -46 -49 -20 -104 -43 -122 -50 -17 -8 -36 -14 -41 -14 -6 0 -23 -6
-39 -14 -15 -8 -39 -19 -53 -25 -40 -16 -199 -81 -280 -113 -41 -17 -84 -34
-95 -39 -11 -4 -45 -18 -75 -29 -63 -25 -77 -31 -142 -59 -26 -12 -52 -21 -58
-21 -5 0 -18 -4 -28 -10 -9 -5 -57 -26 -107 -46 -49 -20 -103 -42 -120 -49
-16 -7 -50 -21 -75 -30 -25 -10 -58 -23 -75 -30 -68 -29 -82 -35 -135 -55 -83
-33 -201 -81 -235 -95 -16 -7 -50 -21 -75 -30 -25 -10 -58 -23 -75 -31 -16 -7
-46 -20 -67 -28 -20 -9 -41 -16 -46 -16 -6 0 -23 -6 -39 -14 -32 -16 -56 -26
-133 -56 -63 -25 -77 -31 -142 -59 -26 -12 -51 -21 -57 -21 -5 0 -22 -6 -38
-14 -36 -18 -86 -39 -143 -61 -25 -10 -58 -23 -75 -30 -16 -7 -50 -21 -75 -30
-25 -10 -58 -23 -75 -30 -68 -29 -82 -35 -135 -56 -30 -11 -68 -27 -85 -34
-16 -7 -50 -21 -75 -30 -25 -10 -54 -21 -65 -26 -11 -4 -60 -24 -110 -44 -49
-21 -99 -41 -110 -45 -11 -5 -45 -19 -75 -30 -30 -12 -64 -26 -75 -30 -11 -5
-45 -19 -75 -31 -30 -11 -68 -27 -85 -34 -83 -37 -104 -45 -113 -45 -6 0 -25
-8 -44 -17 -70 -35 -84 -41 -122 -47 -28 -5 -41 -4 -47 6 -16 25 -9 54 19 80
22 20 366 255 430 293 9 6 19 12 22 15 14 14 70 50 79 50 5 0 11 3 13 8 3 7
132 96 243 169 28 17 55 36 60 40 12 9 709 478 1375 924 102 68 187 126 190
129 3 3 61 43 130 90 494 331 614 410 622 410 5 0 93 41 196 91 567 277 886
432 1082 526 206 100 421 205 609 297 84 42 161 76 171 76 9 0 25 -10 36 -21
55 -62 163 -95 249 -77 76 16 128 53 173 123 23 35 26 50 27 130 0 97 -7 116
-69 183 -80 86 -226 101 -331 33 -47 -32 -92 -93 -101 -141 -14 -72 -29 -87
-142 -141 -132 -63 -350 -168 -377 -182 -32 -17 -120 -60 -270 -132 -131 -63
-303 -147 -660 -320 -82 -41 -235 -115 -340 -165 -104 -51 -233 -113 -285
-139 -52 -25 -207 -122 -345 -214 -137 -92 -349 -234 -470 -315 -121 -81 -222
-149 -225 -152 -13 -14 -70 -50 -79 -50 -5 0 -11 -3 -13 -7 -5 -11 -66 -53
-77 -53 -5 0 -11 -3 -13 -7 -1 -5 -30 -26 -63 -48 -33 -22 -62 -42 -65 -45 -3
-3 -142 -97 -310 -209 -168 -113 -419 -281 -558 -375 -139 -94 -261 -175 -270
-181 -9 -5 -19 -12 -22 -15 -12 -13 -252 -170 -260 -170 -4 0 -10 -3 -12 -7
-1 -5 -30 -26 -63 -48 -33 -22 -62 -42 -65 -45 -22 -22 -209 -140 -222 -140
-19 0 -28 20 -28 61 0 21 15 45 51 86 58 66 206 229 229 253 8 8 55 60 104
115 49 55 117 129 150 165 34 36 81 88 105 115 25 28 85 95 135 149 50 55 100
110 111 122 11 12 36 39 56 60 19 22 57 64 83 94 27 30 76 84 110 120 33 36
81 88 105 115 45 50 213 235 241 265 12 13 156 172 195 216 6 6 53 58 106 115
52 57 115 126 140 154 24 27 49 55 54 61 6 6 54 58 107 115 53 58 105 115 115
127 10 12 59 42 108 68 127 66 478 248 720 374 61 32 162 85 225 117 63 33
187 98 275 143 199 104 385 201 535 278 63 33 167 87 230 120 63 33 167 87
230 120 299 155 385 199 517 268 141 74 182 86 212 61 21 -18 90 -37 133 -37
54 0 129 26 169 59 141 117 110 360 -56 437 -58 27 -176 25 -231 -4 -86 -44
-144 -142 -144 -241 0 -43 -5 -62 -17 -73 -10 -9 -85 -51 -168 -94 -82 -42
-206 -106 -275 -142 -278 -146 -331 -173 -485 -253 -165 -85 -357 -185 -505
-262 -47 -24 -152 -79 -235 -122 -82 -43 -202 -105 -265 -138 -63 -33 -178
-92 -255 -132 -77 -39 -203 -105 -280 -145 -158 -84 -350 -183 -443 -231 -60
-31 -115 -84 -283 -274 -42 -48 -110 -122 -174 -189 -16 -18 -48 -52 -69 -77
-22 -24 -81 -89 -131 -144 -51 -55 -105 -113 -120 -130 -15 -16 -53 -59 -84
-95 -31 -35 -86 -96 -122 -135 -36 -38 -86 -92 -111 -120 -70 -78 -281 -309
-287 -315 -3 -3 -37 -41 -76 -85 -38 -44 -75 -84 -81 -90 -6 -5 -80 -86 -165
-180 -85 -93 -158 -175 -164 -181 -95 -103 -191 -209 -221 -246 -49 -58 -81
-78 -94 -58 -6 9 -10 166 -10 355 -1 381 -3 396 -73 494 -44 61 -50 45 76 216
51 69 126 173 167 231 41 58 82 114 90 124 8 10 22 28 30 40 8 12 41 58 73
102 32 44 74 103 94 131 20 28 40 56 44 62 5 5 41 54 80 108 55 75 76 97 94
97 13 0 27 -4 30 -10 11 -18 110 -11 159 11 110 48 160 123 160 239 1 117 -44
189 -151 244 -44 22 -160 22 -210 -1 -67 -30 -120 -94 -143 -174 -17 -55 -19
-77 -11 -98 5 -14 15 -46 21 -70 10 -38 9 -47 -8 -70 -10 -14 -36 -51 -57 -81
-21 -30 -42 -59 -46 -65 -8 -9 -46 -62 -252 -348 -49 -67 -141 -194 -205 -283
-64 -89 -135 -187 -157 -218 l-40 -57 -70 6 c-40 4 -81 2 -96 -4 -40 -15 -60
-5 -99 49 -173 240 -289 400 -365 504 -49 68 -97 134 -105 146 -20 29 -138
192 -149 205 -4 6 -25 35 -46 65 -21 30 -47 66 -57 80 -20 26 -20 34 8 126 15
48 14 54 -5 114 -27 81 -59 123 -124 160 -45 26 -62 30 -125 30 -78 0 -109
-11 -174 -62 -57 -44 -83 -108 -82 -198 1 -116 50 -191 160 -239 49 -22 148
-29 159 -11 3 6 17 10 30 10 18 0 39 -22 94 -97 39 -54 75 -103 80 -108 4 -6
25 -35 45 -64 21 -29 63 -88 94 -130 31 -43 64 -88 72 -101 8 -12 20 -28 25
-34 6 -6 46 -62 90 -124 44 -62 122 -170 174 -239 120 -163 121 -166 89 -201
-28 -30 -50 -68 -70 -122 -9 -25 -14 -137 -18 -395 -4 -309 -7 -360 -20 -362
-8 -1 -46 34 -85 78 -38 44 -83 94 -98 112 -16 17 -52 57 -80 87 -29 30 -72
78 -97 105 -66 74 -231 254 -260 284 -14 14 -57 62 -95 106 -39 44 -73 82 -76
85 -6 6 -223 244 -287 315 -24 28 -72 79 -106 115 -33 36 -79 85 -101 111 -42
47 -188 209 -240 265 -16 18 -55 61 -86 96 -31 34 -76 83 -99 108 -92 98 -137
147 -179 195 -166 188 -224 244 -284 275 -137 70 -329 170 -452 235 -71 37
-193 101 -270 140 -77 40 -192 99 -255 132 -63 33 -182 95 -265 138 -82 43
-188 98 -235 122 -47 25 -152 79 -235 122 -245 126 -412 214 -755 393 -69 36
-192 100 -275 142 -82 43 -158 85 -167 94 -13 11 -18 30 -18 73 0 94 -50 183
-131 235 -38 24 -148 40 -194 28z m116 -193 c31 -31 37 -67 18 -104 -17 -31
-28 -37 -76 -37 -35 0 -45 5 -62 29 -27 37 -27 66 0 99 39 50 79 54 120 13z
m11476 -9 c30 -35 29 -73 -2 -106 -18 -19 -34 -26 -62 -26 -44 0 -55 6 -72 39
-18 33 -5 86 27 111 34 28 79 20 109 -18z m-11575 -1189 c36 -35 37 -78 3
-116 -37 -39 -85 -37 -119 4 -33 39 -33 69 0 108 34 40 77 42 116 4z m11672
-4 c14 -17 26 -41 26 -54 0 -39 -46 -85 -85 -85 -46 0 -85 39 -85 85 0 79 94
114 144 54z m-6959 -511 c36 -31 36 -98 -1 -127 -38 -30 -80 -27 -115 8 -39
39 -38 75 2 112 38 35 79 38 114 7z m2237 -1 c16 -12 31 -36 34 -54 5 -27 1
-37 -24 -63 -36 -36 -77 -39 -116 -9 -21 16 -26 29 -26 62 0 77 73 113 132 64z
m-6783 -784 c39 -47 39 -67 2 -104 -42 -41 -101 -41 -130 0 -31 43 -27 84 10
115 45 38 81 34 118 -11z m11340 11 c37 -31 41 -72 10 -115 -29 -41 -88 -41
-130 0 -37 37 -37 57 2 104 37 45 73 49 118 11z m-11264 -822 c30 -45 24 -75
-21 -111 -32 -25 -61 -27 -92 -5 -33 23 -45 60 -32 100 14 41 33 53 82 54 33
0 41 -5 63 -38z m11185 28 c26 -14 43 -71 31 -103 -12 -31 -48 -57 -78 -57
-33 0 -85 51 -85 82 0 15 9 40 21 57 18 25 30 31 57 31 20 0 44 -4 54 -10z
m-11166 -921 c30 -14 50 -59 41 -91 -21 -68 -91 -89 -138 -42 -38 38 -42 59
-17 98 27 45 66 56 114 35z m11103 5 c22 -6 63 -60 63 -82 0 -6 -14 -27 -31
-47 -38 -43 -84 -48 -116 -12 -29 32 -35 56 -23 92 15 45 55 63 107 49z
m-10063 -1465 c45 -36 51 -66 21 -111 -22 -33 -30 -38 -64 -38 -56 0 -83 26
-85 79 -1 35 4 47 27 67 35 30 66 30 101 3z m9053 -3 c23 -20 28 -32 27 -67
-2 -53 -29 -79 -83 -79 -28 0 -43 7 -61 27 -34 39 -31 80 8 115 39 34 72 36
109 4z m-9790 -1094 c49 -59 14 -132 -62 -132 -54 0 -80 26 -80 81 0 81 91
114 142 51z m10538 13 c24 -20 30 -32 30 -64 0 -54 -26 -81 -78 -81 -75 0
-110 65 -70 126 31 48 74 55 118 19z m-9784 -1265 c10 -6 26 -24 35 -41 13
-25 13 -36 4 -60 -14 -34 -50 -59 -84 -59 -29 0 -86 53 -86 80 0 67 72 111
131 80z m9020 -19 c38 -38 37 -71 -2 -110 -34 -34 -67 -39 -103 -16 -38 25
-51 67 -32 103 31 60 90 70 137 23z m-7601 -1096 c33 -36 31 -91 -5 -122 -41
-36 -87 -28 -125 20 -59 75 64 172 130 102z m6186 7 c24 -19 44 -53 44 -75 0
-8 -10 -26 -23 -41 -54 -63 -149 -33 -149 48 0 72 75 112 128 68z"/>
</g>
</svg>
