<?xml version="1.0" encoding="UTF-8" standalone="no"?>
<svg
   width="2048"
   height="2048"
   viewBox="0 0 2048 2048"
   version="1.1"
   id="svg2"
   xmlns="http://www.w3.org/2000/svg"
   xmlns:svg="http://www.w3.org/2000/svg">
  <defs
     id="defs2" />
  <path
     d="m 899.87684,413.32749 c -6.20254,6.20134 -1.97435,16.31647 6.81812,16.31647 4.50644,0 7.2626,2.07555 47.7954,35.98418 23.65858,19.79058 43.89364,37.00207 44.96934,38.24644 3.3622,3.88969 56.7349,97.83742 56.2892,99.08058 -0.2325,0.64808 -19.3955,-18.83773 -42.5842,-43.30221 l -42.16152,-44.48151 -33.42799,-26.58941 c -23.80073,-18.93169 -33.42799,-27.28447 -33.42799,-29.00345 0,-3.3693 -6.42661,-9.45621 -9.98383,-9.45621 -8.672,0 -12.75685,11.54501 -5.97728,16.89469 2.66218,2.09963 4.31853,2.47669 8.43107,1.91774 l 5.11961,-0.69747 31.01876,24.52832 c 26.95803,21.31562 33.85929,27.50371 52.70298,47.2473 11.92563,12.49424 32.40659,33.92792 45.51389,47.63038 13.1062,13.70125 23.4056,25.14387 22.8877,25.42816 -0.5192,0.28429 -35.3614,-23.13819 -77.42772,-52.04889 -52.05733,-35.77699 -76.59889,-53.32096 -76.84103,-54.93032 -0.95405,-6.33385 -1.76717,-7.87817 -5.03889,-9.57065 -5.03046,-2.60196 -6.98314,-2.30081 -10.97643,1.69248 -4.17157,4.17157 -4.48356,8.18173 -0.98175,12.63277 2.16468,2.75254 3.36087,3.19463 8.13113,3.00309 5.51471,-0.22043 6.65789,0.50835 83.28935,53.10655 89.18834,61.21719 78.66244,53.78353 78.12394,55.17004 -0.2349,0.60592 -23.2092,-8.98279 -51.0551,-21.30598 l -50.6299,-22.407 -27.30374,-21.08071 c -24.56205,-18.96421 -27.31339,-21.4433 -27.40734,-24.69455 -0.26622,-9.21047 -10.58493,-13.11703 -16.85856,-6.38324 -3.16089,3.39218 -3.10669,8.22509 0.13854,12.35089 2.23214,2.83807 3.2934,3.22595 7.84203,2.86336 5.18705,-0.41197 5.6424,-0.11926 32.6462,20.97351 l 27.38565,21.3915 43.37327,19.18827 c 59.76925,26.44366 60.05115,26.57255 59.42835,27.19534 -0.6962,0.69626 -105.53609,-19.534 -108.81022,-20.9964 -1.32508,-0.59146 -13.25074,-9.96094 -26.50148,-20.82052 -21.81552,-17.88007 -24.0549,-20.0592 -23.69593,-23.06471 0.85287,-7.14456 -6.74342,-13.02307 -13.31217,-10.30185 -4.03665,1.67201 -5.75563,4.42454 -5.75563,9.21649 0,5.34968 2.61401,7.91069 8.85389,8.66959 4.99432,0.60833 8.08657,2.73809 31.46448,21.68544 l 25.92567,21.00964 19.57977,3.82103 c 10.76928,2.10205 35.71799,6.9458 55.44352,10.76321 l 35.8625,6.94218 -0.7878,4.36552 c -0.4337,2.40079 -0.9034,4.50645 -1.0432,4.67991 -0.2108,0.259 -121.64419,-24.70539 -130.42702,-26.81466 -1.49011,-0.35777 -2.71039,-1.36964 -2.71039,-2.2478 0,-2.85976 -4.30648,-5.5846 -8.82859,-5.5846 -5.51231,0 -9.24059,3.43315 -9.24059,8.5118 0,9.7947 8.34074,13.17003 17.07658,6.91207 1.63466,-1.17088 14.33971,1.12511 66.77526,12.06299 35.61565,7.43004 64.98895,13.74221 65.27435,14.02649 1.0433,1.04441 -2.4477,12.69301 -3.7897,12.64241 -0.7613,-0.0289 -36.8913,-3.70659 -80.28742,-8.17329 l -78.90211,-8.12149 -3.82224,-3.87283 c -4.26312,-4.31974 -6.17725,-4.68234 -11.14869,-2.11048 -5.5665,2.87781 -6.59645,9.0129 -2.40802,14.3373 3.2103,4.08242 9.9224,4.37514 13.93135,0.60832 l 2.73086,-2.56582 79.86338,8.11668 c 43.92389,4.46428 79.97669,8.21665 80.11519,8.34073 0.1397,0.12287 -0.052,1.39374 -0.4264,2.82482 -0.7806,2.98623 -0.2976,2.81157 -47.59307,17.10429 -17.65847,5.33643 -33.9207,9.70797 -36.1384,9.7164 -2.21768,0.007 -16.63449,-0.90225 -32.03906,-2.02254 -20.69766,-1.50577 -28.00724,-2.43453 -28.00724,-3.55963 0,-2.38633 -4.97866,-5.2738 -9.09242,-5.2738 -8.15041,0 -11.97385,10.36328 -6.01945,16.31648 3.7861,3.7873 7.95767,3.75357 12.53761,-0.10003 l 3.63431,-3.05852 30.86338,2.36346 30.86337,2.36224 38.77527,-11.78834 c 21.3265,-6.48322 38.962,-11.62933 39.1909,-11.43659 0.2289,0.19274 0.067,1.94425 -0.3626,3.89331 -0.565,2.57546 -6.8988,9.25744 -23.2044,24.47892 -12.3353,11.5161 -23.29486,21.55775 -24.35492,22.31545 -1.06006,0.7589 -13.2484,2.57305 -27.08693,4.03304 l -25.15953,2.65376 -4.56548,-2.56703 c -5.48701,-3.08259 -9.6622,-2.40682 -13.24472,2.14783 -4.76906,6.06282 -0.49148,14.63965 7.29995,14.63965 4.47635,0 9.67787,-3.43917 9.67787,-6.3989 0,-1.05403 7.95646,-2.29237 27.35554,-4.2559 l 27.35675,-2.7694 13.83507,-12.86285 c 7.6094,-7.07468 17.2874,-16.07314 21.5059,-19.99777 8.4335,-7.84443 8.0974,-8.16005 4.9004,4.58596 -1.3926,5.54966 -0.7252,8.86354 2.6464,13.14955 3.0249,3.84633 9.472,5.30511 14.4097,3.26089 4.9726,-2.05989 6.0146,-3.66564 8.3298,-12.83997 l 2.0359,-8.06488 10.6523,26.14972 10.6524,26.14974 23.3237,13.97591 c 20.9988,12.58337 23.3249,14.29754 23.3249,17.19825 0,6.34349 7.2025,11.00052 13.1834,8.52263 6.0833,-2.52005 7.7468,-9.64292 3.509,-15.02995 -2.2634,-2.87902 -3.2609,-3.22836 -8.107,-2.84288 -5.2016,0.41438 -6.8338,-0.34091 -27.835,-12.88454 l -22.3095,-13.32416 -11.6474,-28.26503 c -10.9041,-26.46533 -12.8858,-33.18225 -11.1331,-37.74893 0.5205,-1.3564 8.754,5.33522 30.8887,25.10652 l 30.1792,26.95562 20.0063,7.4963 c 36.6972,13.74824 38.6776,14.5734 38.6776,16.12132 0,0.84565 1.124,2.96697 2.4972,4.71245 3.2874,4.18 10.6693,4.45706 14.3204,0.53726 4.6631,-5.00396 2.0611,-13.8663 -4.6991,-16.01171 -1.3311,-0.42282 -4.2366,0.094 -6.4568,1.14799 -4.0174,1.9069 -4.1836,1.86114 -32.6642,-8.96231 l -28.6265,-10.87885 -31.0453,-27.70128 c -27.7807,-24.7885 -30.9838,-28.02651 -30.455,-30.78868 0.3241,-1.6973 1.1974,-2.86939 1.9419,-2.60557 0.7432,0.26501 35.0518,12.08707 76.2412,26.27018 72.1646,24.85115 74.9135,25.9076 75.5496,29.05043 0.8131,4.02461 6.6519,7.35416 10.9873,6.2664 3.7391,-0.9384 7.8216,-5.91103 7.8216,-9.52728 0,-1.47806 -1.124,-4.11496 -2.4972,-5.86044 -2.7273,-3.46808 -8.2818,-4.24867 -13.4556,-1.89124 -2.3851,1.08655 -14.3084,-2.68388 -77.8854,-24.62469 -41.2881,-14.24936 -75.3353,-26.17382 -75.6606,-26.49907 -0.7649,-0.76492 0.6867,-9.3767 1.9154,-11.36431 0.7288,-1.17931 15.2444,1.78885 63.4843,12.9785 34.3966,7.97935 63.7601,15.03597 65.2502,15.68164 1.4901,0.64567 2.7105,1.91413 2.7105,2.82 0,5.80262 11.8003,8.28894 15.8153,3.33075 2.9922,-3.69455 2.9151,-10.28738 -0.1554,-13.35795 -2.8309,-2.83084 -9.1948,-3.1874 -12.7279,-0.71193 -2.1612,1.51301 -9.4972,0.0506 -67.6499,-13.48563 l -65.2262,-15.18173 0.6843,-3.68009 c 0.377,-2.02495 1.0516,-4.09206 1.4997,-4.59439 0.4469,-0.50233 25.0572,5.11479 54.687,12.48341 l 53.8739,13.39648 32.5547,-8.12872 c 27.3495,-6.82894 33.0352,-7.90949 35.5553,-6.76149 7.6119,3.46808 14.9336,-0.50353 14.9336,-8.10101 0,-4.81604 -4.6161,-9.80555 -9.072,-9.80555 -3.3487,0 -10.2018,5.81707 -10.2018,8.65875 0,1.11186 -9.9513,4.09689 -31.8428,9.55499 l -31.8426,7.9384 -53.6848,-13.21702 c -29.5263,-7.26862 -53.6848,-13.56032 -53.686,-13.97952 0,-0.41921 25.3896,-0.32043 56.4241,0.22044 l 56.4241,0.98176 34.0941,-7.9408 c 32.4799,-7.56377 34.2025,-7.84083 36.3913,-5.86044 3.4066,3.0826 10.4103,2.70918 13.1748,-0.7047 5.1714,-6.38686 1.2974,-15.76718 -6.5121,-15.76718 -4.3969,0 -9.3033,2.85735 -9.3033,5.41835 0,0.91672 -0.5215,1.99002 -1.1599,2.38393 -0.6385,0.39391 -16.2225,4.20048 -34.6326,8.45879 l -33.4726,7.74204 -54.2076,-1.12149 c -29.8142,-0.61677 -54.7231,-1.13956 -55.352,-1.16004 -0.6613,-0.0229 -0.6191,-0.56376 0.1008,-1.28412 0.6855,-0.68543 42.9397,-8.30218 93.8996,-16.92721 68.0485,-11.5173 93.1334,-15.34435 94.4609,-14.41078 4.1679,2.92842 7.1734,3.56566 10.8222,2.29479 8.2637,-2.88144 8.3649,-14.43848 0.1554,-17.8391 -4.5474,-1.88402 -9.6381,0.27947 -11.9353,5.07382 -0.8709,1.81656 -2.1599,3.30184 -2.8646,3.30184 -0.7047,0 -41.4206,6.79884 -90.4796,15.10704 -49.0591,8.30942 -90.0569,14.89986 -91.1073,14.64568 -2.3526,-0.57098 -8.466,1.97437 62.1581,-25.87747 l 58.0418,-22.89006 39.2125,-9.38994 39.2125,-9.38996 2.8056,2.63448 c 3.8403,3.60782 9.7573,3.46808 13.5459,-0.32163 3.9788,-3.97762 3.7812,-8.45035 -0.5638,-12.79539 -4.722,-4.72208 -8.9526,-4.60764 -13.6013,0.36862 -3.462,3.70659 -5.5412,4.34985 -44.1502,13.66993 l -40.5171,9.78025 -55.4123,21.99864 c -60.4643,24.00551 -60.1619,23.89348 -59.4885,22.01429 0.2542,-0.70952 21.1891,-15.94064 46.5197,-33.84479 l 46.0584,-32.55585 55.7314,-14.96732 c 49.2361,-13.22182 56.0096,-14.77457 58.1093,-13.31698 3.421,2.37429 8.2564,2.03097 11.916,-0.84805 4.4835,-3.52591 4.4835,-10.75358 0,-14.27948 -1.7455,-1.37326 -4.498,-2.49716 -6.1158,-2.49716 -2.72,0 -7.6601,4.01738 -10.5861,8.60816 -0.7902,1.24075 -20.252,6.97832 -56.5566,16.67424 l -55.3507,14.78301 -43.2553,30.63329 c -23.7899,16.84771 -43.4395,30.44658 -43.6659,30.22131 -0.2266,-0.22646 0.6601,-5.27379 1.9707,-11.21494 1.3937,-6.32421 2.0864,-12.60386 1.6684,-15.148 -0.7071,-4.30166 -0.5603,-4.48236 14.6432,-18.06918 15.1456,-13.53503 15.4383,-13.72415 21.2747,-13.7374 4.7485,-0.0108 6.3712,-0.57219 8.2095,-2.84409 5.2268,-6.45431 1.1805,-15.81415 -6.8362,-15.81415 -5.1208,0 -8.7095,3.19825 -9.8309,8.76234 -0.783,3.88007 -3.2923,6.66151 -17.1501,19.00879 -14.948,13.31699 -16.5212,14.39993 -19.8761,13.6832 -2.0033,-0.42885 -3.6777,-0.85167 -3.7211,-0.93961 -0.044,-0.088 -4.0089,-9.26226 -8.8105,-20.38686 -8.1298,-18.8305 -8.6395,-20.50972 -7.3771,-24.33437 3.1839,-9.64413 -8.5913,-17.16693 -15.4467,-9.87059 -5.3713,5.71829 -2.6477,14.19395 5.2401,16.30322 2.9043,0.77698 4.3402,3.27294 11.9811,20.8157 l 8.6804,19.93273 -2.5778,2.99707 c -1.4179,1.64791 -3.2694,6.20858 -4.1162,10.1332 -0.8457,3.92583 -2.0732,9.22733 -2.7284,11.78352 l -1.1914,4.64499 -26.7207,-46.62814 -26.7219,-46.62814 -44.71772,-37.37912 c -35.18552,-29.41181 -44.59113,-37.86097 -44.12615,-39.63898 0.89142,-3.41266 -1.89125,-8.98641 -5.25452,-10.51746 -4.5691,-2.08279 -7.51678,-1.64551 -10.75719,1.59611 M 606.50314,587.55298 c -1.80571,1.80572 -2.29961,3.36689 -1.75271,5.54483 0.5999,2.38995 -1.57804,7.13854 -10.31389,22.48168 -24.40906,42.87216 -21.25659,34.80607 -26.90743,68.83998 l -4.99913,30.11531 -3.27294,-5.11839 c -1.79849,-2.81518 -4.34383,-5.78816 -5.65445,-6.60609 -2.20444,-1.37687 -2.32491,-2.38996 -1.62502,-13.5531 0.59869,-9.52246 1.22991,-12.51954 2.99948,-14.22045 2.73929,-2.63328 2.87903,-6.07004 0.34934,-8.60094 -2.51523,-2.51402 -5.71348,-2.39356 -8.16004,0.3108 -2.38032,2.62966 -2.5309,5.03768 -0.48788,7.82035 2.2972,3.12957 0.95526,26.05575 -1.61899,27.67235 -2.75013,1.725 -23.33816,-6.44106 -26.5581,-10.53434 -2.84528,-3.61744 -5.91103,-3.92342 -8.67802,-0.86611 -4.68956,5.18223 -1.16967,10.61143 6.1122,9.4285 3.3669,-0.54569 6.95784,0.21923 14.52883,3.09465 8.78283,3.33677 10.27173,4.33299 11.74859,7.86853 0.92996,2.22612 2.78988,5.44364 4.13182,7.15058 1.34314,1.70693 2.44175,3.47169 2.44175,3.92221 0,0.45052 -12.87369,-2.64171 -28.60955,-6.8699 -32.53056,-8.74188 -26.60506,-8.42868 -72.9718,-3.8644 -21.19033,2.08518 -24.08623,2.14662 -25.68354,0.54931 -4.0222,-4.02221 -10.51385,-0.82155 -9.86337,4.86301 0.54931,4.79798 5.82551,6.84702 9.37068,3.63913 2.46585,-2.23213 3.03563,-2.30803 51.98264,-7.00361 l 16.37671,-1.57081 30.00086,7.96851 c 16.49958,4.38358 30.81279,8.28292 31.8066,8.66598 0.9938,0.38307 -14.72639,0.40716 -34.93376,0.053 -32.93652,-0.5758 -38.9126,-0.37222 -57.719,1.97677 -13.14956,1.64189 -23.33576,2.32491 -27.29532,1.82981 -5.65445,-0.7059 -6.46275,-0.51799 -7.69868,1.79125 -3.93065,7.34574 6.30374,12.84237 10.4464,5.61109 0.64929,-1.13354 7.35536,-2.47909 20.93496,-4.20169 16.32249,-2.07072 26.24489,-2.52125 54.20756,-2.46463 18.82568,0.0374 36.39616,0.46016 39.0463,0.93959 4.57151,0.82516 4.23301,0.97574 -6.62537,2.95612 -6.29409,1.14799 -29.3323,5.53881 -51.19603,9.75736 -35.61556,6.87231 -39.96662,7.48185 -41.81209,5.86525 -4.90157,-4.29443 -11.42815,2.04665 -8.23954,8.00586 1.71657,3.20789 7.72155,3.40544 9.92961,0.32766 1.25521,-1.7479 12.46413,-4.29083 55.17968,-12.51833 29.48289,-5.67855 53.7462,-10.19705 53.91846,-10.04166 0.17225,0.15661 -13.02427,5.52797 -29.32389,11.93771 -26.48701,10.41509 -31.06695,11.84616 -43.07694,13.45553 -23.42971,3.13801 -26.9002,3.37893 -27.80004,1.92377 -2.10687,-3.40906 -10.33437,-0.10722 -10.33437,4.14747 0,2.26587 4.33058,6.53985 6.62536,6.53985 0.99381,0 2.88265,-1.07573 4.19688,-2.38996 1.91654,-1.91654 6.2676,-2.89589 21.98297,-4.94855 19.49665,-2.54534 19.73396,-2.6128 48.40976,-13.86629 15.84908,-6.22061 29.00104,-11.1258 29.2263,-10.90053 0.22406,0.22525 -2.17191,2.06349 -5.32559,4.08483 -3.15488,2.02134 -12.51111,8.37206 -20.79282,14.11204 -25.13664,17.4223 -21.71915,15.92859 -41.61212,18.19206 -16.6875,1.89726 -18.02582,1.89726 -21.23973,-10e-4 -6.35673,-3.75478 -12.69781,1.41662 -8.8804,7.24212 2.14903,3.28016 6.12184,3.8114 9.00448,1.20341 1.57804,-1.42747 29.6708,-5.50026 37.94408,-5.50026 1.00224,0 7.93719,-4.1812 15.41061,-9.29117 41.18088,-28.15421 41.15196,-28.13734 42.26262,-26.15093 0.58304,1.04078 0.86972,2.08398 0.63724,2.31646 -0.23128,0.2325 -14.68422,9.91758 -32.11618,21.52281 -18.45706,12.28705 -32.41852,20.82173 -33.42678,20.43505 -3.07899,-1.18173 -7.92514,3.00189 -7.50714,6.48082 0.77577,6.47117 9.35502,6.89399 11.55945,0.56858 0.90588,-2.59715 6.72415,-7.08072 24.51387,-18.88713 42.28912,-28.06626 39.7257,-26.5858 41.59767,-24.02479 0.90105,1.23112 1.45879,2.80193 1.24075,3.49217 -0.21803,0.68905 -6.59525,6.3194 -14.17105,12.51111 -7.57581,6.19171 -18.65222,15.30461 -24.61506,20.24954 -26.04733,21.60351 -32.33058,26.27501 -34.88918,25.93891 -1.43229,-0.18671 -3.59216,0.77698 -4.84616,2.16228 -1.79848,1.98762 -2.02857,3.17415 -1.11789,5.77733 2.06712,5.91464 11.34023,4.71846 11.34023,-1.46241 0,-1.91051 3.86199,-5.7737 13.99881,-14.00723 7.69867,-6.25315 17.94871,-14.62158 22.7768,-18.59681 28.53486,-23.49355 34.64827,-28.2337 35.63484,-27.62416 0.94202,0.58303 -9.8718,22.62502 -19.016,38.76562 -4.82207,8.50939 -26.91707,27.98074 -31.77166,27.9976 -3.92704,0.0133 -5.96282,2.07435 -5.96282,6.03391 0,3.7873 2.0117,6.02306 5.42074,6.02306 3.25487,0 5.42076,-2.19721 5.42076,-5.49905 0,-1.76597 2.82362,-4.96422 8.73345,-9.89348 17.62227,-14.69989 20.12907,-17.82827 30.41645,-37.96939 5.30029,-10.37652 10.17898,-18.68956 10.84152,-18.47394 0.76131,0.24815 1.0468,7.65893 0.77456,20.15317 l -0.43125,19.76047 -9.18155,11.30166 c -5.44004,6.69524 -10.54638,11.77751 -12.52676,12.46774 -4.30048,1.49975 -5.62795,6.15196 -2.68389,9.40562 1.1757,1.29857 3.05249,2.36104 4.17278,2.36104 3.21391,0 6.39891,-4.31974 5.73757,-7.7806 -0.33849,-1.77078 0.11685,-3.62587 1.08897,-4.43176 0.91912,-0.76252 5.45088,-6.12666 10.07056,-11.92085 l 8.39976,-10.53313 v -13.28567 c 0,-16.76579 0.46137,-18.16434 4.43659,-13.44106 6.96628,8.2793 17.47531,0.82155 12.52436,-8.88763 l -2.15867,-4.23301 6.15075,2.42368 c 3.38255,1.33351 9.85493,3.99931 14.38307,5.92669 l 8.23112,3.50181 14.03132,-3.74393 c 12.20995,-3.25848 14.54931,-3.55723 18.02823,-2.29961 3.33919,1.20823 4.48236,1.12752 6.94821,-0.48786 3.18981,-2.09 3.66563,-4.31854 1.70573,-7.98177 -1.66236,-3.10549 -7.71073,-3.10549 -9.88505,0 -1.13475,1.6202 -6.08209,3.45362 -16.23817,6.01704 l -14.60473,3.68732 -10.03201,-4.31612 c -5.51712,-2.3755 -12.80262,-5.36535 -16.1912,-6.64585 -3.38857,-1.2793 -7.07107,-3.33316 -8.18413,-4.56307 -1.95749,-2.16348 -1.55757,-2.26468 12.18345,-3.08863 32.31131,-1.93942 33.33282,-2.14421 49.74326,-9.98142 12.50749,-5.97246 15.51541,-6.98314 17.76322,-5.96524 5.09189,2.30683 10.11031,-5.73516 6.08811,-9.75736 -2.46464,-2.46463 -6.79281,-1.65754 -8.97678,1.67682 -1.13233,1.72742 -5.58217,4.75581 -9.96575,6.77956 -23.54777,10.87645 -22.2793,10.49579 -39.03426,11.72208 -24.64999,1.80451 -32.52815,1.86956 -33.05938,0.27586 -0.25779,-0.77336 0.79504,-1.88763 2.33936,-2.47669 1.5443,-0.58784 20.27121,-9.78506 41.61574,-20.43625 21.34452,-10.65118 39.12943,-18.84615 39.52212,-18.21132 2.48512,4.01978 9.77543,-1.63105 8.52626,-6.6073 -1.34075,-5.34366 -9.89831,-5.72071 -11.26434,-0.4963 -0.51799,1.98159 -10.20548,7.25297 -42.27467,23.00328 -38.82465,19.0678 -41.7097,20.28688 -43.1986,18.25228 -0.87696,-1.19979 -1.4118,-2.72965 -1.18896,-3.40062 0.34574,-1.03476 22.0938,-15.22028 43.59493,-28.43487 3.31268,-2.0358 8.73344,-5.39185 12.04612,-7.45897 3.31269,-2.06711 8.12753,-4.07038 10.69817,-4.45224 2.9525,-0.43848 5.32439,-1.67201 6.43503,-3.34882 1.61298,-2.43453 1.49975,-2.91276 -1.35519,-5.76889 -2.59352,-2.59353 -3.5271,-2.89228 -5.5906,-1.78765 -1.36242,0.7288 -3.03442,2.55017 -3.71623,4.0463 -0.72156,1.58286 -10.00551,8.2287 -22.19258,15.88642 -11.52452,7.24213 -24.08501,15.18655 -27.91207,17.6548 -12.75805,8.22751 -15.59129,9.49476 -17.11633,7.65773 -1.38169,-1.66478 2.36586,-4.18122 41.47601,-27.84582 11.84495,-7.16745 12.16176,-7.47824 19.00999,-18.68234 3.83066,-6.2664 8.29254,-13.92773 9.91396,-17.026 1.6214,-3.09825 4.0764,-5.99052 5.45568,-6.42901 1.37928,-0.43728 3.10309,-2.10204 3.83067,-3.69815 1.07451,-2.35864 0.91309,-3.35365 -0.8625,-5.31596 -4.49923,-4.97023 -11.1523,-1.83583 -9.85614,4.64258 0.55773,2.79349 -1.08535,6.43504 -8.77319,19.44123 l -9.46103,16.00328 -11.8558,7.23008 c -6.52177,3.97643 -17.27775,10.58975 -23.90311,14.69748 -6.62537,4.10653 -13.20496,8.08174 -14.62038,8.83222 -1.41663,0.75047 7.19875,-8.24437 19.14249,-19.98693 21.5481,-21.18432 24.2874,-24.58734 38.84392,-48.2616 3.32112,-5.40027 6.86027,-9.80313 7.89022,-9.81276 5.21718,-0.0506 6.43865,-7.29393 1.74669,-10.3681 -2.78868,-1.8274 -3.23439,-1.8274 -6.02066,-10e-4 -2.31887,1.51902 -2.94407,2.86216 -2.72483,5.86044 0.22286,3.06332 -1.94183,7.46377 -10.2127,20.75306 -10.04407,16.1406 -11.46429,17.79574 -33.05096,38.5476 -12.40509,11.92566 -22.06608,20.86991 -21.46859,19.8761 0.91188,-1.5154 31.42833,-45.13803 54.77733,-78.29981 3.71743,-5.27981 7.92394,-9.78506 10.12115,-10.8415 4.93771,-2.37188 5.35812,-8.16728 0.76012,-10.45966 -4.23421,-2.11047 -7.81793,0.41559 -7.90949,5.57737 -0.0674,3.79934 -0.81552,4.97022 -25.84375,40.41835 -3.74273,5.3003 -10.79332,15.32869 -15.66719,22.28533 -14.5457,20.76028 -17.11031,24.22716 -17.5777,23.75978 -0.47703,-0.47703 23.31527,-57.04322 27.12064,-64.47689 5.18104,-10.12477 22.97317,-38.25126 24.72587,-39.08846 1.03959,-0.4975 2.83928,-1.36965 3.99811,-1.93823 1.38531,-0.6806 2.10808,-2.42488 2.10808,-5.09069 0,-3.37531 -0.57701,-4.2583 -3.43917,-5.26536 -2.97057,-1.04439 -3.75598,-0.81672 -5.77371,1.67562 -1.28532,1.58648 -2.0358,3.66804 -1.66839,4.62571 0.37463,0.97573 -4.82929,10.81501 -11.84134,22.38772 -10.01515,16.5321 -15.23835,27.05078 -26.20634,52.77648 -7.53365,17.67166 -13.89882,31.92825 -14.14456,31.68371 -0.24454,-0.24574 1.85631,-14.37946 4.67029,-31.40905 l 5.11478,-30.96337 14.11926,-24.81261 c 7.76493,-13.64704 15.00947,-26.54363 16.09964,-28.66013 1.08898,-2.1153 3.4729,-4.55946 5.29789,-5.42918 4.43056,-2.1141 5.10755,-7.22045 1.31062,-9.88023 -3.53674,-2.47669 -4.11375,-2.42971 -7.13372,0.59025 M 1420.9814,807.2241 c -2.1237,2.55859 -1.0505,7.12166 1.9876,8.45517 1.4564,0.63845 9.5044,11.30649 17.8861,23.70557 l 15.2396,22.54311 5.9555,23.72726 c 3.2754,13.05076 5.7895,23.89228 5.5882,24.09345 -0.2012,0.20116 -2.5273,-3.77285 -5.1689,-8.83222 -16.8056,-32.18483 -22.6095,-42.16143 -32.2077,-55.36278 -5.9159,-8.13715 -10.8765,-15.46722 -11.0235,-16.28997 -0.9529,-5.34366 -2.2249,-6.91569 -5.5978,-6.91569 -2.7936,0 -3.6741,0.65291 -4.3125,3.19825 -0.9697,3.86199 0.7143,6.90846 4.0981,7.41319 4.5257,0.67698 22.6383,27.66151 37.1201,55.30254 7.3649,14.05783 12.9605,25.29325 12.434,24.96801 -0.5264,-0.32525 -12.3714,-14.41439 -26.3232,-31.31029 -16.5935,-20.09293 -25.368,-31.66685 -25.368,-33.46051 0,-3.45604 -2.1309,-5.63277 -5.5146,-5.63277 -5.9183,0 -7.035,8.6443 -1.3022,10.08381 1.5636,0.3927 6.2965,4.92204 10.5211,10.07055 6.0338,7.35417 27.5049,33.2967 45.5608,55.05079 1.8454,2.22251 1.819,2.24901 -0.5842,0.60231 -1.3829,-0.94803 -9.9538,-7.95767 -19.0449,-15.57685 -13.57,-11.37154 -18.1716,-16.11289 -25.6884,-26.47135 -5.0365,-6.93977 -9.2948,-13.87714 -9.4634,-15.41663 -0.671,-6.10377 -5.6388,-8.1998 -9.4514,-3.98727 -2.5538,2.8224 -0.9203,6.8422 3.4572,8.50698 1.5383,0.58543 7.0627,6.96988 12.2738,14.18912 7.4722,10.35003 12.1497,15.32629 22.1239,23.53933 26.2269,21.5963 26.234,21.624 2.6116,9.76459 l -20.8783,-10.48254 -8.5817,-12.46533 c -5.1232,-7.4445 -8.6021,-13.7398 -8.6347,-15.62863 -0.03,-1.8021 -1.113,-3.86802 -2.5175,-4.8052 -2.107,-1.40579 -2.8514,-1.37447 -5.1197,0.21442 -3.6836,2.58028 -3.3151,5.90621 0.9938,8.97556 2.0069,1.42868 7.4349,8.0685 12.0606,14.75409 l 8.4106,12.15455 23.6177,12.13165 c 12.9893,6.67113 23.4176,12.67252 23.1743,13.33505 -0.6059,1.65033 0.3469,2.0888 -29.4625,-13.56514 -16.9801,-8.91654 -27.0062,-14.87575 -27.706,-16.46704 -2.2599,-5.1425 -10.1296,-3.25366 -10.1296,2.4309 0,3.19464 3.2706,5.41714 7.4602,5.07022 2.6212,-0.21683 57.6129,27.57478 57.5708,29.095 -0.01,0.36499 -0.4878,1.40457 -1.0625,2.31044 -1.5021,2.37188 -70.3349,-25.20651 -74.2378,-29.74308 -2.4092,-2.80072 -3.0357,-2.98262 -5.8509,-1.69971 -6.0988,2.77783 -3.1584,10.49217 3.6994,9.70557 3.6584,-0.41922 72.6514,26.40751 72.6514,28.24935 0,0.56377 -9.8935,0.85528 -21.9841,0.64929 l -21.9842,-0.37583 -11.7751,-4.65342 c -6.776,-2.67785 -12.2931,-5.61952 -12.993,-6.92652 -2.4152,-4.51489 -9.5634,-2.09242 -9.5634,3.24161 0,3.73068 2.8658,5.68216 7.0072,4.77268 2.5177,-0.55293 7.1169,0.59507 16.4755,4.11013 l 12.9821,4.87628 h 19.1823 c 12.8628,0 18.928,0.40956 18.4136,1.24195 -0.4216,0.68301 -6.7747,4.25468 -14.118,7.93718 l -13.3507,6.69524 -11.5511,-2.05025 c -6.353,-1.12872 -12.452,-2.84409 -13.553,-3.81139 -1.0999,-0.96851 -3.5392,-1.58527 -5.4208,-1.36965 -2.8802,0.33007 -3.4777,1.01068 -3.7969,4.31733 -0.306,3.17416 0.1554,4.13183 2.4092,5.00397 1.8394,0.71315 3.5549,0.59151 5.045,-0.35657 1.7839,-1.13595 4.963,-0.96369 15.1744,0.8228 l 12.9171,2.25983 10.2211,-5.52679 c 5.622,-3.04044 10.6031,-5.52676 11.068,-5.52676 0.4662,0 0.2867,1.04802 -0.3999,2.32973 -1.8504,3.45843 -1.5275,5.82188 1.1625,8.51181 3.0969,3.09708 6.5759,3.06093 9.7368,-0.0997 1.3805,-1.38052 2.6622,-2.32975 2.8477,-2.10807 0.1868,0.22043 0.8806,5.38215 1.5419,11.4691 l 1.2034,11.06917 8.5974,9.51992 c 4.728,5.2376 8.5973,10.5825 8.5973,11.8799 0,4.8618 6.5157,7.2035 9.6236,3.4585 2.1286,-2.5648 0.542,-7.4506 -2.6863,-8.2686 -1.4973,-0.3794 -6.4857,-4.4908 -11.0884,-9.1346 l -8.3661,-8.44413 -1.5262,-12.38102 c -1.8407,-14.93596 -1.9876,-20.58197 -0.5096,-19.66888 0.6083,0.37583 5.4871,7.59027 10.8416,16.03216 9.2104,14.52047 10.3223,15.76958 20.6192,23.17792 5.9858,4.30635 11.9306,9.59225 13.2099,11.74485 3.0886,5.2003 8.0721,5.1859 9.9958,-0.028 0.9746,-2.6394 -2.9766,-6.8988 -6.3976,-6.8988 -1.3323,0 -7.4313,-3.7006 -13.5519,-8.22373 -10.5922,-7.82635 -11.639,-9.02498 -21.6698,-24.79934 -5.7966,-9.11533 -10.5403,-17.11155 -10.5403,-17.76807 0,-0.65651 5.0136,2.28996 11.1426,6.54707 41.3808,28.74329 49.93,35.08556 52.4187,38.87882 2.7983,4.26905 5.9206,5.26885 8.4744,2.71505 3.4452,-3.44515 0.818,-9.39576 -4.1487,-9.39576 -1.9321,0 -53.1173,-34.27004 -64.1612,-42.95771 -0.2699,-0.21201 0,-1.45758 0.6023,-2.767 1.0131,-2.21045 3.0753,-1.27327 28.5012,12.93755 15.4093,8.61297 27.7072,16.24422 28.0891,17.42956 1.766,5.47979 10.1537,4.89673 10.1537,-0.70595 0,-3.5427 -2.1563,-5.6195 -5.8328,-5.6195 -4.0342,0 -58.3574,-30.25143 -56.9143,-31.69455 0.689,-0.68904 10.1296,4.03304 24.5488,12.2762 l 23.4298,13.39529 h 15.2563 c 11.8401,0 15.9033,0.42402 18.1451,1.89245 4.3053,2.8212 8.1372,0.47099 7.6372,-4.68233 -0.324,-3.35605 -0.8612,-3.88247 -4.2943,-4.21374 -2.4249,-0.23369 -4.1548,0.22647 -4.5295,1.20461 -0.471,1.2263 -4.1474,1.4877 -16.32,1.15884 l -15.7118,-0.42402 -20.6808,-11.92326 c -11.3739,-6.5579 -20.37,-11.92325 -19.9906,-11.92325 0.3795,0 2.2611,0.50112 4.1825,1.11307 35.6385,11.36431 43.2239,13.1399 59.3428,13.8952 11.6908,0.5481 16.5791,1.23593 17.8548,2.51041 2.0816,2.08157 3.3537,2.18156 6.4808,0.50835 2.6044,-1.39374 3.097,-5.93634 0.8842,-8.14921 -1.8081,-1.80812 -6.5724,-1.88642 -7.6602,-0.12527 -0.5685,0.91912 -5.8074,1.07089 -17.2367,0.4999 -15.3143,-0.76372 -17.9392,-1.27808 -38.9271,-7.62398 -12.3786,-3.74273 -22.3251,-6.98555 -22.1047,-7.2072 0.2205,-0.22044 19.0221,1.62623 41.7796,4.10412 28.1072,3.05971 42.0205,5.04732 43.3806,6.19412 1.0997,0.92875 3.5391,1.51299 5.4207,1.29736 2.8803,-0.33007 3.4777,-1.01067 3.797,-4.31733 0.3059,-3.17415 -0.1543,-4.13061 -2.4092,-5.00155 -1.8829,-0.72879 -3.5887,-0.5722 -5.2558,0.48064 -2.0647,1.3046 -8.9924,0.82275 -42.4891,-2.95492 -22.0131,-2.4827 -40.2606,-4.75219 -40.5509,-5.0425 -0.2915,-0.29031 12.3244,-1.73464 28.0337,-3.2103 34.4929,-3.23799 62.7881,-2.73807 66.7055,1.17932 2.8513,2.85131 4.9245,2.79711 7.6385,-0.20117 1.8044,-1.99484 1.9466,-2.93684 0.8142,-5.42075 -1.3829,-3.03562 -5.7315,-4.10291 -8.107,-1.98761 -0.6288,0.56014 -10.0103,0.59507 -20.8482,0.0759 -16.5791,-0.79264 -24.1224,-0.50474 -47.5822,1.81775 -15.3323,1.51782 -28.0289,2.64293 -28.2133,2.50078 -0.183,-0.14335 10.3875,-3.98365 23.49,-8.53588 l 23.8248,-8.27448 27.6338,0.39992 c 21.7662,0.31561 28.2085,0.77577 30.3358,2.17072 3.8391,2.51402 7.6818,0.30116 7.6818,-4.42454 0,-4.7004 -3.2669,-6.48202 -7.6854,-4.18965 -2.5032,1.29858 -10.3043,1.78163 -33.0305,2.04183 l -29.7539,0.3421 -20.9061,7.52281 c -16.3815,5.89417 -20.7097,7.06746 -19.999,5.41954 0.4987,-1.15642 1.5047,-3.93305 2.2346,-6.17001 1.1251,-3.45002 2.6212,-4.66066 9.8285,-7.95647 5.7965,-2.65136 9.691,-3.71383 12.24,-3.34039 2.92,0.42884 4.0415,-0.0144 5.1172,-2.02616 1.9141,-3.57649 0.4734,-7.14937 -3.2596,-8.08656 -2.4635,-0.61797 -3.6778,-0.12769 -5.6413,2.27671 -3.0874,3.78008 -19.0039,11.89314 -20.9602,10.68371 -1.9286,-1.19136 -4.1595,-19.55688 -2.8164,-23.18637 1.3058,-3.52952 0.6565,-5.52315 -2.3201,-7.11685 -3.5187,-1.88281 -7.1229,0.5758 -7.1229,4.85699 0,1.9322 0.7987,3.95836 1.7744,4.50525 1.0986,0.61436 2.302,4.54501 3.1633,10.33678 1.1854,7.96851 1.124,9.64894 -0.4192,11.41491 -0.9938,1.13835 -2.6465,3.69575 -3.6729,5.68336 -2.2803,4.41852 -1.7454,5.79177 -8.684,-22.28533 l -5.5074,-22.28533 -15.548,-23.00689 c -11.0463,-16.34659 -15.3637,-23.70436 -14.9156,-25.41853 1.254,-4.79797 -5.9652,-8.46721 -9.1381,-4.64377"
     stroke="none"
     fill="currentColor"
     fill-rule="evenodd"
     id="path1"
     style="stroke-width:1.20461" />
  <path
     d="m 1026.7166,763.41795 c -3.0874,1.79849 -3.0622,16.17313 0.031,17.82827 1.3563,0.72638 2.8982,0.72036 4.2161,-0.0168 3.7801,-2.11651 2.4501,-19.29308 -1.4769,-19.07625 -0.3649,0.0205 -1.6105,0.58906 -2.7706,1.26484 m -10.0995,24.25729 c -0.3192,0.51677 -0.8914,4.64981 -1.2721,9.18396 -0.5914,7.05301 -0.3939,8.3576 1.3625,9.03218 4.121,1.58167 6.3326,-1.14437 7.2084,-8.89004 0.5493,-4.85458 0.371,-7.92032 -0.5216,-8.99724 -1.4263,-1.71778 -5.7882,-1.92979 -6.7772,-0.32886 m -8.4118,23.54776 c -0.7409,0.48666 -1.7274,4.50404 -2.1948,8.92738 -0.7601,7.20961 -0.6071,8.1721 1.4804,9.28997 1.6937,0.90587 2.9261,0.8095 4.5149,-0.35174 2.8803,-2.10688 4.156,-16.08881 1.6143,-17.69817 -2.0274,-1.28412 -3.6404,-1.33471 -5.4148,-0.16744 m -385.93735,19.4581 c 0,0.60834 -0.30236,1.89365 -0.67097,2.85493 -0.43005,1.1203 1.57442,3.53554 5.57856,6.72415 7.03011,5.59663 7.42764,5.7183 10.06454,3.0826 2.97057,-2.97178 2.31164,-4.5197 -3.96077,-9.30442 -5.47979,-4.1776 -11.01136,-5.86526 -11.01136,-3.35726 m 378.78185,6.46877 c -0.3614,0.94321 -0.4938,5.17984 -0.2938,9.41646 0.3614,7.67578 0.3758,7.70349 3.9764,7.70349 h 3.6139 v -9.03459 c 0,-8.96472 -0.025,-9.037 -3.3199,-9.41645 -2.0431,-0.23491 -3.5718,0.27706 -3.9766,1.33109 m -363.63606,14.79382 c -2.40681,2.40803 -1.10222,5.03408 4.99673,10.06214 5.36534,4.42213 9.4562,4.82568 10.6548,1.04921 0.68903,-2.17312 -0.23249,-3.59938 -5.0389,-7.80588 -6.48563,-5.67373 -7.82516,-6.09173 -10.61263,-3.30547 m 358.52515,9.1924 c -0.81667,0.81673 -1.44554,4.72931 -1.44554,8.99243 0,5.99657 0.43971,7.7818 2.13944,8.69129 4.31851,2.31164 6.29281,-0.48186 6.29281,-8.90812 0,-6.40613 -0.3987,-7.9408 -2.3296,-8.97436 -2.9044,-1.55395 -2.9044,-1.55395 -4.65711,0.19876 m -345.27688,12.49299 c -2.5887,2.58992 -2.53089,2.76459 3.02719,9.25022 5.7448,6.70127 10.19464,7.71434 11.47514,2.61281 0.64447,-2.56944 -0.12769,-4.03305 -4.44382,-8.43228 -5.68576,-5.79179 -7.1843,-6.30374 -10.05851,-3.43075 m 339.25382,12.80383 c -0.81678,0.81673 -1.44554,4.72931 -1.44554,8.99244 0,5.99655 0.4396,7.78179 2.13933,8.69127 4.31856,2.31165 6.29293,-0.48184 6.29293,-8.9081 0,-6.40613 -0.39878,-7.94081 -2.32974,-8.97437 -2.90428,-1.55395 -2.90428,-1.55395 -4.65698,0.19876 m -329.1435,10.6813 c -1.4612,2.72965 -0.69868,4.3089 5.70745,11.82448 2.6887,3.15367 4.05713,3.88969 6.05559,3.25606 4.17639,-1.32628 3.78007,-4.51248 -1.40097,-11.24625 -5.18706,-6.74102 -8.20823,-7.8589 -10.36207,-3.83429 m 324.06478,14.99983 c -1.03596,1.24798 -1.29254,4.01257 -0.80827,8.70573 0.80712,7.81553 3.20189,10.69094 7.14576,8.58046 2.13695,-1.14438 2.28757,-2.05868 1.51784,-9.28877 -0.46983,-4.41128 -1.10109,-8.42626 -1.40461,-8.92377 -0.94559,-1.55154 -4.86059,-0.98898 -6.45072,0.92635 m -313.81354,9.11169 c -0.59025,1.85992 0.43246,3.96197 3.95836,8.13113 5.49544,6.49647 8.92136,7.63363 10.75839,3.57047 1.07452,-2.3779 0.58063,-3.57047 -3.51626,-8.4889 -5.27138,-6.32541 -9.80072,-7.6252 -11.20049,-3.2127 m 115.99695,15.09018 c -1.89846,4.16676 0.48546,5.93995 9.49958,7.06626 7.418,0.92635 9.26949,0.005 8.65031,-4.30529 -0.3409,-2.37309 -1.5166,-3.03442 -7.63121,-4.30167 -9.48753,-1.96593 -8.8804,-2.05507 -10.51868,1.5407 m -18.00654,2.54053 c -7.75048,3.37652 -8.97919,5.15694 -6.04715,8.75873 l 2.04784,2.51403 7.52882,-3.25486 c 6.11099,-2.64292 7.52882,-3.77766 7.52882,-6.02789 0,-4.69316 -3.43435,-5.31113 -11.05833,-1.99001 m 212.5129,-1.76957 c -0.81678,1.01307 -0.80827,3.98605 0.028,9.08518 1.29493,7.90707 3.56805,10.63431 7.5782,9.09482 1.75146,-0.67217 1.92618,-1.90208 1.23229,-8.67682 -0.44449,-4.34022 -1.39008,-8.5937 -2.1008,-9.45139 -1.64426,-1.98038 -5.15933,-2.00688 -6.73742,-0.0518 m -298.62218,6.02305 c -1.75995,2.81759 -1.31785,3.95836 3.8415,9.90553 4.8329,5.57013 5.3545,5.85562 8.28532,4.52091 4.22819,-1.92738 3.95113,-3.50904 -1.79246,-10.2103 -4.84496,-5.65324 -8.50456,-7.14576 -10.33436,-4.21614 m 127.48894,2.7405 c -1.50095,3.29461 -1.04922,3.77525 7.66856,8.1492 6.7639,3.3946 10.19464,2.72965 10.19464,-1.97556 0,-2.03701 -1.42506,-3.41388 -5.72191,-5.52917 -7.92154,-3.90054 -10.59336,-4.04269 -12.14129,-0.64447 m -57.04201,6.88075 c -2.60196,2.05266 -8.21305,11.27757 -8.21305,13.50129 0,0.98416 1.12872,2.39236 2.5092,3.13199 3.14886,1.68525 5.32199,-0.10117 9.52006,-7.82636 2.29238,-4.21615 2.69592,-5.98572 1.72139,-7.53124 -1.72621,-2.73688 -3.24282,-3.08742 -5.5376,-1.27568 m 78.86115,6.58441 c -0.47462,1.23472 0.65892,4.71123 2.8453,8.73343 2.78867,5.12922 4.27999,6.68197 6.41576,6.68197 5.18706,0 5.59181,-3.23191 1.33712,-10.66924 -3.06815,-5.36172 -4.51489,-6.79763 -6.85063,-6.79763 -1.67682,0 -3.30185,0.88901 -3.74755,2.05147 m 147.48546,3.27774 c -1.30334,1.3046 -1.48647,3.11031 -0.76006,7.52883 0.52644,3.19704 0.989,6.72531 1.02754,7.84084 0.0956,2.68271 4.51249,4.00287 6.86509,2.0502 3.54519,-2.94281 -0.24941,-19.13524 -4.48476,-19.13524 -0.51201,0 -1.70337,0.77217 -2.64781,1.71537 m -284.74743,3.40424 c -1.86473,2.98502 -1.26966,4.34142 4.32336,9.85133 5.96404,5.87369 8.91654,6.34228 10.40544,1.65153 0.57701,-1.81897 -0.53244,-3.75596 -4.42093,-7.71797 -5.23283,-5.33162 -8.57443,-6.55912 -10.30787,-3.78489 m 46.13546,9.7646 c -0.98899,0.77575 -2.10688,4.57025 -2.5574,8.68282 -0.86491,7.86853 0.61797,10.79691 5.03649,9.94533 2.40682,-0.46256 3.62106,-4.63902 3.8403,-13.19417 0.11685,-4.59196 -0.27465,-5.69056 -2.21166,-6.19768 -1.29376,-0.33853 -3.14285,0 -4.10773,0.7637 m 99.91055,7.59752 c -0.42282,1.10223 -0.41318,5.15206 0.0228,9.00203 0.85166,7.52389 3.0031,9.58624 7.49509,7.18189 2.03821,-1.0914 2.16831,-1.9635 1.22269,-8.19853 -0.58183,-3.83678 -1.29857,-7.65413 -1.5937,-8.48296 -0.79023,-2.21527 -6.25194,-1.83581 -7.14697,0.49757 m -132.39773,3.61863 c -2.91155,2.91031 1.00825,9.08763 8.96471,14.12524 2.8983,1.8346 3.26933,1.8382 4.76546,0.035 2.83806,-3.41985 2.249,-5.19424 -3.3669,-10.13793 -5.16899,-4.54978 -8.53106,-5.85447 -10.36327,-4.02219 m 723.30603,0.83838 c -0.6735,0.81076 -1.5878,5.02689 -2.0323,9.36706 -0.6939,6.77478 -0.5191,8.00458 1.2323,8.67678 4.0066,1.5382 6.2833,-1.1902 7.5904,-9.09478 0.6901,-4.16794 0.8648,-7.99859 0.3878,-8.51059 -1.5611,-1.67802 -5.9291,-1.94426 -7.1782,-0.43847 m -453.98479,1.06848 c -0.82395,1.02515 -0.58191,4.00412 0.75529,9.33571 1.56718,6.24345 2.47423,7.90225 4.47987,8.18895 4.45952,0.6372 5.76774,-2.4646 4.07881,-9.66932 -1.71406,-7.30958 -3.02716,-9.36103 -5.99169,-9.36103 -1.16248,0 -2.65861,0.6781 -3.32228,1.50569 M 736.1387,1001.0579 c -1.64549,1.2034 -2.01049,2.8887 -1.67199,7.73 l 0.43246,6.1905 -3.77647,-3.662 c -2.52125,-2.4454 -4.71846,-3.5283 -6.61332,-3.2597 -4.86663,0.6926 -4.16796,4.4233 2.00087,10.6862 5.83514,5.9242 7.39872,6.2615 11.41369,2.4574 1.10343,-1.0445 2.9489,-2.4406 4.10171,-3.1031 1.79728,-1.0336 1.97315,-2.2852 1.23954,-8.7781 -0.94441,-8.3467 -3.291,-11.06545 -7.12649,-8.2612 m 103.5509,7.1012 c -0.29513,0.8287 -1.00947,4.6245 -1.58647,8.4359 -1.18776,7.8348 0.10721,10.1187 5.03768,8.8804 2.50199,-0.6276 2.9766,-1.6599 3.70057,-8.0564 0.56376,-4.9919 0.37463,-7.8854 -0.59266,-9.0515 -1.75633,-2.1165 -5.83154,-2.2454 -6.55912,-0.2084 m 581.8821,3.2428 c -0.3855,0.624 -1.2661,4.186 -1.9551,7.9155 -0.9336,5.0521 -0.8891,7.2193 0.1759,8.5022 1.6081,1.9382 5.4533,2.2983 6.4964,0.6095 1.3336,-2.1562 3.0826,-13.8145 2.3972,-15.9744 -0.7336,-2.308 -5.8689,-3.0681 -7.1144,-1.0528 m -443.66727,3.1477 c -0.64331,1.1504 -0.32763,4.6389 0.82031,9.0405 1.98165,7.606 4.1752,9.4924 8.40702,7.2278 2.28154,-1.2215 2.29713,-1.5142 0.4529,-8.1987 -1.05164,-3.8126 -2.4333,-7.6083 -3.07058,-8.437 -1.60811,-2.0913 -5.34963,-1.884 -6.60965,0.3674 m -240.59845,12.8832 c -1.25762,3.573 -1.55756,8.1312 -0.53484,8.1312 0.60952,0 2.43933,2.1069 4.06436,4.6812 2.69712,4.2727 3.2922,4.6112 6.82653,3.8885 2.12976,-0.435 4.4655,-1.7588 5.19188,-2.9417 1.08295,-1.766 0.67097,-2.7381 -2.29479,-5.422 -1.98761,-1.7997 -4.27998,-4.7498 -5.0943,-6.5567 -1.05042,-2.3333 -2.37068,-3.2861 -4.55464,-3.2861 -1.69128,0 -3.31389,0.6782 -3.6042,1.5056 m 91.62161,10.2248 c -3.58613,5.1317 -4.38238,7.1217 -3.4476,8.6143 2.52487,4.0306 5.88574,2.9307 10.44881,-3.42 5.73757,-7.9877 5.70143,-10.3199 -0.1819,-11.4535 -1.48649,-0.2867 -3.60179,1.6552 -6.81931,6.2592 m 582.55911,-2.8823 c -0.6107,0.7649 -1.643,4.545 -2.2923,8.4009 -0.9529,5.6473 -0.8468,7.3434 0.542,8.7335 2.0889,2.0876 2.7658,2.0984 5.4124,0.086 2.2309,-1.695 4.5848,-17.561 2.6309,-17.7296 -0.5879,-0.051 -1.9949,-0.2698 -3.1249,-0.4879 -1.1311,-0.2168 -2.5561,0.2314 -3.1681,0.9963 m -431.54642,5.1219 c -2.66214,3.2092 2.04066,17.3634 5.75808,17.332 5.18582,-0.045 5.77127,-1.7008 3.38492,-9.5814 -1.22865,-4.0596 -2.81755,-7.7457 -3.53191,-8.1926 -2.30075,-1.4396 -4.17032,-1.2926 -5.61109,0.442 m -223.65915,7.3062 c -0.82756,0.3349 -1.50576,1.9105 -1.50576,3.5018 0,2.3164 1.39133,3.5958 6.9735,6.4133 7.65411,3.8644 11.09568,3.4031 11.09568,-1.4865 0,-2.0779 -1.53347,-3.4536 -6.65187,-5.964 -6.86027,-3.3632 -7.36861,-3.491 -9.91155,-2.4646 m 54.80987,5.3701 c -5.6665,2.8694 -6.92652,4.0596 -6.92652,6.5375 0,4.5594 3.06332,4.8654 10.94872,1.0962 5.6147,-2.6828 7.12046,-3.9837 7.12046,-6.1508 0,-4.8859 -3.50422,-5.3521 -11.14266,-1.4829 m -65.67668,-1.1432 c -2.25383,2.2538 -1.8298,4.1078 2.43453,10.6151 4.69437,7.1663 5.96162,7.8131 9.57546,4.8871 l 2.76579,-2.2393 -4.82568,-7.0218 c -4.99312,-7.265 -7.41077,-8.7803 -9.9501,-6.2411 m 33.51714,7.547 c -2.82482,3.403 0.45776,6.4434 7.96851,7.3818 7.80469,0.9757 10.64517,-0.2036 10.62589,-4.41 -0.0121,-2.384 -0.81071,-2.9996 -4.81846,-3.7103 -7.68663,-1.3636 -12.23403,-1.1191 -13.77594,0.7385 m 621.53434,1.2346 c -0.6204,1.63 -1.4865,5.669 -1.925,8.9744 -0.7686,5.7943 -0.6794,6.0399 2.4501,6.8253 1.7853,0.4482 3.7054,0.3398 4.2656,-0.2409 1.4504,-1.5034 3.6789,-14.5685 2.8525,-16.7224 -1.1516,-2.9994 -6.3615,-2.2068 -7.6432,1.1636 m -416.69726,4.6282 c -1.91413,1.9142 -1.64914,4.2197 1.30947,11.3571 2.0876,5.0353 3.19825,6.3471 5.37851,6.3471 4.57274,0 5.35337,-3.4513 2.3743,-10.4994 -1.45395,-3.4404 -3.04638,-6.6567 -3.53668,-7.1481 -1.45042,-1.4492 -4.10529,-1.477 -5.5256,-0.056 m -225.89612,9.9596 c -2.87299,2.8743 -2.36104,4.3728 3.43075,10.0586 4.39923,4.3161 5.86284,5.0883 8.43228,4.4438 4.65944,-1.1697 3.95475,-5.2027 -1.9599,-11.2294 -5.53038,-5.6352 -7.04096,-6.1339 -9.90313,-3.273 m 633.24548,6.841 c -0.6565,0.8288 -2.1273,4.3716 -3.2704,7.8734 -2.2744,6.9699 -1.336,9.8947 3.1716,9.8947 4.1186,0 9.1274,-15.9949 5.6907,-18.1716 -2.3526,-1.4901 -4.1981,-1.3564 -5.5919,0.4035 m -322.2399,5.8147 c -3.8559,2.2527 -2.5356,5.881 3.0116,8.2781 8.0552,3.4813 9.9127,3.7969 12.2569,2.0827 3.4585,-2.5284 1.424,-6.3567 -4.4775,-8.4238 -2.7875,-0.9757 -5.8821,-2.0888 -6.876,-2.4719 -0.9938,-0.3842 -2.7549,-0.1433 -3.915,0.5349 m -80.29094,2.6815 c -0.72641,0.7264 -1.32152,2.0442 -1.32152,2.9272 0,2.4068 5.88574,13.5494 7.24818,13.7229 0.65172,0.083 1.8623,0.2337 2.68988,0.3362 0.8287,0.1007 2.1791,-0.7301 3.0019,-1.8468 1.248,-1.6948 0.8492,-3.1789 -2.40918,-8.9587 -3.86929,-6.8627 -6.65671,-8.7334 -9.20926,-6.1808 m 58.90914,0.6336 c -5.8339,2.2297 -7.6348,5.8002 -4.3149,8.5563 1.4817,1.2288 3.1199,1.083 8.7058,-0.7794 7.259,-2.42 9.7356,-4.7569 8.4876,-8.0094 -0.9746,-2.5369 -5.8653,-2.4489 -12.8785,0.2325 m -275.85987,6.2351 c -1.10704,2.0695 -0.55172,3.1042 3.87282,7.2204 6.45071,6.0014 9.28155,7.0289 11.39805,4.1342 2.51884,-3.4451 1.97194,-4.7245 -4.02099,-9.3923 -6.34952,-4.9474 -9.37069,-5.4737 -11.24988,-1.9623 m 319.91377,3.091 c -2.5394,2.5405 -2.5177,2.6321 2.4044,9.9416 3.2187,4.7788 4.9269,6.2869 6.8036,6.0075 5.0762,-0.7589 5.1642,-3.7163 0.3301,-10.9981 -4.7763,-7.1928 -6.4339,-8.0541 -9.5381,-4.951 m -63.7421,7.9975 c -5.0316,7.3047 -5.3268,8.8057 -2.0743,10.5463 3.68,1.9695 4.2258,1.6407 9.1382,-5.4907 3.6331,-5.2749 4.3691,-7.171 3.3897,-8.7334 -2.5995,-4.1487 -5.852,-3.0054 -10.4536,3.6778 m 351.2687,-5.2643 c -1.7383,1.0746 -6.3351,11.7233 -6.3351,14.677 0,2.8694 1.8503,3.9886 5.1883,3.1393 1.8515,-0.471 3.4404,-2.72 5.3123,-7.5205 1.4684,-3.7667 2.3875,-7.307 2.0406,-7.8672 -1.1432,-1.8491 -4.8172,-3.2874 -6.2061,-2.4286 m -591.05042,13.6327 c -2.28153,3.2572 -1.66597,4.5017 4.37636,8.8455 6.47359,4.6558 8.4094,5.3954 10.25607,3.9197 2.96214,-2.367 1.56118,-6.2519 -3.58614,-9.9428 -7.41438,-5.316 -9.01411,-5.7243 -11.04629,-2.8224 m 207.91252,-1.1529 c -0.79507,0.7951 -1.43349,2.0154 -1.41791,2.7104 0.0447,2.1057 8.20341,14.5469 9.24301,14.0952 6.3315,-2.7453 6.4893,-4.0499 1.4673,-12.21 -3.7139,-6.0351 -6.4833,-7.4047 -9.2924,-4.5956 m 105.8987,8.083 c -1.4142,0.8962 -1.3407,2.2936 0.4722,8.9901 2.3177,8.5635 5.2328,11.092 8.7418,7.5842 1.6034,-1.6046 1.642,-2.6273 0.2832,-7.6529 -2.6948,-9.967 -4.7691,-11.9148 -9.4972,-8.9214 m -87.3826,6.6182 c -1.0408,3.5801 -1.8924,7.0096 -1.8924,7.6216 0,0.6107 -1.5733,0.8805 -3.4946,0.5986 -2.7646,-0.4059 -3.6668,0.028 -4.3162,2.0732 -0.4843,1.5286 -0.1638,3.3789 0.7843,4.5233 1.1238,1.3564 1.4804,4.7389 1.1865,11.2812 -0.3915,8.7057 -0.2325,9.4417 2.3286,10.8125 2.3851,1.277 3.0368,1.1143 4.9364,-1.2322 1.2034,-1.4865 2.1888,-4.3077 2.1888,-6.2689 0,-1.9623 0.8131,-4.3799 1.8069,-5.3737 2.4851,-2.4851 2.2635,-5.6666 -0.5734,-8.2347 -2.214,-2.0021 -2.2816,-5.0305 -0.082,-3.6717 1.5648,0.9673 3.273,-1.8744 5.3425,-8.8888 2.1466,-7.282 1.2505,-9.7502 -3.544,-9.7502 -2.3261,0 -3.0874,1.0613 -4.6715,6.5098 m 346.0286,-0.2349 c -3.5005,5.2725 -4.0306,6.8614 -3.0356,9.0911 2.0201,4.527 5.2835,3.2284 10.0946,-4.0185 3.4995,-5.2702 4.1909,-7.1554 3.2019,-8.7334 -2.6128,-4.1692 -5.8218,-3.0237 -10.2609,3.6608 m -556.07804,6.0121 c -2.76821,2.7682 -1.40459,5.5172 4.88952,9.8514 7.24453,4.9895 8.74909,5.281 10.48735,2.0333 1.96111,-3.6655 1.63466,-4.2305 -5.16538,-8.9141 -7.00241,-4.822 -8.05403,-5.128 -10.21149,-2.9706 m 537.34394,11.0584 c -3.8716,4.957 -4.6221,6.7024 -3.8162,8.8793 1.6371,4.4281 5.2702,3.2391 10.6139,-3.4718 2.7067,-3.3982 4.9124,-6.5157 4.9027,-6.9265 -0.041,-1.6564 -1.9298,-3.4018 -4.3353,-4.009 -1.9937,-0.5023 -3.5934,0.6987 -7.3651,5.528 m -234.7344,1.6684 c -1.4865,1.0023 -5.3112,11.6775 -5.3112,14.824 0,2.3839 3.032,3.8752 5.9774,2.9404 1.9044,-0.6047 6.0687,-11.1366 6.0687,-15.3503 0,-2.6959 -4.1221,-4.174 -6.7349,-2.4141 m -286.94959,7.7516 c -2.59834,2.5984 -1.52624,5.1064 4.14628,9.6972 6.16039,4.9859 7.80589,5.4027 10.53313,2.6755 2.51643,-2.5165 1.49251,-4.4776 -4.97385,-9.5152 -5.96163,-4.6438 -7.47341,-5.0896 -9.70556,-2.8575 m 501.58269,5.6425 c -4.6354,6.3145 -5.4714,10.2814 -2.4128,11.4547 3.2885,1.2624 3.8908,0.8842 8.7598,-5.5003 4.0922,-5.3678 4.5752,-6.6218 3.4753,-9.0346 -1.9742,-4.333 -5.099,-3.3537 -9.8223,3.0802 m -300.3521,-2.1563 c -4.4258,1.6552 -3.2417,5.2823 3.4704,10.626 3.3982,2.7067 6.5158,4.9123 6.9266,4.9027 1.7973,-0.045 3.5416,-1.9877 3.9342,-4.3812 0.6349,-3.868 -10.5451,-12.5629 -14.3312,-11.1475 m 69.782,15.8299 c -3.432,2.6742 -6.2387,5.2701 -6.2387,5.7688 0,0.5 1.0191,2.1671 2.2647,3.7054 l 2.2646,2.7971 6.7699,-5.1124 c 6.5977,-4.9811 7.6649,-6.6843 5.8485,-9.3369 -2.0973,-3.0621 -4.9029,-2.502 -10.909,2.178 m -85.0384,-0.8156 c -1.6384,1.6383 -1.5493,2.8104 1.0986,14.5433 0.7239,3.2067 4.8919,4.4198 7.2131,2.0972 1.8238,-1.8238 1.5287,-5.6292 -1.0564,-13.5928 -1.4468,-4.4558 -4.5462,-5.7569 -7.2553,-3.0477 m 296.0046,3.1393 c -3.1874,2.7585 -5.7279,5.7399 -5.6448,6.6253 0.083,0.8854 0.218,2.1154 0.3011,2.7333 0.083,0.618 1.2432,1.4696 2.5779,1.8936 1.778,0.5638 3.9342,-0.5577 8.0697,-4.1968 6.1784,-5.4389 7.0843,-7.5698 4.3703,-10.2827 -2.5669,-2.567 -3.238,-2.3441 -9.6742,3.2273 m -468.1655,-0.5988 c -2.02375,2.0226 -0.38065,5.8774 4.31613,10.126 5.8219,5.2678 8.65153,5.8496 10.61384,2.184 1.19256,-2.2273 0.71313,-3.2079 -3.82224,-7.83 -4.74858,-4.8377 -9.02495,-6.5627 -11.10773,-4.48 m 204.177,1.4589 c -3.1067,1.9695 -0.989,6.5108 4.6221,9.9175 6.5302,3.9644 9.1442,4.2427 10.7994,1.1504 1.9467,-3.638 1.6576,-4.0896 -5.2654,-8.2299 -7.0181,-4.1981 -7.7071,-4.3908 -10.1561,-2.838 m 32.127,5.9254 c -8.0287,0.4216 -10.4897,2.3936 -8.4828,6.7977 1.2299,2.6995 1.7551,2.8284 8.9105,2.1827 7.9372,-0.7167 10.7403,-2.5743 9.7273,-6.4495 -0.7047,-2.6935 -1.8082,-2.9681 -10.155,-2.5309 m 214.0199,0.2602 c -1.325,0.5252 -4.4931,3.1151 -7.0409,5.7568 -4.0186,4.1668 -4.451,5.1378 -3.2693,7.3446 0.7481,1.3985 2.2153,2.5429 3.2585,2.5429 2.6429,0 13.276,-9.1165 13.276,-11.3824 0,-2.9645 -3.4813,-5.3472 -6.2243,-4.2619 m -26.4989,15.6432 c -6.7387,3.9354 -7.9348,5.6303 -6.5495,9.279 1.2563,3.3115 3.9258,2.9104 10.9535,-1.6466 6.429,-4.1692 7.1614,-5.1485 5.7821,-7.7252 -1.8455,-3.4488 -4.1595,-3.4272 -10.1861,0.092 m -411.13681,-0.9625 c -2.52608,2.5261 -1.58648,5.1425 3.71983,10.3501 5.8761,5.7676 8.34075,6.3025 10.20307,2.2165 1.16245,-2.5514 0.70109,-3.4417 -4.36552,-8.4324 -5.99896,-5.9086 -7.24453,-6.4471 -9.55738,-4.1342 m 160.05451,0.8879 c -1.4805,0.9359 -1.4083,2.1405 0.5095,8.4708 1.2288,4.0595 2.8176,7.7456 3.5319,8.1925 2.3093,1.4455 4.1728,1.2901 5.6316,-0.4674 1.1131,-1.3407 0.9613,-3.4476 -0.683,-9.5236 -1.7659,-6.5218 -2.5345,-7.7975 -4.6884,-7.783 -1.4165,0.01 -3.3524,0.5095 -4.3016,1.1107 m 225.4035,8.007 c -4.8715,3.191 -6.3121,4.8039 -6.0231,6.7422 0.7517,5.0461 3.6512,5.175 10.9765,0.4879 7.0084,-4.4824 8.2058,-6.77 5.1485,-9.8261 -2.3274,-2.3273 -2.7562,-2.2177 -10.1019,2.596 m -23.7128,7.3433 c -7.0482,3.6464 -7.9324,4.7185 -6.6784,8.1083 1.2251,3.3102 3.0056,3.2452 10.591,-0.3819 6.6181,-3.1633 8.7262,-6.2556 6.2784,-9.2057 -1.9454,-2.3442 -3.1356,-2.1707 -10.191,1.4793 m -25.598,6.129 c -4.8028,2.4201 -6.3242,3.8368 -6.3242,5.8894 0,4.8919 3.4404,5.3534 11.0956,1.4889 7.0398,-3.5536 8.6094,-6.1857 5.528,-9.2671 -1.9744,-1.9744 -3.014,-1.7841 -10.2994,1.8888 m -328.91954,1.7251 c -0.79504,0.7951 -1.44554,2.1888 -1.44554,3.0982 0,1.7045 5.8484,12.4521 7.36139,13.5291 1.72019,1.2238 -0.38548,7.2239 -2.53571,7.2239 -4.03183,0 -4.64619,2.5852 -2.57425,10.8416 1.56719,6.2435 2.47427,7.9022 4.47995,8.1889 4.26313,0.6096 5.80623,-2.5537 4.25469,-8.7177 -0.74204,-2.9465 -1.34916,-5.9038 -1.34916,-6.5724 0,-0.6685 3.33195,-1.3781 7.40354,-1.5744 8.2504,-0.4 11.24867,-2.7032 8.70212,-6.6832 -1.10342,-1.7226 -2.72122,-2.0298 -8.85269,-1.6817 l -7.50354,0.4265 2.58751,-2.5875 2.58631,-2.5863 -3.94391,-7.1759 c -3.89933,-7.0928 -6.30494,-8.5949 -9.17071,-5.7291 m 303.60704,4.0077 c -6.1664,4.1523 -7.1819,5.7701 -5.3871,8.5804 1.7094,2.6743 4.6161,2.1888 10.8536,-1.8129 6.258,-4.0162 7.6517,-6.7675 4.8486,-9.5707 -2.1732,-2.1731 -3.4367,-1.8297 -10.3151,2.8032 m -147.6495,-2.2406 c -1.4189,1.4178 -0.8672,4.7691 1.7768,10.7885 3.096,7.0482 4.144,7.8601 7.9228,6.1376 3.2681,-1.489 3.1633,-2.9189 -0.8866,-12.075 -1.9286,-4.3584 -3.1332,-5.6546 -5.2557,-5.6546 -1.5154,0 -3.1163,0.3614 -3.5573,0.8035 m 696.0649,4.1873 c -9.2394,7.3578 -33.5002,18.7437 -47.1979,22.1491 -19.5038,4.8511 -30.0732,5.781 -57.001,5.0209 -22.4913,-0.636 -34.2749,-1.5515 -74.0837,-5.7568 -7.2879,-0.7698 -34.7929,-1.6684 -61.122,-1.9961 -82.7424,-1.0311 -116.3487,2.3225 -177.9935,17.7632 -39.9908,10.0176 -63.0543,18.8932 -94.5621,36.3938 -32.3186,17.9499 -78.1397,52.9848 -103.0885,78.8214 -26.3545,27.2928 -58.2285,75.4196 -69.1134,104.3555 l -2.6212,6.9663 -5.6014,-7.2132 c -3.0803,-3.9668 -4.9426,-6.9723 -4.1391,-6.6772 0.8047,0.294 2.249,0.034 3.2115,-0.577 1.4889,-0.9468 1.3191,-2.0671 -1.1407,-7.5167 -4.2234,-9.3599 -8.2071,-11.9389 -10.8417,-7.017 -0.9709,1.8142 -0.8082,3.3175 0.6686,6.1737 1.7612,3.4066 0.9733,3.0115 -8.09499,-4.0523 -20.26639,-15.7889 -38.77645,-26.3919 -100.43935,-57.5311 -50.248,-25.3751 -89.11843,-39.7052 -140.65295,-51.855 -40.66772,-9.5862 -70.63847,-13.4699 -122.21034,-15.8333 -65.02618,-2.9815 -118.78923,3.8198 -240.0154,30.3609 -72.14182,15.795 -177.57432,31.3127 -212.74177,31.3127 -9.71038,0 -11.65824,0.3422 -13.72535,2.4094 -3.36207,3.362 -3.05008,7.754 0.76492,10.7534 2.78988,2.1948 4.83772,2.4972 16.91638,2.4972 36.80693,0 145.45454,-16.055 219.62733,-32.4546 56.69749,-12.5364 109.47156,-22.2336 141.54196,-26.0088 39.89676,-4.6968 112.49634,-3.2718 155.29983,3.0477 33.70264,4.9762 71.75515,14.0782 104.00865,24.8764 17.87524,5.9845 33.29066,12.0317 27.38927,10.7439 -8.30821,-1.8129 -41.52299,-7.0096 -57.82141,-9.0454 -29.39253,-3.6716 -52.66203,-4.8895 -93.15267,-4.8763 -54.8472,0.018 -86.56947,2.6068 -139.53265,11.3909 -41.47602,6.8783 -65.17315,11.7931 -114.17197,23.679 -70.61557,17.1284 -129.31633,27.164 -185.56933,31.7259 -30.38754,2.4646 -42.0229,2.3406 -59.5211,-0.6312 -17.6801,-3.0031 -20.66753,-2.8092 -22.70935,1.472 -2.14059,4.4884 -0.13733,9.1394 4.81483,11.1764 7.5192,3.0923 28.85167,5.8846 44.27674,5.7955 22.75995,-0.1313 58.24301,-3.3935 95.67032,-8.7973 50.05886,-7.2278 80.9921,-13.3376 130.7968,-25.8318 24.0766,-6.0399 49.34093,-11.7715 66.85599,-15.1673 24.20428,-4.6931 69.72417,-12.0208 71.57687,-11.5233 1.15883,0.312 0.81913,0.5662 -0.86973,0.6517 -5.41955,0.2735 -46.90881,8.7901 -65.61283,13.4688 -10.4488,2.614 -34.30014,9.8862 -53.00294,16.1599 -18.70282,6.2736 -47.01482,14.7107 -62.91571,18.7485 -15.90087,4.0379 -36.49975,9.4322 -45.77526,11.9871 -36.43953,10.0369 -53.71729,13.7158 -90.34594,19.2353 -26.63518,4.0138 -34.15437,4.8931 -46.37757,5.4232 -6.2941,0.2734 -21.24575,1.1564 -33.22562,1.9635 -16.55137,1.1143 -22.74308,1.1323 -25.7787,0.074 -12.2208,-4.2607 -23.8694,1.4757 -22.07332,10.8705 0.88057,4.6052 -2.95371,37.8573 -6.43384,55.7976 -3.48374,17.9608 -8.81173,35.4891 -13.79642,45.3922 -4.46911,8.8769 -15.491318,25.0656 -22.933406,33.6822 l -5.87128,6.7964 -12.103944,0.8662 c -15.022726,1.0757 -20.806074,3.7258 -24.85959,11.3907 -4.710035,8.9058 -3.051285,18.2427 4.34383,24.4657 5.533993,4.657 11.776298,5.9484 24.58012,5.0883 6.085701,-0.4083 182.82642,-7.7409 392.75543,-16.2935 325.07308,-13.2435 382.16087,-15.3107 384.87365,-13.9387 1.75151,0.8879 7.79143,3.279 13.423,5.3148 74.51732,26.9411 198.52021,31.5873 292.11861,10.9451 17.3537,-3.827 38.7789,-10.5741 52.1007,-16.408 l 12.3473,-5.4075 277.9642,12.2136 c 152.8799,6.7168 326.5355,14.3421 385.9025,16.9452 78.0227,3.42 109.1632,4.3933 112.3529,3.5127 9.8562,-2.7212 16.29,-13.8048 13.7857,-23.7478 -2.4768,-9.838 -11.3632,-15.8695 -23.4057,-15.8852 -4.6293,-0.01 -5.5786,-0.6589 -14.477,-9.9452 -27.7615,-28.9685 -46.922,-59.5537 -52.2633,-83.4195 -1.4973,-6.6927 -2.9043,-19.6014 -3.6777,-33.7291 -1.3396,-24.4886 -2.9573,-31.8608 -7.4734,-34.0496 -1.4756,-0.7155 -8.1035,-1.613 -14.7288,-1.9948 -6.6253,-0.3819 -18.0089,-1.2287 -25.2969,-1.8804 -52.756,-4.7221 -70.8842,-6.2495 -86.7321,-7.3072 -9.938,-0.6625 -21.5927,-1.7105 -25.8991,-2.3285 -4.3065,-0.6179 -15.9611,-1.7033 -25.8992,-2.4141 -35.842,-2.5598 -79.5574,-7.966 -102.9943,-12.7363 -42.6481,-8.6792 -40.1208,-8.0215 -78.2999,-20.3833 -40.0232,-12.9592 -60.0257,-18.8161 -81.9136,-23.9814 -40.8592,-9.6429 -62.9169,-12.0244 -112.2265,-12.1124 -20.9795,-0.037 -38.0476,-0.1662 -37.9296,-0.2855 0.1181,-0.1192 8.8804,-1.1287 19.4714,-2.2417 29.2322,-3.0754 86.42,-1.9286 119.2409,2.3899 35.3554,4.6523 89.3762,16.7562 163.225,36.5744 35.6817,9.5756 81.8425,18.1439 125.2797,23.2539 18.2257,2.1442 29.0865,2.6296 59.6282,2.661 41.4882,0.044 48.57,-0.8132 61.7413,-7.4613 7.8252,-3.95 10.4862,-8.0119 8.5949,-13.1232 -1.8732,-5.0653 -6.3375,-5.5147 -15.3769,-1.5467 -11.7233,5.1449 -21.1928,6.2279 -54.9593,6.2833 -32.492,0.054 -60.8907,-2.3574 -93.9597,-7.9794 -9.2755,-1.5768 -21.2011,-3.5054 -26.5014,-4.2848 -10.956,-1.6106 -54.3619,-11.9256 -98.7782,-23.4743 -80.4802,-20.9229 -121.0227,-28.1661 -171.6573,-30.6681 -25.6691,-1.2673 -71.6251,-0.084 -91.5506,2.3574 -68.4991,8.3949 -121.5779,24.2127 -172.8065,51.5007 -23.59,12.5653 -35.7926,20.1111 -52.8054,32.6571 -14.0132,10.3319 -15.7347,11.2655 -10.4922,5.687 10.2296,-10.8825 46.3125,-36.0866 73.4815,-51.325 58.0791,-32.5751 111.7314,-50.295 177.0322,-58.4658 16.0852,-2.0129 53.4366,-2.2671 73.4632,-0.4999 53.7125,4.7389 87.4971,9.0732 140.1591,17.9812 68.4642,11.5812 128.9381,20.1352 162.2626,22.9515 23.4453,1.9828 76.3386,1.648 92.7551,-0.5855 29.1143,-3.9619 34.1399,-6.0326 33.487,-13.7988 -0.589,-6.9795 -4.1992,-7.9191 -19.01,-4.951 -20.7699,4.1644 -38.073,5.2714 -69.8892,4.474 -50.4443,-1.2648 -88.0704,-5.9363 -200.5679,-24.8969 -91.3555,-15.3974 -168.9747,-21.8843 -209.0003,-17.4669 -48.5892,5.3629 -99.048,18.3908 -138.5304,35.7686 -27.5929,12.1449 -66.508,33.1978 -83.7207,45.2945 l -6.0231,4.2319 6.5519,-5.9026 c 29.6408,-26.7063 79.8105,-56.9312 124.751,-75.1595 58.4321,-23.6982 119.2325,-36.2298 193.6487,-39.9111 27.3663,-1.3541 78.4551,-0.253 120.1529,2.5875 50.3094,3.4271 65.2008,3.9812 109.6197,4.08 53.0956,0.1169 64.6238,-0.6541 99.2841,-6.635 39.5475,-6.8242 56.1109,-13.4917 56.1109,-22.5841 0,-6.971 -7.2121,-9.4634 -14.6878,-5.0762 -9.8418,5.7749 -42.6446,12.5099 -80.4766,16.5248 -24.1392,2.5611 -84.1217,2.5177 -126.4843,-0.091 -124.357,-7.6613 -178.9596,-7.2493 -236.1041,1.7768 -50.6419,7.9999 -88.3956,18.2029 -127.6889,34.5061 -19.1184,7.9324 -51.7032,24.2657 -69.9012,35.0374 -24.7969,14.6783 -56.5325,39.0463 -79.4708,61.0208 -8.2816,7.9348 -17.7018,16.8863 -20.9337,19.8942 l -5.8762,5.469 4.5198,-7.2277 c 15.849,-25.3415 37.6767,-52.4633 54.399,-67.5944 38.343,-34.6929 78.0373,-62.0424 114.6865,-79.0226 29.5467,-13.688 87.6608,-28.7962 133.2771,-34.6483 24.397,-3.1307 82.9062,-5.3219 115.6428,-4.3329 23.4237,0.7082 49.8649,2.6441 93.9597,6.8807 17.4802,1.6792 61.6316,1.6058 72.2767,-0.1204 22.3396,-3.6235 42.2675,-10.6307 60.415,-21.2446 14.0843,-8.2383 19.6918,-13.4242 19.6918,-18.2089 0,-8.5997 -8.3588,-9.8345 -17.4669,-2.5827 m -889.30278,5.6267 c -6.90725,3.4188 -8.86716,6.6314 -5.87248,9.6261 1.73824,1.7383 2.53932,1.6033 9.10445,-1.5347 7.9131,-3.7824 8.92256,-5.034 6.87472,-8.5299 -1.87678,-3.2054 -2.82843,-3.1645 -10.10669,0.4385 m 316.81078,1.0746 c -6.2556,4.2654 -7.7806,7.3324 -4.8185,9.6886 2.2237,1.7684 4.904,0.9806 11.0523,-3.2501 5.5136,-3.7921 6.7808,-6.7422 4.0657,-9.4573 -2.107,-2.1069 -3.2923,-1.76 -10.2995,3.0188 m -341.29694,3.5909 c -6.27964,5.6725 -7.58424,8.1335 -5.93995,11.2053 1.92498,3.597 5.31958,2.3647 10.87766,-3.9487 3.51265,-3.991 4.74858,-6.3171 4.22818,-7.9553 -1.29857,-4.0909 -4.1005,-3.8776 -9.16589,0.6987 m 49.76253,-3.1645 c -6.43865,1.2697 -7.51075,1.9358 -7.51075,4.6703 0,4.3462 2.89348,5.2581 11.08725,3.4921 7.88901,-1.7009 9.98021,-4.0197 6.93376,-7.6902 -1.5925,-1.919 -2.87783,-1.9768 -10.51026,-0.4722 m 267.44201,8.4335 c -5.1268,4.8377 -6.4374,8.5973 -3.6138,10.3621 2.9899,1.8671 4.3439,1.2672 9.9236,-4.3981 4.9859,-5.0618 5.5063,-6.064 4.3053,-8.3058 -1.9949,-3.7283 -4.851,-3.0983 -10.6151,2.3418 m -340.57402,5.4882 c -3.35244,3.3537 -0.28549,18.0981 3.77887,18.1655 5.31114,0.088 5.76166,-1.89 3.28016,-14.4011 -0.88419,-4.4535 -4.46068,-6.3616 -7.05903,-3.7644 m 114.80679,2.2345 c -2.07314,4.5499 0.40836,6.382 9.95612,7.3517 6.82172,0.6927 8.05644,0.5181 8.72862,-1.2346 1.43349,-3.7344 -1.22147,-6.3556 -7.30477,-7.2145 -3.16572,-0.4468 -6.70005,-1.0878 -7.85408,-1.425 -1.42987,-0.4168 -2.55377,0.3878 -3.52589,2.5224 m 130.69563,-1.0636 c -0.4035,1.0528 0.7975,5.1184 2.6695,9.0345 2.6742,5.5954 3.9873,7.1206 6.1326,7.1206 4.9197,0 5.3883,-3.4272 1.5166,-11.0958 -2.8851,-5.7159 -4.0667,-6.9734 -6.5519,-6.9734 -1.6671,0 -3.3621,0.8612 -3.7668,1.9141 m 72.2635,5.6942 c -4.2908,4.0535 -5.3268,5.7532 -4.7028,7.7179 1.4202,4.4763 4.2017,4.1933 10.4344,-1.0624 5.9796,-5.0425 7.1469,-7.7506 4.4884,-10.4091 -2.4238,-2.4237 -4.4824,-1.6672 -10.22,3.7536 m -179.82937,6.1989 c -2.85614,3.4415 -0.89623,5.9857 6.44708,8.3696 7.95406,2.5827 10.98125,1.7612 10.98125,-2.9814 0,-2.267 -0.95526,-3.0995 -4.81845,-4.2005 -10.01635,-2.856 -11.13784,-2.9609 -12.60988,-1.1877 m 157.91267,5.9183 c -3.7223,3.7933 -5.0594,6.0688 -4.7679,8.119 0.6735,4.739 4.3957,4.1981 10.1802,-1.4793 5.4473,-5.3448 6.8109,-9.8608 3.3765,-11.1787 -3.0368,-1.1649 -3.3464,-1.0058 -8.7888,4.539 m -214.88722,4.6679 c -0.31682,0.8287 -0.23972,5.0291 0.17225,9.3356 0.73963,7.7301 0.79505,7.83 4.36311,7.83 3.59697,0 3.61505,-0.035 3.97523,-7.6335 0.21683,-4.5921 -0.20118,-8.3132 -1.05043,-9.3358 -1.74789,-2.1057 -6.67837,-2.2357 -7.46016,-0.1963 m 171.67542,1.0034 c -3.4308,1.2997 -3.3995,2.8597 0.2155,11.0354 l 2.926,6.6169 -3.8932,5.8798 c -5.169,7.8082 -4.5101,10.6246 2.4442,10.4391 0.766,-0.02 2.3393,2.0635 3.4957,4.6294 1.5575,3.4535 2.8236,4.6655 4.8726,4.6655 4.6402,0 5.3293,-3.2441 2.1961,-10.3285 -2.1936,-4.9593 -2.6911,-7.8347 -2.2803,-13.1869 0.3963,-5.152 -0.098,-8.2936 -1.9961,-12.7074 -3.0826,-7.165 -4.4583,-8.378 -7.9805,-7.0433 m -258.01722,3.4428 c -3.16211,3.1621 -2.43572,4.6871 4.48598,9.4103 6.50249,4.4379 7.75409,4.6788 10.4223,2.0106 2.39237,-2.3924 1.39494,-4.2065 -4.74015,-8.6191 -7.45293,-5.3604 -7.57581,-5.3942 -10.16813,-2.8018 m 163.35507,-0.3301 c -0.44209,0.4409 -0.80347,2.0273 -0.80347,3.5247 0,2.1369 1.45758,3.3898 6.77113,5.8231 8.31785,3.8078 9.37188,3.8343 10.99208,0.2783 1.63225,-3.5826 0.98778,-4.4041 -6.05077,-7.7192 -5.81827,-2.7405 -9.44295,-3.3741 -10.90897,-1.9069 m 115.64275,5.8737 c -4.8063,5.4617 -5.2797,8.4046 -1.7129,10.6511 1.7491,1.1011 3.0417,0.3844 7.6903,-4.2655 4.6823,-4.6811 5.4605,-6.0966 4.8016,-8.7226 -1.1938,-4.7557 -5.3244,-3.8596 -10.779,2.337 m -206.01999,10.415 c -0.98417,1.5311 -2.75856,4.8463 -3.94391,7.3663 -2.40199,5.1087 -1.40096,8.3961 2.74773,9.0214 3.23558,0.4866 10.02598,-13.2846 8.07692,-16.3804 -1.95508,-3.1043 -4.88831,-3.1068 -6.88074,-0.01 m 107.88388,2.4225 c -2.69713,2.6971 -1.4612,5.6605 4.14869,9.9429 6.25675,4.7787 9.4044,5.3484 11.18121,2.0285 1.48408,-2.7729 0.1855,-4.5618 -7.01808,-9.6634 -5.96765,-4.2258 -6.30132,-4.3185 -8.31182,-2.308 m -162.8636,3.2392 c -2.11409,0.5843 -3.12476,1.8058 -3.39339,4.1029 -0.49871,4.2728 1.45517,4.933 10.86078,3.6705 7.94322,-1.0661 10.10791,-3.279 6.93978,-7.0952 -1.51781,-1.8298 -8.96473,-2.1804 -14.40717,-0.6782 m 28.4144,4.1993 c -7.16142,3.9571 -8.39254,6.918 -4.01738,9.661 1.65514,1.0372 3.31871,0.683 7.70229,-1.6431 7.17227,-3.8042 8.78403,-5.4774 8.03717,-8.3371 -0.98778,-3.7753 -4.48477,-3.6802 -11.72208,0.3192 m 191.64291,10.8595 c -3.50049,7.6457 -3.1235,11.5764 1.1095,11.5764 2.2166,0 3.5404,-1.3612 5.9532,-6.1231 3.8283,-7.5541 3.5681,-11.2041 -0.8347,-11.7136 -2.82,-0.3265 -3.5465,0.4036 -6.228,6.2603 m -41.34945,1.6564 c -3.53433,2.2646 -2.22371,6.0532 3.75117,10.8499 5.12802,4.115 6.37838,4.6234 8.73346,3.5501 4.23297,-1.9287 3.30545,-4.9944 -3.13924,-10.3911 -6.09534,-5.1027 -7.01808,-5.499 -9.34539,-4.0089 m 69.74355,8.8178 c -3.5392,1.3383 -3.4537,4.5341 0.3216,11.9835 2.9091,5.7424 5.4243,7.2553 8.4118,5.0618 2.0888,-1.5359 1.837,-3.5404 -1.3106,-10.4151 -3.5489,-7.7529 -3.8175,-7.9926 -7.4228,-6.6302 m -42.2519,3.8595 c -0.70833,0.8541 -1.97199,4.1066 -2.80674,7.2277 -0.83475,3.1212 -1.86354,5.675 -2.28517,5.675 -0.42278,0 -1.75032,-1.0841 -2.94884,-2.4093 -2.72001,-3.0055 -4.47635,-3.0404 -7.10245,-0.1385 -1.94778,2.1514 -1.90447,2.4454 0.82281,5.6159 2.69465,3.1332 2.74888,3.4741 0.85407,5.369 -2.50446,2.5043 -4.08847,14.2288 -2.22618,16.4731 3.67286,4.4245 8.25402,-0.1193 8.25402,-8.1866 0,-2.9152 0.68662,-3.8379 3.61386,-4.8582 3.48256,-1.2142 3.8319,-1.6347 4.09564,-4.9389 0.0665,-0.8276 0.89146,-2.1093 1.83466,-2.8465 1.86354,-1.4576 4.86297,-10.3428 4.8931,-14.4915 0.026,-3.7127 -4.61367,-5.3641 -6.99878,-2.4912 m 43.2926,22.9768 c -1.0336,1.2456 -0.7252,3.4151 1.2817,8.9924 2.9574,8.2179 4.5318,9.4574 8.2192,6.4712 l 2.5272,-2.0478 -2.7092,-7.5289 c -2.1948,-6.1013 -3.2067,-7.5287 -5.3328,-7.5287 -1.4431,0 -3.2368,0.7383 -3.9861,1.6418 m -47.62559,9.8803 c -2.69715,2.6971 -2.40443,4.2811 1.90571,10.2813 4.43179,6.1701 5.61712,7.1133 7.86251,6.2519 4.04993,-1.5539 3.98605,-4.751 -0.2144,-10.6572 -5.10272,-7.1782 -7.053,-8.3768 -9.55382,-5.876 m -20.59283,11.8341 c -1.81174,1.325 -2.04423,2.7092 -1.43831,8.5768 0.82396,7.9878 3.30425,11.5498 6.60124,9.4827 2.53334,-1.5889 3.15971,-5.1569 2.12012,-12.0883 -0.90705,-6.0496 -3.86192,-8.4732 -7.28305,-5.9712 m 69.44232,3.5596 c -0.9986,1.2022 -0.8552,3.2898 0.5578,8.1311 2.3285,7.9734 4.1342,10.0586 7.7252,8.919 2.2947,-0.7276 2.5982,-1.4913 2.09,-5.2437 -0.9734,-7.1867 -4.0897,-13.4254 -6.7073,-13.4254 -1.277,0 -2.9273,0.7288 -3.6657,1.619 m -43.54556,9.8526 c -1.24195,1.4972 -1.1119,2.7465 0.71196,6.7891 1.22865,2.7261 3.22474,6.2146 4.43532,7.7541 1.85035,2.3514 2.64895,2.596 4.99438,1.5275 3.3922,-1.5456 3.3186,-3.6163 -0.3771,-10.6777 -3.92702,-7.5023 -6.72898,-9.0503 -9.76456,-5.393 m -34.51697,13.3302 c -0.40354,1.0528 0.79746,5.1184 2.66943,9.0346 2.67423,5.5954 3.98726,7.1205 6.13267,7.1205 4.91965,0 5.38823,-3.4272 1.51662,-11.0958 -2.88506,-5.7159 -4.06678,-6.9734 -6.55189,-6.9734 -1.66719,0 -3.36207,0.8612 -3.76683,1.9141 m 76.36883,0.6565 c -2.8163,1.5769 -3.0007,15.6419 -0.2336,17.9379 2.9356,2.4369 8.2829,-0.4614 7.3397,-3.9789 -0.3952,-1.472 -0.7252,-4.9617 -0.7337,-7.754 -0.02,-5.6834 -2.6779,-8.2721 -6.3724,-6.205 m -38.15376,11.7702 c -0.92024,1.7202 -0.56852,3.9066 1.40586,8.7335 2.8513,6.9675 3.87282,8.1323 6.7603,7.7083 3.6391,-0.5336 4.2704,-3.6186 1.9731,-9.6345 -3.4018,-8.9093 -7.53124,-11.6811 -10.13926,-6.8073 m -356.62665,4.4306 c -8.28171,0.8891 -24.0019,2.4285 -34.93375,3.4223 -43.02394,3.909 -91.37105,14.8481 -146.3604,33.1148 -19.87611,6.6037 -49.14819,15.3155 -65.04908,19.3618 -15.90087,4.045 -34.33145,8.9237 -40.95681,10.8414 -23.90795,6.9181 -46.28242,12.0305 -70.49633,16.1093 -44.5285,7.5011 -54.29188,8.772 -74.93533,9.7538 -5.78333,0.2746 -20.18688,1.1636 -32.00895,1.9744 -16.01894,1.0986 -22.48168,1.1299 -25.37636,0.1205 -4.74979,-1.6552 -4.39925,-2.6044 -6.14233,16.6284 -1.24316,13.7229 -3.92462,32.3378 -5.71106,39.6377 -0.61074,2.5009 -0.35536,2.8055 1.86956,2.2237 1.41783,-0.3709 8.13836,0.07 14.93358,0.9794 25.62331,3.4283 70.65895,1.7985 109.32821,-3.9571 27.26399,-4.0583 29.40458,-4.1089 29.88764,-0.7192 0.53725,3.7753 -1.95147,4.6883 -20.2905,7.447 -23.12253,3.4789 -35.90709,4.7353 -62.60008,6.1495 -22.27931,1.1805 -30.76099,0.9336 -66.33078,-1.9274 l -9.11169,-0.7324 -1.57323,7.0698 c -3.85717,17.3344 -12.64119,36.0192 -24.60299,52.3272 l -6.56514,8.9515 5.60627,0.3349 c 3.08379,0.1842 171.21034,-6.4363 373.61534,-14.7119 219.01298,-8.9551 369.71601,-14.6553 372.22522,-14.0784 2.31888,0.5337 5.97367,1.8805 8.1227,2.9948 9.59233,4.9701 9.39116,5.0159 14.32525,-3.1995 8.98279,-14.959 22.30581,-32.7462 37.88747,-50.5841 2.7682,-3.1694 4.76665,-6.0291 4.4402,-6.3556 -0.90345,-0.9046 -13.43624,-5.181 -21.16022,-7.2228 -10.2898,-2.7189 -49.89866,-4.4499 -65.29842,-2.8538 -7.01687,0.7277 -22.96473,3.9427 -35.81915,7.2229 -78.70576,20.0809 -142.60442,27.5868 -238.83247,28.0554 l -34.33145,0.1674 v -3.0114 -3.0116 l 24.69455,-0.8492 c 91.37225,-3.1405 112.99264,-4.5209 148.16732,-9.4622 28.65893,-4.0259 61.50992,-10.5164 91.21807,-18.0211 35.05663,-8.8551 40.63277,-9.6127 70.75651,-9.6127 30.95011,0 35.16264,0.7275 67.02585,11.5763 1.21906,0.4156 4.5474,-1.6468 9.03458,-5.5954 3.90657,-3.4393 11.07762,-8.9491 15.93462,-12.2426 l 8.83102,-5.9893 -5.09069,-3.7439 c -17.13682,-12.6027 -44.95011,-23.7406 -71.95993,-28.8168 -35.27708,-6.629 -95.53661,-0.8685 -155.63472,14.8782 -32.76786,8.5865 -33.24851,8.6925 -35.49993,7.8288 -1.23954,-0.4759 -1.86353,-1.7997 -1.62622,-3.4464 0.31922,-2.2177 2.02976,-3.1513 10.02237,-5.4702 64.81416,-18.8076 133.59271,-28.006 172.8932,-23.1225 16.15024,2.0069 27.19411,4.5305 42.68303,9.7561 19.54483,6.5929 33.28584,13.7242 49.63485,25.7595 2.41162,1.7756 2.97178,1.7323 7.47343,-0.5637 2.67658,-1.3661 7.87331,-3.6079 11.54856,-4.9836 3.6741,-1.3744 6.6808,-2.9224 6.6808,-3.4391 0,-2.6225 -28.24333,-21.8457 -46.14507,-31.409 -27.03873,-14.4446 -61.01843,-25.58 -97.92775,-32.091 -49.86975,-8.7984 -109.30412,-0.3517 -165.85344,23.5719 -47.75325,20.2026 -66.10793,26.7725 -97.83501,35.0241 -32.07401,8.3407 -59.92465,12.54 -119.85894,18.0716 -35.56015,3.2825 -44.77303,3.1368 -46.2559,-0.73 -1.69369,-4.4125 0.38909,-5.3015 12.41714,-5.3015 18.86183,0 87.7801,-6.9037 115.1501,-11.5342 12.55929,-2.1249 48.90365,-11.1173 63.47706,-15.7045 10.67888,-3.3621 55.79282,-21.1457 73.98246,-29.1636 47.49185,-20.935 112.26266,-30.3032 160.07974,-23.1539 49.67701,7.4264 91.86615,23.0153 130.74135,48.3097 l 15.01678,9.7706 -8.10225,-8.2359 c -10.50182,-10.674 -36.95631,-27.4242 -57.18777,-36.207 -33.63519,-14.6035 -93.71644,-30.2755 -137.6872,-35.9167 -33.23767,-4.2631 -114.11534,-5.5304 -144.55349,-2.2635 m 675.78771,0.147 c -20.5856,1.2552 -53.8667,7.0422 -78.9021,13.7193 -21.4999,5.7352 -57.4276,16.9453 -56.6843,17.6874 0.2879,0.2878 4.992,-0.077 10.4537,-0.812 22.2925,-3.0007 56.2589,-4.0763 82.7652,-2.6224 48.7952,2.6778 82.1775,7.9588 122.2332,19.3388 21.3856,6.0761 29.0902,8.6395 76.1315,25.333 73.1164,25.9474 122.7235,36.4215 173.4642,36.6262 l 25.2969,0.1029 v 2.9248 c 0,4.1981 -4.0161,4.9919 -25.8991,5.1244 -42.7011,0.2578 -105.6819,-12.1521 -160.2136,-31.5705 -9.6066,-3.421 -27.9024,-9.9669 -40.658,-14.5469 -62.1339,-22.3106 -107.2454,-31.6331 -169.436,-35.0169 -49.4781,-2.6911 -103.0798,2.79 -142.549,14.5759 -8.7191,2.6044 -33.8738,17.1488 -42.7047,24.6921 -5.7111,4.8787 -19.063,21.0675 -18.951,22.9756 0.039,0.6625 5.3208,3.7572 11.7366,6.8783 25.4883,12.3954 52.4717,37.9959 71.4685,67.8077 10.5102,16.4911 12.9146,20.5759 16.844,28.6095 2.1877,4.4727 4.4451,8.1311 5.0185,8.1311 1.943,0 17.0742,-6.376 24.7415,-10.4259 6.8699,-3.6283 8.619,-4.0294 17.5789,-4.0294 10.1694,0 164.055,6.6133 182.588,7.8481 5.6315,0.3745 128.6826,5.7833 273.4469,12.0207 144.7643,6.2375 267.6841,11.639 273.1555,12.0052 l 9.9477,0.6662 -9.873,-11.4944 c -7.2312,-8.4203 -10.3753,-11.268 -11.7534,-10.6512 -1.036,0.4637 -6.623,2.0876 -12.4159,3.6102 -15.5191,4.0764 -37.2202,5.6027 -65.6285,4.6173 -25.8389,-0.8962 -29.9864,-1.8286 -27.3399,-6.1459 1.1926,-1.9479 4.3921,-2.1311 39.1499,-2.2491 31.7753,-0.1072 39.1066,-0.4614 45.6801,-2.2116 4.3065,-1.1456 9.8633,-2.6261 12.3473,-3.2886 2.4851,-0.6638 4.5173,-1.7335 4.5173,-2.378 0,-0.6444 -2.1599,-4.3366 -4.8004,-8.2045 l -4.8016,-7.0338 -6.488,2.1912 c -3.5681,1.2046 -12.9267,3.4272 -20.7965,4.9389 -13.8144,2.6526 -16.3742,2.7405 -73.9378,2.5357 -32.7956,-0.1169 -68.0305,-0.6589 -78.2999,-1.2046 l -18.6714,-0.9926 v -3.0115 -3.0116 l 19.8761,0.061 c 10.9318,0.035 44.5405,0.3023 74.686,0.595 58.6079,0.5686 63.7107,0.2422 86.4622,-5.5291 6.305,-1.5997 11.692,-3.1356 11.9702,-3.415 0.2795,-0.2796 -0.9516,-3.3875 -2.7357,-6.9086 -9.0791,-17.9161 -13.4904,-37.2598 -14.854,-65.1381 -0.5132,-10.4729 -1.2529,-19.3617 -1.6431,-19.7533 -0.3915,-0.3903 -9.0201,-1.4504 -19.1762,-2.3538 -10.1549,-0.9035 -28.2217,-2.5237 -40.1473,-3.5994 -11.9258,-1.0769 -30.0852,-2.4839 -40.3545,-3.1271 -10.2694,-0.6433 -27.8869,-2.2274 -39.15,-3.52 -11.2631,-1.2913 -28.6095,-2.8971 -38.5476,-3.5668 -9.9381,-0.6698 -21.8637,-1.7335 -26.5015,-2.3622 -4.6377,-0.6289 -14.6662,-1.7359 -22.2853,-2.4611 -19.593,-1.8647 -29.9876,-3.3849 -45.1729,-6.6072 -7.288,-1.548 -19.0702,-3.9584 -26.1824,-5.3582 -13.4915,-2.655 -29.2731,-7.2071 -58.7429,-16.9441 -54.1123,-17.88 -91.9347,-27.2796 -128.2634,-31.8752 -21.1711,-2.679 -28.0494,-3.0187 -57.2192,-2.8224 -18.2341,0.1229 -36.1358,0.4047 -39.7798,0.6264 m -291.2345,7.8842 c -0.6697,0.8287 -1.5973,4.8485 -2.061,8.9346 -0.7517,6.6217 -0.5879,7.5662 1.5057,8.6876 3.75,2.0058 6.0773,-0.8022 7.3663,-8.8888 0.9781,-6.1339 0.8576,-7.4553 -0.7914,-8.7334 -1.0686,-0.8276 -2.5864,-1.5058 -3.373,-1.5058 -0.7854,0 -1.9768,0.6782 -2.6466,1.5058 m -24.31509,12.8387 c -0.93593,1.7492 -0.5144,3.915 1.76714,9.0732 3.36695,7.6131 5.63405,9.155 8.99015,6.1182 2.2514,-2.037 2.2381,-2.2056 -0.6952,-8.8395 -3.9426,-8.9129 -7.4915,-11.1535 -10.06209,-6.3519 m 212.02639,37.5562 c -17.3813,1.6745 -36.1528,4.6908 -53.0765,8.5287 -31.9717,7.2505 -47.5738,15.4925 -40.4774,21.3819 1.3203,1.0962 3.3343,0.4999 9.3357,-2.7622 9.6274,-5.2329 19.145,-8.1299 41.6375,-12.6738 33.4558,-6.759 45.5621,-7.8504 87.0779,-7.8516 28.212,0 42.5806,0.5337 56.0144,2.084 58.9309,6.7964 85.2613,12.5207 146.982,31.9523 59.3405,18.6811 77.1711,23.9368 102.3728,30.1744 51.3165,12.7014 101.8439,20.2098 156.5261,23.261 26.9701,1.5058 73.0718,-0.027 90.4194,-3.0055 7.8048,-1.3408 8.4323,-1.672 8.4323,-4.4594 0,-2.7766 -0.4228,-3.0056 -5.4207,-2.9393 -2.9815,0.041 -13.5519,0.795 -23.49,1.678 -21.9035,1.9455 -76.1785,1.0553 -104.199,-1.7093 -70.2071,-6.9266 -121.1755,-18.4968 -220.444,-50.042 -65.7514,-20.8953 -99.1649,-27.9121 -157.8043,-33.1401 -21.3228,-1.9009 -76.2049,-2.1792 -93.8862,-0.4771 m 49.3156,60.8402 c -33.9014,2.1478 -57.5781,5.7051 -63.4144,9.5297 -3.7993,2.4887 -3.4765,7.0494 0.5397,7.6191 1.5274,0.2157 3.4379,-0.1554 4.245,-0.8251 2.4236,-2.0117 24.4657,-5.9544 40.9267,-7.3216 26.728,-2.2201 60.3571,-1.3444 91.7867,2.3923 18.9461,2.2526 68.1521,9.5116 82.516,12.1726 17.5427,3.2501 19.2726,3.3031 20.9276,0.6457 2.1322,-3.4223 -1.372,-5.1112 -16.4803,-7.9421 -21.9371,-4.11 -75.9363,-11.9533 -95.3956,-13.8542 -18.8173,-1.8394 -54.2039,-3.1416 -65.6514,-2.4164 m -253.7072,16.1225 c -23.34173,6.1206 -49.23245,24.8017 -71.75388,51.7754 -10.80658,12.9424 -23.44417,31.0032 -22.41302,32.0331 0.37343,0.3734 6.32662,1.6974 13.22784,2.9429 48.77116,8.7948 116.86786,10.45 170.81886,4.1523 17.7958,-2.078 34.8314,-4.8425 35.7999,-5.8098 0.3385,-0.3398 -1.4323,-4.3029 -3.9342,-8.8094 -18.7306,-33.7291 -45.4742,-61.316 -69.9471,-72.1538 -15.113,-6.6929 -35.7505,-8.3384 -51.7984,-4.1307 m 227.7815,12.1618 c -18.916,1.937 -26.746,5.5798 -22.0636,10.2633 1.7925,1.7912 2.626,1.8021 9.6163,0.1241 34.2424,-8.2215 119.9277,-3.2236 157.0911,9.1622 10.0839,3.3609 12.8726,3.0766 12.3534,-1.2588 -0.3073,-2.5742 -1.5034,-3.4933 -6.9964,-5.3822 -11.5523,-3.9716 -25.2319,-6.7976 -48.7869,-10.0789 -19.3327,-2.6936 -28.1265,-3.2465 -56.6167,-3.5657 -18.551,-0.2072 -38.6199,0.124 -44.5972,0.736 m -892.59135,34.3531 c -27.58442,2.2708 -124.42924,3.5343 -133.71197,1.7443 -11.79436,-2.2755 -13.20136,-2.1948 -13.62538,0.783 -0.24935,1.7479 0.64326,3.3018 2.65376,4.6185 7.12649,4.669 64.19139,5.1208 135.76705,1.0733 36.81657,-2.0815 39.03185,-2.4562 39.03185,-6.6061 0,-2.6429 -0.5228,-2.938 -5.42076,-3.0633 -2.98142,-0.076 -14.09397,0.5769 -24.69455,1.4503 m 222.25098,2.9393 c -14.61075,2.2008 -47.1678,3.8318 -83.994,4.2101 -36.53108,0.3735 -41.31339,0.6927 -41.26761,2.7525 0.1313,5.8906 11.97384,6.6675 66.83791,4.386 25.83893,-1.0757 54.02687,-2.8561 62.63984,-3.9583 15.36604,-1.9671 15.65997,-2.0611 15.65997,-5.016 0,-2.826 -0.40958,-3.0224 -6.62537,-3.1911 -3.64396,-0.1 -9.60678,0.2687 -13.25074,0.8168"
     stroke="none"
     fill="#fcfbfa"
     fill-rule="evenodd"
     id="path2"
     style="stroke-width:1.20461" />
</svg>
