<svg xmlns="http://www.w3.org/2000/svg" width="460" height="460" viewBox="0 0 460 460" version="1.1"><path d="M 160.046 42.445 C 158.280 44.572, 159.176 48.358, 161.707 49.469 C 163.202 50.125, 167.771 57.742, 175.871 73.081 L 187.827 95.725 190.921 119.113 C 192.622 131.976, 193.998 143.175, 193.979 144 C 193.959 144.825, 189.455 134.043, 183.970 120.039 C 176.580 101.174, 171.665 90.398, 164.998 78.443 C 160.049 69.568, 156 61.168, 156 59.776 C 156 56.467, 153.680 54.613, 150.528 55.404 C 145.860 56.575, 146.306 64, 151.044 64 C 152.318 64, 155.374 68.450, 161.519 79.250 C 168.170 90.941, 172.613 100.674, 180.559 120.955 C 186.260 135.505, 190.792 147.542, 190.631 147.703 C 190.469 147.864, 180.515 133.034, 168.510 114.748 C 151.645 89.058, 146.725 80.848, 146.866 78.632 C 147.093 75.093, 145.470 73, 142.500 73 C 137.526 73, 136.449 79.501, 141.058 81.703 C 142.758 82.515, 151.120 94.411, 166.020 117.212 C 178.342 136.071, 188.878 151.813, 189.433 152.196 C 189.988 152.578, 190.230 153.101, 189.971 153.358 C 189.712 153.614, 181.773 145.778, 172.329 135.945 C 156.278 119.232, 154.662 117.193, 147.551 104.687 C 142.956 96.604, 140.184 90.684, 140.549 89.732 C 141.488 87.285, 139.217 84, 136.587 84 C 131.708 84, 130.337 90.564, 134.811 92.500 C 136.272 93.132, 139.739 98.101, 144.231 106 C 152.188 119.991, 153.432 121.517, 173.786 142.250 C 181.750 150.363, 187.811 157, 187.255 157 C 186.700 157, 185.745 156.398, 185.134 155.662 C 184.523 154.926, 175.456 148.738, 164.984 141.912 L 145.944 129.500 139.070 116.961 C 133.838 107.415, 132.321 103.773, 132.716 101.705 C 133.743 96.334, 127.092 93.509, 124.876 98.374 C 123.649 101.065, 125.133 105, 127.373 105 C 128.090 105, 131.951 111.036, 135.953 118.413 L 143.229 131.826 161.328 143.663 C 171.282 150.173, 180.568 156.091, 181.963 156.812 C 185.674 158.732, 186.007 159.308, 184.550 161.281 C 183.317 162.949, 182.959 162.852, 178.867 159.737 C 176.465 157.909, 165.596 150.415, 154.713 143.084 C 141.653 134.288, 134.419 128.777, 133.437 126.878 C 131.578 123.282, 126.704 122.816, 124.964 126.067 C 123.263 129.246, 126.287 133.370, 129.823 132.693 C 131.981 132.281, 136.099 134.648, 152.129 145.513 C 162.941 152.842, 173.073 159.536, 174.644 160.388 C 176.215 161.240, 178.487 162.738, 179.693 163.718 C 181.868 165.486, 181.870 165.519, 179.957 167.843 L 178.028 170.187 173.264 167.447 C 170.644 165.941, 156.623 158.316, 142.106 150.503 C 122.561 139.984, 115.352 135.610, 114.324 133.649 C 112.414 130.004, 107.451 129.915, 105.820 133.496 C 104.281 136.874, 107.222 140.388, 110.972 139.652 C 112.865 139.281, 120.154 142.669, 140 153.147 C 154.575 160.841, 168.515 168.200, 170.977 169.500 C 180.459 174.504, 176.781 174.933, 149 172.063 C 139.187 171.049, 137.677 170.577, 125.931 164.859 C 117.866 160.933, 113.029 157.981, 112.431 156.621 C 111.352 154.163, 107.543 153.304, 105.445 155.046 C 102.091 157.829, 105.326 163.637, 109.629 162.557 C 111.291 162.140, 115.474 163.726, 124.058 168.029 C 135.953 173.992, 136.332 174.104, 147.823 175.077 C 154.245 175.621, 162.313 176.312, 165.750 176.612 C 175.362 177.453, 174.357 178.763, 159.500 184.754 C 154 186.971, 148.034 189.096, 146.241 189.474 C 141.849 190.402, 122.368 184.676, 120.011 181.765 C 116.570 177.516, 110.376 182.096, 112.980 186.962 C 114.119 189.092, 117.896 189.704, 119.569 188.031 C 120.195 187.405, 124.692 188.306, 132.255 190.573 C 141.877 193.457, 144.358 193.879, 146.132 192.929 C 149.724 191.007, 167.002 185.126, 166.968 185.837 C 166.951 186.202, 166.276 187.374, 165.468 188.441 C 162.275 192.663, 164.838 199, 169.740 199 C 170.885 199, 172.987 197.615, 174.411 195.923 L 177 192.847 177 204.919 L 177 216.992 184.343 226.591 C 190.173 234.214, 191.585 236.719, 191.197 238.752 C 190.377 243.039, 195.310 245.547, 198.429 242.429 C 200.948 239.909, 200.311 237.116, 196.735 235.006 C 194.940 233.947, 190.665 229.292, 187.235 224.661 L 181 216.242 181 201.180 C 181 192.896, 181.362 185.894, 181.805 185.620 C 182.248 185.346, 186.186 192.320, 190.555 201.116 C 198.464 217.038, 198.544 217.151, 208.250 226.131 C 213.830 231.293, 218 235.944, 218 237.004 C 218 239.387, 220.616 242, 223 242 C 225.170 242, 228 239.453, 228 237.500 C 228 235.487, 225.144 233, 222.832 233 C 221.668 233, 216.580 229.100, 210.869 223.830 L 200.931 214.660 192.966 198.184 C 188.585 189.122, 185 181.286, 185 180.770 C 185 180.255, 185.552 180.017, 186.226 180.242 C 188.325 180.942, 239.759 226.458, 239.321 227.229 C 239.094 227.630, 239.408 228.894, 240.020 230.038 C 241.637 233.059, 247.367 232.440, 247.827 229.195 C 248.227 226.369, 246.408 224, 243.838 224 C 242.386 224, 203.418 190.915, 189.700 178.035 C 187.967 176.407, 187.967 176.267, 189.700 174.238 C 191.498 172.133, 191.525 172.148, 215.716 189.433 C 229.035 198.949, 239.686 206.981, 239.385 207.282 C 239.084 207.583, 239.340 208.767, 239.954 209.914 C 241.469 212.745, 246.524 212.757, 248.036 209.933 C 249.577 207.054, 246.777 202.755, 243.630 203.167 C 242.062 203.373, 234.149 198.333, 217.308 186.403 C 197.369 172.279, 193.385 169.063, 194.146 167.703 C 194.930 166.303, 196.721 167.284, 206.283 174.352 C 212.452 178.912, 221.568 185.583, 226.540 189.176 L 235.580 195.708 250.469 197.861 C 259.594 199.180, 265.997 200.592, 267.008 201.507 C 269.404 203.676, 271.730 203.342, 273.548 200.567 C 274.788 198.675, 274.896 197.675, 274.036 196.067 C 272.816 193.788, 268.176 193.224, 266.276 195.124 C 265.444 195.956, 261.504 195.770, 251.108 194.408 L 237.064 192.568 218.782 179.233 C 208.727 171.899, 200.050 165.448, 199.500 164.897 C 198.385 163.781, 198.123 163.675, 224.320 174.912 C 241.866 182.438, 244.169 183.159, 258.320 185.554 C 270.021 187.534, 274.013 188.605, 275.740 190.226 C 277.639 192.010, 278.362 192.156, 280.490 191.186 C 282.107 190.450, 282.995 189.235, 282.985 187.771 C 282.956 183.443, 279.538 181.235, 276.337 183.476 C 274.735 184.599, 271.992 184.370, 258.472 181.988 C 243.085 179.276, 241.694 178.823, 220.500 169.617 C 208.400 164.361, 198.857 160.047, 199.294 160.030 C 199.731 160.014, 214.131 163.168, 231.294 167.040 C 248.457 170.912, 266.775 175.028, 272 176.186 C 278.372 177.599, 281.930 178.903, 282.807 180.146 C 285.327 183.722, 291 181.890, 291 177.500 C 291 176.345, 290.460 174.860, 289.800 174.200 C 288.342 172.742, 284.770 172.630, 283.401 173.999 C 282.735 174.665, 271.236 172.500, 248.951 167.512 C 230.553 163.395, 213.873 159.570, 211.884 159.013 C 209.895 158.456, 207.195 157.993, 205.884 157.985 C 204.573 157.976, 202.860 157.565, 202.079 157.070 C 201.227 156.531, 211.848 156.356, 228.579 156.633 C 251.882 157.020, 259.550 157.539, 274.941 159.773 C 290.550 162.038, 293.758 162.798, 295.837 164.724 C 298.864 167.530, 301.138 167.610, 303.504 164.996 C 305.034 163.305, 305.131 162.583, 304.124 160.372 C 303.008 157.923, 302.615 157.793, 298.132 158.388 C 294.992 158.805, 287.715 158.146, 277.073 156.481 C 262.453 154.194, 257.944 153.939, 232.406 153.950 C 216.783 153.957, 204 153.611, 204 153.180 C 204 152.750, 215.216 149.814, 228.925 146.656 L 253.850 140.914 266.175 142.512 C 272.954 143.391, 279.400 144.319, 280.500 144.574 C 281.600 144.829, 287.373 145.667, 293.328 146.435 C 300.547 147.366, 304.784 148.399, 306.038 149.534 C 310.060 153.174, 316.430 147.633, 312.989 143.487 C 311.525 141.723, 307.866 141.534, 306.260 143.140 C 305.037 144.363, 297.102 143.706, 267.292 139.916 C 252.180 137.995, 252.039 137.995, 244.792 139.967 C 240.782 141.058, 231.425 143.332, 224 145.021 C 216.575 146.710, 209.652 148.346, 208.615 148.656 C 207.011 149.136, 207.122 148.706, 209.361 145.771 C 210.808 143.874, 212.451 141.012, 213.012 139.411 C 213.897 136.888, 215.231 136.081, 223.022 133.354 C 227.966 131.624, 232.260 130.611, 232.564 131.104 C 233.366 132.401, 237.396 132.204, 238.800 130.800 C 239.460 130.140, 240 128.655, 240 127.500 C 240 122.738, 234.708 121.451, 231.290 125.381 C 229.052 127.956, 213.886 133.554, 211.564 132.663 C 210.617 132.299, 209.980 129.239, 209.489 122.700 C 208.886 114.657, 209.037 112.874, 210.506 110.631 C 212.109 108.185, 212.115 107.825, 210.592 105.500 C 208.514 102.329, 205.504 102.301, 203.452 105.433 C 202.212 107.325, 202.104 108.325, 202.964 109.933 C 203.573 111.070, 204.505 112, 205.035 112 C 205.591 112, 206 116.243, 206 122 C 206 127.664, 205.587 132, 205.048 132 C 204.524 132, 202.642 134.114, 200.864 136.698 C 199.086 139.281, 197.501 140.969, 197.341 140.448 C 197.181 139.926, 195.710 129.375, 194.073 117 L 191.096 94.500 179.142 71.982 C 169.773 54.332, 167.302 48.871, 167.712 46.726 C 168 45.220, 167.677 43.316, 166.995 42.494 C 165.417 40.593, 161.605 40.566, 160.046 42.445" stroke="none" fill="currentColor" fill-rule="evenodd"/><path d="M 330.498 96.739 C 329.947 97.158, 326.892 100.721, 323.710 104.657 C 320.528 108.594, 316.003 113.586, 313.654 115.751 C 304.557 124.137, 288.970 130.819, 267.670 135.465 C 261.713 136.764, 256.639 138.028, 256.393 138.273 C 255.485 139.182, 286.646 142.289, 290.122 141.637 C 295.152 140.693, 310.924 132.858, 317.352 128.109 C 320.303 125.929, 324.792 121.774, 327.328 118.875 C 329.864 115.977, 332.116 113.806, 332.333 114.052 C 334.411 116.408, 342.374 147.255, 345.614 165.500 C 348.137 179.709, 348.171 211.448, 345.679 226.500 C 343.234 241.270, 338.717 259.205, 335.041 268.738 C 328.850 284.791, 314.442 302.429, 296.728 315.639 C 272.658 333.589, 255.089 338.965, 230.020 336.051 C 211.749 333.927, 197.179 328.586, 178 316.983 C 165.505 309.424, 154 297.371, 154 291.839 C 154 289.483, 155.217 288.913, 173.662 282.624 C 201.402 273.165, 215.120 266.989, 228.992 257.715 C 239.823 250.473, 251.013 238.696, 255.407 229.914 C 260.151 220.431, 260.107 216.752, 255.229 214.897 C 250.201 212.985, 244.311 220.476, 246.957 225.419 C 248.995 229.227, 247.963 231.500, 244.197 231.500 C 241.518 231.500, 239.701 232.686, 234.211 238.021 C 223.089 248.827, 207.273 257.896, 186.500 265.378 C 167.626 272.177, 152.498 277.713, 150.850 278.425 C 149.590 278.969, 148.946 278.353, 148.123 275.819 C 143.314 261.013, 142.282 237.525, 145.802 223 C 148.380 212.359, 152.422 202.463, 157.749 193.750 C 160.019 190.037, 161.566 187.021, 161.188 187.048 C 160.810 187.074, 156.900 188.536, 152.500 190.298 L 144.500 193.500 140.743 201.117 C 130.898 221.077, 128.756 245.516, 134.649 270.653 C 136.048 276.619, 137.404 282.400, 137.662 283.500 C 138.003 284.945, 137.279 286.003, 135.055 287.313 C 129.973 290.307, 120.134 299.954, 115.408 306.576 C 110.025 314.121, 105.991 323.587, 101.379 339.500 C 97.097 354.273, 95.948 365.745, 98.378 369.455 C 100.357 372.475, 103.970 372.796, 106.353 370.163 C 107.370 369.039, 108.416 365.127, 109.048 360.086 C 110.241 350.574, 115.830 331.230, 119.908 322.500 C 123.672 314.440, 130.742 305.322, 136.772 300.750 C 139.492 298.688, 141.966 297, 142.270 297 C 142.573 297, 143.828 299.080, 145.059 301.622 C 150.271 312.387, 162.958 322.842, 184.416 334.052 C 211.843 348.380, 243.006 352.735, 266 345.455 C 297.154 335.591, 328.548 308.718, 343.401 279.202 C 347.973 270.117, 352.906 253.074, 356.629 233.500 C 359.247 219.740, 359.480 216.641, 359.454 196 C 359.430 176.908, 359.083 171.682, 357.162 161.500 C 352.606 137.346, 346.039 114.069, 340.659 103 C 337.904 97.331, 337.117 96.467, 334.500 96.239 C 332.850 96.096, 331.049 96.321, 330.498 96.739 M 224.607 143.035 C 214.938 144.867, 209.151 146.446, 208.107 147.536 C 206.623 149.086, 206.653 149.172, 208.500 148.656 C 209.600 148.349, 217.700 146.449, 226.500 144.434 C 235.300 142.418, 242.688 140.596, 242.917 140.385 C 243.754 139.611, 239.182 140.273, 224.607 143.035 M 227.750 146.755 C 214.688 149.853, 204 152.750, 204 153.193 C 204 155.087, 231.582 153.998, 246.777 151.504 C 262.264 148.963, 278.780 145.553, 279.606 144.727 C 280.077 144.256, 266.736 142.402, 257 141.585 C 252.677 141.223, 246.419 142.329, 227.750 146.755 M 185 155.500 C 185.685 156.325, 186.695 157, 187.245 157 C 187.803 157, 187.694 156.337, 187 155.500 C 186.315 154.675, 185.305 154, 184.755 154 C 184.197 154, 184.306 154.663, 185 155.500 M 177.131 156.898 C 176.090 157.557, 176.672 158.384, 179.551 160.341 C 183.068 162.731, 183.433 162.793, 184.617 161.208 C 185.695 159.764, 185.553 159.233, 183.696 157.772 C 181.265 155.860, 179.203 155.585, 177.131 156.898 M 202 157 C 202.825 157.533, 205.525 157.969, 208 157.969 C 210.475 157.969, 213.175 157.533, 214 157 C 215.041 156.327, 213.207 156.031, 208 156.031 C 202.793 156.031, 200.959 156.327, 202 157 M 170 162.015 C 167.196 164.225, 167.321 164.399, 174.354 168.112 L 178.209 170.147 179.836 167.824 C 181.697 165.167, 181.730 165.252, 177.661 162.250 C 173.960 159.519, 173.196 159.496, 170 162.015 M 161.567 169.293 C 159.308 172.181, 159.231 172.562, 160.781 173.177 C 163.307 174.179, 173.274 174.112, 174.901 173.082 C 175.960 172.412, 175.226 171.623, 171.901 169.859 C 164.285 165.817, 164.288 165.817, 161.567 169.293 M 151.082 182.233 C 148.781 185.661, 147.323 188.608, 147.843 188.781 C 149.699 189.400, 166.112 182.083, 167.962 179.813 C 169.822 177.531, 169.818 177.491, 167.673 176.850 C 166.478 176.492, 163.198 176.155, 160.384 176.100 L 155.268 176 151.082 182.233" stroke="none" fill="#fbfbfc" fill-rule="evenodd"/></svg>