<?xml version="1.0" encoding="UTF-8"?>
<svg id="Layer_1" xmlns="http://www.w3.org/2000/svg">
  <defs>
    <style>
      .cls-1 {
        fill: #000;
      }
    </style>
  </defs>
  <g>
    <g>
      <path class="cls-1" d="M285.75,448l-.09-.14c.36-.51.73-.96,1.09-1.45,6.04-7.99,12.56-14.44,20.02-19.7,1.18-.82,2.4-1.63,3.54-2.45,4.89-3.32,9.93-6.72,13.66-11.76,6.58-8.98,4.89-19.05,0-24-2.9-2.91-7.22-4.55-11.9-4.55-1.22,0-2.49.14-3.67.37-5.4,1.04-9.99,3.95-13.39,6.36-9.35,6.66-17.47,15.55-23.56,25.82-2.49,4.17-6.03,10.49-8.48,16.69-.22.55-.42,1.05-.59,1.59-6.03-2.39-12.16-4.16-18.38-5.3.17-.37.35-.73.59-1.04,3.63-6.73,7.81-12.53,12.7-17.85.82-.9,1.69-1.81,2.55-2.67l.45-.45c4.13-4.28,8.35-8.62,10.94-14.3,4.62-10.17.91-19.69-4.91-23.46-2.39-1.59-5.4-2.41-8.62-2.41-2.49,0-5.08.54-7.48,1.49-2.32.96-4.5,2.32-6.77,4.18-2.09,1.69-3.77,3.45-5.03,4.81-7.77,8.44-13.9,18.83-17.75,30.14-1.63,4.85-4,12.12-5.05,19.11-.08.49-.13,1-.21,1.49-25.37,2.73-49.48,15.02-66.18,35.23-.64.76-1.27,1.53-1.86,2.31-.63.77-1.22,1.59-1.81,2.36-.27.31-.51.68-.78,1.04-3.63,5.13-6.76,10.53-9.35,16.06-.41.91-.81,1.83-1.22,2.73,0,.14-.1.28-.18.41-.33.81-.68,1.59-1,2.4-.13.32-.27.69-.37,1-.41,1.1-.81,2.18-1.18,3.32-1.27,3.67-2.31,7.44-3.12,11.21-.45-.23-.92-.45-1.41-.68-3.81-1.81-8.58-3.36-14.08-4.68-14.24-3.4-29.13-3.9-36.49-2.63-9.21,1.59-16.57,7.48-20.38,15.3-2.49,5.08-3.44,10.97-2.44,17.02.59,3.3,1.72,6.44,3.36,9.29.5.92,1.08,1.73,1.67,2.55.59.81,1.18,1.59,1.91,2.32,1.32,1.45,2.86,2.77,4.5,3.94,6.08,4.31,13.52,5.99,20.87,4.72,3.67-.63,8.99-2.32,14.94-4.85,5.93-2.55,12.43-5.85,18.6-9.86,1.86-1.22,3.59-2.4,5.22-3.63.59-.45,1.18-.9,1.73-1.36.13,2.22.35,4.46.63,6.68-.59.41-1.14.81-1.73,1.22-.9.64-1.85,1.23-2.77,1.86-11.57,7.54-26.27,13.89-35.66,15.52-7.22,1.23-14.35,0-20.48-2.95-3.12-1.53-6.03-3.58-8.58-6.03-2.26,5.95-2.57,12.67-.35,19.11,2.39,7.07,7.44,12.74,14.15,16.06,6.72,3.32,14.3,3.77,21.39,1.36,3.53-1.18,8.48-3.72,13.92-7.12,5.46-3.41,11.39-7.81,16.85-12.72,2.26-2.04,4.3-4.08,6.08-6.03.54-.59,1.04-1.17,1.54-1.72.64,1.9,1.37,3.77,2.08,5.67,5.5,13.61,4.55,29.1-2.67,42.35l-5.13,9.49c-2.49,4.58-.77,10.39,3.81,12.88l63.36,34.31c4.62,2.51,10.39.78,12.89-3.81l5.18-9.57c6.93-12.8,18.97-21.93,33.17-25.15l1.27-.22c14.12-2.82,27.91-9.03,39.9-17.93,11.71-8.71,21.42-19.93,28.14-32.27,6.76-12.48,10.66-26.1,11.7-39.94,1.05-13.85-.76-27.87-5.57-41.2-6.72-18.71-18.25-34.32-33.73-45.89ZM307.03,571.63l.1-.1c-6.23,11.49-15.3,21.88-26.2,30-10.8,8.03-23.13,13.71-35.85,16.48l-1.22.23c-16.75,3.36-31,13.93-39.12,28.91l-5.18,9.58c-.68,1.22-2.18,1.67-3.4.98l-63.36-34.3c-1.22-.69-1.67-2.18-1.04-3.4l5.16-9.54c8.19-15.1,9.27-32.72,3.01-48.29-11.9-29.45-7.94-62.63,10.62-88.77,15.29-21.51,39.07-34.86,64.35-37.9h.19c.4-.04.77-.08,1.18-.14h.08c.32-.04.65-.08,1-.13.37-.04.77-.09,1.18-.14.32,0,.64-.04.91-.08.5-.06.91-.1,1.37-.1h1.08v-1.14c0-1.94.27-4.26.68-6.85.83-4.67,2.32-10.29,4.54-16.83,3.54-10.4,9.17-19.97,16.3-27.69,2.35-2.55,5.58-5.67,9.39-7.26,1.59-.63,3.27-1,4.86-1,1.85,0,3.54.45,4.85,1.31,3.5,2.28,5.36,8.49,2.4,14.94-2.08,4.62-5.75,8.39-9.62,12.39-.99,1.05-2.04,2.13-3.08,3.23-5.62,6.07-10.39,12.84-14.52,20.73-1.18,2.22-2.27,4.54-3.27,6.76l-.63,1.45h.49s-.08.24-.14.33c.82.04,1.59.14,2.37.22.77.1,1.58.23,2.36.32,7.17,1.04,14.25,2.9,21.15,5.67.14.06.31.14.49.18.73.33,1.41.6,2.14.92.73.31,1.41.63,2.14,1h.12c.24.08.47.22.69.31l1.31.59.28-1.41c.41-1.95,1.08-4.71,2.04-7.13,1.77-4.53,4.45-9.89,8.03-15.88,2.81-4.72,6.09-9.12,9.72-13.12,3.67-4.03,7.72-7.62,11.94-10.62,2.85-2.04,6.62-4.44,10.7-5.21.86-.14,1.69-.23,2.5-.23,2.82,0,5.4.9,6.99,2.55,2.94,2.94,3.49,9.39-.73,15.1-2.95,4.04-7.26,6.99-11.88,10.08h-.1c-1.32.95-2.54,1.76-3.67,2.59-8.03,5.71-15.12,12.7-21.66,21.28-1.04,1.41-2.12,2.91-3.3,4.59-.23.36-.51.67-.78,1.04l-.77,1,.77.54s-.28.37-.41.51c.64.39,1.27.86,1.91,1.26.64.41,1.27.86,1.91,1.31,14.93,10.86,26,25.65,32.36,43.44,3.65,10.15,5.45,20.76,5.45,31.34,0,15.24-3.75,30.43-11.18,44.1Z"/>
      <g>
        <path class="cls-1" d="M188.94,678.33c-2.5,4.58-8.26,6.31-12.89,3.81l-52.83-28.59c-4.58-2.5-6.31-8.31-3.81-12.89,2.5-4.63,8.26-6.31,12.89-3.81l52.83,28.59c4.58,2.5,6.31,8.26,3.81,12.89Z"/>
        <g>
          <path class="cls-1" d="M116.55,682.96l38.58,20.88-3.68,3.31c-6.72,6.08-16.66,7.31-24.64,2.95-8.03-4.31-12.44-13.25-11.03-22.24,0,0,.77-4.9.77-4.9Z"/>
          <path class="cls-1" d="M177.51,699.43c-2.5,4.58-8.26,6.31-12.84,3.81l-52.83-28.59c-4.58-2.5-6.31-8.26-3.81-12.89,2.5-4.58,8.26-6.31,12.89-3.81l52.83,28.59c4.58,2.5,6.31,8.26,3.81,12.89h-.05Z"/>
        </g>
      </g>
      <path class="cls-1" d="M214.95,435.47h0l1.18-.14c-.41.05-.82.09-1.18.14Z"/>
    </g>
    <path class="cls-1" d="M225.03,451.94c-42.63,0-77.17,34.54-77.17,77.16s34.54,77.15,77.17,77.15,77.15-34.54,77.15-77.15-34.54-77.16-77.15-77.16ZM202.65,526.01l-12.4-1.9c1.73-10.98,9.76-19.16,20.56-20.84,11.45-1.76,22.29,4.09,27.65,14.85l-11.21,5.58c-3.5-7.04-9.8-8.76-14.53-8.04-5.43.87-9.2,4.71-10.07,10.35ZM249.36,562.28l-5.5.77c-17.97,2.53-34.58-9.98-37.13-27.96l-.36-2.72,70.58-9.95.35,2.73c2.55,17.97-9.98,34.58-27.94,37.13ZM278.54,517.94v-.06c-3.5-7.03-9.8-8.75-14.53-8.03-5.44.87-9.21,4.72-10.08,10.39l-12.39-1.9c1.73-10.98,9.76-19.15,20.56-20.84,11.45-1.76,22.29,4.09,27.65,14.85l-11.21,5.59Z"/>
  </g>
  <g>
    <path class="cls-1" d="M471.13,582.53l48.46-50.31h-42.4l-47.67,52.68v-106.41h-31.61v183.58h31.61v-37.93l20.01-22.12,37.93,60.05h37.66l-53.99-79.54Z"/>
    <path class="cls-1" d="M581.48,637.05c-5.8,0-9.22-2.37-9.22-8.17v-150.39h-31.61v152.5c0,23.18,12.91,33.71,30.55,33.71,6.06,0,13.17-1.32,20.28-3.95v-25.28c-3.68,1.05-7.11,1.58-10,1.58Z"/>
    <path class="cls-1" d="M668.65,529.59c-40.29,0-65.05,30.55-65.05,67.42s24.76,67.69,65.05,67.69,65.06-31.08,65.06-67.69-25.03-67.42-65.06-67.42ZM668.65,637.05c-23.97,0-33.45-18.97-33.45-40.04s9.48-39.77,33.45-39.77,33.45,18.44,33.45,39.77-9.48,40.04-33.45,40.04Z"/>
    <path class="cls-1" d="M812.45,529.59c-40.3,0-65.06,30.55-65.06,67.42s24.76,67.69,65.06,67.69,65.05-31.08,65.05-67.69-25.02-67.42-65.05-67.42ZM812.45,637.05c-23.97,0-33.45-18.97-33.45-40.04s9.48-39.77,33.45-39.77,33.45,18.44,33.45,39.77-9.48,40.04-33.45,40.04Z"/>
    <path class="cls-1" d="M972.05,529.59c-14.75,0-29.24,6.06-37.4,15.8v-66.9h-31.61v183.58h31.61v-12.91c8.95,11.06,23.44,15.54,37.4,15.54,35.29,0,54.78-28.71,54.78-67.69,0-42.4-22.91-67.42-54.78-67.42ZM964.41,635.47c-22.91,0-32.66-16.6-32.66-38.19s9.75-38.98,32.4-38.98c21.07,0,31.07,14.75,31.07,38.98s-9.74,38.19-30.81,38.19Z"/>
  </g>
</svg>