<svg xmlns="http://www.w3.org/2000/svg" width="460" height="460" viewBox="0 0 460 460" version="1.1"><path d="M 138.452 141.433 C 136.132 144.974, 137.963 148, 142.426 148 C 144.768 148, 152.533 151.533, 168.141 159.701 L 190.500 171.402 204.500 186.734 C 225.974 210.252, 226.057 210.098, 201 193.300 C 185.903 183.180, 173.179 175.560, 162.329 170.142 C 153.435 165.701, 145.001 160.910, 143.586 159.495 C 141.503 157.412, 140.642 157.121, 139.062 157.967 C 136.347 159.420, 135.716 160.733, 136.408 163.490 C 137.090 166.209, 140.181 167.558, 142.611 166.198 C 143.835 165.513, 148.315 167.215, 159.882 172.759 C 171.611 178.381, 181.413 184.225, 199.250 196.234 C 212.312 205.028, 223 212.371, 223 212.553 C 223 212.734, 216.588 210.266, 208.750 207.069 C 200.912 203.871, 184.150 197.079, 171.500 191.974 C 158.850 186.869, 148.331 182.255, 148.125 181.721 C 147.523 180.162, 144.090 177, 143 177 C 142.450 177, 141.100 177.900, 140 179 C 137.491 181.509, 137.493 182.493, 140.015 185.015 C 141.443 186.443, 142.759 186.848, 144.528 186.404 C 146.377 185.939, 156.862 189.747, 184.973 201.094 C 205.845 209.519, 222.754 216.579, 222.549 216.784 C 222.344 216.989, 211.899 215.064, 199.338 212.506 C 177.648 208.089, 175.826 207.537, 163.080 201.528 C 153.262 196.898, 149.295 194.502, 148.298 192.600 C 146.556 189.274, 141.627 188.959, 139.964 192.067 C 138.200 195.364, 141.299 199.390, 145.027 198.645 C 147.196 198.211, 151.130 199.627, 161.654 204.627 C 175.017 210.977, 176.165 211.324, 198.970 215.905 L 222.500 220.632 210.093 221.316 C 203.269 221.692, 192.244 221.987, 185.593 221.971 L 173.500 221.942 161.684 215.655 C 154.020 211.577, 149.444 208.513, 148.661 206.934 C 147.041 203.668, 142.549 203.106, 141.012 205.978 C 139.465 208.867, 140.643 211.872, 143.613 212.618 C 144.977 212.960, 146.349 212.984, 146.662 212.671 C 146.975 212.358, 153.142 215.094, 160.366 218.751 L 173.500 225.401 198.750 225.098 C 220.576 224.836, 224 224.997, 224 226.283 C 224 227.549, 219.719 227.882, 195.350 228.513 C 169.415 229.183, 166.428 229.093, 163.838 227.563 C 162.206 226.599, 160.122 226.144, 158.990 226.503 C 156.531 227.284, 155.341 231.500, 157.011 233.513 C 158.602 235.431, 162.403 235.424, 164 233.500 C 165.055 232.229, 169.729 232, 194.622 232 L 224 232 224 234.439 C 224 237.312, 227.689 236.644, 184.748 241.552 C 161.045 244.262, 153.516 244.811, 151.904 243.949 C 149.298 242.554, 145.427 243.444, 144.588 245.632 C 143.778 247.742, 146.534 252, 148.709 252 C 149.623 252, 151.300 251.176, 152.436 250.169 C 154.115 248.680, 159.913 247.729, 183.500 245.075 C 199.450 243.280, 215.088 241.478, 218.250 241.071 C 222.349 240.544, 224 240.662, 224 241.482 C 224 242.115, 216.688 246.729, 207.750 251.734 L 191.500 260.835 178.299 262.690 C 167.521 264.204, 164.778 264.311, 163.358 263.272 C 161.022 261.564, 160.344 261.656, 158 264 C 155.498 266.502, 155.494 267.494, 157.977 269.977 C 160.045 272.045, 162.608 271.812, 164.600 269.374 C 165.246 268.584, 171.338 267.199, 179.351 266.022 L 193.002 264.016 208.102 255.508 C 216.406 250.829, 223.381 247, 223.600 247 C 225.382 247, 222.589 252.260, 215.674 261.927 L 207.500 273.355 197.500 276.722 C 191.175 278.852, 186.459 279.893, 184.668 279.554 C 178.430 278.372, 175.572 284.340, 180.741 287.752 C 182.824 289.128, 183.175 289.025, 185.741 286.280 C 187.707 284.177, 191.375 282.381, 198.500 280.031 C 204 278.217, 209.036 276.310, 209.691 275.793 C 210.346 275.276, 213.705 270.732, 217.154 265.696 L 223.426 256.539 224.133 259.995 C 224.824 263.374, 228.062 267, 230.388 267 C 233.198 267, 235.890 263.862, 236.191 260.235 L 236.500 256.500 242.809 265.676 C 246.279 270.723, 249.654 275.276, 250.309 275.793 C 250.964 276.310, 256 278.217, 261.500 280.031 C 268.625 282.381, 272.293 284.177, 274.259 286.280 C 276.825 289.025, 277.176 289.128, 279.259 287.752 C 284.428 284.340, 281.570 278.372, 275.332 279.554 C 273.541 279.893, 268.825 278.852, 262.500 276.722 L 252.500 273.355 244.326 261.927 C 237.411 252.260, 234.618 247, 236.400 247 C 236.619 247, 243.594 250.829, 251.898 255.508 L 266.998 264.016 280.649 266.022 C 288.662 267.199, 294.754 268.584, 295.400 269.374 C 297.392 271.812, 299.955 272.045, 302.023 269.977 C 304.506 267.494, 304.502 266.502, 302 264 C 299.656 261.656, 298.978 261.564, 296.642 263.272 C 295.222 264.311, 292.479 264.204, 281.701 262.690 L 268.500 260.835 252.250 251.734 C 243.313 246.729, 236 242.115, 236 241.482 C 236 240.662, 237.651 240.544, 241.750 241.071 C 244.912 241.478, 260.550 243.280, 276.500 245.075 C 300.087 247.729, 305.885 248.680, 307.564 250.169 C 308.700 251.176, 310.377 252, 311.291 252 C 313.466 252, 316.222 247.742, 315.412 245.632 C 314.573 243.444, 310.702 242.554, 308.096 243.949 C 306.484 244.811, 298.955 244.262, 275.252 241.552 C 232.311 236.644, 236 237.312, 236 234.439 L 236 232 265.378 232 C 290.271 232, 294.945 232.229, 296 233.500 C 297.597 235.424, 301.398 235.431, 302.989 233.513 C 304.659 231.500, 303.469 227.284, 301.010 226.503 C 299.878 226.144, 297.794 226.599, 296.162 227.563 C 293.572 229.093, 290.585 229.183, 264.650 228.513 C 240.281 227.882, 236 227.549, 236 226.283 C 236 224.997, 239.424 224.836, 261.250 225.098 L 286.500 225.401 299.634 218.751 C 306.858 215.094, 313.025 212.358, 313.338 212.671 C 313.651 212.984, 315.023 212.960, 316.387 212.618 C 319.357 211.872, 320.535 208.867, 318.988 205.978 C 317.451 203.106, 312.959 203.668, 311.339 206.934 C 310.556 208.513, 305.980 211.577, 298.316 215.655 L 286.500 221.942 274.407 221.971 C 267.756 221.987, 256.731 221.692, 249.907 221.316 L 237.500 220.632 261.030 215.905 C 283.835 211.324, 284.983 210.977, 298.346 204.627 C 308.870 199.627, 312.804 198.211, 314.973 198.645 C 318.701 199.390, 321.800 195.364, 320.036 192.067 C 318.373 188.959, 313.444 189.274, 311.702 192.600 C 310.705 194.502, 306.738 196.898, 296.920 201.528 C 284.174 207.537, 282.352 208.089, 260.662 212.506 C 248.101 215.064, 237.656 216.989, 237.451 216.784 C 237.246 216.579, 254.155 209.519, 275.027 201.094 C 303.138 189.747, 313.623 185.939, 315.472 186.404 C 317.967 187.030, 322 184.309, 322 182 C 322 180.703, 318.297 177, 317 177 C 315.910 177, 312.477 180.162, 311.875 181.721 C 311.669 182.255, 301.150 186.869, 288.500 191.974 C 275.850 197.079, 259.087 203.871, 251.250 207.069 C 243.412 210.266, 237 212.734, 237 212.553 C 237 212.371, 247.688 205.028, 260.750 196.234 C 278.587 184.225, 288.389 178.381, 300.118 172.759 C 311.685 167.215, 316.165 165.513, 317.389 166.198 C 319.819 167.558, 322.910 166.209, 323.592 163.490 C 324.284 160.733, 323.653 159.420, 320.938 157.967 C 319.358 157.121, 318.497 157.412, 316.414 159.495 C 314.999 160.910, 306.565 165.701, 297.671 170.142 C 286.821 175.560, 274.097 183.180, 259 193.300 C 233.943 210.098, 234.026 210.252, 255.500 186.734 L 269.500 171.402 291.859 159.701 C 307.467 151.533, 315.232 148, 317.574 148 C 322.037 148, 323.868 144.974, 321.548 141.433 C 319.351 138.079, 316.282 138.332, 314.203 142.038 C 312.844 144.462, 308.003 147.404, 290.236 156.604 L 267.972 168.132 252.236 185.379 L 236.500 202.626 235.834 196.063 L 235.168 189.500 239.963 182.500 C 242.789 178.375, 245.586 175.374, 246.775 175.194 C 249.796 174.736, 252.297 171.510, 251.522 169.071 C 249.990 164.243, 243 164.682, 243 169.606 C 243 172.962, 232.372 188, 230 188 C 227.628 188, 217 172.962, 217 169.606 C 217 164.682, 210.010 164.243, 208.478 169.071 C 207.703 171.510, 210.204 174.736, 213.225 175.194 C 214.414 175.374, 217.211 178.375, 220.037 182.500 L 224.832 189.500 224.166 196.063 L 223.500 202.626 207.764 185.379 L 192.028 168.132 169.764 156.604 C 151.997 147.404, 147.156 144.462, 145.797 142.038 C 143.718 138.332, 140.649 138.079, 138.452 141.433" stroke="none" fill="currentColor" fill-rule="evenodd"/><path d="M 207.500 75.421 C 192.138 81.629, 158.996 94.767, 117 111.295 C 111.225 113.568, 105.335 116.575, 103.910 117.976 L 101.321 120.526 100.618 144.513 C 100.231 157.706, 99.974 185.751, 100.046 206.837 C 100.176 244.511, 100.219 245.295, 102.580 252.234 C 114.955 288.618, 175.698 357.955, 219.063 385.197 C 224.144 388.389, 229.065 391, 230 391 C 230.935 391, 235.856 388.389, 240.937 385.197 C 284.302 357.955, 345.045 288.618, 357.420 252.234 C 359.781 245.295, 359.824 244.511, 359.954 206.837 C 360.026 185.751, 359.769 157.706, 359.382 144.513 L 358.679 120.526 356.090 117.976 C 354.665 116.575, 348.775 113.567, 343 111.293 C 316.886 101.009, 276.584 85.076, 256.051 76.919 C 240.125 70.592, 232.424 68.021, 229.551 68.073 C 226.970 68.120, 218.969 70.785, 207.500 75.421 M 192.500 94.148 C 173.250 101.826, 147.600 112.051, 135.500 116.871 L 113.500 125.634 112.458 182.567 C 111.508 234.434, 111.562 240.034, 113.067 245.500 C 119.168 267.656, 146.208 304.413, 182.608 340.028 C 202.778 359.765, 224.872 377, 230 377 C 235.128 377, 257.222 359.765, 277.392 340.028 C 313.792 304.413, 340.832 267.656, 346.933 245.500 C 348.438 240.034, 348.492 234.434, 347.542 182.566 L 346.500 125.633 323.500 116.474 C 254.306 88.919, 231.282 80.009, 229.490 80.094 C 228.395 80.146, 211.750 86.471, 192.500 94.148" stroke="none" fill="#fcfcfc" fill-rule="evenodd"/></svg>