<?xml version="1.0" encoding="UTF-8" standalone="no"?>
<svg
   width="2048"
   height="2048"
   viewBox="0 0 2048 2048"
   version="1.1"
   id="svg3"
   xmlns="http://www.w3.org/2000/svg"
   xmlns:svg="http://www.w3.org/2000/svg">
  <defs
     id="defs3" />
  <path
     d="m 928.81193,146.38518 c -3.83891,1.45319 -7.41417,6.86726 -7.58409,11.49047 -0.19823,5.37704 7.95224,13.0722 13.84347,13.0722 5.21362,0 7.706,1.9238 27.51262,21.24234 3.99352,3.89552 7.6777,7.08078 8.18979,7.08078 1.2876,0 16.36196,12.89356 23.5626,20.15299 3.268,3.29638 6.55998,5.99143 7.31398,5.99143 0.7538,0 4.5208,3.43145 8.3705,7.62545 3.8498,4.194 7.8738,7.62545 8.9414,7.62545 4.2834,0 11.0351,9.47517 24.0725,33.76987 1.2854,2.39658 3.1569,4.95655 4.1569,5.69076 1.0022,0.73205 1.5927,1.71246 1.3137,2.1787 -0.4443,0.73641 3.9959,9.61025 11.0505,22.08768 4.7212,8.34661 6.5557,11.78896 10.7496,20.15299 5.5165,11.00026 9.3249,16.98733 12.105,19.03095 1.4531,1.06539 1.4531,1.62313 0,1.66671 -1.1983,0.037 -0.7081,1.01745 1.0892,2.17869 2.7932,1.80398 2.7148,2.11771 -0.5445,2.14603 -2.096,0.0174 -3.8128,-0.71679 -3.8128,-1.63403 0,-0.91505 -6.8629,-8.9196 -15.251,-17.78691 -8.388,-8.86731 -15.2509,-16.36205 -15.2509,-16.65618 0,-0.29412 -5.8803,-6.75179 -13.0678,-14.34892 -7.1897,-7.59713 -13.0722,-14.54719 -13.0722,-15.44699 0,-0.89981 -1.475,-1.63402 -3.2724,-1.63402 -1.7975,0 -3.2964,-1.22444 -3.3313,-2.72338 -0.082,-3.49246 -12.2072,-16.88493 -15.2857,-16.88493 -1.28551,0 -1.76037,-0.93467 -1.05445,-2.07631 0.70365,-1.13946 -1.10249,-3.34649 -4.01754,-4.90208 -2.91296,-1.55341 -10.96763,-7.72785 -17.90021,-13.71927 -6.93049,-5.99144 -13.399,-10.6495 -14.37505,-10.34884 -0.97397,0.29849 -1.7714,-1.08935 -1.7714,-3.08721 0,-1.9957 -0.61219,-3.01751 -1.3594,-2.27021 -0.74952,0.74947 -4.4446,-1.78436 -8.21589,-5.62758 -3.7692,-3.84542 -9.88046,-9.5035 -13.57774,-12.57765 -3.69937,-3.07414 -8.10037,-8.46643 -9.78013,-11.98285 -5.7365,-12.00247 -20.05061,-8.24421 -21.10075,5.54043 -0.41177,5.40318 0.5621,7.06989 5.15916,8.8172 3.11558,1.18522 6.60802,1.57303 7.75841,0.86277 1.15027,-0.71025 3.51854,-0.10671 5.26372,1.3399 1.74507,1.44884 3.1722,1.93904 3.1722,1.09153 0,-0.84969 3.41404,1.97173 7.58619,6.26812 4.17435,4.2964 9.07653,7.81282 10.89351,7.81282 1.81918,0 3.33342,1.22661 3.36822,2.72338 0.0325,1.49894 3.49906,5.17442 7.70171,8.17013 4.20497,2.99571 11.71495,9.06776 16.68893,13.4927 4.97607,4.42494 9.86735,7.53831 10.8695,6.91955 1.00436,-0.62093 1.55566,-0.25708 1.2266,0.80613 -0.32895,1.06537 6.39671,8.93049 14.94801,17.47753 8.5493,8.54922 15.1464,15.94155 14.6605,16.42959 -0.4858,0.48585 3.303,4.74303 8.4208,9.45992 5.1156,4.71689 9.7932,9.46209 10.3923,10.54491 0.5992,1.08499 4.7866,5.94786 9.3052,10.80636 17.7368,19.07889 29.5128,32.83738 28.7568,33.59557 -1.207,1.207 -16.7064,-8.73876 -22.3644,-14.35111 -2.7517,-2.72773 -6.4599,-4.9609 -8.2398,-4.9609 -1.78,0 -3.7779,-1.40744 -4.438,-3.12861 -0.6602,-1.72118 -8.2268,-7.78668 -16.8175,-13.47744 -8.5884,-5.69078 -16.5952,-11.39025 -17.7935,-12.66479 -1.1983,-1.27672 -4.74082,-3.64062 -7.8737,-5.25286 -3.13299,-1.61441 -8.03506,-5.04587 -10.89351,-7.62545 -8.51004,-7.6821 -21.09642,-16.67578 -23.33827,-16.67578 -1.15038,0 -2.65581,-1.47062 -3.34653,-3.26805 -0.6884,-1.79743 -2.64932,-3.26805 -4.35738,-3.26805 -1.70598,0 -3.72118,-1.61007 -4.4772,-3.5796 -0.75382,-1.96955 -1.98481,-2.9674 -2.73434,-2.21792 -2.08712,2.0872 -18.89366,-13.91537 -21.85882,-20.81096 -3.17881,-7.39451 -12.15067,-11.42075 -18.21399,-8.17449 -4.3269,2.31379 -5.06547,4.37266 -4.24847,11.83906 0.53597,4.91734 8.39236,12.52754 11.16149,10.81508 1.01964,-0.62965 4.07853,0.0915 6.79976,1.60134 2.72112,1.51202 5.7191,2.78221 6.66024,2.82578 0.94334,0.0414 2.41398,1.05667 3.26812,2.25495 0.85612,1.19829 3.18519,3.15912 5.17442,4.35741 3.50984,2.11334 28.46466,20.5909 33.96372,25.14875 1.49894,1.24185 2.72332,1.68849 2.72332,0.99566 0,-0.69283 1.22671,-0.21133 2.72344,1.07192 1.49893,1.28108 6.08725,5.24195 10.1963,8.79977 4.11125,3.55782 8.18538,6.46857 9.05252,6.46857 0.86934,0 5.84108,3.57307 11.04608,7.93919 5.207,4.36611 12.229,9.10915 15.606,10.54055 3.3769,1.43141 6.0719,3.49682 5.9913,4.58835 -0.08,1.0937 0.658,1.98697 1.6406,1.98697 0.9849,0 3.5055,1.71683 5.6037,3.81273 3.5425,3.54257 6.5644,4.70599 10.5819,4.06981 0.8998,-0.14161 1.634,0.97824 1.634,2.4859 0,2.98482 8.6887,9.39456 11.5994,8.55794 0.9892,-0.28323 1.1765,0.4902 0.4162,1.71682 -0.7582,1.22878 -0.096,2.26584 1.4728,2.30506 2.9086,0.0741 12.6561,7.31608 12.6561,9.4011 0,0.63183 -1.8933,1.00655 -4.2072,0.83227 -2.3137,-0.1743 -3.7757,-1.0131 -3.2484,-1.86498 0.5273,-0.85187 -1.9238,-2.18306 -5.4467,-2.95649 -3.523,-0.77344 -7.5732,-2.81488 -9.0002,-4.53388 -1.4293,-1.72117 -3.486,-3.12861 -4.571,-3.12861 -1.0849,0 -9.0546,-3.3552 -17.7062,-7.45553 -8.6539,-4.09813 -17.2052,-7.77578 -19.0027,-8.17012 -1.7974,-0.39217 -3.7582,-1.22879 -4.3574,-1.85625 -0.5991,-0.62747 -7.46208,-4.47505 -15.25089,-8.5514 -15.03307,-7.8673 -23.88505,-13.71711 -31.48875,-20.80878 -11.00463,-10.26386 -18.73243,-16.34026 -20.78046,-16.34026 -1.20919,0 -2.19835,-0.98041 -2.19835,-2.1787 0,-1.19829 -1.63395,-2.1787 -3.63187,-2.1787 -1.99572,0 -3.01747,-0.61222 -2.27015,-1.35951 0.74721,-0.74729 -0.57739,-2.95432 -2.94567,-4.90208 -2.36828,-1.94775 -6.00443,-6.97402 -8.07856,-11.16802 -4.91083,-9.93052 -13.78686,-11.56237 -19.06585,-3.50553 -5.91082,9.01983 -1.08499,18.65404 9.37931,18.72376 6.10036,0.0392 15.10279,5.65155 21.90906,13.65609 2.80614,3.29856 5.7953,5.56877 6.64284,5.0437 0.84754,-0.52506 7.86723,4.91951 15.59736,12.09833 10.8869,10.11135 21.13991,16.54724 45.47592,28.54534 17.28376,8.5209 32.72416,15.49056 34.31456,15.49056 1.5927,0 2.8933,0.81701 2.8933,1.81704 0,0.99785 2.3313,1.81485 5.181,1.81485 2.8475,0 6.4184,1.4946 7.9349,3.32035 1.5163,1.82575 3.2223,2.85409 3.7952,2.28327 0.5708,-0.57082 2.4619,0.38563 4.2005,2.12642 1.7409,1.7386 5.0568,3.16348 7.3663,3.16348 2.3268,0 4.2026,1.49458 4.2026,3.3443 0,2.71249 -0.8562,2.88679 -4.5273,0.9216 -2.4903,-1.33337 -5.9217,-1.88676 -7.6255,-1.23316 -1.7036,0.65361 -3.0981,0.17648 -3.0981,-1.05884 0,-1.23751 -1.7167,-1.99134 -3.8127,-1.67978 -2.0959,0.31373 -7.2442,-0.54467 -11.4382,-1.90419 -4.1939,-1.36168 -11.0569,-2.97829 -15.2509,-3.59485 -4.1939,-0.6144 -11.3009,-2.04362 -15.7955,-3.17437 -4.4926,-1.13075 -8.17023,-1.54905 -8.17023,-0.92813 0,0.61875 -1.46623,-0.0893 -3.25711,-1.57737 -1.79087,-1.48588 -5.22011,-2.18742 -7.6233,-1.55996 -2.40086,0.62747 -4.91517,0.25273 -5.58617,-0.83226 -0.671,-1.08499 -3.69288,-1.9739 -6.71696,-1.9739 -5.36174,0 -16.56459,-7.88255 -34.54762,-24.30124 -4.79536,-4.37918 -12.83471,-11.24209 -17.8653,-15.2509 -5.0307,-4.00881 -9.22904,-9.25076 -9.32925,-11.64734 -0.10022,-2.39657 -1.3813,-5.93042 -2.84539,-7.85203 -3.41621,-4.48595 -12.44909,-7.49692 -12.44909,-4.14826 0,1.34863 -0.93031,1.87805 -2.06977,1.17433 -2.3334,-1.44231 -6.64504,5.48814 -6.64504,10.68217 0,4.84761 7.90215,12.12665 13.16371,12.12665 4.59489,0 7.0895,1.59916 16.98952,10.8935 3.1896,2.99571 10.21161,8.86949 15.60165,13.0526 5.39236,4.18311 11.07434,8.59497 12.62999,9.80415 1.55554,1.20918 5.18741,4.40534 8.07207,7.1004 2.88245,2.69505 6.69944,4.90207 8.48162,4.90207 1.78009,0 3.87591,1.03271 4.65594,2.29417 0.77783,1.26146 2.5534,1.89766 3.94121,1.41616 1.38793,-0.48368 5.95444,0.29631 10.1484,1.73424 4.19406,1.43795 9.83255,2.43361 12.52757,2.21574 2.69502,-0.21786 4.90205,0.33334 4.90205,1.22661 0,0.89327 4.1679,2.31596 9.2595,3.1613 5.0917,0.84533 10.7302,1.86061 12.5275,2.25713 32.1795,7.07861 48.3955,10.17671 54.0122,10.31615 1.5469,0.0392 2.512,1.62313 2.1439,3.52079 -0.7669,3.94562 -6.0895,4.50336 -16.6671,1.74513 -12.1768,-3.17873 -21.9853,-5.26157 -32.5803,-6.91956 -3.9892,-0.62528 -8.1506,-1.69066 -9.2507,-2.37042 -1.1003,-0.67975 -3.9632,-1.67106 -6.364,-2.20266 -2.401,-0.53161 -6.5732,-1.56431 -9.2683,-2.29635 -2.695,-0.73423 -6.91297,-1.536 -9.36835,-1.78218 -2.45759,-0.24837 -5.39885,-1.00874 -6.53613,-1.69503 -2.00442,-1.20483 -24.8633,-6.3117 -31.48225,-7.03286 -6.57313,-0.71679 -21.78702,-6.32694 -21.78702,-8.03504 0,-3.66457 -8.41412,-6.27466 -13.72146,-4.25719 -6.27028,2.38351 -8.55354,7.26816 -6.75175,14.44479 0.96515,3.84324 3.32032,5.59491 8.9501,6.65158 4.67114,0.87583 8.21149,0.512 9.10693,-0.93466 1.65146,-2.67327 7.99156,-2.22228 21.34046,1.51202 5.01528,1.40308 9.91746,2.37696 10.89351,2.16127 0.97606,-0.2157 3.244,0.15686 5.04149,0.82791 5.01748,1.8715 28.61498,7.79103 35.94857,9.01545 3.5948,0.59915 8.9871,1.76476 11.9829,2.59048 2.9956,0.82355 9.6146,1.96084 14.7062,2.52512 5.0916,0.56646 9.2594,1.84972 9.2594,2.8541 0,1.0022 1.7169,1.71682 3.8128,1.58828 5.3573,-0.329 28.3885,6.68424 29.8808,9.09824 0.6798,1.10025 0.2244,2.62534 -1.0131,3.39007 -1.2374,0.76472 -1.708,2.26802 -1.0457,3.33994 0.6776,1.09371 -3.3639,1.48805 -9.2247,0.89763 -19.4601,-1.96301 -40.9813,-4.56874 -52.9119,-6.40757 -4.1939,-0.64707 -12.3292,-1.69284 -18.0766,-2.32684 -17.76741,-1.9543 -24.09209,-2.7517 -33.12281,-4.17003 -4.79315,-0.75166 -13.61694,-1.76258 -19.60839,-2.24407 -23.98526,-1.93251 -40.00308,-5.279 -41.97045,-8.77146 -3.17872,-5.645 -12.28569,-5.9522 -17.28146,-0.58389 -9.11351,9.78891 1.4227,25.5322 12.47088,18.63444 2.36172,-1.47716 4.29641,-3.42274 4.29641,-4.32472 0,-0.90416 2.20702,-1.23097 4.90208,-0.72769 2.69505,0.50327 4.90206,1.09807 4.90206,1.32247 0,0.22441 2.94126,0.69283 6.53611,1.04142 6.85414,0.66668 18.95476,2.12423 42.2711,5.09163 7.67341,0.97605 16.64753,1.69284 19.94604,1.59045 3.29863,-0.10022 5.64069,0.39216 5.20492,1.09806 -0.43566,0.70372 3.07848,1.4314 7.80853,1.61659 4.72994,0.1852 12.72358,1.26365 17.76728,2.39658 5.0415,1.13293 9.7627,1.69285 10.4905,1.24185 0.7277,-0.45099 5.1918,0.0131 9.9217,1.03054 4.7279,1.01527 15.4557,2.51204 23.8373,3.32252 19.0134,1.841 24.3317,4.32472 13.9936,6.53828 -4.0959,0.87801 -8.6711,2.58176 -10.17,3.78876 -1.4969,1.207 -2.7235,1.46408 -2.7235,0.57082 0,-0.89327 -1.2244,-0.69937 -2.7233,0.42703 -1.4968,1.12855 -5.5645,2.22881 -9.0394,2.44885 -3.4729,0.21788 -7.4251,1.31812 -8.7824,2.44451 -1.3573,1.12638 -4.8869,2.54472 -7.8455,3.15257 -5.5993,1.15254 -14.6931,3.31381 -18.4514,4.38573 -1.1983,0.34205 -5.1199,1.34644 -8.71479,2.23317 -3.59487,0.88673 -8.00676,2.15038 -9.80414,2.80617 -3.87591,1.41615 -15.9111,1.26146 -25.05514,-0.32027 -3.59487,-0.62094 -14.37935,-1.78218 -23.96566,-2.58176 -11.93498,-0.99567 -19.068,-2.72991 -22.62586,-5.50123 -2.85844,-2.22663 -7.98491,-4.04802 -11.39676,-4.04802 -4.9914,0 -6.45767,1.16778 -7.52088,5.99143 -0.72768,3.29638 -1.55994,6.96095 -1.84972,8.14834 -0.66232,2.69941 8.21153,9.84337 12.14626,9.77801 1.60788,-0.0261 5.35743,-1.91944 8.33136,-4.20489 3.06108,-2.35082 6.3727,-3.37699 7.6255,-2.36389 4.93907,3.9892 73.46144,6.39885 74.71853,2.62751 0.42267,-1.26583 2.1743,-1.76257 3.8955,-1.10242 1.719,0.66014 3.1264,0.20261 3.1264,-1.01963 0,-1.22008 1.7169,-1.94122 3.8128,-1.60353 2.0958,0.3377 4.793,0.0327 5.9913,-0.6754 1.1983,-0.71025 3.1592,-1.52509 4.3575,-1.81267 2.1548,-0.51418 10.8237,-2.8955 26.6891,-7.33351 4.4946,-1.25711 11.6015,-2.79963 15.7956,-3.4271 l 7.6254,-1.14382 -15.2509,14.59294 c -8.388,8.02634 -17.4579,16.05485 -20.153,17.84138 -2.695,1.78436 -4.902,4.60361 -4.902,6.26378 0,1.66016 -0.8585,2.7713 -1.9086,2.47281 -1.0501,-0.30065 -4.7278,1.90637 -8.1701,4.90208 -3.7692,3.27677 -9.2988,5.59926 -13.8871,5.82803 -4.194,0.21133 -16.5429,1.21789 -27.44291,2.2397 -15.22259,1.42706 -20.41881,1.21136 -22.41662,-0.92594 -3.10028,-3.31816 -14.6692,-3.71469 -16.61261,-0.57082 -5.95003,9.62768 0.52938,22.64323 10.35973,20.81313 2.70163,-0.50328 5.64719,-0.98913 6.54703,-1.07845 0.89974,-0.0893 1.63395,-1.63186 1.63395,-3.42928 0,-2.35953 2.42059,-3.26806 8.71488,-3.26806 4.79315,0 8.71697,-0.73422 8.71917,-1.63402 0,-0.8998 6.62103,-1.81268 14.70621,-2.03273 22.80007,-0.61657 27.20977,-1.45319 32.37977,-6.13739 2.645,-2.39658 9.0634,-8.07645 14.2618,-12.62123 5.2006,-4.54476 12.6757,-11.16366 16.6105,-14.70623 3.9369,-3.54256 7.5295,-6.44242 7.9849,-6.44242 0.4575,0 0.5599,4.61885 0.2287,10.26386 -0.671,11.48394 1.719,15.1398 11.0047,16.82394 6.6711,1.20918 17.1224,-4.0829 14.9634,-7.57536 -0.7082,-1.14598 -0.1439,-2.08283 1.2526,-2.08283 1.3967,0 1.9871,-1.44012 1.3139,-3.19833 -0.6755,-1.75821 -0.4097,-3.7038 0.5903,-4.32254 1.0001,-0.61658 6.5297,11.20942 12.288,26.28166 7.3683,19.28151 11.8063,27.99849 14.9719,29.41029 2.4751,1.10243 7.0416,3.70598 10.1441,5.78445 20.2837,13.58421 25.1226,16.48841 27.4821,16.48841 1.4576,0 3.6624,2.90204 4.8977,6.44679 3.2572,9.34662 15.3555,19.04184 15.3555,12.30748 0,-1.26801 0.9369,-1.72771 2.0828,-1.01964 1.146,0.70808 3.6777,-1.14817 5.6276,-4.1221 6.3314,-9.66254 -0.4509,-19.10939 -12.7497,-17.75859 -3.7322,0.4096 -8.0503,-1.22879 -11.8521,-4.49466 -3.2876,-2.82578 -8.4316,-6.40974 -11.4295,-7.96316 -2.9957,-1.55559 -9.3706,-5.23324 -14.1638,-8.17666 -4.7931,-2.94343 -9.5231,-5.08291 -10.51,-4.75611 -0.9892,0.32898 -1.1765,-0.40959 -0.4161,-1.6362 0.7581,-1.22879 0.4074,-2.23318 -0.7822,-2.23318 -1.1874,0 -2.7778,-2.20701 -3.5317,-4.90206 -1.3508,-4.81494 -4.4315,-12.61032 -7.5404,-19.06364 -0.865,-1.79743 -3.401,-9.15055 -5.6341,-16.34027 -2.2333,-7.1897 -5.2835,-15.45351 -6.7758,-18.36208 -2.6907,-5.24413 -2.1613,-8.87167 1.2919,-8.87167 0.9849,0 9.6495,7.59713 19.251,16.88493 26.2948,25.43197 43.3409,40.82886 45.4434,41.04455 1.037,0.10671 5.3073,1.73425 9.4883,3.61664 4.183,1.88458 8.3487,2.96522 9.2594,2.40311 0.9108,-0.56429 1.6559,0.0152 1.6559,1.28325 0,1.26801 1.902,2.30724 4.2289,2.30724 2.3268,0 4.8454,0.99567 5.5971,2.21357 0.7538,1.21789 2.2135,1.69285 3.2462,1.05449 1.0328,-0.63836 2.4772,-0.19172 3.2092,0.99566 0.7321,1.18522 5.1962,3.19399 9.9175,4.46635 4.7234,1.27018 9.6081,4.22014 10.8565,6.55353 3.6187,6.76269 13.0329,10.77803 18.9481,8.08297 2.7496,-1.25274 5.0742,-3.34647 5.1678,-4.6537 0.092,-1.30504 0.499,-4.11992 0.9064,-6.25505 1.035,-5.43368 -7.0524,-10.05471 -17.4143,-9.95448 -4.7932,0.0457 -11.6561,-1.13946 -15.2509,-2.63406 -3.5949,-1.49458 -7.5165,-2.93471 -8.7148,-3.20051 -1.1983,-0.26797 -7.571,-3.13297 -14.1616,-6.37052 -6.5906,-3.23755 -14.0723,-6.15264 -16.6257,-6.47946 -5.2725,-0.67321 -8.205,-2.91509 -20.8524,-15.95462 -4.9412,-5.09162 -10.3532,-9.25948 -12.0264,-9.25948 -1.6732,0 -2.597,-0.73422 -2.0524,-1.63402 0.5447,-0.89982 -0.379,-2.89768 -2.0501,-4.44238 -1.6711,-1.54687 -3.0393,-2.26585 -3.0393,-1.59916 0,0.6645 -7.3531,-6.14395 -16.3403,-15.13109 -8.9871,-8.98714 -16.3402,-16.92415 -16.3402,-17.63658 0,-1.96955 12.3837,1.1656 22.798,5.77356 5.1003,2.25713 11.1265,4.40969 13.3903,4.7866 2.2658,0.37692 6.2593,1.86061 8.876,3.30074 2.6188,1.44011 6.329,2.61662 8.2464,2.61662 1.9194,0 5.6928,1.44448 8.388,3.20922 2.695,1.76693 6.8258,3.57744 9.1831,4.02407 4.5905,0.87365 12.5734,3.83015 25.2665,9.35752 4.353,1.89546 10.3859,3.59485 13.4077,3.77569 3.0241,0.18301 5.109,0.95862 4.6363,1.72553 -0.4749,0.76908 6.2377,3.68854 14.9154,6.49253 8.6756,2.80181 18.1573,6.28991 21.0658,7.75182 2.9108,1.46191 5.9545,2.24841 6.7628,1.74731 0.8104,-0.49892 2.5338,1.42051 3.8301,4.2659 3.4075,7.47948 14.8348,9.60371 20.6061,3.83015 9.2116,-9.20936 -2.1481,-22.93954 -15.2117,-18.38606 -5.0502,1.7604 -8.669,1.2288 -18.1507,-2.67109 -17.8566,-7.34439 -20.4122,-8.3662 -22.1901,-8.86731 -0.8997,-0.25273 -1.878,-0.65578 -2.1786,-0.89326 -0.3007,-0.23965 -2.9195,-0.87149 -5.8216,-1.40527 -2.8998,-0.53377 -6.3313,-1.80396 -7.6253,-2.82359 -1.8521,-1.45973 -14.7652,-6.38578 -20.8677,-7.96097 -3.4446,-0.88891 -10.5754,-3.9282 -15.7957,-6.73437 -3.2963,-1.77129 -5.9914,-2.55561 -5.9914,-1.74078 0,0.81265 -1.2244,0.50546 -2.7233,-0.68193 -1.4968,-1.18958 -6.6451,-3.35521 -11.4382,-4.81494 -4.7932,-1.45973 -12.6365,-4.41622 -17.4297,-6.57314 -4.7931,-2.15473 -13.1266,-5.17005 -18.5189,-6.70168 -12.2486,-3.47721 -16.1049,-6.83677 -14.3162,-12.47306 1.231,-3.88245 2.3464,-4.13736 10.3096,-2.34864 4.9108,1.10459 10.656,2.93253 12.7672,4.0611 2.1111,1.13075 7.1308,2.51203 11.155,3.07196 4.0262,0.55993 10.6145,2.01748 14.6451,3.23755 4.0285,1.22008 7.9501,2.05452 8.7148,1.8519 0.7626,-0.20044 4.8194,0.70808 9.0133,2.01966 14.5733,4.55783 31.6173,9.36623 35.9486,10.14403 2.3966,0.43138 6.1157,1.54252 8.2638,2.46847 2.1483,0.92812 4.4838,1.10895 5.1897,0.40523 0.7038,-0.7059 3.1765,-0.26798 5.4925,0.9717 4.2594,2.27892 11.4622,4.32254 16.458,4.66679 1.4989,0.10242 2.7233,1.4619 2.7233,3.01531 0,6.11562 17.5865,10.19632 20.8916,4.84761 2.3704,-3.83451 1.488,-14.86527 -1.4728,-18.43398 -1.8279,-2.20267 -4.7518,-2.7626 -9.4011,-1.80397 -9.2595,1.90854 -14.3423,1.9129 -22.0006,0.0174 -3.5948,-0.88891 -8.0066,-1.88675 -9.8041,-2.21574 -1.7974,-0.32898 -6.2093,-1.79089 -9.8041,-3.24625 -5.985,-2.42491 -20.6498,-6.09383 -29.9137,-7.48167 -2.0719,-0.31155 -4.3726,-1.17213 -5.1134,-1.9129 -0.7407,-0.74076 -2.5904,-0.8693 -4.1111,-0.28541 -1.5208,0.58172 -9.0221,-1.05449 -16.6715,-3.63843 -7.6495,-2.58393 -15.3795,-5.02191 -17.1769,-5.42061 -1.7974,-0.3987 -7.8803,-2.15038 -13.5167,-3.89551 -7.449,-2.30507 -10.5252,-2.49461 -11.2661,-0.69065 -0.695,1.69285 -1.0718,1.61441 -1.1894,-0.24402 -0.094,-1.49676 -1.6123,-2.72337 -3.3727,-2.72337 -1.9478,0 -2.7081,-1.27673 -1.9456,-3.26806 1.2767,-3.32469 9.7126,-4.50991 12.4709,-1.75167 0.8344,0.83227 2.7125,1.69503 4.1765,1.9129 1.4642,0.22005 9.5231,2.43143 17.9112,4.91515 14.5602,4.30947 24.421,6.7213 31.6303,7.73656 1.8171,0.2571 4.5143,1.21136 5.9915,2.12424 1.475,0.91288 3.6645,1.05449 4.8629,0.31374 1.1983,-0.74077 2.1787,-0.2462 2.1787,1.09806 0,1.34426 1.7168,2.23099 3.8127,1.97172 2.096,-0.25926 5.2834,0.12419 7.0808,0.85187 13.1485,5.32257 26.9636,8.36622 32.1424,7.08515 3.292,-0.81702 7.7017,-1.62968 9.7976,-1.81051 2.096,-0.17866 3.8127,-1.08499 3.8127,-2.01311 0,-0.92814 2.2071,-1.62314 4.9021,-1.54689 5.6581,0.16341 18.6453,-1.98044 23.4211,-3.86283 5.9521,-2.34646 11.8281,-3.13298 26.506,-3.54475 7.9893,-0.22441 15.2879,-1.16996 16.2205,-2.10245 3.0981,-3.09593 2.6318,-14.43825 -0.7059,-17.20955 -6.3488,-5.2681 -13.0352,-4.41188 -18.4035,2.36171 -3.7757,4.76045 -7.6429,6.80189 -14.9024,7.85857 -12.6908,1.84972 -35.3298,7.60367 -38.1273,9.68868 -1.1982,0.89327 -8.5513,1.22225 -16.3402,0.72987 -20.7347,-1.3094 -21.787,-1.45102 -21.787,-2.92817 0,-1.47716 -2.0001,-1.90855 -12.3249,-2.65366 -3.7823,-0.27234 -6.4207,-1.23315 -5.8629,-2.1373 0.5578,-0.90199 -0.7582,-1.79091 -2.926,-1.97173 -7.6211,-0.64273 -9.1636,-1.05449 -47.5154,-12.68876 l -13.0721,-3.96523 37.5782,0.32244 c 20.6671,0.17648 37.5804,1.17867 37.5826,2.22228 0,1.04577 1.6624,0.55557 3.6908,-1.08935 2.0283,-1.64274 3.0894,-1.98915 2.3595,-0.7669 -2.4227,4.05892 30.9157,3.08068 49.511,-1.45538 9.5863,-2.33775 19.8806,-4.70164 22.8764,-5.25503 2.9956,-0.5512 7.8977,-1.65581 10.8935,-2.45321 2.9956,-0.79741 7.4075,-1.5556 9.8041,-1.68414 2.3966,-0.13072 5.4795,-0.93248 6.852,-1.78436 1.3726,-0.85187 3.0219,-0.17647 3.6646,1.50113 1.6754,4.36393 14.4513,2.97175 18.0636,-1.96737 2.5404,-3.47503 2.4075,-5.00883 -0.9369,-10.74971 -4.6711,-8.02633 -11.5994,-9.5841 -17.094,-3.84323 -4.1766,4.36394 -13.8892,8.07863 -26.833,10.26386 -4.1634,0.70372 -8.085,1.96084 -8.7147,2.79528 -0.6296,0.83444 -4.5774,1.6885 -8.7715,1.89765 -4.194,0.21133 -11.4033,1.35515 -16.0199,2.54472 -4.6189,1.18957 -17.1181,1.99787 -27.7807,1.79743 -10.6604,-0.20044 -19.3817,0.42703 -19.3817,1.39655 0,0.96952 -1.2244,0.98694 -2.7233,0.0392 -1.4969,-0.94992 -7.1353,-1.89329 -12.5276,-2.09809 -51.3979,-1.96083 -65.9188,-2.80399 -67.0038,-3.88681 -0.6929,-0.695 2.793,-1.26363 7.7496,-1.26363 10.9218,0 53.0339,-5.7801 63.6116,-8.73225 4.194,-1.16995 13.0177,-2.53382 19.6084,-3.03274 6.5905,-0.49893 24.238,-2.86717 39.2165,-5.26375 14.9786,-2.39657 33.1163,-5.03715 40.306,-5.86724 7.1897,-0.83008 14.5428,-2.29417 16.3403,-3.25062 1.8497,-0.98696 7.2833,-0.38345 12.521,1.38784 11.0024,3.72339 16.7629,1.58172 18.9263,-7.03068 2.9195,-11.63862 -11.5384,-18.62135 -20.3382,-9.82158 -5.2702,5.27028 -11.0373,7.06771 -25.6563,8.00019 -6.4425,0.4096 -12.7847,1.40744 -14.0962,2.21791 -1.3116,0.81048 -6.4337,1.7604 -11.3816,2.11335 -4.9478,0.35077 -19.7804,2.25931 -32.9616,4.23757 -13.181,1.98044 -26.1727,3.62536 -28.8677,3.65804 -2.6951,0.0327 -4.9021,0.73858 -4.9021,1.56866 0,0.83009 -3.5643,1.09371 -7.9217,0.58607 -4.3596,-0.50982 -7.3946,-0.0675 -6.7453,0.9826 0.6492,1.04795 -1.4249,1.99569 -4.6036,2.1068 -3.1809,0.10891 -11.1768,0.8802 -17.7673,1.71246 -6.5907,0.83227 -14.1595,1.49023 -16.8218,1.46409 -2.6602,-0.0283 -7.3182,0.89327 -10.3488,2.0458 -3.0306,1.15253 -5.51,1.31812 -5.51,0.3682 0,-0.94991 5.3923,-3.4271 11.9829,-5.5034 6.5905,-2.07848 11.9828,-4.67767 11.9828,-5.77791 0,-1.09807 1.2354,-1.52509 2.7452,-0.94556 1.5077,0.57954 6.5556,-0.89109 11.216,-3.26588 4.658,-2.37478 9.4577,-3.70814 10.6625,-2.96303 1.3443,0.83009 1.5033,0.23749 0.4096,-1.52944 -1.2724,-2.06105 -0.8039,-2.51205 1.6297,-1.57739 1.878,0.72115 4.0807,0.64272 4.8976,-0.17429 0.8149,-0.81701 2.1374,-1.53817 2.9349,-1.6057 5.5447,-0.4706 15.6147,-3.78223 15.6147,-5.13521 0,-0.90198 1.2266,-1.64273 2.7233,-1.64273 1.499,0 6.1549,-1.52945 10.3489,-3.39878 9.9392,-4.42711 15.1245,-6.20276 21.787,-7.45551 2.9958,-0.56429 6.3793,-1.94776 7.5166,-3.07415 1.1373,-1.12639 4.756,-2.04798 8.0415,-2.04798 3.2856,0 6.4839,-0.83008 7.1114,-1.84536 0.6274,-1.01527 3.8715,-1.98697 7.2092,-2.16127 6.0546,-0.31809 40.404,-7.2224 50.7333,-10.1985 7.876,-2.27021 16.081,-1.82139 17.0003,0.93248 0.4358,1.30941 3.5318,2.37915 6.8804,2.37915 10.6408,0 16.2138,-11.63209 9.3902,-19.60178 -4.828,-5.63848 -12.4644,-5.56223 -18.2074,0.18084 -2.499,2.49897 -8.0285,4.97615 -12.2857,5.50557 -4.2572,0.52724 -8.8281,1.63185 -10.1593,2.4554 -1.329,0.82137 -3.8889,1.53381 -5.6886,1.58174 -9.1004,0.24836 -47.9335,8.62983 -47.9335,10.34883 0,1.08935 -1.7169,1.7691 -3.8128,1.50984 -2.096,-0.25927 -5.2834,0.0545 -7.0807,0.695 -1.7975,0.64272 -7.68,2.43797 -13.0723,3.9892 -5.3922,1.55124 -10.7846,3.3552 -11.9829,4.00881 -1.1983,0.65362 -3.2789,1.35516 -4.6253,1.55996 -1.3464,0.20479 -5.7583,1.85625 -9.8041,3.66892 -4.0459,1.81269 -12.2597,4.96091 -18.251,6.99799 -5.9915,2.03926 -12.8545,4.48377 -15.2511,5.43369 -11.035,4.377 -18.4296,6.96312 -19.4862,6.81715 -0.6362,-0.0893 -5.8258,1.86497 -11.5319,4.33997 -22.885,9.92617 -26.3296,10.30744 -10.9218,1.207 5.0917,-3.00878 11.2813,-7.38144 13.7541,-9.71701 2.4728,-2.33556 6.8847,-5.45764 9.8042,-6.93698 7.2311,-3.66239 41.818,-26.73484 44.524,-29.70223 6.6451,-7.27905 28.9963,-16.76074 45.3845,-19.25101 4.5906,-0.69717 17.336,-3.83451 28.3231,-6.97401 10.9894,-3.13951 23.3012,-6.11126 27.3602,-6.60583 4.061,-0.49239 9.2071,-1.87368 11.4381,-3.06761 2.231,-1.19393 4.0568,-1.52509 4.0568,-0.73858 0,0.78869 1.3159,0.34206 2.9238,-0.99348 1.6078,-1.33337 3.5273,-1.82358 4.2638,-1.08717 0.7363,0.73639 3.098,0.56864 5.2462,-0.37474 2.1482,-0.94338 4.56,-1.79962 5.3596,-1.90419 0.7974,-0.10242 2.0589,-0.79523 2.8019,-1.53816 0.7429,-0.74076 4.9913,-0.0545 9.4402,1.52727 7.4316,2.64276 8.4032,2.51204 11.9045,-1.61442 5.9107,-6.96313 4.8585,-14.25088 -2.6145,-18.11372 -8.3074,-4.2964 -7.5034,-4.49902 -16.0548,4.05239 -5.8258,5.82584 -9.85,7.70824 -19.1377,8.95881 -6.4665,0.86931 -13.0069,2.59266 -14.5341,3.8258 -1.5274,1.23533 -3.316,1.70592 -3.9761,1.04578 -0.6625,-0.66015 -4.3139,-0.24619 -8.1179,0.92159 -3.804,1.16561 -8.388,2.47282 -10.1854,2.90203 -1.7975,0.42921 -3.2681,0.93683 -3.2681,1.12857 0,0.40524 -6.5971,1.7691 -13.5733,2.80617 -2.6711,0.39652 -5.462,1.32682 -6.2027,2.06758 -0.7409,0.74076 -2.8825,0.75819 -4.7606,0.037 -1.9085,-0.73204 -2.8431,-0.38781 -2.1198,0.78215 0.732,1.18304 -2.3966,2.23972 -7.1897,2.43144 -4.6646,0.18519 -10.2333,1.27454 -12.3729,2.42054 -2.1394,1.14382 -6.9326,2.55997 -10.6517,3.14604 -3.7189,0.58389 -11.7976,4.60359 -17.9525,8.93049 -6.1547,4.32472 -11.6451,7.86512 -12.1985,7.86512 -0.5534,0 -7.5274,4.65806 -15.4972,10.34882 -7.9696,5.69077 -17.5756,12.16806 -21.3468,14.3925 -3.7714,2.22228 -7.1833,4.91951 -7.5819,5.99144 -0.4009,1.06973 -2.1156,1.94775 -3.8127,1.94775 -1.6973,0 -3.0873,0.98042 -3.0873,2.1787 0,1.19829 -1.2854,2.17871 -2.8563,2.17871 -1.573,0 -5.0176,2.01093 -7.6538,4.46851 -6.244,5.81713 -9.6581,3.74301 -6.5883,-4.00009 1.2898,-3.2528 2.2614,-9.13529 2.159,-13.07221 -0.1241,-4.82582 1.3225,-8.37275 4.4424,-10.8935 2.5447,-2.05453 9.9676,-8.47516 16.4993,-14.26615 9.3641,-8.3052 12.9677,-10.25295 17.0636,-9.22679 10.9371,2.74517 18.5386,-13.56241 9.9458,-21.3382 -7.2616,-6.57314 -19.9395,-1.05231 -19.9395,8.67995 0,2.84973 -0.9368,5.18095 -2.0806,5.18095 -1.1439,0 -4.6929,2.61444 -7.8869,5.80841 -6.7344,6.73437 -27.3776,22.5147 -29.4539,22.5147 -0.7756,0 -4.889,-8.08734 -9.1418,-17.97428 -9.9763,-23.19228 -11.0721,-26.24245 -10.3772,-28.8678 2.5883,-9.81069 -2.6906,-18.29672 -11.4773,-18.44924 -9.2901,-0.1634 -14.9264,14.20514 -7.924,20.20093 2.3726,2.03272 5.7757,3.69507 7.5579,3.69507 1.7844,0 3.2658,1.22661 3.292,2.72338 0.027,1.49894 1.9477,6.90866 4.2681,12.02206 2.3225,5.1156 4.303,9.75406 4.4053,10.30962 0.1,0.55557 1.5904,4.37919 3.3116,8.49912 2.815,6.73436 2.7234,8.4381 -0.891,16.92415 -2.2093,5.18966 -4.6886,11.35974 -5.51,13.71056 -1.7495,5.01102 -4.6907,0.42485 -25.8002,-40.22318 -7.1548,-13.78028 -14.3685,-26.60194 -16.0287,-28.49523 -1.6601,-1.89111 -3.0197,-4.58834 -3.0197,-5.99142 0,-1.4031 -0.9804,-2.55126 -2.1787,-2.55126 -1.1983,0 -2.0632,-0.73423 -1.9216,-1.63403 0.9455,-5.98054 -4.4511,-12.27263 -28.4909,-33.22519 -6.1852,-5.39229 -13.3946,-12.15062 -16.0178,-15.01779 -2.6231,-2.86717 -9.12872,-8.01327 -14.45566,-11.43819 -5.32694,-3.42273 -8.8717,-6.22454 -7.87593,-6.22454 0.99566,0 -1.01746,-2.18306 -4.47511,-4.84978 -3.45753,-2.66891 -8.86509,-7.32481 -12.01768,-10.34884 -3.1526,-3.02404 -7.80854,-6.94134 -10.34883,-8.70391 -2.5382,-1.76258 -4.61673,-5.29425 -4.61673,-7.85204 0,-4.61449 -9.09602,-16.33373 -12.42295,-16.00473 -0.95645,0.0937 -3.2092,0.72768 -5.00658,1.40961 m 680.49337,305.41686 c -7.4033,4.57528 -10.5057,10.87608 -8.4882,17.23789 1.2461,3.92601 -3.7256,9.00021 -49.4914,50.50011 -7.2682,6.59056 -17.3424,15.90452 -22.3883,20.69766 -5.0481,4.79314 -16.4013,15.23565 -25.2316,23.20534 -8.8324,7.9697 -19.5822,17.77384 -23.8937,21.78701 -4.3095,4.01318 -11.6954,10.78458 -16.4144,15.05047 -4.7169,4.26372 -11.4447,13.57767 -14.9481,20.69766 -3.5033,7.11782 -8.0983,15.50581 -10.2116,18.63661 -2.1111,3.1308 -3.353,6.17662 -2.7604,6.76923 0.5927,0.5926 -0.4183,2.31813 -2.2441,3.83451 -1.8256,1.51637 -3.3639,4.35087 -3.414,6.3008 -0.052,1.95212 -2.4575,7.4686 -5.3443,12.26173 -5.7016,9.46863 -23.957,43.94005 -28.8417,54.46753 -1.6688,3.59486 -3.963,8.00673 -5.0981,9.80415 -1.133,1.79744 -5.2376,9.86075 -9.1201,17.91983 -3.8824,8.05896 -7.6015,14.6779 -8.2659,14.7062 -1.3508,0.0615 -10.6626,-27.15096 -11.3947,-33.29706 -0.2592,-2.16781 -2.5883,-5.59926 -5.1765,-7.62546 l -4.7038,-3.68636 5.1722,-10.89351 c 2.8432,-5.99142 5.2071,-12.42513 5.2485,-14.29664 0.043,-1.8715 2.1917,-7.75399 4.7778,-13.0722 2.5839,-5.3182 4.7082,-10.8935 4.7191,-12.39246 0.013,-1.49676 0.8388,-2.72336 1.8389,-2.72336 0.9978,0 1.6535,-0.73423 1.4575,-1.63403 -1.549,-7.08514 6.4315,-17.68452 11.1309,-14.78031 2.9675,1.83447 11.2378,-8.99803 12.105,-15.85441 0.8017,-6.32476 -5.5949,-18.2183 -9.3881,-17.45357 -0.8278,0.16775 -3.1351,-0.41178 -5.1243,-1.2898 -4.3683,-1.92379 -16.1812,3.77134 -18.8588,9.0939 -1.9543,3.89116 -1.6951,9.97845 0.8975,20.90682 0.8128,3.42273 0.5513,6.85419 -0.5816,7.62545 -2.1177,1.4423 -10.6952,23.54087 -18.5735,47.85517 -3.3704,10.40112 -5.767,14.26831 -9.7867,15.79558 -7.2681,2.76478 -7.9021,2.64931 -13.3402,-2.41835 -2.6231,-2.44232 -4.7734,-3.66893 -4.78,-2.72338 -0.012,0.94555 -2.2114,-0.92812 -4.9021,-4.16132 -2.6907,-3.23319 -13.6561,-12.75193 -24.3687,-21.15301 -16.2793,-12.76501 -19.5604,-16.37075 -19.9875,-21.95912 -0.7168,-9.38149 -8.6058,-15.66487 -17.996,-14.3315 -8.6953,1.23532 -14.6235,6.05679 -16.4645,13.39247 -3.072,12.23559 12.4775,26.08124 23.5975,21.01575 4.1178,-1.87585 5.9806,-1.43358 10.2508,2.44014 2.8694,2.60355 9.6298,8.14399 15.0222,12.31403 5.3922,4.17004 12.2551,9.88476 15.2509,12.69964 2.9956,2.81489 9.035,7.55356 13.4186,10.52967 7.1439,4.84979 7.7888,6.05679 6.1919,11.62556 -0.9805,3.41612 -1.4337,6.56002 -1.0088,6.98709 0.4271,0.42696 1.3639,4.17656 2.0828,8.33351 0.719,4.15915 2.695,12.27042 4.3923,18.03093 3.0633,10.40114 3.0524,10.45994 -1.7365,9.03942 -2.6514,-0.78873 -6.0458,-2.99137 -7.5447,-4.89557 -1.4969,-1.90641 -2.7387,-2.5425 -2.7561,-1.41392 -0.02,1.12638 -0.7539,1.03266 -1.634,-0.20924 -0.8803,-1.24179 -9.4447,-7.35305 -19.031,-13.57763 -9.5863,-6.22667 -18.6148,-12.31833 -20.0615,-13.53622 -1.4466,-1.22009 -3.2768,-2.21795 -4.0654,-2.21795 -0.7887,0 -6.0547,-3.39223 -11.7018,-7.53827 -5.6494,-4.14607 -12.643,-8.59498 -15.5429,-9.88696 -5.1962,-2.31595 -24.5584,-15.03085 -29.6936,-19.50155 -1.4466,-1.25929 -3.9913,-2.28981 -5.6536,-2.28981 -1.6624,0 -4.7975,-1.96083 -6.9653,-4.3574 -2.1679,-2.39657 -5.2136,-4.35741 -6.7649,-4.35741 -1.5534,0 -3.6189,-1.42269 -4.5927,-3.16346 -1.9805,-3.53604 -18.0354,-10.90877 -18.0876,-8.30304 -0.02,0.91288 -0.7538,0.54468 -1.6341,-0.81919 -0.8802,-1.36604 -5.0328,-2.99136 -9.2268,-3.61228 -4.194,-0.62311 -14.9786,-2.79528 -23.9657,-4.82801 -8.9871,-2.03272 -18.3011,-3.86719 -20.6976,-4.07635 -2.3966,-0.20916 -5.3379,-0.97606 -6.5362,-1.70374 -1.1983,-0.72551 -8.0611,-2.48154 -15.2509,-3.8977 -7.1897,-1.41615 -16.5037,-3.44234 -20.6976,-4.50337 -4.194,-1.05886 -10.5667,-2.45323 -14.1616,-3.09594 -8.924,-1.59481 -13.6016,-2.59483 -25.0551,-5.35525 -5.3922,-1.2985 -12.7454,-2.78001 -16.3403,-3.28765 -3.5948,-0.50982 -6.536,-1.08282 -6.536,-1.27236 0,-0.70808 -8.88478,-2.52948 -13.61693,-2.79092 -2.69501,-0.15034 -4.90206,-1.22007 -4.90206,-2.37915 0,-1.15689 -0.61869,-1.48587 -1.37471,-0.72986 -1.99792,1.99569 -9.51881,-2.49897 -9.51881,-5.68858 0,-3.74519 -6.88027,-9.2791 -13.64954,-10.97849 -3.91511,-0.98259 -6.81067,-0.24837 -9.45779,2.39876 -2.09802,2.09809 -4.37478,3.51206 -5.06109,3.14168 -0.68411,-0.37038 -2.16993,3.93256 -3.30072,9.56451 -1.9434,9.67997 -1.73207,10.49479 3.90862,14.99163 6.28119,5.00884 16.45788,5.85635 21.39916,1.78218 3.06757,-2.52947 14.61909,-2.3726 18.87626,0.25709 1.39443,0.86277 2.536,1.10895 2.536,0.54686 0,-0.56211 5.63628,0.40959 12.52761,2.1569 14.9306,3.78441 18.2248,4.5426 31.0464,7.13526 12.7106,2.56868 19.1029,3.9783 36.7155,8.09823 16.7084,3.90641 21.5169,5.01318 27.5563,6.34437 2.3965,0.52725 6.8084,1.53598 9.8041,2.23971 2.9958,0.70372 7.4075,1.65799 9.8041,2.12205 2.3966,0.46189 8.7693,1.92597 14.1617,3.24845 5.3922,1.32465 12.5231,2.76041 15.8457,3.18961 13.6299,1.76911 32.8765,11.72577 54.8967,28.39937 2.3617,1.78872 7.0176,4.45762 10.3489,5.9326 3.3312,1.47498 6.0567,3.42057 6.0567,4.3269 0,0.90634 1.0741,1.6471 2.3879,1.6471 1.3116,0 5.4576,2.20703 9.2137,4.90208 3.7539,2.69497 8.3792,5.88248 10.2747,7.08077 1.8955,1.19829 7.3074,4.61012 12.0286,7.58189 4.7192,2.97166 16.1508,10.56886 25.4037,16.88484 9.2508,6.3139 17.8305,11.48181 19.0636,11.48181 1.231,0 2.2398,0.74071 2.2398,1.64706 0,0.90634 3.1853,3.05679 7.0808,4.77796 3.8955,1.72337 9.5209,5.39444 12.5056,8.15697 4.5121,4.18096 4.7823,5.02629 1.6036,5.02629 -2.1002,0 -5.523,-0.97385 -7.6037,-2.16124 -6.9217,-3.95652 -26.1661,-10.67777 -27.3078,-9.5362 -0.6188,0.61881 -4.401,-0.57299 -8.4076,-2.64932 -4.0066,-2.07621 -10.2246,-4.52951 -13.8195,-5.45325 -7.1766,-1.84319 -43.1688,-13.97419 -50.1102,-16.88716 -3.9521,-1.66015 -22.9918,-8.33779 -28.323,-9.93485 -1.1983,-0.35725 -3.6494,-1.2789 -5.4468,-2.04583 -9.2073,-3.93031 -49.8815,-17.29443 -55.5569,-18.25524 -8.741,-1.47935 -10.2966,-1.87587 -14.3816,-3.66458 -1.9173,-0.8388 -4.3684,-1.28979 -5.4468,-1.00221 -1.0762,0.2876 -4.8999,-0.16993 -8.4948,-1.01745 -3.5949,-0.84751 -8.9871,-2.0044 -11.9828,-2.56868 -2.9957,-0.56429 -13.2901,-2.63841 -22.8764,-4.61013 -9.5863,-1.97173 -18.9003,-3.7648 -20.6976,-3.98267 -1.7975,-0.22005 -5.7191,-0.98695 -8.7149,-1.70375 -11.8347,-2.83013 -29.7719,-6.01321 -36.49324,-6.47509 -4.5229,-0.30938 -7.51648,-1.85407 -8.28561,-4.27679 -1.62965,-5.13956 -12.8129,-10.42727 -18.90015,-8.93704 -15.93721,3.90423 -18.60184,21.65193 -4.77356,31.78725 6.48162,4.74957 16.45139,3.3247 22.55175,-3.22447 3.62096,-3.88463 4.96087,-4.05892 13.52101,-1.74733 5.2267,1.41181 15.386,3.50118 22.5756,4.64282 7.1898,1.14382 15.105,2.40311 17.5909,2.79745 2.4859,0.39652 11.9371,2.37042 21.0049,4.3879 9.0655,2.01748 18.7978,3.97177 21.6258,4.34433 2.8258,0.37032 12.9829,2.36384 22.5692,4.42706 9.5863,2.06543 18.9001,4.06114 20.6976,4.43799 1.7974,0.37697 3.5121,0.88454 3.8127,1.12429 0.3007,0.24184 1.2789,0.6449 2.1788,0.89544 0.8997,0.25054 4.085,1.47272 7.0807,2.71683 2.9958,1.24619 8.6995,2.97177 12.6736,3.8367 3.9761,0.86493 9.8585,2.94335 13.0721,4.62103 3.2158,1.67755 7.0851,3.05447 8.5994,3.06317 1.5141,0.0116 4.4554,0.86284 6.5361,1.89991 4.5318,2.26144 11.4753,4.66452 42.9989,14.89573 13.1811,4.27677 24.9766,8.56444 26.2119,9.5297 1.2353,0.96295 4.6668,2.24185 7.6254,2.83885 2.9588,0.59688 10.5537,3.03058 16.8785,5.40964 6.3248,2.37918 11.717,4.29428 11.9829,4.25937 2.1568,-0.28974 19.8915,5.48376 24.8132,8.07647 3.3944,1.79088 9.8303,3.85851 14.3031,4.59493 4.4707,0.73851 7.5906,2.21563 6.9305,3.2832 -0.6602,1.06757 -1.9042,1.50775 -2.7626,0.97826 -0.8584,-0.53158 -8.6081,-1.57955 -17.2226,-2.32896 -8.6146,-0.74952 -17.7238,-1.76049 -20.2467,-2.24625 -5.7234,-1.10248 -34.6915,-4.90207 -39.1012,-5.13092 -1.7973,-0.0916 -6.2092,-0.6449 -9.8041,-1.23088 -3.5949,-0.58389 -13.399,-1.71247 -21.787,-2.50769 -24.6804,-2.34218 -36.0467,-3.8236 -49.108,-6.40321 -2.9478,-0.58169 -11.7323,-1.52944 -19.5212,-2.10463 -7.7888,-0.5774 -16.6126,-1.61005 -19.6082,-2.29636 -2.9958,-0.68632 -9.8587,-1.67977 -15.251,-2.20706 -5.3923,-0.52508 -16.6517,-1.87369 -25.0224,-2.99566 -8.3684,-1.12208 -15.606,-1.65146 -16.081,-1.17439 -0.475,0.47497 -2.451,0.0267 -4.3901,-0.99566 -1.9412,-1.02395 -12.3511,-2.50978 -23.1357,-3.30071 -24.7717,-1.81489 -26.2816,-2.30286 -35.4386,-11.4621 -5.656,-5.65379 -8.7367,-7.21374 -12.2073,-6.17668 -2.5534,0.76043 -5.87815,1.63836 -7.38798,1.94991 -4.11555,0.84974 -7.78882,5.15921 -8.52965,10.00468 -0.36165,2.37036 -0.86273,5.08069 -1.11547,6.01974 -0.99565,3.72988 3.06108,11.51441 6.00014,11.51441 1.71677,0 3.1221,0.86934 3.1221,1.9325 0,2.45538 12.91316,4.4424 14.30096,2.20044 2.0088,-3.2527 13.996,-8.11556 15.2008,-6.16786 0.6689,1.08288 3.3726,1.83449 6.011,1.66885 2.6363,-0.16331 12.1463,0.78433 21.1334,2.10684 14.6213,2.15045 32.1795,4.23536 51.1996,6.07646 3.5948,0.34635 8.9871,1.18739 11.9828,1.86709 2.9958,0.67981 11.8194,1.69066 19.6084,2.24405 7.7888,0.55559 14.1615,1.14389 14.1615,1.30941 0,0.16563 3.9216,0.5796 8.7147,0.91945 4.7932,0.33984 11.6561,1.2898 15.2509,2.11333 3.5949,0.82132 10.4579,1.76037 15.2511,2.08723 4.793,0.32674 10.6756,1.16117 13.0721,1.85618 2.3966,0.69281 11.2204,1.88019 19.6083,2.63621 8.388,0.75382 17.702,1.74739 20.6977,2.20485 2.9958,0.45537 10.8391,1.40962 17.4296,2.11994 6.5907,0.71021 14.4339,1.64926 17.4297,2.08712 14.5645,2.13084 47.6481,6.27689 54.0687,6.77797 9.2922,0.72551 11.7825,3.12209 3.486,3.35302 -3.4969,0.0974 -8.8063,0.43578 -11.8021,0.75162 -6.743,0.71252 -46.6416,3.52306 -64.2717,4.53171 -7.1896,0.40968 -24.8372,1.49893 -39.2165,2.42279 -33.0792,2.12203 -71.4898,2.34647 -82.7908,0.48797 -4.7931,-0.79082 -14.107,-2.53159 -20.6976,-3.8693 -6.5906,-1.33991 -14.9241,-2.93477 -18.5189,-3.54696 -3.5949,-0.61011 -8.0068,-1.51645 -9.8042,-2.01312 -1.7975,-0.49458 -7.68,-1.54474 -13.0723,-2.32907 -5.3922,-0.78652 -11.2747,-1.73856 -13.0721,-2.11982 -1.7975,-0.37917 -7.9261,-1.38132 -13.6169,-2.22886 -5.6908,-0.84754 -10.3489,-2.70812 -10.3489,-4.13294 0,-4.63634 -10.7584,-12.09621 -17.447,-12.09621 -3.584,0 -6.5186,0.98046 -6.5186,2.17875 0,1.19829 -1.4359,2.17863 -3.1918,2.17863 -4.3466,0 -8.0177,7.47078 -7.0853,14.42517 1.0785,8.05687 9.4928,16.07674 16.8632,16.07674 8.2203,0 13.3054,-2.13514 11.6125,-4.87598 -1.2767,-2.06542 15.3903,-0.94995 28.5671,1.91291 2.438,0.52937 7.8651,1.37262 12.0592,1.87369 4.194,0.50108 9.5862,1.34861 11.9828,1.88669 23.2686,5.20712 40.9552,8.13528 43.4215,7.18753 1.6472,-0.6318 3.6624,-0.48148 4.4794,0.33555 0.8149,0.81703 2.3814,1.60576 3.4795,1.75609 1.0981,0.15032 2.2418,0.46836 2.5425,0.70591 3.7104,2.95866 19.9286,3.38782 50.6549,1.3442 24.7086,-1.64276 33.1859,-2.17875 74.0758,-4.68633 38.2449,-2.34646 41.3343,-2.56441 42.4847,-2.99577 2.3573,-0.88675 26.5801,-0.37685 27.5365,0.5796 0.56,0.55988 -6.1417,3.08277 -14.8935,5.60577 -8.7519,2.52289 -21.3034,6.18318 -27.894,8.13308 -6.5905,1.9521 -13.2182,3.89331 -14.728,4.31597 -1.5119,0.42267 -3.1918,0.91504 -3.7343,1.09587 -0.5425,0.18303 -12.0526,3.66458 -25.5779,7.73883 -13.5232,4.07413 -26.0595,7.85853 -27.8569,8.4075 -1.7974,0.5513 -8.7279,2.35738 -15.399,4.01754 -6.6735,1.65807 -14.5167,4.29208 -17.4296,5.85202 -2.9153,1.55774 -5.7889,2.69722 -6.3881,2.5295 -0.5991,-0.16772 -4.7888,0.6906 -9.3096,1.90849 -4.5208,1.21581 -9.0045,1.72779 -9.9631,1.13519 -2.3574,-1.45543 -31.2709,-7.70391 -46.0883,-9.95886 -6.5906,-1.00227 -18.3555,-3.44675 -26.1444,-5.43377 -7.7889,-1.9847 -16.6126,-4.01092 -19.6084,-4.50329 -12.4817,-2.04803 -13.8239,-2.62752 -14.3488,-6.20058 -1.4032,-9.56891 -12.4383,-15.48403 -22.4014,-12.01118 -10.2487,3.57306 -14.6104,20.05274 -7.3401,27.73485 5.0981,5.38575 17.715,7.55139 23.1726,3.97392 4.279,-2.80393 6.5667,-2.82353 17.8153,-0.15682 16.4274,3.89551 26.5888,5.6973 34.1489,6.06116 3.2964,0.15902 5.9915,0.91063 5.9915,1.67315 0,0.76483 4.5012,2.06333 10.0002,2.88686 13.4077,2.01091 15.6932,2.47719 26.7305,5.44884 5.2137,1.40313 10.8456,2.02843 12.5188,1.38573 1.6711,-0.64061 3.0393,-0.35075 3.0393,0.6449 0,0.99566 2.4511,1.45533 5.4467,1.01955 2.9958,-0.43345 7.7476,-1.12637 10.5581,-1.54243 2.8105,-0.41396 6.0785,-1.35081 7.2637,-2.08282 1.1831,-0.73213 5.0787,-1.8476 8.654,-2.47719 3.5752,-0.62971 14.277,-3.69949 23.7826,-6.82379 9.5035,-3.12418 18.946,-6.01754 20.9809,-6.4293 5.4685,-1.10457 28.0138,-7.77362 35.3843,-10.46644 3.5208,-1.28551 7.9327,-2.47939 9.8042,-2.65152 1.8693,-0.17213 8.303,-2.02622 14.2944,-4.11775 11.4534,-4.00222 11.85,-4.11554 26.9179,-7.77142 5.218,-1.268 12.1811,-3.69508 15.4731,-5.39885 6.3248,-3.27021 15.8218,-3.67327 13.9176,-0.59039 -0.621,1.00215 0.1372,3.34433 1.6819,5.20712 2.3312,2.80834 2.1853,3.72988 -0.8562,5.43365 -2.0153,1.12638 -4.1569,2.07633 -4.7584,2.10684 -0.6034,0.0325 -4.3007,1.02836 -8.2179,2.21354 -3.9153,1.18519 -14.4732,4.06103 -23.4603,6.3879 -8.9871,2.32907 -18.3011,5.12651 -20.6977,6.21809 -2.3966,1.09146 -9.0155,3.05447 -14.7062,4.36387 -24.3405,5.59929 -31.2012,7.53399 -33.7699,9.5231 -1.4967,1.15908 -2.7234,1.59265 -2.7234,0.96306 0,-0.6275 -4.6581,0.30065 -10.3489,2.06543 -5.6906,1.76687 -12.7169,3.67977 -15.6147,4.25276 -2.8955,0.57519 -10.7039,2.95645 -17.3533,5.29423 -6.6494,2.33556 -14.0832,4.26807 -16.5212,4.29428 -2.438,0.0267 -11.2966,2.47058 -19.6846,5.43585 -17.277,6.10465 -35.9485,9.25077 -35.9485,6.05454 0,-2.0174 -3.0197,-2.78212 -11.7213,-2.96516 -2.2529,-0.0464 -6.3161,2.00222 -9.0308,4.55129 -4.6799,4.3966 -5.0699,7.2224 -2.8585,20.7434 0.366,2.2462 4.0676,6.4185 6.1811,6.9653 0.599,0.1569 2.7734,0.9281 4.8301,1.7191 6.4533,2.4749 15.6671,-2.0459 19.1355,-9.3903 1.7974,-3.8062 4.4293,-6.9413 5.8498,-6.9674 1.4206,-0.027 5.3422,-1.1591 8.7148,-2.5186 3.3726,-1.3595 9.0242,-2.8433 12.5581,-3.2986 3.5338,-0.4532 6.9653,-1.5513 7.6254,-2.438 0.6602,-0.8866 3.9783,-1.9346 7.3727,-2.329 3.3945,-0.3943 11.484,-2.5447 17.9744,-4.77794 6.4903,-2.23315 11.802,-3.60786 11.802,-3.05888 0,0.5513 3.4489,-0.44006 7.6647,-2.20044 4.2157,-1.76257 7.8934,-3.1831 8.1702,-3.157 0.2788,0.0267 1.976,-0.42696 3.7734,-1.00656 1.7974,-0.57948 5.7191,-1.55554 8.7148,-2.16773 6.205,-1.2702 17.9394,-4.51431 47.9314,-13.25088 6.5906,-1.9194 14.4339,-4.01313 17.4297,-4.65374 2.9956,-0.64049 13.2901,-3.65367 22.8763,-6.69515 28.8809,-9.16573 36.5042,-8.77577 37.9116,1.93911 0.1198,0.89973 0.2898,1.87799 0.3835,2.17864 1.1024,3.60797 1.4139,8.30091 0.488,7.37276 -0.658,-0.65581 -4.9566,0.72331 -9.5536,3.06978 -4.5971,2.34427 -9.8674,4.26366 -11.7127,4.26366 -1.8454,0 -3.3552,0.98046 -3.3552,2.17875 0,1.19829 -0.7342,1.97832 -1.6341,1.73207 -2.0262,-0.55338 -18.2727,4.78666 -21.2423,6.98269 -1.1983,0.88674 -5.95,2.82586 -10.5602,4.31169 -4.6079,1.48594 -10.9806,4.05897 -14.1615,5.71687 -3.1788,1.6602 -7.3073,3.0219 -9.1767,3.0306 -1.8671,0.012 -5.2985,1.4532 -7.6254,3.2114 -2.3247,1.7604 -5.6995,3.2637 -7.497,3.3421 -1.7974,0.079 -7.1896,2.0372 -11.9828,4.3531 -4.7931,2.316 -9.5471,4.242 -10.5645,4.2833 -1.0175,0.042 -4.9391,1.4314 -8.7148,3.0895 -3.7757,1.6579 -11.277,4.9609 -16.6693,7.3399 -5.3923,2.3792 -12.2551,4.9915 -15.2509,5.8041 -4.9021,1.3268 -11.3467,3.9566 -37.3669,15.2487 -4.3749,1.8977 -9.0962,3.4511 -10.4927,3.4511 -1.3943,0 -4.6776,1.1787 -7.2964,2.6188 -2.6167,1.4401 -5.7387,2.8214 -6.937,3.0677 -1.1983,0.2483 -5.8499,2.0218 -10.338,3.9434 -4.4881,1.9194 -8.6363,3.52286 -9.2202,3.56206 -0.5839,0.037 -4.5491,1.5273 -8.8151,3.3095 -6.9805,2.9173 -8.1048,2.8868 -11.29,-0.2963 -4.0001,-4.0001 -14.2117,-2.9477 -19.1312,1.9717 -6.7212,6.7213 -5.0742,28.2055 2.2136,28.8526 1.1613,0.1044 3.9173,0.9782 6.1243,1.9434 4.4402,1.9434 18.8654,-3.8236 18.8654,-7.5427 0,-4.5927 0.3987,-5.5797 3.7604,-9.2944 1.8977,-2.0958 5.0633,-3.8127 7.0351,-3.8127 1.9717,0 4.6319,-1.0479 5.9129,-2.3291 1.2811,-1.2809 3.6842,-2.5903 5.3379,-2.9063 1.6558,-0.318 5.4598,-1.6515 8.4555,-2.9631 2.9958,-1.3115 12.7999,-5.0676 21.787,-8.34436 8.9871,-3.2767 16.6671,-6.7778 17.0658,-7.7801 0.4009,-1.0021 2.4423,-1.8214 4.5404,-1.8214 2.0959,0 4.4904,-0.6797 5.3204,-1.5076 0.8301,-0.8302 3.6124,-1.8301 6.1832,-2.2223 2.5709,-0.3922 5.7322,-1.5621 7.0263,-2.597 1.292,-1.037 5.534,-2.5666 9.4295,-3.3988 3.8955,-0.8322 7.0807,-2.3378 7.0807,-3.3464 0,-1.0088 3.1853,-2.5143 7.0808,-3.3466 3.8955,-0.8322 8.0611,-2.268 9.2594,-3.1896 1.1983,-0.9216 5.3641,-2.3573 9.2596,-3.1896 3.8955,-0.8323 7.0807,-2.4161 7.0807,-3.5186 0,-1.1046 1.4074,-2.0066 3.1265,-2.0066 1.719,0 5.8868,-1.1438 9.2595,-2.5403 3.3726,-1.3987 6.6232,-2.7082 7.2224,-2.913 0.5991,-0.2026 2.5599,-0.9368 4.3574,-1.6274 1.7974,-0.6928 10.6211,-3.937 19.6083,-7.2094 8.9871,-3.2724 19.2815,-7.4707 22.8763,-9.327 3.5949,-1.8562 8.4534,-3.6994 10.7998,-4.096 2.3443,-0.3964 4.7954,-1.43141 5.4468,-2.29855 0.6492,-0.86923 3.1439,-1.902 5.5405,-2.29625 2.3966,-0.39436 6.5644,-2.13305 9.2594,-3.86292 2.695,-1.72987 4.9021,-2.69061 4.9021,-2.13513 0,0.55559 2.658,-0.37036 5.9086,-2.05662 5.6973,-2.95437 9.1964,-1.52294 9.3096,3.81049 0.045,2.16124 -54.9903,56.16048 -57.241,56.16048 -0.9957,0 -1.2026,0.9803 -0.4619,2.1786 0.7407,1.1983 0.3094,2.1787 -0.9586,2.1787 -3.1046,0 -27.5082,24.06156 -26.8198,26.44286 0.3006,1.0328 -0.4009,1.8803 -1.5578,1.8803 -1.1569,0 -5.3247,2.8061 -9.2594,6.2332 -7.8129,6.8062 -20.2206,13.8478 -26.1968,14.8718 -2.0828,0.3552 -7.4598,2.6166 -11.9501,5.0219 -4.4881,2.4053 -9.4033,4.3749 -10.9176,4.3749 -1.5163,0 -2.756,0.9803 -2.756,2.1786 0,1.1983 -0.7342,2.0632 -1.634,1.9216 -0.8998,-0.1437 -2.1243,-0.067 -2.7234,0.1656 -0.5992,0.2332 -2.6341,0.7278 -4.523,1.1003 -1.8889,0.3704 -9.7322,3.7975 -17.4296,7.6167 -7.6974,3.8193 -14.4863,6.9151 -15.0853,6.8803 -0.5992,-0.035 -3.3074,0.4924 -6.0198,1.1721 -2.7125,0.682 -6.3771,0.037 -8.1462,-1.4313 -4.8519,-4.0263 -17.4514,-0.8519 -21.5712,5.4337 -4.8041,7.3313 -4.3379,14.2138 1.4335,21.1377 5.6233,6.7474 8.632,7.595 18.6039,5.2419 5.6516,-1.3355 7.9,-3.5054 10.5842,-10.2159 1.8759,-4.6863 4.3159,-8.5208 5.4227,-8.5208 1.1068,0 5.4294,-1.4272 9.606,-3.1744 4.1787,-1.7452 7.8237,-3.133 8.1005,-3.0829 0.2788,0.047 5.8977,-2.621 12.4882,-5.9305 6.5905,-3.3094 11.9829,-5.7975 11.9829,-5.5295 0,0.6929 28.1967,-11.218 42.4847,-17.9459 9.2376,-4.3509 22.9613,-16.3599 59.9142,-52.42816 60.3828,-58.93609 59.472,-59.27594 34.7198,12.92616 -3.2877,9.5863 -7.5405,21.3185 -9.4556,26.0747 -1.9129,4.7539 -3.512,9.1657 -3.5534,9.8041 -0.044,0.6362 -1.2353,3.2354 -2.6471,5.7757 -1.4141,2.5382 -2.0305,5.1548 -1.3727,5.8129 1.7343,1.732 -16.5625,18.9829 -20.1333,18.9829 -1.6515,0 -3.0044,1.1439 -3.0044,2.5426 0,1.3965 -0.6014,1.939 -1.3356,1.2048 -0.7364,-0.7342 -6.3727,2.4184 -12.5275,7.0089 -6.157,4.5905 -14.1333,9.8455 -17.7282,11.6821 -3.5947,1.8345 -8.743,5.4185 -11.438,7.9632 -2.6952,2.5448 -4.9326,3.8542 -4.9719,2.9086 -0.037,-0.9456 -1.4139,0.054 -3.0589,2.2245 -1.8889,2.4924 -3.5143,3.0937 -4.4162,1.6339 -2.4053,-3.8911 -13.142,-2.5687 -18.3229,2.2572 -6.0611,5.6472 -9.327,13.813 -7.4621,18.6693 1.902,4.9565 8.6974,11.5645 10.2727,9.9893 0.6993,-0.6993 1.2702,-0.1263 1.2702,1.2702 0,4.0219 8.5404,2.963 15.3772,-1.9042 4.0371,-2.8759 6.7626,-7.2049 7.7083,-12.2442 1.2418,-6.619 3.56,-9.1114 15.3336,-16.495 7.6277,-4.7823 13.8697,-9.7301 13.8697,-10.9938 0,-1.2658 0.6078,-1.6928 1.3486,-0.9499 0.7429,0.7408 2.6689,0.17 4.2812,-1.2723 6.1656,-5.5056 8.6581,-7.2443 12.4708,-8.6996 6.1461,-2.3486 32.3428,-21.5474 31.0966,-22.7913 -0.6122,-0.6122 0.3247,-3.1636 2.0785,-5.669 1.756,-2.5055 3.1918,-6.5927 3.1918,-9.083 0,-2.4881 0.8214,-5.4577 1.8257,-6.595 2.3225,-2.6318 13.6605,-34.3124 12.9024,-36.0487 -0.3116,-0.7146 0.5075,-2.6754 1.8191,-4.3574 1.3116,-1.68196 3.6472,-7.72786 5.1918,-13.43386 2.2332,-8.2551 3.401,-9.8804 5.7149,-7.961 1.5991,1.3268 2.7538,3.0546 2.5643,3.8389 -0.8236,3.3923 3.2005,15.5864 5.1417,15.5864 1.1742,0 1.5948,0.8737 0.9368,1.94126 -1.7691,2.8605 8.9806,9.1962 17.3686,10.2377 5.9305,0.7342 8.7823,-0.4685 15.3293,-6.4664 l 8.046,-7.37056 -1.4227,-14.6365 -1.4226,-14.6365 9.3008,7.1745 c 5.1134,3.9478 10.8739,8.7017 12.7976,10.5645 1.9238,1.8628 8.2159,7.3096 13.9808,12.1027 5.767,4.79316 12.6277,10.67556 15.2509,13.07216 2.621,2.3965 7.364,6.7387 10.5406,9.6495 3.2746,3.0044 8.8325,5.4641 12.8412,5.6886 3.889,0.2178 18.3447,1.1197 32.1249,2.0065 13.7804,0.8867 30.9376,1.9216 38.1273,2.3008 7.1898,0.379 14.4623,0.769 16.1595,0.8692 1.6972,0.1 2.4903,0.7778 1.7625,1.5055 -0.7277,0.7298 0.9652,3.7931 3.7626,6.8085 6.1745,6.6602 14.6932,7.0982 22.639,1.1656 7.4795,-5.5862 8.3945,-18.8502 1.8083,-26.1815 -5.7866,-6.4358 -18.763,-6.7126 -24.3689,-0.5163 -3.5011,3.8672 -5.9173,4.2594 -20.4906,3.3225 -9.0874,-0.5839 -27.7523,-1.6254 -41.4759,-2.3137 -27.6935,-1.3901 -35.1294,-3.8652 -46.2822,-15.40786 -3.9587,-4.0981 -11.0416,-10.1397 -15.7389,-13.4251 -4.6973,-3.2855 -11.1092,-8.4251 -14.2509,-11.4208 -3.1417,-2.9958 -9.5928,-8.7541 -14.3358,-12.7955 -19.9612,-17.007 -23.9048,-21.3425 -24.578,-27.0311 -0.7669,-6.49696 -0.012,-6.99803 5.6341,-3.74743 4.7343,2.72993 80.5881,21.77183 86.7537,21.78053 2.4968,0 5.2223,0.6884 6.0547,1.5228 1.4771,1.4751 4.438,2.3378 13.3728,3.8955 2.3966,0.4184 4.6014,0.9653 4.9022,1.2158 0.3006,0.2484 1.2809,0.6558 2.1786,0.9042 0.8976,0.2461 4.401,1.2288 7.7845,2.1808 3.6994,1.0437 17.1551,0.2267 33.7699,-2.0458 30.1315,-4.1242 32.7982,-4.4598 50.4958,-6.3465 6.5905,-0.7015 14.5514,-1.7735 17.6909,-2.3792 3.7278,-0.7189 7.6277,0.4075 11.2378,3.2463 9.6255,7.5732 24.262,5.4381 28.2468,-4.1177 3.4141,-8.192 3.3967,-9.4033 -0.2526,-15.9525 -6.4054,-11.49702 -24.2882,-13.14628 -29.0574,-2.67764 -2.3355,5.12434 -4.8977,5.89564 -28.9549,8.71694 -15.9917,1.8759 -20.8328,2.5099 -30.5018,3.9937 -9.2051,1.4118 -23.4647,2.9651 -41.232,4.4946 -5.8999,0.5077 -12.5428,-0.048 -14.7628,-1.2353 -2.218,-1.1874 -7.1941,-2.6057 -11.0569,-3.1526 -3.8628,-0.5469 -14.9525,-3.2746 -24.6433,-6.0655 -9.6887,-2.7887 -19.2488,-4.8302 -21.2423,-4.5383 -1.9914,0.292 -3.6232,-0.1982 -3.6232,-1.0915 0,-0.8911 -1.2245,-1.67322 -2.7234,-1.73423 -2.8127,-0.11599 -13.7041,-2.85195 -28.8678,-7.25283 -4.7931,-1.39222 -10.9218,-2.67333 -13.6169,-2.84766 -2.695,-0.17422 -4.9021,-0.99345 -4.9021,-1.81918 0,-0.82573 -4.4119,-2.16123 -9.8041,-2.96957 -8.1614,-1.22438 -9.8042,-2.26365 -9.8042,-6.20706 0,-2.94568 1.4402,-4.84547 3.8127,-5.0263 3.961,-0.30064 47.2757,-6.59053 57.6942,-8.37711 3.2724,-0.56209 10.1354,-1.50335 15.2509,-2.09153 5.1156,-0.5883 12.2421,-1.54695 15.837,-2.13293 3.5948,-0.58389 10.2138,-1.49905 14.7106,-2.02843 4.4968,-0.53158 10.0635,-1.56644 12.375,-2.29856 4.4228,-1.40522 14.1528,-2.77993 30.9921,-4.38128 5.5796,-0.52949 16.8543,-2.07413 25.055,-3.42715 8.1984,-1.3551 18.3403,-2.81924 22.5343,-3.25501 22.9483,-2.37906 45.5218,-6.11335 44.7288,-7.39886 -0.5012,-0.80822 2.3421,-1.21349 6.3138,-0.90194 3.974,0.31375 9.9566,-0.16122 13.2923,-1.05237 4.7822,-1.2789 7.1309,-0.56209 11.0743,3.38144 2.7518,2.75163 6.815,5.00438 9.0263,5.00438 7.3184,0 15.6432,-5.35524 18.3186,-11.78234 2.2681,-5.44676 2.0066,-7.42067 -1.8519,-14.07662 -5.7583,-9.92616 -14.2944,-12.53627 -23.4712,-7.17883 -3.6427,2.12864 -6.6232,4.95879 -6.6232,6.28989 0,3.91302 -1.5098,4.5099 -15.0962,5.97184 -7.1026,0.76692 -13.6648,1.85409 -14.5799,2.42058 -0.9128,0.56429 -7.6886,1.49024 -15.057,2.05882 -7.3662,0.56649 -14.1179,1.47713 -15.0025,2.02402 -0.8845,0.54689 -6.924,1.62316 -13.4208,2.39228 -6.4969,0.76681 -13.7738,1.69276 -16.1703,2.05441 -2.3966,0.36177 -8.7693,1.33342 -14.1616,2.16135 -5.3923,0.82573 -11.765,1.78439 -14.1616,2.12644 -2.3966,0.34414 -4.3574,0.82573 -4.3574,1.06966 0,0.72551 -14.6844,2.16135 -22.1683,2.16784 -3.8039,0 -7.4816,0.92154 -8.1722,2.03921 -0.6908,1.11768 -3.2158,1.51866 -5.6102,0.89115 -2.3944,-0.6253 -4.3552,-0.28765 -4.3552,0.74941 0,1.03927 -3.987,1.74089 -8.8652,1.56215 -4.8759,-0.18083 -11.985,0.48147 -15.7956,1.47063 -7.4621,1.93912 -19.9285,3.76479 -37.698,5.52088 -6.1396,0.60778 -13.4927,1.60564 -16.3403,2.22004 -2.8497,0.61439 -8.1221,1.53164 -11.717,2.03933 -3.5949,0.50757 -9.1592,1.3007 -12.3686,1.76257 -7.9631,1.14818 -9.8585,-0.47068 -11.632,-9.93277 -1.3944,-7.42275 -1.0218,-8.32039 4.2681,-10.33142 3.1874,-1.21349 8.9305,-2.74072 12.7628,-3.39873 3.8345,-0.65581 9.911,-2.12423 13.5058,-3.26151 5.8759,-1.86059 25.6564,-7.03721 37.0379,-9.69302 2.3965,-0.56 15.6322,-3.90421 29.4125,-7.43157 37.3102,-9.54919 70.5223,-17.99173 72.9864,-18.54941 1.1983,-0.27234 5.6102,-1.2637 9.8042,-2.20276 4.194,-0.93893 13.5232,-3.57955 20.7325,-5.86721 12.9263,-4.10244 13.2247,-4.10244 21.3753,0.0545 4.7713,2.43138 10.741,3.77569 14.1245,3.1787 18.6997,-3.30292 19.1791,-29.54754 0.6253,-34.13806 -6.5252,-1.61446 -16.8785,3.52736 -18.7063,9.29215 -0.8541,2.68412 -4.4337,5.09601 -9.4142,6.34 -4.4228,1.10677 -10.9806,2.75173 -14.5755,3.65808 -3.5949,0.90634 -7.5166,1.86279 -8.7149,2.12643 -15.9176,3.48155 -67.8556,16.88055 -69.5855,17.95032 -1.2658,0.78212 -5.1286,1.63836 -8.5863,1.902 -3.4554,0.26353 -7.255,1.45103 -8.4402,2.63621 -1.1853,1.18518 -3.5077,1.63836 -5.1592,1.00436 -1.6515,-0.634 -3.0023,-0.15473 -3.0023,1.06757 0,1.22009 -1.7145,1.9412 -3.8127,1.60355 -2.0981,-0.33776 -5.2833,0.14163 -7.0808,1.06537 -1.7974,0.92153 -6.6994,2.26585 -10.8935,2.98696 -4.1939,0.72122 -11.5471,2.32037 -16.3403,3.55566 -4.793,1.23529 -10.7998,2.70163 -13.3509,3.25931 -2.5491,0.55779 -12.7129,3.35523 -22.5845,6.21368 l -17.9503,5.19842 -4.4533,-4.4533 -4.4532,-4.45331 4.9478,-4.00872 c 2.7212,-2.20275 7.6189,-4.00662 10.8804,-4.00662 3.2637,0 6.6145,-0.68202 7.4468,-1.51645 0.8345,-0.83223 2.7125,-1.71897 4.1766,-1.96951 11.497,-1.96962 43.8616,-9.36627 56.0384,-12.80861 12.619,-3.56657 17.2487,-4.67543 26.1444,-6.27249 9.9697,-1.78867 18.4949,-4.15915 20.6977,-5.76051 1.1982,-0.86922 3.6492,-1.65146 5.4467,-1.73856 11.5253,-0.55989 47.3061,-8.84549 51.1995,-11.85867 5.2833,-4.08724 22.1617,-18.55381 28.6151,-24.52565 3.8868,-3.59487 9.8215,-8.84119 13.1898,-11.65603 8.8782,-7.42066 33.2643,-28.92224 39.2885,-34.64131 3.2005,-3.03711 7.8803,-4.90207 12.3096,-4.90207 13.8501,0 22.5279,-18.18563 13.46,-28.20547 -4.8846,-5.39664 -14.1136,-7.43373 -21.3011,-4.69946 -6.1309,2.32903 -11.6342,14.86527 -9.7279,22.15521 0.6057,2.31814 0.4575,4.22668 -0.329,4.23975 -0.7865,0.0152 -5.6385,3.93691 -10.7824,8.71481 -5.1461,4.78006 -9.8891,8.68865 -10.5405,8.68865 -1.3988,0 -39.6873,34.30578 -51.4588,46.10784 -4.4924,4.50329 -8.1701,7.76272 -8.1701,7.23984 0,-0.52289 -2.6907,0.0719 -5.9805,1.32239 -3.2899,1.2506 -12.3598,3.58397 -20.153,5.18311 -7.7954,1.60136 -16.6235,3.57747 -19.6192,4.3945 -2.9958,0.81703 -8.8782,2.29857 -13.0722,3.29202 -4.194,0.99345 -10.0765,2.43137 -13.0722,3.19401 -2.9958,0.76251 -7.8978,1.88459 -10.8935,2.49018 -2.9958,0.6079 -9.3685,2.05672 -14.1616,3.21801 -4.7932,1.16338 -10.2551,2.48589 -12.1375,2.94127 -1.8824,0.45526 -8.5144,2.33985 -14.739,4.18954 -6.2223,1.8476 -11.7998,3.34874 -12.3924,3.33783 -4.9631,-0.10439 -20.6453,3.22231 -20.6453,4.37919 0,0.80613 -3.1853,1.69937 -7.0809,1.98261 -3.8955,0.28325 -8.7975,1.04797 -10.8935,1.69937 -2.0959,0.65139 -3.8127,0.74732 -3.8127,0.21133 0,-1.2397 47.3933,-24.49944 53.9229,-26.46245 2.695,-0.81054 4.9021,-2.38788 4.9021,-3.50555 0,-1.11768 0.7363,-1.83879 1.6339,-1.60136 3.2245,0.85183 11.4382,-2.95216 11.4382,-5.29863 0,-1.31811 0.5817,-1.81269 1.2942,-1.10237 2.6362,2.63621 93.268,-44.73533 102.9262,-53.79656 18.617,-17.46873 21.1944,-19.75637 22.2598,-19.75637 1.0523,0 5.1069,-3.15693 12.5907,-9.80416 2.024,-1.79742 6.6102,-5.5535 10.1942,-8.3466 3.5817,-2.79527 9.9435,-8.21806 14.1375,-12.05257 16.0592,-14.68445 22.5365,-18.46449 30.0835,-17.55816 5.4708,0.65579 8.4905,-0.41831 12.5276,-4.45544 8.8913,-8.89128 6.6864,-22.22711 -4.6887,-28.35361 -7.048,-3.7953 -8.0197,-3.83017 -14.8913,-0.5534 -6.1092,2.91293 -7.6168,5.0742 -8.9196,12.79769 -1.6385,9.69087 -6.2921,15.30755 -25.0202,30.19898 -5.2746,4.194 -11.1463,9.09608 -13.0461,10.8935 -1.902,1.79744 -8.3183,7.15486 -14.2618,11.9066 -5.9412,4.75175 -13.2552,10.83468 -16.2509,13.51667 -16.2291,14.52758 -21.8175,18.5668 -33.2252,24.00926 -6.8891,3.28541 -12.5276,6.80187 -12.5276,7.81283 0,1.01085 -0.9803,1.23088 -2.1786,0.49017 -1.1983,-0.7407 -2.1787,-0.37476 -2.1787,0.81483 0,1.18739 -2.2071,2.80834 -4.9021,3.60136 -10.1571,2.98917 -21.2423,8.48174 -21.2423,10.52757 0,1.16778 -0.6035,1.51853 -1.3422,0.78212 -1.464,-1.46623 -21.9177,8.60364 -23.8611,11.74534 -0.6579,1.06756 -3.0306,1.9412 -5.2724,1.9412 -2.2397,0 -5.6123,1.54034 -7.4969,3.42285 -1.8824,1.88448 -3.4227,2.84755 -3.4227,2.14384 0,-1.74298 -21.6215,9.29216 -28.0355,14.30534 -2.8368,2.22004 -6.022,3.49894 -7.0809,2.84534 -1.0566,-0.6536 -1.9216,-0.14812 -1.9216,1.11988 0,1.268 -1.39,2.30727 -3.0872,2.30727 -1.6972,0 -9.5405,3.42482 -17.4296,7.60799 -7.8891,4.18525 -14.3424,7.01099 -14.3424,6.27898 0,-1.61226 13.6212,-13.80207 15.4775,-13.85217 0.7233,-0.0197 3.7692,-2.24185 6.7693,-4.93699 3,-2.69501 7.7169,-6.3727 10.4816,-8.17007 2.7648,-1.79738 7.0721,-5.22893 9.5711,-7.62551 2.499,-2.39646 5.3051,-4.10243 6.2376,-3.79309 0.9325,0.31155 2.2616,-0.91504 2.9564,-2.72332 0.693,-1.80839 2.1788,-3.28772 3.2987,-3.28772 1.1219,0 3.2223,-1.00656 4.6689,-2.23965 1.4466,-1.231 8.5143,-6.67126 15.7041,-12.08751 7.1897,-5.41625 14.5429,-11.03072 16.3402,-12.47305 1.7975,-1.44222 8.6604,-6.50992 15.2509,-11.25946 6.5907,-4.75173 12.4731,-9.1636 13.0723,-9.80631 0.5991,-0.64272 5.2985,-4.02406 10.4424,-7.51434 5.144,-3.49028 10.0461,-7.50999 10.8935,-8.93269 0.8476,-1.42051 5.1047,-4.93475 9.46,-7.80845 16.264,-10.72793 37.9269,-26.76753 40.6502,-30.09876 1.5491,-1.89547 3.8345,-3.44671 5.0786,-3.44671 1.2418,0 3.6515,-1.90418 5.3531,-4.22885 1.6993,-2.32686 3.0915,-3.48157 3.0915,-2.5687 0,0.91506 1.2963,0.36603 2.8803,-1.21789 1.5838,-1.58174 6.4794,-5.3291 10.8782,-8.32482 4.3988,-2.99571 8.0046,-6.18097 8.0133,-7.08077 0.012,-0.89981 1.3007,-1.63402 2.8693,-1.63402 1.5708,0 5.7365,-2.75389 9.2595,-6.12216 9.3161,-8.90218 23.3818,-17.02437 24.3666,-14.07223 0.9695,2.91075 16.3467,-1.67324 15.7825,-4.70382 -0.1918,-1.01526 0.8693,-2.59918 2.3551,-3.5186 4.3074,-2.6602 2.8041,-15.1398 -2.5011,-20.78698 -9.9435,-10.58414 -30.1532,-2.36826 -30.2817,12.30966 -0.046,5.3596 -7.29,13.3489 -19.6258,21.64321 -8.9174,5.99579 -47.0817,34.92677 -60.3979,45.78541 -1.4467,1.18086 -3.1897,2.14602 -3.8694,2.14602 -0.6819,0 -4.7408,3.18526 -9.022,7.08078 -4.279,3.89551 -8.7018,7.08077 -9.826,7.08077 -1.1241,0 -2.7429,0.98914 -3.597,2.19832 -0.8563,1.21135 -5.4773,4.74738 -10.2704,7.86292 -4.7931,3.11555 -12.7083,8.98715 -17.5886,13.0526 -4.8804,4.06328 -11.5776,9.34881 -14.8827,11.74539 -3.3052,2.39656 -7.9,5.82802 -10.2072,7.62544 -2.3095,1.79744 -8.2028,6.20922 -13.0962,9.80408 -4.8934,3.59487 -11.5036,8.94361 -14.6888,11.88488 -3.1853,2.94126 -6.0328,4.90207 -6.3292,4.35738 -0.294,-0.54469 -3.3922,1.70377 -6.8847,5.00008 -3.4902,3.29643 -7.4162,5.99144 -8.7214,5.99144 -1.3072,0 -2.4204,0.73422 -2.477,1.63407 -0.057,0.89973 -5.0132,5.06549 -11.0135,9.25945 -6.0022,4.19395 -13.5536,9.83035 -16.7824,12.52537 -10.2247,8.53173 -12.3206,6.23548 -3.1483,-3.45104 3.2964,-3.48155 9.4229,-10.50135 13.617,-15.60385 4.1939,-5.10262 12.168,-14.29885 17.7193,-20.43621 5.5513,-6.13968 15.1899,-17.04398 21.421,-24.2337 6.2289,-7.18971 14.4339,-16.54288 18.2292,-20.7848 3.7953,-4.24194 11.937,-13.55588 18.0919,-20.69766 6.157,-7.14179 13.5101,-15.48622 16.3403,-18.54511 2.8323,-3.05672 8.0916,-9.27908 11.6865,-13.82604 8.0504,-10.18107 26.3448,-28.50613 37.1969,-37.26014 9.1724,-7.39887 27.7044,-23.70427 35.2842,-31.0465 2.7843,-2.69505 5.6581,-4.90207 6.3879,-4.90207 0.7299,0 4.9479,-3.67546 9.3728,-8.17013 4.425,-4.49249 13.229,-12.50574 19.5668,-17.80435 10.4187,-8.71263 12.6561,-9.65164 23.3841,-9.80415 9.1026,-0.13072 12.5842,-1.15471 14.9568,-4.3988 4.7822,-6.54263 3.8302,-17.62569 -2.0611,-23.98096 -9.8325,-10.61245 -25.2838,-5.4838 -28.5715,9.47952 -1.5882,7.23112 -4.7169,10.84776 -19.0396,21.99835 -3.8477,2.99572 -10.3576,8.67777 -14.4688,12.62557 -4.1112,3.94781 -9.1571,8.35969 -11.2138,9.80416 -4.6384,3.25498 -26.9091,22.49945 -34.5956,29.89396 -3.1329,3.01532 -10.9152,9.58628 -17.2923,14.60601 -6.3792,5.01755 -14.5341,12.84562 -18.1247,17.39476 -7.5209,9.52963 -24.6867,29.36235 -31.7654,36.70021 -2.6624,2.75823 -9.3401,10.54273 -14.8413,17.29671 -5.5013,6.75398 -11.6582,13.98508 -13.68,16.06792 -4.1135,4.23976 -20.3687,22.63234 -32.6436,36.93764 -4.4402,5.17442 -11.0351,12.62779 -14.6583,16.56471 -3.6231,3.93472 -10.3989,11.71704 -15.0591,17.29231 -4.6581,5.57527 -8.8172,9.79115 -9.2399,9.36837 -0.4227,-0.42267 1.78,-5.32903 4.8956,-10.9043 3.1155,-5.57539 5.1025,-10.13541 4.4162,-10.13541 -0.6863,0 2.0153,-5.14599 6.0066,-11.43808 3.9892,-6.29209 13.6932,-24.18359 21.5648,-39.76131 50.5023,-99.95663 47.2146,-94.32468 65.8991,-112.92861 9.5864,-9.54706 22.0333,-21.0201 27.6631,-25.49952 5.6276,-4.47723 9.6298,-8.74312 8.8956,-9.47735 -0.7342,-0.73422 -0.2309,-1.33554 1.1221,-1.33554 2.342,0 11.7954,-8.03941 32.0181,-27.23376 5.0503,-4.79315 16.8589,-15.57772 26.2425,-23.96572 9.3837,-8.388 21.0462,-18.90677 25.92,-23.37528 5.3051,-4.86504 10.2747,-7.68428 12.3859,-7.02631 9.765,3.04583 24.8961,-13.02646 18.9787,-20.15735 -1.2005,-1.44666 -1.6297,-3.52077 -0.9564,-4.6123 1.6644,-2.69288 -5.0699,-8.46643 -11.7433,-10.06779 -3.5055,-0.84097 -7.9021,0.21134 -12.3336,2.94779 M 567.81419,864.50684 c -5.91082,2.93685 -11.84343,15.70186 -11.12227,23.93306 0.86713,9.89786 10.8325,19.27713 21.78701,20.50592 7.89997,0.88454 10.90222,2.76693 19.17039,12.01768 5.39229,6.03506 14.44043,15.73244 20.10723,21.55384 5.66463,5.8216 9.78673,10.5842 9.15926,10.5842 -0.62746,0 1.10896,2.2768 3.86067,5.0611 2.74951,2.7845 7.94135,8.5209 11.53622,12.7454 14.09837,16.5756 33.09446,38.12076 41.39532,46.94666 4.79313,5.0982 12.63646,13.7388 17.42961,19.2052 4.79314,5.4643 12.88265,14.4231 17.97428,19.9068 5.09162,5.4859 9.25947,10.3031 9.25947,10.7083 0,0.4052 3.78441,4.449 8.41198,8.9872 4.62755,4.5382 9.28343,9.8847 10.34882,11.8825 1.06539,1.998 6.40321,8.3707 11.8652,14.1617 5.45983,5.791 11.65823,14.9415 13.77376,20.3338 2.11769,5.3922 5.32474,12.0961 7.13307,14.8957 1.80614,2.7996 2.74952,5.6255 2.09591,6.2769 -0.65362,0.6536 -0.0436,3.2637 1.35515,5.8019 1.39872,2.5403 2.77131,6.0066 3.05236,7.7038 0.28105,1.6995 6.04154,16.8959 12.80204,33.7699 6.76051,16.8763 14.30972,36.075 16.77819,42.6655 2.46628,6.5905 5.7169,14.9242 7.22239,18.519 2.50768,5.9893 5.54261,13.6561 6.47074,16.3402 0.20698,0.5992 1.15036,3.0502 2.09809,5.4467 0.94773,2.3966 5.07201,13.1812 9.1658,23.9658 4.09595,10.7846 8.38363,21.3099 9.52963,23.3906 1.146,2.0806 2.08284,4.7887 2.08284,6.0153 0,1.2288 1.93468,6.388 4.30075,11.4687 11.21814,24.0943 12.48397,36.8026 1.94994,19.5844 -2.74952,-4.4925 -6.01539,-9.2747 -7.25943,-10.6256 -2.34646,-2.5534 -3.43363,-4.1286 -14.0853,-20.421 -3.52513,-5.3922 -8.43376,-11.9698 -10.90875,-14.6147 -2.47501,-2.6471 -4.49902,-5.4641 -4.49902,-6.2593 0,-1.4925 -19.38609,-29.4692 -21.76741,-31.4148 -0.73422,-0.5991 -4.30729,-5.5011 -7.94137,-10.8935 -16.5603,-24.5692 -27.69564,-40.3952 -29.12705,-41.3953 -0.85841,-0.5991 -3.11118,-4.0306 -5.00666,-7.6254 -1.89765,-3.5949 -6.44241,-9.9676 -10.10481,-14.1616 -3.66022,-4.194 -6.65593,-8.7475 -6.66029,-10.1201 -0.002,-1.3725 -2.43797,-4.804 -5.41407,-7.6254 -2.97393,-2.8215 -5.42496,-6.3553 -5.44676,-7.8542 -0.0196,-1.4968 -0.83662,-2.7234 -1.81267,-2.7234 -0.97607,0 -3.41185,-3.4315 -5.41189,-7.6255 -2.00006,-4.1939 -4.63193,-7.6255 -5.84982,-7.6255 -1.21789,0 -2.21792,-1.2244 -2.22445,-2.7233 -0.005,-1.4967 -2.99572,-5.9086 -6.64505,-9.8041 -3.6515,-3.8955 -6.04153,-7.0808 -5.31384,-7.0808 2.99571,0 -17.02001,-23.3339 -46.53053,-54.241 -6.41192,-6.7147 -21.11815,-22.3252 -32.68051,-34.6914 -11.56237,-12.3641 -26.41457,-28.1706 -33.00515,-35.1272 -29.70658,-31.35146 -30.97459,-32.94626 -29.78066,-37.51066 3.36392,-12.8609 -15.67357,-31.6325 -26.4625,-26.0921 -2.01966,1.0349 -4.69729,1.5099 -5.95439,1.0545 -1.25493,-0.4554 -5.13956,2.1525 -8.63202,5.7975 -5.24413,5.4751 -6.32258,8.4054 -6.18751,16.8371 0.14162,8.926 1.15254,11.0634 8.04159,17.0177 8.0394,6.9501 19.00263,9.29436 25.29253,5.4076 2.292,-1.4161 5.66245,0.7712 12.51665,8.13296 5.15916,5.5405 9.3793,10.3794 9.3793,10.7541 0,0.3748 6.86291,7.7367 15.25091,16.3621 8.38801,8.6233 15.25091,16.0134 15.25091,16.4209 0,0.4073 5.14609,5.9129 11.43818,12.2355 6.29209,6.3225 18.44271,19.2706 27.00282,28.7741 8.56012,9.5013 22.37962,24.3731 30.70879,33.0466 8.33135,8.6733 14.66702,16.2487 14.08095,16.8326 -0.5839,0.586 0.54685,1.6841 2.5164,2.438 1.96955,0.7559 3.5796,2.1895 3.5796,3.1874 0,1.4227 16.15943,25.4298 25.59974,38.0292 11.29439,15.0744 13.61688,18.4667 13.61688,19.8872 0,0.9128 2.39004,4.1636 5.3095,7.2245 2.91946,3.0611 6.67772,8.2181 8.34878,11.4578 1.67324,3.2419 6.22456,9.7977 10.11354,14.569 3.88898,4.7714 6.74961,9.0068 6.35527,9.412 -0.39217,0.4053 0.52289,2.183 2.03491,3.9522 2.72772,3.1874 7.62544,9.7431 22.29247,29.8264 4.18527,5.7343 8.59715,11.1463 9.80415,12.0264 1.20482,0.8802 1.4118,1.6144 0.45753,1.634 -1.45756,0.028 8.16577,14.2009 15.86312,23.3623 1.21571,1.4466 2.21138,3.6842 2.21138,4.9696 0,1.2876 1.46409,2.9021 3.25498,3.5884 1.79089,0.6884 2.7517,2.0675 2.13294,3.0653 -0.61656,1.0001 0.12637,2.6124 1.65364,3.5862 1.52727,0.9717 5.71473,6.1788 9.30523,11.571 3.5905,5.3924 7.2638,10.131 8.1636,10.5298 0.8998,0.4008 1.63402,2.1154 1.63402,3.8127 0,1.6971 0.82573,3.0872 1.83665,3.0872 1.00874,0 3.682,3.4314 5.94132,7.6255 2.25931,4.1939 4.86286,7.6254 5.7888,7.6254 0.92595,0 1.68414,1.4706 1.68414,3.2681 0,1.7973 0.87584,3.268 1.94559,3.268 2.0654,0 5.26155,6.5905 3.87154,7.9827 -0.45317,0.451 -8.09823,-6.3052 -16.98951,-15.0177 -8.89128,-8.7127 -27.80676,-26.6259 -42.03586,-39.8071 -14.22909,-13.1811 -27.12483,-25.1901 -28.65863,-26.6891 -1.53599,-1.4967 -4.00446,-2.7234 -5.48815,-2.7234 -1.48369,0 -2.12424,-0.573 -1.42488,-1.2723 0.69937,-0.7015 -3.79311,-5.8759 -9.98498,-11.5014 -6.19405,-5.6254 -13.76722,-12.6517 -16.83047,-15.6126 -3.06325,-2.9608 -15.20514,-14.2073 -26.97886,-24.9918 -11.77587,-10.7846 -25.19885,-23.4821 -29.83294,-28.2164 -4.6341,-4.7365 -8.42504,-8.0743 -8.42504,-7.4185 0,0.6558 -8.66251,-7.2354 -19.25101,-17.5341 -10.5863,-10.3009 -26.51914,-25.3645 -35.40389,-33.4758 -8.88474,-8.1113 -26.33831,-24.2881 -38.78959,-35.9485 -12.44911,-11.6605 -23.47987,-20.957 -24.51039,-20.6563 -1.03052,0.2985 -1.87369,-0.5121 -1.87369,-1.804 0,-1.2942 -3.9173,-6.1134 -8.7039,-10.7126 -7.26161,-6.9784 -8.59062,-9.5623 -8.02634,-15.6235 0.37256,-3.9957 -0.35295,-9.7148 -1.61005,-12.7106 -2.36826,-5.6341 -9.83685,-12.3466 -12.70619,-11.4206 -0.89981,0.2897 -1.63403,-0.5643 -1.63403,-1.8977 0,-1.5578 -2.53819,-1.9521 -7.08078,-1.1024 -15.21605,2.8453 -18.46667,5.0871 -22.43408,15.4753 -3.3552,8.7867 -3.34213,9.8977 0.21786,17.4012 5.06331,10.6691 11.93492,14.8195 24.1313,14.5755 8.93267,-0.1808 10.90004,0.7277 18.30981,8.4381 4.56655,4.7518 9.41633,8.6408 10.78021,8.6408 1.36168,0 1.902,0.9302 1.19828,2.0697 -0.70372,1.1373 0.73204,3.1461 3.1918,4.462 2.45976,1.3159 10.72138,8.4729 18.35991,15.9045 7.63853,7.4316 23.40579,22.3361 35.03788,33.1206 11.63208,10.7846 26.91131,25.0006 33.95287,31.5912 7.04157,6.5906 20.2641,18.8457 29.38633,27.2337 9.12004,8.3881 21.22054,19.9091 26.8917,25.5998 5.66898,5.6908 10.84122,10.3488 11.49482,10.3488 0.65144,0 9.89131,8.5797 20.53209,19.0637 10.64077,10.486 27.54968,26.4167 37.57605,35.4038 10.02639,8.9871 24.34263,22.2228 31.8134,29.4126 18.39695,17.7062 45.01415,42.4911 52.04699,48.4608 8.78888,7.4643 6.85855,10.0045 -3.37045,4.438 -5.01754,-2.7321 -10.16582,-5.7343 -11.43818,-6.6712 -5.1548,-3.7975 -31.87876,-21.1726 -32.56287,-21.1726 -0.40523,0 -8.17013,-4.9021 -17.25749,-10.8935 -9.08737,-5.9915 -17.55816,-10.8935 -18.82179,-10.8935 -1.26365,0 -2.29854,-0.8062 -2.29854,-1.7909 0,-1.5512 -24.62803,-16.9721 -37.10981,-23.2359 -2.35735,-1.183 -4.28551,-2.9564 -4.28551,-3.9413 0,-0.9847 -0.98041,-1.1852 -2.1787,-0.4443 -1.19829,0.7407 -2.1787,0.4073 -2.1787,-0.7409 0,-1.1481 -4.16786,-4.2375 -9.25948,-6.8672 -5.09163,-2.6276 -11.22031,-6.534 -13.61689,-8.68 -2.39656,-2.1438 -7.74092,-5.6123 -11.87827,-7.706 -7.16358,-3.6254 -22.23147,-13.2814 -43.6786,-27.9854 -5.39229,-3.6973 -13.72582,-10.9981 -18.51896,-16.2249 -4.79314,-5.2267 -16.55813,-17.667 -26.14442,-27.6476 -42.95962,-44.7179 -69.81865,-73.4876 -71.62698,-76.7186 -1.07845,-1.9261 -2.12423,-7.5144 -2.32466,-12.4186 -0.46189,-11.2422 -2.37261,-15.3708 -9.18323,-19.8349 -7.67774,-5.0285 -13.9023,-5.8411 -21.44278,-2.7974 -16.04613,6.4794 -20.97436,21.9285 -11.43818,35.8592 4.84761,7.0786 12.01336,10.2311 23.72606,10.4381 6.59928,0.116 14.86963,7.4643 45.44771,40.3866 59.04933,63.5766 73.31764,77.808 87.37026,87.1436 7.23765,4.8063 13.95023,8.7388 14.91539,8.7388 0.96734,0 2.96957,1.4597 4.45109,3.2441 1.48151,1.7844 3.47721,2.7583 4.43801,2.1657 0.96081,-0.5948 2.07412,-0.2898 2.47719,0.6754 0.86711,2.0828 37.55645,26.5954 39.80487,26.5954 0.85404,0 9.33791,5.3923 18.85012,11.9828 9.51438,6.5906 17.92853,11.9829 18.69761,11.9829 0.76908,0 4.61231,2.451 8.54051,5.4468 3.9282,2.9956 7.63417,5.4467 8.23766,5.4467 0.60351,0 7.43809,4.3421 15.18991,9.6472 7.74965,5.3074 14.67573,9.0657 15.38816,8.3533 0.71245,-0.7146 1.29634,-0.2681 1.29634,0.9912 0,1.2571 1.71681,2.9064 3.81272,3.6646 6.08729,2.2005 23.18356,13.2465 29.82424,19.2662 2.3225,2.1068 5.11123,3.8302 6.19841,3.8302 2.70376,0 15.10711,8.9675 13.97201,10.1026 -0.50111,0.5012 -9.77147,-2.0566 -20.59963,-5.6842 -10.83032,-3.6297 -21.25975,-6.5971 -23.18138,-6.5971 -1.91943,0 -3.49028,-1.1438 -3.49028,-2.5425 0,-1.3965 -0.56427,-1.9761 -1.2571,-1.2854 -0.69065,0.6906 -5.63413,-0.6798 -10.98502,-3.0481 -5.35089,-2.3661 -11.40332,-4.719 -13.45129,-5.2245 -2.0458,-0.5076 -10.58195,-3.3596 -18.96996,-6.3378 -18.36208,-6.5188 -17.00911,-6.12 -19.29239,-5.7082 -1.02617,0.183 -3.1308,-0.719 -4.67986,-2.0044 -1.54905,-1.2854 -4.63191,-2.7039 -6.85201,-3.1504 -2.22009,-0.4467 -6.9762,-2.0436 -10.57105,-3.547 -7.67122,-3.2092 -6.96532,-2.9651 -15.10494,-5.2484 -3.51643,-0.987 -8.90871,-3.1069 -11.98286,-4.7105 -3.07632,-1.6056 -7.14396,-2.9237 -9.04161,-2.9324 -1.89764,-0.012 -4.133,-0.695 -4.96526,-1.5294 -0.83444,-0.8324 -2.71248,-1.7975 -4.17656,-2.1439 -4.73215,-1.1177 -37.46278,-12.8043 -39.70466,-14.1768 -1.19393,-0.7321 -6.57096,-2.5099 -11.948,-3.9522 -7.88908,-2.1156 -12.72578,-5.8258 -25.05506,-19.2184 -8.40325,-9.1287 -20.42532,-21.8806 -26.71741,-28.3383 -6.29209,-6.4576 -11.43817,-12.2508 -11.43817,-12.8739 0,-0.6253 -5.1461,-6.3509 -11.43819,-12.7258 -24.94613,-25.2751 -41.74827,-45.6351 -39.99659,-48.4674 3.23537,-5.2355 3.28112,-15.5429 0.0828,-18.7412 -1.88458,-1.8846 -2.69505,-3.4271 -1.80179,-3.4271 0.89327,0 -0.56646,-2.3334 -3.24408,-5.1831 -11.41422,-12.1484 -32.39293,-7.5144 -38.5129,8.5056 -3.10248,8.1266 -3.12426,9.9023 -0.21351,16.8718 3.89551,9.3249 11.01987,14.4165 22.16392,15.8436 4.83018,0.6187 9.94795,3.0654 12.40335,5.9283 8.33571,9.7213 33.56942,37.4475 43.92915,48.2668 5.83238,6.0917 16.61695,17.909 23.96571,26.2622 32.30796,36.7219 33.92673,38.0793 53.7333,45.0381 10.1484,3.5643 19.43184,6.7648 20.63012,7.1091 1.19829,0.3442 4.93912,1.7581 8.31175,3.1395 3.37263,1.3835 6.98709,2.5142 8.02852,2.5142 1.04141,0 4.65588,1.0501 8.02851,2.3312 3.37263,1.2832 6.62325,2.3465 7.22239,2.3639 0.59915,0.017 2.10027,0.8714 3.3356,1.8976 1.23532,1.0241 4.66677,2.3509 7.62545,2.9479 6.75833,1.3595 17.92199,5.2593 29.89831,10.4424 5.09598,2.207 10.97848,4.3487 13.07222,4.7605 4.30946,0.8454 8.20062,2.2397 22.72602,8.144 5.61452,2.2833 11.74538,4.1504 13.62559,4.1504 1.88023,0 6.94571,1.8912 11.25953,4.2027 4.31165,2.3116 9.21155,3.6777 10.88479,3.0349 1.67324,-0.6427 3.04365,-0.2047 3.04365,0.9718 0,1.1764 3.18526,2.8889 7.08078,3.8062 7.67339,1.8039 7.55138,1.7647 12.90227,4.1351 2.00222,0.889 4.94348,1.8323 6.53611,2.0959 1.59045,0.2659 4.85414,1.5447 7.2507,2.8432 2.39658,1.2986 7.78887,3.0807 11.98287,3.9587 4.194,0.8802 10.19196,3.0916 13.32711,4.9152 5.67769,3.3007 5.68641,3.3508 2.1787,11.8521 -4.12864,10.0068 -6.17444,10.0547 -28.4473,0.6427 -7.71478,-3.2593 -15.5581,-6.2288 -17.4296,-6.5971 -1.86934,-0.3681 -3.6428,-0.8671 -3.94345,-1.1068 -0.30067,-0.2418 -1.2789,-0.6471 -2.1787,-0.8997 -1.61225,-0.4554 -4.05675,-1.3617 -16.88495,-6.2551 -3.59485,-1.3726 -7.0263,-2.5905 -7.62544,-2.7081 -2.33993,-0.4576 -9.99153,-3.523 -13.58639,-5.4425 -2.08066,-1.111 -5.56222,-2.0196 -7.73438,-2.0196 -2.17434,0 -5.00013,-1.048 -6.2812,-2.3291 -1.28108,-1.281 -3.68419,-2.5665 -5.33782,-2.8562 -5.53826,-0.9696 -13.80643,-3.9979 -25.88514,-9.4752 -6.59058,-2.9892 -14.18771,-5.5709 -16.88277,-5.7365 -2.69505,-0.1655 -4.90207,-0.854 -4.90207,-1.5316 -0.002,-1.2702 -27.71526,-11.6125 -31.59335,-11.7912 -1.19828,-0.054 -5.36396,-1.8301 -9.25947,-3.9434 -3.89552,-2.1133 -7.08079,-3.3835 -7.08079,-2.8193 0,0.5643 -5.4206,-1.3704 -12.04603,-4.3007 -6.62325,-2.9304 -13.49706,-5.3269 -15.2727,-5.3269 -1.77781,0 -7.56662,-2.0371 -12.86523,-4.5296 -5.2986,-2.4902 -10.92618,-4.7909 -12.50356,-5.1112 -1.57738,-0.3202 -5.60798,-1.7058 -8.95664,-3.0785 -3.34866,-1.3726 -8.50565,-3.1024 -11.45997,-3.8454 -2.95214,-0.7408 -5.90863,-2.2201 -6.56661,-3.2855 -0.66014,-1.0653 -3.34648,-1.9673 -5.97182,-2.0065 -5.90863,-0.085 -12.39898,-4.7998 -12.39898,-9.0024 0,-1.7299 -3.4467,-6.486 -7.66032,-10.5711 -6.30734,-6.1134 -9.18104,-7.364 -16.26182,-7.0808 -4.73213,0.1875 -10.58848,1.4053 -13.01557,2.7039 -5.06547,2.7102 -10.99371,13.1135 -10.99371,19.288 0,8.3749 6.28336,19.3512 12.42948,21.7107 13.34673,5.1243 15.89799,5.1613 23.6912,0.3442 l 7.73004,-4.7778 13.47961,4.7538 c 7.41195,2.6146 14.45786,5.035 15.65615,5.3771 1.19829,0.3398 5.11995,1.78 8.7148,3.1962 22.33169,8.7976 93.21137,34.7894 96.95221,35.5542 1.79742,0.366 3.75826,1.2114 4.35739,1.8781 0.59915,0.6645 9.42289,3.9717 19.60831,7.3487 10.18543,3.3747 19.45145,6.998 20.58874,8.0481 1.13946,1.0501 3.39877,1.9107 5.02189,1.9107 1.62314,0 7.30955,1.9848 12.63648,4.4119 5.32692,2.4271 12.87176,5.0154 16.7651,5.754 3.89551,0.7363 8.0612,2.0632 9.25948,2.9455 1.19829,0.8846 4.62975,2.3247 7.62546,3.2049 2.99571,0.8781 8.38799,2.8715 11.98285,4.4293 12.04168,5.218 34.76771,13.6844 44.1187,16.4361 10.9959,3.2354 11.68655,6.9022 4.07417,21.6432 -3.78659,7.3292 -6.10908,9.5841 -9.19848,8.9327 -2.27457,-0.4792 -6.09601,-0.9695 -8.49257,-1.0894 -2.39658,-0.1198 -4.85415,-0.8692 -5.46201,-1.6666 -0.60567,-0.7974 -5.48814,-2.1046 -10.84775,-2.9043 -5.35742,-0.7995 -10.29872,-1.7973 -10.97848,-2.2178 -1.25274,-0.7735 -48.78111,-13.2945 -57.37173,-15.1159 -2.56651,-0.5425 -9.43813,-2.4903 -15.26834,-4.3291 -5.83238,-1.8367 -11.46868,-2.8061 -12.52754,-2.1503 -1.05884,0.6536 -1.92597,0.281 -1.92597,-0.8301 0,-1.1112 -4.16785,-2.6908 -9.25947,-3.5099 -5.09163,-0.8192 -11.3445,-1.8301 -13.8914,-2.244 -2.5469,-0.4162 -6.5775,-1.7975 -8.95882,-3.072 -2.37914,-1.2724 -7.64724,-2.7888 -11.70834,-3.3662 -4.05892,-0.5794 -14.20731,-3 -22.54955,-5.3792 -8.34225,-2.3769 -15.69537,-4.2376 -16.34027,-4.1329 -0.64489,0.1067 -2.64276,-0.4031 -4.44019,-1.1329 -4.66896,-1.8955 -69.49403,-18.5691 -77.51818,-19.9396 -3.68854,-0.6295 -10.79765,-2.5883 -15.79558,-4.3508 -4.99577,-1.7626 -9.08519,-2.7234 -9.08519,-2.1352 0,0.5861 -1.73207,0.1416 -3.84758,-0.9912 -2.11771,-1.133 -11.18764,-3.6603 -20.15299,-5.6167 -25.42544,-5.547 -30.46695,-7.2267 -30.46695,-10.1462 0,-4.2638 -12.64519,-17.7107 -15.17902,-16.1442 -1.07192,0.6623 -2.51204,0.2941 -3.20051,-0.8192 -3.53821,-5.7257 -28.8874,5.7604 -26.49083,12.0024 0.63836,1.6624 0.42484,3.0219 -0.47496,3.0219 -3.0981,0 -2.59265,11.6495 0.72552,16.7128 1.82792,2.791 2.74298,5.0742 2.03055,5.0742 -3.9696,0 6.84765,7.2791 12.72797,8.5667 8.51653,1.8627 15.21387,0.3311 21.24886,-4.8607 4.32473,-3.7212 5.35089,-3.7387 20.20093,-0.3399 8.60586,1.9695 18.09629,4.4467 21.092,5.5056 2.99571,1.0567 8.7671,2.4728 12.82819,3.146 4.05892,0.6732 8.961,2.0676 10.8935,3.1003 1.93034,1.035 6.45332,2.4097 10.04817,3.0568 3.59487,0.647 8.49694,1.6753 10.89351,2.2876 2.39657,0.61 19.5277,5.0023 38.07062,9.7584 18.54076,4.7583 34.47359,8.181 35.40389,7.6059 0.93031,-0.5752 1.69068,-0.116 1.69068,1.0239 0,1.1373 3.18526,2.5752 7.08078,3.194 6.04154,0.9608 14.14412,2.889 29.95714,7.1265 18.55817,4.974 47.75495,12.1551 51.29098,12.6147 2.44886,0.3203 5.55787,1.2636 6.91084,2.1002 1.35297,0.8367 5.23106,1.9457 8.62112,2.4685 8.71263,1.3399 12.37503,2.2202 14.87835,3.5818 1.19829,0.6515 4.92604,1.3508 8.2856,1.5578 3.35956,0.2048 7.77143,1.2614 9.80416,2.3486 2.03272,1.0872 7.45115,2.5709 12.0395,3.2986 4.58834,0.7276 9.98063,2.17 11.98285,3.2048 2.00223,1.0371 13.44477,4.1527 25.42763,6.9261 11.98285,2.7714 22.6476,5.767 23.69773,6.656 1.05014,0.8889 1.29196,4.0785 0.53595,7.0895 -1.49022,5.9369 1.09372,5.2746 -39.4846,10.1223 -10.78456,1.2876 -23.52996,3.2266 -28.32311,4.305 -4.79314,1.0807 -13.61687,2.5797 -19.60831,3.3335 -5.99143,0.7538 -13.83475,1.8301 -17.4296,2.3943 -14.30318,2.2463 -17.91765,2.7322 -30.42556,4.096 -7.14832,0.78 -13.55153,1.7626 -14.23346,2.183 -0.67975,0.4205 -5.61669,1.2855 -10.96976,1.926 -5.35307,0.6384 -13.65393,1.865 -18.44707,2.7234 -11.44689,2.0545 -24.56485,2.0654 -32.68051,0.028 -11.28567,-2.8302 -19.44272,-4.3466 -24.30341,-4.5143 -2.57958,-0.089 -4.31601,-0.7692 -3.8563,-1.5143 0.74511,-1.2048 -6.31824,-2.7647 -23.03976,-5.085 -2.99572,-0.4161 -5.44676,-0.9281 -5.44676,-1.1373 0,-0.3682 -1.36822,-0.7473 -10.89351,-3.0088 -17.35989,-4.1221 -22.87635,-5.1744 -22.87635,-4.3596 0,0.5142 -2.03927,-0.1546 -4.5317,-1.4902 -2.49027,-1.3333 -11.0068,-3.6188 -18.92421,-5.0807 -13.34236,-2.4619 -14.73673,-3.2637 -19.0462,-10.9655 -5.72345,-10.2224 -10.35536,-12.961 -21.20748,-12.5361 -15.14415,0.5947 -27.01153,19.1485 -21.20747,33.1576 5.91735,14.2857 27.04857,18.9504 38.23403,8.4403 2.98481,-2.804 6.48816,-4.1308 8.91523,-3.3748 2.19832,0.6841 7.83898,1.8432 12.53189,2.5774 4.69293,0.732 10.82161,2.2026 13.61689,3.2637 2.79527,1.0632 5.08291,1.5359 5.08291,1.0501 0,-0.4858 3.18526,0.044 7.08078,1.1786 7.33569,2.1374 16.96772,4.2376 24.51038,5.3444 2.39658,0.3529 4.35741,0.7974 4.35741,0.9891 0,0.3356 1.37911,0.7125 10.89351,2.9761 2.39656,0.5709 14.65176,3.51 27.23376,6.5339 22.69335,5.4556 52.34983,6.5994 67.53973,2.6059 2.99571,-0.7888 8.87821,-1.7604 13.07221,-2.1614 18.6584,-1.7865 34.02695,-3.8606 37.03791,-5.0001 3.47068,-1.3138 4.1439,-1.4074 26.14442,-3.634 7.78885,-0.7888 19.06364,-2.3443 25.05507,-3.4577 5.99143,-1.1133 14.81516,-2.5774 19.60831,-3.2549 4.79314,-0.6776 10.18543,-1.669 11.98285,-2.2048 5.10034,-1.5208 26.14442,-3.1025 26.14442,-1.9675 0,2.1156 -7.49909,13.0222 -11.83035,17.2052 -2.47936,2.3966 -8.92178,7.2987 -14.31407,10.8936 -5.39229,3.5948 -10.13096,7.2725 -10.52967,8.1701 -0.40087,0.8976 -1.78216,1.634 -3.06978,1.634 -1.28979,0 -7.33569,3.7474 -13.43605,8.327 -6.10037,4.5796 -18.20087,12.948 -26.88735,18.5952 -8.68649,5.6472 -15.79558,11.2705 -15.79558,12.4993 0,1.2266 -0.83227,1.7168 -1.84972,1.0893 -1.01527,-0.6296 -3.91513,0.7843 -6.44461,3.1394 -2.52728,2.3553 -5.16569,4.2812 -5.86506,4.2812 -1.7996,0 -14.9437,9.3706 -16.80868,11.9829 -0.85404,1.1983 -2.56868,2.3007 -3.81271,2.451 -1.24187,0.1504 -2.99136,0.4859 -3.89117,0.7473 -3.53821,1.0284 -44.11217,1.0916 -44.11435,0.07 -0.002,-0.5991 -9.07428,-1.2549 -20.15733,-1.4597 -11.08523,-0.2027 -28.90701,-0.8977 -39.60879,-1.5447 -17.84357,-1.0784 -19.84361,-1.6623 -24.14218,-7.0547 -3.63625,-4.5578 -7.34005,-6.2222 -16.49496,-7.4096 -11.47739,-1.486 -12.00463,-1.3183 -19.02876,6.1003 -6.07423,6.4119 -7.14178,9.0546 -6.70605,16.5777 0.72769,12.521 3.17437,16.3642 13.29225,20.8938 7.98713,3.5752 9.67997,3.6515 18.02658,0.8082 5.50776,-1.878 10.37933,-5.3182 12.11357,-8.56 2.8955,-5.4098 2.94344,-5.4164 28.09436,-4.2072 13.85653,0.6667 40.39094,1.706 58.96437,2.3095 18.57343,0.6057 35.73069,1.4357 38.12727,1.8454 4.28114,0.7298 10.54708,-1.6319 15.11364,-5.7017 1.27454,-1.1329 7.77579,-5.6581 14.44915,-10.0525 31.90708,-21.0136 44.60237,-29.5693 45.60239,-30.7306 0.59915,-0.6972 5.45765,-4.1025 10.79765,-7.5666 5.33999,-3.4642 12.192,-8.6016 15.22912,-11.4164 3.03493,-2.8172 6.4337,-5.12 7.5492,-5.12 1.11549,0 3.77351,-1.5774 5.90427,-3.5056 3.67983,-3.3312 3.75826,-3.0827 1.56431,4.9021 -1.27018,4.6232 -3.72558,11.1594 -5.45547,14.5211 -4.43147,8.608 -5.38356,18.7542 -2.59482,27.6564 2.69723,8.6059 13.81514,19.4537 20.38392,19.8851 14.43171,0.9455 16.73024,0.854 17.70195,-0.7191 0.59042,-0.9542 2.70158,-1.7363 4.69291,-1.7363 4.52082,0 15.00254,-12.0439 16.83483,-19.3448 0.75384,-3.0087 2.90857,-8.9544 4.78879,-13.2159 l 3.4162,-7.7454 1.9848,7.6255 c 2.10462,8.083 6.35309,25.9636 10.87172,45.7527 1.50548,6.5907 3.26151,12.4731 3.90205,13.0723 0.64272,0.5991 1.35951,3.0502 1.59263,5.4467 0.55775,5.7125 2.87806,16.5799 4.42058,20.6977 0.67322,1.7974 1.48806,5.7191 1.80833,8.7148 1.3813,12.8848 9.88476,29.4451 18.46013,35.9485 4.73867,3.5949 10.90222,8.5318 13.69314,10.972 4.66895,4.0807 23.54307,19.4514 28.71087,23.384 4.00013,3.0436 13.00905,10.5428 18.54082,15.4339 2.99567,2.6493 10.49695,8.8063 16.66922,13.6823 7.93485,6.2681 10.69088,9.7278 9.40328,11.8107 -2.20705,3.5709 -0.28975,14.7236 3.48154,20.251 3.87591,5.6777 13.3228,10.1419 21.34905,10.0852 6.69515,-0.048 12.89138,-3.828 18.59958,-11.351 3.8802,-5.1134 5.669,-19.1029 2.4445,-19.1029 -1.3682,0 -1.9957,-0.793 -1.3987,-1.7604 0.5991,-0.9695 -1.1918,-4.6232 -3.9826,-8.1199 -4.3531,-5.4621 -6.70177,-6.4141 -16.61483,-6.7453 -11.33357,-0.377 -19.68888,-4.8608 -34.27527,-18.3905 -2.03063,-1.8824 -9.57541,-7.9151 -16.76514,-13.4011 -7.18973,-5.4882 -15.2379,-12.0352 -17.88281,-14.5494 -2.64712,-2.5164 -5.26814,-4.5731 -5.82364,-4.5731 -0.55775,0 -3.79094,-2.695 -7.18535,-5.9914 -3.3966,-3.2964 -9.10915,-8.1549 -12.6953,-10.7998 -3.58832,-2.6472 -8.05683,-6.0786 -9.92834,-7.6255 -1.87368,-1.5491 -5.18313,-10.6604 -7.35311,-20.2467 -2.16999,-9.5862 -5.76049,-24.2925 -7.9784,-32.6804 -2.21574,-8.3881 -4.39881,-17.2119 -4.84762,-19.6084 -0.44881,-2.3966 -1.30722,-5.828 -1.90637,-7.6254 -1.67759,-5.0263 -10.09173,-41.4694 -11.69961,-50.6788 -0.78652,-4.5078 -2.17435,-8.6538 -3.08287,-9.2137 -3.1918,-1.9739 2.01094,-25.0769 5.64937,-25.0769 1.53163,0 6.39884,5.3052 15.74765,17.1638 3.19181,4.0481 8.49912,10.2791 11.7955,13.8478 3.29636,3.5688 6.01321,7.1178 6.03936,7.8912 0.0261,0.7714 4.19399,6.0329 9.25947,11.691 5.06549,5.6581 12.1528,13.8717 15.74765,18.2531 6.71036,8.1767 15.45783,18.3011 25.05505,28.9964 2.99566,3.3377 7.89773,9.3445 10.89351,13.3445 2.99566,4.0001 8.02416,9.9894 11.17235,13.3076 3.15039,3.3159 5.32914,6.4271 4.84546,6.913 -1.73207,1.732 16.30977,16.338 26.7392,21.6497 14.12229,7.1897 25.09199,13.2203 27.92219,15.3446 6.8041,5.1091 36.0576,20.4384 37.0706,19.4253 0.6514,-0.6515 1.1852,-0.042 1.1852,1.3551 0,1.3988 1.9609,2.5426 4.3575,2.5426 2.3966,0 4.3574,0.9804 4.3574,2.1787 0,1.1983 1.4706,2.1787 3.268,2.1787 1.7975,0 3.2702,0.7364 3.2724,1.634 0,0.8976 5.8913,4.5034 13.0832,8.0111 14.5014,7.0698 19.1464,11.2203 20.1878,18.0353 0.3834,2.5164 1.8694,5.9871 3.3007,7.7104 1.4314,1.7256 2.0306,3.7104 1.329,4.4097 -1.9891,1.9892 11.3446,8.131 17.6519,8.131 8.3815,0 18.0004,-5.7496 21.75,-13.0004 5.3704,-10.388 4.1874,-18.4362 -3.9915,-27.1073 -6.5382,-6.9305 -8.3357,-7.6779 -17.2923,-7.1898 -5.499,0.2985 -10.7126,1.2593 -11.5863,2.133 -2.1395,2.1416 -9.0351,2.024 -9.9415,-0.1657 -0.8061,-1.9521 -47.8835,-27.8611 -54.3585,-29.9157 -2.2572,-0.7168 -4.1026,-2.1111 -4.1026,-3.098 0,-0.987 -2.3834,-2.3945 -5.2942,-3.1243 -2.913,-0.7321 -6.8542,-2.8868 -8.7584,-4.7932 -1.9064,-1.9042 -4.7016,-3.645 -6.2137,-3.8672 -1.512,-0.2222 -5.6602,-2.4031 -9.2158,-4.8476 -3.5557,-2.4424 -12.1746,-7.2703 -19.1508,-10.7257 -7.22893,-3.5818 -15.66265,-9.985 -19.60839,-14.8871 -3.80829,-4.7321 -15.24428,-18.5059 -25.41228,-30.6108 -10.1702,-12.1026 -19.25323,-22.9874 -20.18787,-24.1857 -0.93244,-1.1983 -3.88902,-4.7278 -6.56664,-7.8411 -2.67541,-3.1156 -10.1985,-12.1833 -16.71495,-20.1531 -6.51867,-7.9696 -12.80858,-14.4905 -13.98072,-14.4905 -1.17215,0 -1.54471,-0.5883 -0.82573,-1.3051 0.71897,-0.7189 -1.32465,-3.9216 -4.53824,-7.1178 -3.21576,-3.1939 -8.73441,-9.7148 -12.26608,-14.4883 -3.53168,-4.7735 -6.96312,-9.1702 -7.62546,-9.7693 -11.98503,-10.839 -14.18116,-26.408 -3.38352,-23.9941 1.19829,0.2681 3.18309,0.6536 4.41187,0.8585 1.22662,0.2026 7.25943,3.4641 13.40337,7.2441 6.14611,3.7823 11.75845,6.29 12.47525,5.5732 0.71461,-0.7146 1.30068,-0.1 1.30068,1.3682 0,1.4684 0.91287,2.1068 2.02837,1.4183 1.11549,-0.6906 2.70158,-0.1655 3.52296,1.1656 0.82355,1.3312 7.50998,5.2289 14.85656,8.6626 7.34875,3.4314 21.20533,10.4534 30.79152,15.5994 9.58631,5.1483 21.84154,11.2552 27.23378,13.5711 5.39236,2.316 11.27477,5.4229 13.07226,6.9044 3.2549,2.6819 9.89566,6.2245 74.07586,39.5085 18.5734,9.632 43.0838,22.6128 54.4675,28.8461 11.3838,6.2332 21.8241,11.5297 23.201,11.7693 1.3769,0.2397 3.828,1.4662 5.4468,2.7277 1.6187,1.2615 11.7671,6.6734 22.5517,12.0264 25.9309,12.8719 29.4125,15.2248 29.4125,19.8915 0,6.8673 6.5296,16.8959 12.6322,19.4058 8.719,3.584 10.7105,3.7495 18.6736,1.5512 12.8085,-3.5382 18.4775,-14.2988 15.6039,-29.6238 -1.6668,-8.8847 -13.6191,-16.7411 -24.8308,-16.3207 -4.3377,0.1635 -8.2201,1.2985 -8.6276,2.523 -1.5774,4.7278 -3.8846,3.7299 -59.7488,-25.7827 -9.2877,-4.9065 -16.8849,-8.303 -16.8849,-7.5492 0,0.7538 -1.7168,-0.1438 -3.8127,-1.9979 -4.937,-4.3618 -55.0122,-30.4299 -55.0122,-28.6368 0,0.7494 -1.5033,0.116 -3.3422,-1.4096 -4.3748,-3.632 -20.6868,-12.4884 -48.9467,-26.578 -12.582,-6.2747 -23.2031,-12.1594 -23.6018,-13.081 -0.401,-0.9215 -2.5252,-1.6754 -4.72134,-1.6754 -2.19603,0 -4.32027,-0.7363 -4.72124,-1.634 -0.39866,-0.8976 -7.0981,-4.9152 -14.88704,-8.924 -7.78881,-4.0088 -23.24884,-12.1441 -34.35809,-18.0788 -37.6414,-20.1095 -48.4325,-25.5104 -48.4325,-24.2424 0,0.6972 -1.71682,-0.231 -3.81273,-2.0611 -2.09591,-1.8302 -7.4882,-5.035 -11.98285,-7.1222 -4.67332,-2.1699 -8.1331,-5.3203 -8.08298,-7.3596 0.12854,-5.205 9.77147,-26.7501 11.2922,-25.2294 0.71243,0.7124 2.60791,1.5621 4.21578,1.8911 3.69944,0.756 8.48604,2.6319 24.31213,9.5297 6.96964,3.0371 14.07876,5.523 15.79552,5.523 1.71688,0 3.12209,0.817 3.12209,1.8171 0,0.9978 1.76479,1.8147 3.92173,1.8147 2.15683,0 5.09809,1.1766 6.53601,2.6145 1.43804,1.438 2.61453,1.8715 2.61453,0.9652 0,-0.9063 2.17863,-0.122 4.84326,1.743 2.66231,1.8649 6.24407,3.3922 7.95874,3.3922 1.71467,0 9.09393,2.8039 16.39907,6.2289 7.30526,3.4271 17.20521,7.4772 21.99836,9.0024 4.79315,1.5229 9.69525,3.3617 10.89355,4.085 1.1982,0.7233 2.6689,1.3901 3.268,1.4794 0.5992,0.092 4.9784,1.8606 9.7301,3.9325 4.7517,2.072 10.144,4.0676 11.9829,4.4359 1.8388,0.3703 6.0807,1.7931 9.4294,3.1656 3.3486,1.3726 8.4947,3.0982 11.4382,3.8367 2.9434,0.7386 5.3508,2.2179 5.3508,3.2855 0,1.0698 1.4815,1.9434 3.292,1.9434 1.8106,0 7.9371,2.0588 13.617,4.5752 5.6777,2.5143 12.2856,5.3292 14.6822,6.2508 4.6668,1.7952 18.7717,7.4599 38.1273,15.3119 6.5906,2.6732 13.6844,5.73 15.7651,6.791 2.0807,1.061 5.0218,1.963 6.5361,2.0044 1.5142,0.042 6.6755,1.9674 11.4687,4.2834 4.7931,2.3159 10.3444,4.2418 12.3358,4.2832 2.207,0.045 3.3814,1.5622 3.0088,3.8868 -0.8497,5.327 4.5055,15.1398 10.3532,18.97 9.144,5.9936 23.0594,4.6253 30.1271,-2.9608 10.68,-11.4622 8.3095,-28.9746 -5.0459,-37.2972 -7.5296,-4.6886 -13.1921,-4.6515 -24.8982,0.1677 -5.9762,2.4619 -7.9937,2.2397 -16.6453,-1.828 -5.4141,-2.5447 -12.6473,-5.2789 -16.0767,-6.0763 -3.427,-0.7974 -8.1919,-2.6645 -10.5884,-4.1461 -2.3966,-1.4815 -12.0852,-5.3596 -21.5299,-8.6167 -9.4447,-3.2572 -18.7587,-6.7279 -20.6977,-7.7148 -5.4947,-2.7975 -22.8524,-9.8674 -24.2228,-9.8674 -0.6776,0 -5.6102,-1.8323 -10.9632,-4.0741 -5.3553,-2.2398 -12.1856,-5.0546 -15.1812,-6.2573 -2.9958,-1.2004 -8.144,-3.5905 -11.4426,-5.3116 -3.2985,-1.719 -6.974,-2.5229 -8.1701,-1.7844 -1.1961,0.7386 -2.1743,0.3442 -2.1743,-0.8781 0,-1.2244 -4.1679,-3.3224 -9.2596,-4.6645 -5.0916,-1.3421 -11.4665,-3.8541 -14.1615,-5.5797 -2.695,-1.7276 -4.9021,-2.6101 -4.9021,-1.9586 0,0.6514 -3.8824,-0.7952 -8.62765,-3.218 -4.74525,-2.4205 -9.67991,-4.401 -10.96322,-4.401 -1.2854,0 -5.7539,-1.427 -9.93056,-3.1743 -4.17865,-1.7451 -8.31391,-3.3356 -9.18975,-3.536 -0.87804,-0.1982 -6.66685,-2.6057 -12.86521,-5.3466 -6.19837,-2.7408 -11.83466,-4.4184 -12.52746,-3.7256 -0.69072,0.6929 -1.25721,0.1137 -1.25721,-1.2831 0,-1.3989 -1.15468,-2.5427 -2.56651,-2.5427 -1.40962,0 -12.09829,-4.0502 -23.75214,-9.0024 l -21.18569,-9.0023 2.26368,-6.7932 c 1.24404,-3.7365 3.01749,-7.6341 3.94127,-8.6625 1.77564,-1.9739 13.3075,1.0262 26.04849,6.7758 4.19407,1.8933 8.8521,3.4445 10.34883,3.4445 1.49893,0 2.72343,0.7124 2.72343,1.5838 0,0.8694 1.52074,2.1657 3.38133,2.8803 2.28326,0.8758 2.86935,0.4205 1.80399,-1.4009 -0.86714,-1.4859 0.30714,-1.1002 2.61,0.8562 2.30297,1.9543 6.63855,4.2877 9.63433,5.1831 2.99566,0.8977 10.10478,3.9697 15.79558,6.8303 5.69068,2.8607 10.34882,4.6798 10.34882,4.0393 0,-0.6406 5.00228,1.3725 11.11355,4.4685 6.11334,3.0981 12.4054,5.1375 13.9807,4.5318 1.5773,-0.6035 3.3443,0.1437 3.9282,1.6623 0.5839,1.5186 7.2812,4.9347 14.887,7.5927 7.6037,2.6559 16.3839,6.2268 19.5125,7.9348 3.1264,1.7103 6.3139,2.4794 7.0808,1.7125 0.7668,-0.7669 1.3943,-0.087 1.3943,1.5099 0,1.597 0.6449,2.2593 1.4337,1.4706 0.7886,-0.7887 2.5033,-0.5447 3.8127,0.5403 1.3094,1.0871 9.0176,4.4729 17.131,7.5275 8.1158,3.0544 17.9199,6.9586 21.7871,8.6777 3.8694,1.7212 16.4884,7.0895 28.0421,11.9327 20.763,8.704 21.1791,8.7802 35.9486,6.5514 8.2181,-1.2419 19.8436,-2.658 25.835,-3.1461 5.9915,-0.4901 15.3054,-1.2636 20.6977,-1.7234 5.3923,-0.4574 18.628,-1.501 29.4124,-2.318 10.7846,-0.8192 21.0791,-1.8672 22.8764,-2.3313 1.7974,-0.4641 11.1114,-1.4858 20.6977,-2.2723 9.5863,-0.7844 19.1551,-1.7539 21.2641,-2.1526 2.1089,-0.4008 6.2768,1.7146 9.2617,4.6995 4.3443,4.3442 7.3138,5.3269 14.9153,4.9347 14.1333,-0.7321 21.3426,-7.4054 22.6433,-20.9612 0.9238,-9.5951 0.3399,-11.5777 -5.1983,-17.6671 -11.2727,-12.3969 -28.9986,-10.4949 -37.9857,4.0785 -4.3967,7.1287 -6.5818,8.6451 -12.9175,8.9784 -9.7345,0.5098 -15.6693,1.0828 -30.5018,2.9413 -6.5907,0.8278 -15.9046,1.8061 -20.6978,2.1786 -31.2687,2.4206 -46.4411,3.7997 -51.1994,4.6516 -25.8438,4.6232 -45.8879,4.2702 -57.2498,-1.0131 -19.214,-8.9349 -35.4256,-16.1028 -37.5238,-16.5908 -4.2941,-1.0001 -10.9959,-3.7409 -16.885,-6.9065 -3.2963,-1.7713 -5.9914,-2.6515 -5.9914,-1.9565 0,0.6928 -2.2069,-0.1525 -4.9021,-1.8802 -4.3464,-2.7887 -43.5914,-18.7455 -46.0991,-18.7455 -0.5403,0 -7.3379,-2.9413 -15.1049,-6.5362 -7.76709,-3.5948 -14.70837,-6.5361 -15.42739,-6.5361 -1.28111,0 -4.38568,-1.3181 -35.02701,-14.8674 -18.57562,-8.2137 -33.76979,-13.6649 -33.76979,-12.1136 0,0.6319 -1.54034,-0.3922 -3.42275,-2.2767 -1.88457,-1.8824 -5.2572,-3.4227 -7.49692,-3.4227 -2.24188,0 -4.76482,-1.1156 -5.60797,-2.4794 -1.10678,-1.7909 0.8279,-2.0305 6.95223,-0.8627 4.66679,0.891 10.93701,1.9542 13.93279,2.3616 6.62544,0.902 14.42296,2.17 31.59116,5.133 7.18973,1.2397 16.99387,2.8106 21.78703,3.4882 17.62787,2.4946 19.69329,2.8279 23.96565,3.8628 2.39657,0.5795 8.76927,1.7757 14.16167,2.658 5.3922,0.8823 11.7649,1.987 14.1615,2.4576 12.0286,2.3595 57.4436,9.9195 64.2717,10.6996 2.9957,0.342 8.8782,1.2724 13.0722,2.0676 25.5801,4.8498 32.1315,5.8606 36.8113,5.6755 2.8716,-0.1137 6.303,0.6841 7.6254,1.7713 3.2551,2.6798 41.9968,1.3769 83.0173,-2.791 5.9915,-0.6079 18.7369,-1.6666 28.3232,-2.3529 9.5863,-0.6841 24.7827,-1.8367 33.7699,-2.5623 33.2099,-2.6754 33.1968,-2.6754 40.8506,4.3988 3.8955,3.5993 7.0808,5.887 7.0808,5.0831 0,-0.8041 2.4989,-0.5142 5.5513,0.6469 10.8935,4.1418 25.4255,-6.364 27.9332,-20.1943 2.0762,-11.4469 -9.2378,-25.2337 -21.8438,-26.6172 -7.6188,-0.8366 -19.9242,4.9435 -21.5712,10.1288 -1.963,6.1919 -6.9653,7.7039 -30.3755,9.1832 -34.9507,2.2114 -51.6178,3.5099 -62.093,4.8346 -5.3923,0.6841 -15.6866,1.5969 -22.8764,2.0327 -7.1897,0.4357 -21.4057,1.4575 -31.5911,2.2702 -22.5017,1.7995 -22.1401,1.8104 -38.9836,-1.244 -7.4708,-1.353 -16.2182,-2.8738 -19.4361,-3.3749 -3.2179,-0.5032 -20.0681,-3.438 -37.4432,-6.5252 -17.3752,-3.085 -33.308,-5.1613 -35.4039,-4.6166 -2.096,0.5468 -3.8127,0.2701 -3.8127,-0.6166 0,-0.8868 -1.2245,-1.6646 -2.7235,-1.7277 -2.488,-0.1067 -8.6145,-1.1199 -23.4209,-3.8781 -2.9958,-0.5578 -8.8783,-1.5381 -13.0723,-2.1787 -4.1939,-0.6405 -10.0765,-1.621 -13.07224,-2.1787 -15.76067,-2.9347 -21.28363,-3.8215 -27.23366,-4.3684 -3.59487,-0.3311 -8.00677,-1.0805 -9.80426,-1.6644 -5.64057,-1.8323 -42.62618,-8.1288 -47.75705,-8.1288 -2.73427,0 -4.52516,-1.1111 -4.05674,-2.5164 0.56864,-1.7016 10.71044,-2.7342 31.22946,-3.1831 65.30439,-1.427 144.59609,-2.8999 212.31009,-3.9434 38.9444,-0.6013 94.3379,-1.6689 123.0967,-2.3704 81.4508,-1.9892 81.8931,-1.9652 87.8496,4.7452 7.0764,7.9697 19.6214,9.2006 29.7785,2.9238 4.2201,-2.6079 7.1723,-5.5556 6.5579,-6.5492 -0.6144,-0.9935 -0.1612,-2.1352 1.0086,-2.5382 3.1483,-1.0828 5.2704,-17.0701 2.2659,-17.0701 -1.3442,0 -1.915,-0.854 -1.2701,-1.8977 1.634,-2.6427 -5.1636,-9.6603 -12.4556,-12.8586 -10.3228,-4.5274 -16.0441,-3.2005 -25.6608,5.9478 l -9.0612,8.619 -62.3828,1.2484 c -34.3102,0.6863 -84.9322,1.6884 -112.4929,2.2244 -27.5606,0.5381 -75.6009,1.5121 -106.7564,2.1635 -133.14473,2.7931 -169.03232,2.2919 -145.95335,-2.0392 4.76485,-0.8934 9.64941,-2.2442 10.85651,-3.0001 1.20908,-0.756 3.17649,-1.5361 4.37478,-1.7365 10.58846,-1.7539 26.37105,-4.9849 37.03792,-7.5797 4.79315,-1.1678 11.16585,-2.6754 14.16152,-3.3508 2.99578,-0.6754 6.42722,-1.4706 7.62552,-1.7692 7.645,-1.8998 15.5689,-3.6863 34.8591,-7.8607 11.9829,-2.5948 23.2577,-5.2507 25.0552,-5.902 1.7974,-0.6538 5.2288,-1.5383 7.6254,-1.9697 3.9914,-0.7189 33.8679,-7.6581 46.8421,-10.8826 2.9958,-0.7451 7.4076,-1.6165 9.8041,-1.939 2.3966,-0.3202 10.7302,-2.2615 18.519,-4.3139 7.7888,-2.0523 17.593,-4.207 21.787,-4.7887 4.194,-0.5817 7.9545,-1.9434 8.3554,-3.0241 0.403,-1.0805 1.464,-1.512 2.3595,-0.9585 0.8955,0.5534 9.3903,-0.9522 18.8784,-3.3444 19.7434,-4.9783 27.0356,-5.9718 54.2868,-7.3901 10.7846,-0.5621 24.0202,-1.5753 29.4124,-2.2507 18.1857,-2.281 22.822,-2.7625 41.3954,-4.305 10.1854,-0.8476 21.4602,-1.9085 25.055,-2.3596 3.5949,-0.4488 16.3403,-1.3987 28.3232,-2.1089 11.9828,-0.7104 23.9177,-1.6406 26.5212,-2.0633 3.2181,-0.5251 7.5231,1.963 13.4449,7.767 9.9435,9.7454 15.0504,10.5101 28.0987,4.2071 11.2921,-5.4555 15.5145,-16.3032 11.022,-28.3165 -6.303,-16.8479 -29.9637,-21.14 -40.7744,-7.3967 -3.0132,3.8301 -7.096,5.9369 -12.6648,6.5361 -14.6757,1.5752 -29.6368,2.828 -48.524,4.0633 -10.1854,0.6667 -20.6192,1.6753 -23.188,2.2396 -2.5687,0.5665 -14.1659,1.5993 -25.7718,2.2943 -11.6081,0.695 -23.2314,1.7036 -25.8329,2.2418 -2.6014,0.5381 -13.5537,1.4533 -24.3382,2.0327 -20.7761,1.1177 -33.563,2.4489 -42.4846,4.4206 -2.9958,0.6601 -7.4077,1.5622 -9.8043,2.0023 -2.3965,0.44 -6.5643,1.3682 -9.2594,2.061 -5.0132,1.2898 -12.1507,3.072 -17.9743,4.4903 -1.7975,0.438 -3.7583,0.9869 -4.3575,1.2201 -0.5991,0.2331 -1.939,0.2701 -2.9783,0.081 -1.0393,-0.1874 -5.0001,0.6841 -8.8019,1.939 -8.022,2.6493 -33.9137,8.4599 -44.5588,10.0002 -4.0241,0.5839 -8.9262,1.8889 -10.8935,2.9021 -3.0677,1.5817 -11.2943,3.5513 -24.2729,5.8127 -1.7975,0.3138 -5.2922,1.0568 -7.7671,1.6515 -20.6062,4.9565 -33.698,8.022 -40.1643,9.4099 -9.8979,2.1242 -10.789,2.3464 -11.4382,2.8497 -0.3007,0.2331 -3.2377,0.7777 -6.5275,1.2113 -3.2898,0.4358 -7.8694,1.39 -10.1745,2.1199 -2.30502,0.732 -5.987,1.7451 -8.17885,2.2528 -16.17904,3.7365 -35.37985,8.0306 -39.93557,8.9305 -2.99566,0.5904 -10.59287,2.403 -16.88496,4.0284 -11.4578,2.9565 -15.83478,0.8017 -6.53601,-3.218 2.69502,-1.1656 6.3727,-2.9587 8.17008,-3.9848 1.79737,-1.0262 7.18973,-3.7147 11.98288,-5.9762 4.79316,-2.2614 9.31397,-4.9391 10.04818,-5.9522 0.73201,-1.0131 1.71247,-1.7495 2.17863,-1.6384 2.16565,0.5185 15.00697,-5.3378 15.00697,-6.8432 0,-0.9369 1.11768,-1.7016 2.48369,-1.7016 3.1831,0 22.14646,-9.2204 23.90466,-11.6212 0.7321,-1.0022 1.7124,-1.6711 2.1787,-1.4838 1.8149,0.7278 12.484,-4.183 13.8348,-6.3683 0.7865,-1.2724 3.2833,-2.3137 5.5492,-2.3137 2.2679,0 5.1199,-1.7147 6.3422,-3.8128 1.2222,-2.098 2.2505,-3.1112 2.2875,-2.2528 0.085,2.0371 91.4249,-43.3648 96.7018,-48.0686 2.2222,-1.9804 4.4337,-3.3443 4.9151,-3.0328 0.4793,0.3138 6.5034,-2.2396 13.3881,-5.6777 14.2488,-7.1113 21.0506,-9.0438 36.4801,-10.3553 5.9916,-0.512 14.3121,-1.4379 18.4908,-2.0611 4.1809,-0.6231 12.5145,-1.597 18.5189,-2.1656 6.0068,-0.5665 14.8436,-1.56 19.6367,-2.207 4.7932,-0.6471 10.1854,-1.1918 11.9828,-1.2092 1.7975,-0.02 10.131,-1.1025 18.519,-2.4075 8.388,-1.305 16.7215,-2.3356 18.5189,-2.292 1.7975,0.043 11.1115,-0.7974 20.6978,-1.8694 9.5862,-1.0696 21.8414,-2.4378 27.2336,-3.0392 5.3924,-0.5991 13.2357,-1.5622 17.4297,-2.1373 4.194,-0.5774 12.0373,-1.5164 17.4296,-2.0894 31.3471,-3.3356 51.9969,-5.7735 57.8249,-6.8324 5.1809,-0.9412 7.8433,0.013 12.1985,4.3683 6.3945,6.3923 10.5123,7.2682 22.2293,4.7191 14.447,-3.1439 21.9984,-23.9614 12.8217,-35.3408 -4.2333,-5.2484 -15.1551,-10.8673 -20.105,-10.3422 -1.7975,0.1895 -4.8346,0.4575 -6.7475,0.5969 -4.8083,0.3464 -11.9328,6.9087 -13.7498,12.667 -1.7734,5.6189 -4.4772,6.6363 -21.9874,8.2813 -7.1897,0.6732 -15.5232,1.647 -18.519,2.1612 -2.9957,0.5142 -10.839,1.427 -17.4296,2.0284 -6.5906,0.6035 -15.4143,1.6231 -19.6083,2.2702 -9.9414,1.5316 -48.0752,5.7997 -52.2889,5.8542 -3.9456,0.05 -35.1119,3.5491 -45.7526,5.1373 -4.1941,0.6253 -12.0374,1.5535 -17.4297,2.0611 -18.41,1.7364 -40.9421,4.5296 -43.574,5.401 -0.5991,0.1982 -6.9718,0.817 -14.1615,1.3747 -7.1898,0.5556 -16.1377,1.4619 -19.8851,2.0132 -7.4621,1.098 -42.3278,17.9154 -44.8987,21.6562 -0.8802,1.2833 -1.6144,1.6646 -1.634,0.852 -0.037,-1.6254 -44.3017,20.4122 -49.2474,24.5169 -1.6907,1.403 -3.0742,1.9978 -3.0742,1.3202 0,-1.4945 -68.58545,32.4409 -76.25446,37.7308 -2.99577,2.0654 -9.12223,4.95 -13.61694,6.4075 -4.4924,1.4576 -8.17008,3.5535 -8.17008,4.6603 0,1.1045 -1.9608,2.0088 -4.35738,2.0088 -2.39658,0 -4.3575,0.9803 -4.3575,2.1786 0,1.1983 -0.73421,1.9761 -1.63394,1.7299 -0.89985,-0.2461 -4.81276,1.2463 -8.69957,3.3182 -3.88681,2.0697 -9.40108,4.6516 -12.25303,5.7365 l -5.18752,1.9717 4.33778,-8.9784 c 2.38568,-4.939 4.51432,-10.0154 4.73215,-11.2812 0.21794,-1.2659 1.60796,-4.5079 3.08938,-7.2029 1.48374,-2.695 2.05023,-4.902 1.26371,-4.902 -0.78873,0 -0.21354,-1.4707 1.2789,-3.2681 1.49244,-1.7974 1.98261,-3.2681 1.08937,-3.2681 -0.89335,0 -0.31595,-1.5751 1.28099,-3.4989 1.81269,-2.1831 2.77134,-8.3749 2.5469,-16.4471 -0.28974,-10.4054 0.37047,-13.2269 3.35303,-14.3664 2.04153,-0.7777 4.69294,-2.2483 5.89123,-3.2636 4.80846,-4.0742 25.55842,-16.8915 27.3471,-16.8915 1.05226,0 2.96086,-1.9608 4.24406,-4.3574 1.28331,-2.3966 4.07425,-4.3574 6.20272,-4.3574 2.1287,0 5.7693,-1.7473 8.0917,-3.8824 2.3248,-2.1351 8.1462,-6.2507 12.9394,-9.144 4.7931,-2.8955 9.205,-5.9022 9.8041,-6.6843 2.3552,-3.0763 7.8825,-3.5361 13.0723,-1.0894 2.9956,1.4119 6.9173,2.4053 8.7147,2.2115 1.7975,-0.1961 5.2289,-0.5382 7.6255,-0.7604 12.0939,-1.122 21.4776,-20.5365 16.1464,-33.4061 -1.4141,-3.4161 -3.0872,-5.6951 -3.7169,-5.0633 -0.6296,0.6297 -2.4336,-0.695 -4.0089,-2.9433 -3.4466,-4.9218 -14.8783,-6.9588 -23.0571,-4.1069 -6.3096,2.1983 -14.776,13.7803 -14.776,20.2118 0,2.1177 -2.451,6.1222 -5.4468,8.9 -2.9956,2.7756 -5.4467,4.5883 -5.4467,4.0262 0,-1.1417 -18.1225,10.704 -31.8046,20.7914 -4.91088,3.621 -9.65173,6.5818 -10.53626,6.5818 -2.04792,0 -21.39916,13.4404 -23.53209,16.3403 -1.06548,1.4531 -1.62316,1.4531 -1.66677,0 -0.0441,-1.4532 -0.60129,-1.4532 -1.66666,0 -4.16136,5.6646 -10.155,6.9108 -18.14205,3.7735 -7.0002,-2.7518 -8.13968,-4.2485 -9.24866,-12.1702 -0.69501,-4.9675 -3.2549,-15.0527 -5.68639,-22.4124 -2.43137,-7.3574 -5.02186,-17.1573 -5.75608,-21.7739 -0.73204,-4.6167 -2.72992,-11.0961 -4.43801,-14.399 -1.7081,-3.303 -2.69288,-6.0045 -2.1896,-6.0045 0.50328,0 0,-3.6755 -1.11985,-8.1702 -4.16568,-16.715 -4.28987,-20.1507 -0.90199,-24.9875 6.9152,-9.8738 1.8628,-29.5976 -8.95881,-34.9769 -17.05052,-8.4707 -36.26013,4.608 -34.80257,23.6978 0.64271,8.4447 7.78449,17.6235 15.1485,19.471 7.87601,1.9761 9.53836,4.5818 13.21601,20.702 3.34648,14.6737 7.68863,31.3451 9.62114,36.9442 0.62093,1.7975 1.52727,5.7191 2.01529,8.7149 0.48804,2.9957 1.81487,5.7757 2.94779,6.1766 1.13074,0.4031 1.64493,1.3987 1.14163,2.2135 -0.50327,0.8149 0.47061,6.8281 2.16564,13.362 3.27894,12.6452 3.93909,19.0484 1.73207,16.8414 -2.16781,-2.1677 -16.081,15.447 -16.081,20.3578 0,1.366 -1.35079,5.5732 -3.00225,9.3489 -1.65145,3.7755 -4.67331,11.5231 -6.71694,17.2139 -2.05669,5.7321 -5.09161,10.3488 -6.80189,10.3488 -1.69722,0 -2.92818,-0.7364 -2.73645,-1.6341 0.1939,-0.8976 -0.78652,-4.3944 -2.1787,-7.767 -1.39001,-3.3726 -2.52948,-7.0242 -2.52948,-8.1114 0,-1.0893 -1.9129,-6.1722 -4.25064,-11.2965 -2.33775,-5.1244 -6.81716,-16.1812 -9.95667,-24.5692 -3.13733,-8.388 -6.99145,-18.1922 -8.56447,-21.787 -1.57085,-3.5949 -4.072,-10.4578 -5.55787,-15.2509 -1.4837,-4.7932 -3.56,-9.6451 -4.61449,-10.7846 -1.05231,-1.1373 -1.91508,-3.8345 -1.91508,-5.9915 0,-2.1569 -1.03924,-3.9216 -2.30724,-3.9216 -1.26801,0 -1.82793,-0.7756 -1.24187,-1.7211 0.5839,-0.9478 -0.18953,-4.6255 -1.72335,-8.1702 -1.53162,-3.5469 -4.40315,-10.1593 -6.38141,-14.6931 -1.97826,-4.5339 -3.59703,-9.6823 -3.59703,-11.4382 0,-1.7561 -0.98042,-3.194 -2.17871,-3.194 -1.19828,0 -2.18741,-1.7168 -2.20048,-3.8127 -0.0104,-2.096 -2.46194,-9.057 -5.44676,-15.4667 -2.98263,-6.4097 -5.42496,-13.5188 -5.42496,-15.7955 0,-2.279 -0.87149,-4.1418 -1.93687,-4.1418 -1.0632,0 -2.57958,-3.4314 -3.36609,-7.6254 -0.78652,-4.1941 -2.42489,-7.6255 -3.63843,-7.6255 -1.21571,0 -1.61878,-0.9542 -0.89762,-2.122 2.06104,-3.3334 -12.10704,-30.759 -16.78472,-32.4888 -2.3116,-0.8541 -3.88245,-2.1308 -3.49464,-2.8345 0.88456,-1.6035 -25.98101,-33.1555 -46.13618,-54.182 -7.56662,-7.8935 -13.79335,-15.0048 -31.24038,-35.6719 -4.98706,-5.90436 -13.23344,-14.90666 -18.32506,-20.00266 -5.09163,-5.096 -9.25949,-9.8237 -9.25949,-10.5057 0,-0.6797 -1.7168,-3.0502 -3.81271,-5.266 -2.09592,-2.2135 -9.69523,-10.6929 -16.88495,-18.8435 -14.51668,-16.4535 -37.51941,-41.97051 -41.94216,-46.52832 -1.96084,-2.02181 -2.47501,-6.327 -1.63185,-13.69315 1.36821,-11.98069 -1.11114,-17.2313 -11.31836,-23.96137 -6.67336,-4.40099 -16.47315,-4.86936 -23.96353,-1.14818"
     stroke="none"
     fill-rule="evenodd"
     id="path1"
     style="fill:currentColor;fill-opacity:1;stroke-width:2.1787" />
</svg>
