<svg xmlns="http://www.w3.org/2000/svg" xmlns:xlink="http://www.w3.org/1999/xlink" width="1920" height="202" viewBox="0 0 1920 202">
  <defs>
    <style>
      .cls-1 {
        fill: #8d8ae6;
        filter: url(#filter);
      }

      .cls-1, .cls-2 {
        fill-rule: evenodd;
      }

      .cls-2 {
        fill: #fff;
      }
    </style>
    <filter id="filter" x="17.125" y="439.188" width="1900.875" height="201.687" filterUnits="userSpaceOnUse">
      <feFlood result="flood" flood-color="#7c2fd1"/>
      <feComposite result="composite" operator="in" in2="SourceGraphic"/>
      <feBlend result="blend" in2="SourceGraphic"/>
    </filter>
  </defs>
  <g id="Artboard_1" data-name="Artboard 1">
    <g>
      <path id="MakeUC_2024_purple_" data-name="MakeUC 2024 (purple)" class="cls-1" d="M275.161,450.171H198.935L141.988,556.353l-9.195-106.182H57.161L17.12,638.511H43.814l28.473-132.58,13.347,132.58h40.338L196.266,510.38,168.979,638.511h65.845Zm8.007,98.174h43.3a31.48,31.48,0,0,1,6.377-14.682q4.894-6.075,15.275-6.08,8.9,0,11.716,4.6a18.7,18.7,0,0,1,2.817,9.936,61.016,61.016,0,0,1-.89,9.64q-0.89,5.492-1.483,8.453-17.5,0-34.85,1.186a125.741,125.741,0,0,0-31.143,5.784q-13.791,4.6-22.245,13.644t-8.453,24.469a36.535,36.535,0,0,0,3.263,16.165,31.7,31.7,0,0,0,8.6,10.974,35.67,35.67,0,0,0,12.161,6.377,47.711,47.711,0,0,0,13.94,2.076,62.433,62.433,0,0,0,25.062-5.487,64.594,64.594,0,0,0,22.1-15.868h1.78l5.338,18.982h47.753l13.94-65.252q0.89-4.449,1.631-10.974a108.607,108.607,0,0,0,.742-12.16,48.553,48.553,0,0,0-2.966-17.5,30.494,30.494,0,0,0-10.381-13.347q-7.418-5.631-19.872-8.6t-31.44-2.966a169.3,169.3,0,0,0-35.443,3.411,134.519,134.519,0,0,0-31,10.826Zm69.107,48.642a18.8,18.8,0,0,1-7.563,11.864A20.706,20.706,0,0,1,332.4,613.3a12.21,12.21,0,0,1-8.75-3.559q-3.711-3.559-3.707-10.678a23.782,23.782,0,0,1,1.78-8.9,22.719,22.719,0,0,1,5.487-8.009A27.605,27.605,0,0,1,337,576.374a42.861,42.861,0,0,1,14.682-2.225h5.339ZM531.121,439.2h-60.8L428.2,638.511h60.506L501.164,578.9l30.253,59.616h66.439l-44.194-79.192,59.024-48.346H573.535l-69.108,53.982ZM748.827,578.9a46,46,0,0,0,7.118-15.868,70.878,70.878,0,0,0,2.373-17.351q0-19.577-14.978-28.771T698.7,507.711q-27.291,0-45.528,6.525t-29.066,17.351a62.224,62.224,0,0,0-15.424,24.766,90.326,90.326,0,0,0-4.6,28.474q0,16.015,5.487,26.842a45.62,45.62,0,0,0,14.978,17.351,60.726,60.726,0,0,0,22.245,9.2,134.625,134.625,0,0,0,27.584,2.669q8.009,0,16.906-.741a170.891,170.891,0,0,0,17.5-2.373,115.506,115.506,0,0,0,16.313-4.3,62.41,62.41,0,0,0,13.643-6.525l7.712-31.736H697.812a40.521,40.521,0,0,1-4.894,10.677,45.786,45.786,0,0,1-6.526,8.008,30.227,30.227,0,0,1-6.821,5.043,13.462,13.462,0,0,1-6.081,1.779A7.407,7.407,0,0,1,668,618.787a12.825,12.825,0,0,1-2.966-4.745,23.409,23.409,0,0,1-1.334-6.081q-0.3-3.26-.3-5.932,0-4.74.445-10.677a119.8,119.8,0,0,1,1.631-12.457h83.345Zm-44.342-28.177q-0.446,3.858-1.038,7.118-0.6,3.858-1.186,7.415H668.448a102.241,102.241,0,0,1,4.449-14.088,73.584,73.584,0,0,1,5.932-11.864,31.817,31.817,0,0,1,7.267-8.3,13.941,13.941,0,0,1,8.75-3.114,9.3,9.3,0,0,1,7.118,3.262q2.961,3.267,2.966,12.457A62.253,62.253,0,0,1,704.485,550.718ZM866.577,450.171H799.249l-18.093,84.234q-4.156,18.686-6.822,34.7a166.783,166.783,0,0,0-2.669,26.4q0,23.135,16.313,34.258T838.4,640.884q24.615,0,41.227-5.487t27.139-14.978a65.955,65.955,0,0,0,16.165-21.949,128.03,128.03,0,0,0,8.6-26.694l25.8-121.6h-26.99L905.135,571.183a151.31,151.31,0,0,1-4.3,16.313,49.053,49.053,0,0,1-6.822,13.644,31.85,31.85,0,0,1-10.974,9.491q-6.673,3.56-17.054,3.559-14.238,0-21.5-6.229t-7.267-16.609a48.458,48.458,0,0,1,.89-8.9q0.89-4.741,2.373-11.271Zm260.7,116.267h-54.87q-6.525,29.363-15.12,40.782-8.61,11.421-17.8,11.419-5.34,0-8.45-2.966a18.012,18.012,0,0,1-4.6-7.118,31.753,31.753,0,0,1-1.78-8.6q-0.3-4.449-.3-7.415,0-10.08,1.34-23.431t3.86-27.139a274.56,274.56,0,0,1,6.37-27.139,155.016,155.016,0,0,1,8.9-23.876,60.711,60.711,0,0,1,11.42-16.906q6.375-6.375,14.09-6.377a10.713,10.713,0,0,1,6.67,1.928,11.393,11.393,0,0,1,3.71,4.894,22,22,0,0,1,1.48,6.08q0.3,3.114.3,5.487,0,3.267-.3,8.008t-0.59,9.64q-0.3,4.893-.74,9.639t-0.74,7.712h53.38l10.68-55.168q-5.64-2.961-12.6-6.228a133.567,133.567,0,0,0-35.3-10.678,147.828,147.828,0,0,0-23.88-1.779q-27.585,0-48.94,9.194a103.371,103.371,0,0,0-35.884,25.063,106,106,0,0,0-21.948,37.075,136.029,136.029,0,0,0-7.415,45.231q0,41.529,21.5,59.32t61.244,17.8a165.588,165.588,0,0,0,22.99-1.483,145.64,145.64,0,0,0,19.43-4,133.526,133.526,0,0,0,16.76-5.932q7.845-3.407,15.27-6.97Zm66.14,72.073h152.75l5.93-41.227h-66.14q24.315-14.236,40.19-26.546t25.21-23.728q9.345-11.414,13.05-22.1a65.633,65.633,0,0,0,3.71-21.652q0-14.529-5.49-25.063a50.883,50.883,0,0,0-14.83-17.5,62.485,62.485,0,0,0-21.95-10.233,106.847,106.847,0,0,0-26.84-3.262q-23.13,0-41.52,7.859a135.792,135.792,0,0,0-35,22.1l-9.79,44.49h53.69q2.07-8.9,5.19-18.389a139.71,139.71,0,0,1,6.82-17.2,52.6,52.6,0,0,1,8.3-12.754q4.6-5.04,9.94-5.042,5.925,0,8.3,6.525t2.38,18.389q0,24.324-9.05,43.007a109.761,109.761,0,0,1-24.17,32.775,153.1,153.1,0,0,1-34.41,24.024,256.492,256.492,0,0,1-39.74,16.461ZM1455.17,451.8a93.807,93.807,0,0,0-27.73,13.5,86.578,86.578,0,0,0-18.99,18.093,113.566,113.566,0,0,0-14.09,23.728,133.033,133.033,0,0,0-8.75,28.028,158.256,158.256,0,0,0-2.96,30.7,123.091,123.091,0,0,0,3.41,30.7q3.4,13.2,10.53,21.8a48.33,48.33,0,0,0,23.28,17.2q14.685,5.339,38.41,5.339,24.615,0,41.82-6.08t30.55-20.911a99,99,0,0,0,13.5-18.834,157.533,157.533,0,0,0,10.53-22.986,154.069,154.069,0,0,0,6.82-25.211,142.6,142.6,0,0,0,2.37-25.508,99.282,99.282,0,0,0-3.26-26.545,75.846,75.846,0,0,0-9.2-20.91,51.689,51.689,0,0,0-23.43-20.169q-14.835-6.521-37.96-6.525Q1470.445,447.205,1455.17,451.8Zm-6.08,161.943q-3.27-6.375-3.27-22.986a221.666,221.666,0,0,1,1.49-24.321q1.47-13.347,4.3-26.991t6.82-26.694a167.161,167.161,0,0,1,8.75-22.986,63.937,63.937,0,0,1,10.38-16.017q5.625-6.075,11.86-6.08,5.04,0,7.72,5.784t2.67,20.91a227.808,227.808,0,0,1-1.49,24.766q-1.485,13.5-4.15,27.584T1487.79,574a156.53,156.53,0,0,1-8.45,23.431,68.518,68.518,0,0,1-10.23,16.461q-5.49,6.23-11.42,6.229Q1452.35,620.122,1449.09,613.745Zm118.34,24.766h152.75l5.93-41.227h-66.14q24.315-14.236,40.19-26.546,15.855-12.3,25.21-23.728t13.05-22.1a65.633,65.633,0,0,0,3.71-21.652q0-14.529-5.49-25.063a50.883,50.883,0,0,0-14.83-17.5,62.568,62.568,0,0,0-21.95-10.233,106.847,106.847,0,0,0-26.84-3.262q-23.13,0-41.52,7.859a135.624,135.624,0,0,0-35,22.1l-9.79,44.49h53.68q2.07-8.9,5.19-18.389a141.287,141.287,0,0,1,6.83-17.2,52.6,52.6,0,0,1,8.3-12.754q4.59-5.04,9.94-5.042,5.925,0,8.3,6.525t2.37,18.389q0,24.324-9.04,43.007a109.932,109.932,0,0,1-24.17,32.775,153.1,153.1,0,0,1-34.41,24.024,256.9,256.9,0,0,1-39.74,16.461Zm318.25-47.456h26.99l5.34-24.914h-26.99l25.21-115.97H1839.7l-88.38,106.182-7.42,34.7h77.42l-9.79,47.456h64.06Zm-107.07-24.914,65.84-82.455-17.8,82.455h-48.04Z" transform="translate(0 -439)"/>
      <path id="MakeUC_2024" data-name="MakeUC 2024" class="cls-2" d="M260.232,450.171H184.006L127.058,556.353l-9.194-106.182H42.231L2.19,638.511H28.884l28.473-132.58L70.7,638.511h40.337L181.336,510.38,154.049,638.511h65.845Zm8.006,98.174h43.3a31.489,31.489,0,0,1,6.376-14.682q4.894-6.075,15.275-6.08,8.9,0,11.716,4.6a18.693,18.693,0,0,1,2.818,9.936,61.135,61.135,0,0,1-.89,9.64q-0.889,5.492-1.483,8.453-17.5,0-34.85,1.186a125.723,125.723,0,0,0-31.143,5.784q-13.793,4.6-22.245,13.644t-8.454,24.469a36.549,36.549,0,0,0,3.263,16.165,31.7,31.7,0,0,0,8.6,10.974,35.665,35.665,0,0,0,12.16,6.377,47.716,47.716,0,0,0,13.94,2.076A62.441,62.441,0,0,0,311.69,635.4a64.6,64.6,0,0,0,22.1-15.868h1.779l5.339,18.982h47.752L402.6,573.259q0.889-4.449,1.631-10.974a108.832,108.832,0,0,0,.741-12.16,48.553,48.553,0,0,0-2.965-17.5,30.489,30.489,0,0,0-10.382-13.347q-7.416-5.631-19.872-8.6t-31.439-2.966a169.306,169.306,0,0,0-35.444,3.411,134.551,134.551,0,0,0-31,10.826Zm69.108,48.642a18.8,18.8,0,0,1-7.563,11.864,20.71,20.71,0,0,1-12.309,4.449,12.206,12.206,0,0,1-8.75-3.559q-3.712-3.559-3.708-10.678a23.8,23.8,0,0,1,1.78-8.9,22.719,22.719,0,0,1,5.487-8.009,27.61,27.61,0,0,1,9.788-5.783,42.853,42.853,0,0,1,14.682-2.225h5.338ZM516.191,439.2h-60.8L413.271,638.511h60.507L486.235,578.9l30.253,59.616h66.438l-44.193-79.192,59.023-48.346H558.605L489.5,564.955ZM733.9,578.9a45.984,45.984,0,0,0,7.119-15.868,70.874,70.874,0,0,0,2.372-17.351q0-19.577-14.978-28.771t-44.638-9.194q-27.293,0-45.528,6.525t-29.067,17.351a62.222,62.222,0,0,0-15.423,24.766,90.3,90.3,0,0,0-4.6,28.474q0,16.015,5.487,26.842a45.6,45.6,0,0,0,14.978,17.351,60.726,60.726,0,0,0,22.245,9.2,134.618,134.618,0,0,0,27.584,2.669q8.007,0,16.906-.741a170.834,170.834,0,0,0,17.5-2.373,115.506,115.506,0,0,0,16.313-4.3,62.418,62.418,0,0,0,13.644-6.525l7.711-31.736H682.882a40.489,40.489,0,0,1-4.894,10.677,45.738,45.738,0,0,1-6.525,8.008,30.231,30.231,0,0,1-6.822,5.043,13.455,13.455,0,0,1-6.08,1.779,7.405,7.405,0,0,1-5.487-1.928,12.812,12.812,0,0,1-2.966-4.745,23.45,23.45,0,0,1-1.335-6.081q-0.3-3.26-.3-5.932,0-4.74.445-10.677a119.542,119.542,0,0,1,1.632-12.457H733.9Zm-44.341-28.177q-0.446,3.858-1.039,7.118-0.6,3.858-1.186,7.415H653.519a101.969,101.969,0,0,1,4.449-14.088A73.5,73.5,0,0,1,663.9,539.3a31.8,31.8,0,0,1,7.266-8.3,13.945,13.945,0,0,1,8.75-3.114,9.3,9.3,0,0,1,7.118,3.262Q690,534.409,690,543.6A62.468,62.468,0,0,1,689.556,550.718ZM851.647,450.171H784.319l-18.092,84.234q-4.158,18.686-6.822,34.7a166.683,166.683,0,0,0-2.67,26.4q0,23.135,16.313,34.258t50.422,11.122q24.616,0,41.228-5.487t27.138-14.978A65.927,65.927,0,0,0,908,598.47a128.031,128.031,0,0,0,8.6-26.694l25.8-121.6H915.416L890.205,571.183a151.077,151.077,0,0,1-4.3,16.313,49.051,49.051,0,0,1-6.821,13.644,31.859,31.859,0,0,1-10.974,9.491q-6.674,3.56-17.055,3.559-14.236,0-21.5-6.229t-7.267-16.609a48.371,48.371,0,0,1,.89-8.9q0.89-4.741,2.372-11.271ZM1112.36,566.438h-54.88q-6.525,29.363-15.12,40.782t-17.8,11.419q-5.34,0-8.45-2.966a18.012,18.012,0,0,1-4.6-7.118,31.753,31.753,0,0,1-1.78-8.6c-0.2-2.966-.29-5.436-0.29-7.415q0-10.08,1.33-23.431t3.86-27.139a274.56,274.56,0,0,1,6.37-27.139,155.016,155.016,0,0,1,8.9-23.876,60.926,60.926,0,0,1,11.42-16.906q6.375-6.375,14.09-6.377a10.713,10.713,0,0,1,6.67,1.928,11.393,11.393,0,0,1,3.71,4.894,22,22,0,0,1,1.48,6.08q0.3,3.114.3,5.487,0,3.267-.3,8.008t-0.59,9.64q-0.3,4.893-.74,9.639t-0.74,7.712h53.38l10.68-55.168q-5.64-2.961-12.6-6.228a133.567,133.567,0,0,0-35.3-10.678,147.828,147.828,0,0,0-23.88-1.779q-27.57,0-48.93,9.194a103.306,103.306,0,0,0-35.893,25.063,106,106,0,0,0-21.949,37.075,136.054,136.054,0,0,0-7.415,45.231q0,41.529,21.5,59.32t61.243,17.8a165.588,165.588,0,0,0,22.99-1.483,145.64,145.64,0,0,0,19.43-4,133.526,133.526,0,0,0,16.76-5.932q7.845-3.407,15.27-6.97Zm66.13,72.073h152.75l5.93-41.227h-66.14q24.315-14.236,40.19-26.546t25.21-23.728q9.345-11.414,13.05-22.1a65.633,65.633,0,0,0,3.71-21.652q0-14.529-5.49-25.063a50.883,50.883,0,0,0-14.83-17.5,62.485,62.485,0,0,0-21.95-10.233,106.847,106.847,0,0,0-26.84-3.262q-23.13,0-41.52,7.859a135.792,135.792,0,0,0-35,22.1l-9.79,44.49h53.69q2.07-8.9,5.19-18.389a139.71,139.71,0,0,1,6.82-17.2,52.891,52.891,0,0,1,8.3-12.754q4.605-5.04,9.94-5.042,5.925,0,8.3,6.525t2.38,18.389q0,24.324-9.05,43.007a109.761,109.761,0,0,1-24.17,32.775,153.1,153.1,0,0,1-34.41,24.024,256.492,256.492,0,0,1-39.74,16.461ZM1440.24,451.8a93.807,93.807,0,0,0-27.73,13.5,86.578,86.578,0,0,0-18.99,18.093,113.1,113.1,0,0,0-14.08,23.728,131.879,131.879,0,0,0-8.75,28.028,157.481,157.481,0,0,0-2.97,30.7,123.091,123.091,0,0,0,3.41,30.7q3.4,13.2,10.53,21.8a48.33,48.33,0,0,0,23.28,17.2q14.685,5.339,38.41,5.339,24.615,0,41.82-6.08t30.55-20.911a99,99,0,0,0,13.5-18.834,157.533,157.533,0,0,0,10.53-22.986,154.069,154.069,0,0,0,6.82-25.211,142.6,142.6,0,0,0,2.37-25.508,99.282,99.282,0,0,0-3.26-26.545,75.846,75.846,0,0,0-9.2-20.91,51.689,51.689,0,0,0-23.43-20.169q-14.835-6.521-37.96-6.525Q1455.515,447.205,1440.24,451.8Zm-6.08,161.943q-3.27-6.375-3.26-22.986a221.488,221.488,0,0,1,1.48-24.321q1.485-13.347,4.3-26.991t6.82-26.694a168.463,168.463,0,0,1,8.75-22.986,63.937,63.937,0,0,1,10.38-16.017q5.64-6.075,11.87-6.08,5.04,0,7.71,5.784t2.67,20.91a227.808,227.808,0,0,1-1.49,24.766q-1.485,13.5-4.15,27.584T1472.86,574a156.53,156.53,0,0,1-8.45,23.431,68.518,68.518,0,0,1-10.23,16.461q-5.49,6.23-11.42,6.229Q1437.42,620.122,1434.16,613.745Zm118.34,24.766h152.75l5.93-41.227h-66.14q24.315-14.236,40.19-26.546,15.855-12.3,25.21-23.728t13.05-22.1a65.633,65.633,0,0,0,3.71-21.652q0-14.529-5.49-25.063a50.883,50.883,0,0,0-14.83-17.5,62.568,62.568,0,0,0-21.95-10.233,106.847,106.847,0,0,0-26.84-3.262q-23.13,0-41.52,7.859a135.624,135.624,0,0,0-35,22.1l-9.79,44.49h53.68q2.085-8.9,5.19-18.389a141.287,141.287,0,0,1,6.83-17.2,52.6,52.6,0,0,1,8.3-12.754q4.59-5.04,9.94-5.042,5.925,0,8.3,6.525t2.37,18.389q0,24.324-9.04,43.007a109.932,109.932,0,0,1-24.17,32.775,153.1,153.1,0,0,1-34.41,24.024,256.9,256.9,0,0,1-39.74,16.461Zm318.25-47.456h26.99l5.34-24.914h-26.99l25.21-115.97h-76.52l-88.39,106.182-7.42,34.7h77.42l-9.79,47.456h64.06Zm-107.07-24.914,65.84-82.455-17.8,82.455h-48.04Z" transform="translate(0 -439)"/>
    </g>
  </g>
</svg>
