<?xml version="1.0" encoding="utf-8"?>
<!-- Generator: Adobe Illustrator 15.0.0, SVG Export Plug-In . SVG Version: 6.00 Build 0)  -->
<!DOCTYPE svg PUBLIC "-//W3C//DTD SVG 1.1//EN" "http://www.w3.org/Graphics/SVG/1.1/DTD/svg11.dtd">
<svg version="1.1" id="Layer_1" xmlns="http://www.w3.org/2000/svg" xmlns:xlink="http://www.w3.org/1999/xlink" x="0px" y="0px"
	 width="373.333px" height="140.667px" viewBox="0 0 373.333 140.667" enable-background="new 0 0 373.333 140.667"
	 xml:space="preserve">
<linearGradient id="SVGID_1_" gradientUnits="userSpaceOnUse" x1="96.894" y1="83.1138" x2="133.1707" y2="126.3467">
	<stop  offset="0" style="stop-color:#EC1C5B"/>
	<stop  offset="1" style="stop-color:#EA3F96"/>
</linearGradient>
<path fill="url(#SVGID_1_)" d="M107.407,104.731c0-4.206,3.422-7.626,7.626-7.626c4.205,0,7.626,3.42,7.626,7.626
	c0,4.204-3.421,7.626-7.626,7.626C110.829,112.357,107.407,108.935,107.407,104.731 M86.815,104.731
	c0,15.584,12.632,28.216,28.217,28.216c15.586,0,28.216-12.632,28.216-28.216c0-15.586-12.63-28.217-28.216-28.217
	C99.448,76.514,86.815,89.145,86.815,104.731"/>
<linearGradient id="SVGID_2_" gradientUnits="userSpaceOnUse" x1="16.4121" y1="83.1147" x2="52.6882" y2="126.3469">
	<stop  offset="0" style="stop-color:#EC1C5B"/>
	<stop  offset="1" style="stop-color:#EA3F96"/>
</linearGradient>
<path fill="url(#SVGID_2_)" d="M26.923,104.731c0-4.206,3.422-7.626,7.627-7.626c4.205,0,7.625,3.42,7.625,7.626
	c0,4.204-3.42,7.626-7.625,7.626C30.346,112.357,26.923,108.935,26.923,104.731 M6.333,104.731
	c0,15.584,12.632,28.216,28.217,28.216s28.216-12.632,28.216-28.216c0-15.586-12.631-28.217-28.216-28.217
	S6.333,89.145,6.333,104.731"/>
<linearGradient id="SVGID_3_" gradientUnits="userSpaceOnUse" x1="56.1113" y1="13.4839" x2="92.3868" y2="56.7153">
	<stop  offset="0" style="stop-color:#EC1C5B"/>
	<stop  offset="1" style="stop-color:#EA3F96"/>
</linearGradient>
<path fill="url(#SVGID_3_)" d="M74.249,6.882c-15.584,0-28.217,12.632-28.217,28.217c0,15.584,12.633,28.216,28.217,28.216
	c15.585,0,28.217-12.632,28.217-28.216C102.465,19.515,89.833,6.882,74.249,6.882z M74.249,42.726c-4.205,0-7.626-3.421-7.626-7.626
	c0-4.206,3.421-7.627,7.626-7.627s7.626,3.421,7.626,7.627C81.875,39.305,78.454,42.726,74.249,42.726z"/>
<g>
	<path fill="#20324B" d="M240.891,95.458c0-20.423-14.707-35.132-33.387-35.132c-9.55,0-16.242,3.834-20.912,9.69V28.471h-14.568
		v100.375h14.568V120.9c4.67,5.855,11.362,9.689,20.912,9.689C226.184,130.589,240.891,115.88,240.891,95.458 M225.906,95.458
		c0,11.711-7.599,21.399-20.146,21.399c-11.989,0-20.144-9.201-20.144-21.399c0-12.197,8.154-21.398,20.144-21.398
		C218.307,74.059,225.906,83.747,225.906,95.458"/>
	<path fill="#20324B" d="M293.193,75.313V62.069h-25.581V41.855h-14.638v20.214v13.244v29.347c0,17.774,8.854,25.93,23.978,25.93
		c8.435,0,15.127-2.998,20.493-6.622l-5.784-11.642c-3.974,2.511-8.923,4.531-13.453,4.531c-5.856,0-10.596-3.556-10.596-12.477
		V75.313H293.193z"/>
	<path fill="#20324B" d="M361.425,65.331c-6.469-3.143-14.492-4.934-23.21-4.934c-17.008,0-27.602,8.225-27.602,21.399
		c0,10.805,7.806,17.565,22.652,19.587l6.972,0.906c8.015,1.115,11.57,3.556,11.57,7.389c0,5.02-5.159,8.156-15.195,8.156
		c-10.806,0-17.287-3.137-22.027-6.831l-6.76,10.943c9.688,7.25,21.815,8.574,28.647,8.574c19.239,0,30.392-8.992,30.392-21.818
		c0-11.432-8.644-17.565-23.212-19.728l-6.9-1.044c-6.135-0.905-11.014-2.16-11.014-6.9s4.6-7.947,12.616-7.947
		c6.788,0,13.444,2.157,17.888,4.275L361.425,65.331z"/>
</g>
</svg>
