<?xml version="1.0" encoding="utf-8"?>
<!-- Generator: Adobe Illustrator 25.4.1, SVG Export Plug-In . SVG Version: 6.00 Build 0)  -->
<svg version="1.1" id="Logo" xmlns="http://www.w3.org/2000/svg" xmlns:xlink="http://www.w3.org/1999/xlink" x="0px" y="0px"
	 width="552.1329346px" height="234.6205902px" viewBox="0 0 552.1329346 234.6205902"
	 style="enable-background:new 0 0 552.1329346 234.6205902;" xml:space="preserve">
<style type="text/css">
	.st0{fill:#44B8F3;}
	.st1{fill:#1A3673;}
</style>
<g>
	<g>
		<polygon class="st0" points="110.3479309,51.4303741 81.075531,22.1590919 51.8032455,51.429924 40.7237663,40.3518219 
			81.0757751,0 121.4276505,40.3524437 		"/>
	</g>
	<path class="st1" d="M0.0010094,61.7173805l59.1548462,0.0004578L59.1556702,78.395134l-41.338047-0.0003204L17.8174,98.6369171
		l35.6372604,0.0002747l-0.0001869,16.8201752l-35.6372604-0.0002747l-0.0002289,20.8099823l41.3380508,0.0003204
		l-0.0001869,16.8201752L0,153.0871124L0.0010094,61.7173805z M72.3665619,55.0169792l17.3918076,0.0001373l-0.0009384,85.059845
		l-0.000145,13.010849l-17.3918076-0.0001373L72.3665619,55.0169792z M100.3886642,119.0188751
		c0.0002213-19.9526672,14.8275833-36.2048492,34.4982376-36.2047043
		c19.527771,0.0001526,34.35112,15.1094894,34.3508911,34.7800446c-0.0000153,2.1396179-0.1429291,4.5613403-0.4287109,5.704422
		l-50.6000061-0.0003891c1.7072067,9.5476837,8.97966,16.3915863,19.5275879,16.3916779
		c6.84021,0.0000458,12.6839294-2.9931793,16.6774597-7.125824l8.9797058,11.830246
		c-5.1329803,5.986496-14.8236389,10.6906433-26.3717651,10.6905518
		C115.7833252,155.0847473,100.388443,138.8323212,100.3886642,119.0188751z M118.4913101,112.3217163l32.9297562,0.0002594
		c-1.9966431-9.6942444-8.1260376-14.684288-16.2522278-14.6843491
		C126.4747772,97.637558,120.4881439,103.6277084,118.4913101,112.3217163z M243.2578888,84.8117447l-24.661438,68.2770615
		l-22.5210419-0.0001678l-24.8028107-68.2774506l19.1027832,0.0001526l17.3875427,52.739502l17.6781616-52.7392349
		L243.2578888,84.8117447z M298.1824341,145.6777039c-4.9900818,5.8436127-11.9732361,9.4083557-20.8101807,9.4082947
		c-18.1025696-0.0001373-32.7867126-14.8273621-32.7864685-36.0660019
		c0.0002289-20.6670914,13.8273621-36.2048569,32.787262-36.2047119c8.9798279,0.0000687,15.9628906,3.2791595,20.809967,8.8370743
		l0.0000916-6.8401794l17.5310364,0.0001297l-0.0007629,68.2772598l-17.5310364-0.0001373L298.1824341,145.6777039z
		 M298.1827393,118.8775253c0.0001221-10.9728622-7.5544434-19.6706161-17.9594727-19.6707001
		c-10.5479431-0.0000763-18.245575,8.6975555-18.2456665,19.6704254
		c-0.0001221,10.9765244,7.6972961,19.8134995,18.2452087,19.8135757
		C290.6278687,138.690918,298.1826172,129.8540649,298.1827393,118.8775253z M346.8143921,153.089798l-17.3917847-0.0001221
		l0.0007629-68.2772598l17.3917847,0.0001373l-0.000061,6.6972961c4.2756348-5.5578461,10.8337708-8.6939468,19.2420959-8.6938782
		c15.8237,0.0001221,25.9428406,11.1196136,25.9426575,28.9363327l-0.0004578,41.3378448l-17.3881531-0.0001373
		l0.0004272-38.7695694c0.0001221-9.2655716-5.4184875-15.1129227-13.8268127-15.1129913
		c-8.6977234-0.0000687-13.9699097,5.8472061-13.9700317,15.1127777L346.8143921,153.089798z M437.9880066,99.2080612
		c-11.4015808-0.0000839-19.0992126,8.6975479-19.0993347,19.6704178
		c-0.0001221,10.976532,7.84021,19.8135071,18.9560242,19.8135834c6.9867554,0.000061,12.5446777-2.4216156,16.8203125-6.6971588
		l8.8368225,12.8267822c-5.4151001,5.9901581-15.2486267,10.2656555-26.0823364,10.265564
		c-20.2421875-0.0001526-35.9228516-16.2525787-35.9226074-36.0660248
		c0.0002136-19.9526672,15.6812134-36.2048416,35.6376343-36.204689
		c11.6873474,0.0000916,20.9529419,3.9936218,26.9394226,10.2623138l-9.976532,12.4016418
		C449.8182068,101.3477707,444.6889954,99.2081146,437.9880066,99.2080612z M468.2136841,119.0217438
		c0.0002136-19.9526672,14.8239136-36.2048569,34.49823-36.2047043
		c19.527771,0.0001526,34.3511353,15.1094818,34.3508911,34.7800446c0,2.1396179-0.1429443,4.5613403-0.4287109,5.704422
		l-50.5999756-0.0003891c1.7071838,9.5476837,8.9796448,16.3915863,19.5275879,16.3916779
		c6.84021,0.0000458,12.6838989-2.9931793,16.6774292-7.125824l8.9797363,11.830246
		c-5.1329956,5.986496-14.8236694,10.6906433-26.3717957,10.6905518
		C483.6083679,155.0876007,468.2134705,138.8351898,468.2136841,119.0217438z M486.3163452,112.324585l32.9297485,0.0002594
		c-1.9966431-9.6942444-8.1260376-14.684288-16.2522278-14.6843567
		C494.2998047,97.6404266,488.3131714,103.6305771,486.3163452,112.324585z M303.6981201,207.6096649l-25.1972656-0.0005341
		l-0.0006104,25.670578l-11.9278259-0.0002441l0.0014648-61.1693726l11.9277954,0.0002594l-0.0005798,24.3338165
		l25.1972961,0.0005341l0.0005798-24.3338318l12.0259094,0.0002594l-0.0014343,61.1693573l-12.0259399-0.0002441
		L303.6981201,207.6096649z M323.3032227,210.4724426c0.0003052-13.3577271,9.924469-24.2379608,23.0958252-24.2376862
		c13.0732422,0.0002747,22.9969177,10.1156616,22.9966125,23.2845306c-0.000061,1.4324036-0.0957336,3.0536804-0.2870789,3.8189392
		l-33.8751831-0.0007172c1.1428528,6.391922,6.0114746,10.9737701,13.072998,10.9739227
		c4.5793152,0.0000916,8.4915466-2.0037231,11.1651001-4.7703857l6.0115662,7.9200897
		c-3.4364319,4.0077362-9.9240723,7.1569366-17.6552124,7.1567841
		C333.6091614,234.6176147,323.302887,223.736969,323.3032227,210.4724426z M335.4224548,205.9890442l22.0454712,0.000473
		c-1.3366089-6.490036-5.4400024-9.83078-10.880249-9.8308868
		C340.7672424,196.1585083,336.7593384,200.1686859,335.4224548,205.9890442z M411.168335,228.3205566
		c-3.3407593,3.9120789-8.0158081,6.2985229-13.9318848,6.2984009c-12.1191101-0.0002594-21.949585-9.9267731-21.9492493-24.1454315
		c0.0003357-13.8360138,9.2573242-24.2379761,21.9504089-24.2377014c6.0117188,0.0001221,10.6866455,2.1954346,13.9315796,5.9163513
		l0.0000916-4.5793152l11.7365112,0.0002441l-0.0010986,45.7096252l-11.7364807-0.0002441L411.168335,228.3205566z
		 M411.1687622,210.3786316c0.0001526-7.3460236-5.057312-13.1689758-12.0231628-13.1691284
		c-7.0615234-0.0001373-12.2149353,5.8226013-12.2150879,13.1686096
		c-0.0001831,7.3484802,5.1529541,13.2646332,12.214447,13.2647858
		C406.1108398,223.6430359,411.1685791,217.7270966,411.1687622,210.3786316z M432.7990417,167.6274719l11.64328,0.0002441
		l-0.0014038,59.1391144l-0.0001526,6.5163574l-11.64328-0.0002441L432.7990417,167.6274719z M452.2392578,187.5737305
		l8.1112976,0.0001678l0.0002747-11.8321228l11.64328,0.0002441l-0.0002747,11.8321228l12.403656,0.0002594l-0.0002441,10.306488
		l-12.3104553-0.0002594l-0.0004578,19.3719025c-0.0000916,4.2947845,1.8149109,6.391922,5.2487793,6.3919983
		c2.0995789,0.0000458,4.1991577-0.9540405,5.344635-2.2883148l5.2487183,8.6828766
		c-2.5779114,2.4821472-6.8703003,4.5816193-12.5018616,4.5814972c-9.2567444-0.0001984-15.172699-5.8231659-15.1724243-16.9881287
		l0.0004578-19.7520752l-8.015625-0.0001678L452.2392578,187.5737305z M506.7632751,233.2844849l-11.6433105-0.0002441
		l0.0015564-65.6554565l11.6433105,0.0002441l-0.0005798,24.4294739c2.8624573-3.7207642,7.2529602-5.8202362,12.8820496-5.8201294
		c10.5935059,0.0002289,17.3678589,7.4444885,17.3676147,19.3722687l-0.0006714,27.6744843l-11.6408081-0.0002441
		l0.0006104-25.9551086c0.0001221-6.2030182-3.6274414-10.1177063-9.2565308-10.1178284
		c-5.822876-0.0001221-9.352478,3.9144135-9.3526306,10.1174469L506.7632751,233.2844849z M541.6651611,146.8953857
		c-0.3647461-0.515625-1.1323242-0.9580078-2.0009766-0.9580078c-0.9697266,0-1.5732422,0.4277344-1.5732422,1.0839844
		c0,1.7753906,4.5058594,0.9697266,4.5058594,3.8378906c0,1.4238281-1.1572266,2.3818359-2.9575195,2.3818359
		c-1.5117188,0-2.4931641-0.5917969-3.046875-1.3740234l0.8188477-0.7675781
		c0.5405273,0.7060547,1.3212891,1.0693359,2.2397461,1.0693359c1.1074219,0,1.7373047-0.4775391,1.7373047-1.2333984
		c0-1.9628906-4.5058594-1.0957031-4.5058594-3.8759766c0-1.2978516,1.1455078-2.1914062,2.8198242-2.1914062
		c1.2583008,0,2.277832,0.5537109,2.7685547,1.2480469L541.6651611,146.8953857z M544.994751,146.8309326v6.2578125h-1.1323242
		v-8.0683594h1.3095703l2.9077148,4.6201172l2.8945312-4.6201172h1.1586914v8.0683594h-1.1323242v-6.2578125l-2.9970703,4.6728516
		L544.994751,146.8309326z"/>
</g>
</svg>
