<?xml version="1.0" encoding="UTF-8" standalone="no"?>
<svg
   xmlns:dc="http://purl.org/dc/elements/1.1/"
   xmlns:cc="http://creativecommons.org/ns#"
   xmlns:rdf="http://www.w3.org/1999/02/22-rdf-syntax-ns#"
   xmlns:svg="http://www.w3.org/2000/svg"
   xmlns="http://www.w3.org/2000/svg"
   id="svg834"
   height="1000"
   width="2394.3276"
   version="1.1">
  <metadata
     id="metadata840">
    <rdf:RDF>
      <cc:Work
         rdf:about="">
        <dc:format>image/svg+xml</dc:format>
        <dc:type
           rdf:resource="http://purl.org/dc/dcmitype/StillImage" />
        <dc:title></dc:title>
      </cc:Work>
    </rdf:RDF>
  </metadata>
  <defs
     id="defs838" />
  <g
     id="g851">
    <path
       d="m 2366.11,364.86227 c 0,-29.4654 -23.3228,-52.83616 -52.8362,-52.83616 h -610.5672 c -111.815,0 -201.4589,85.99673 -201.4589,197.81169 0,111.81495 90.8917,196.56397 201.4589,196.56397 h 490.1622 c 47.8933,0 85.9967,44.24608 85.9967,90.89164 0,47.89327 -39.3032,90.89164 -85.9967,90.89164 h -610.5672 c -29.4654,0 -52.8362,23.32277 -52.8362,52.83616 0,29.51339 23.3228,52.83617 52.8362,52.83617 h 610.5672 c 111.815,0 201.4589,-85.99674 201.4589,-196.56397 0,-111.81496 -90.8917,-196.56397 -201.4589,-196.56397 h -490.1622 c -47.8933,0 -85.9967,-44.24609 -85.9967,-90.89164 0,-47.89328 39.3032,-90.89164 85.9967,-90.89164 h 610.5672 c 29.4654,0 52.8362,-24.5705 52.8362,-54.0359 z"
       id="path816"
       style="stroke-width:47.98925018;fill:#4bcd3e;fill-opacity:1;stroke:none;stroke-opacity:1" />
    <path
       d="M 1289.9031,77.40666 C 1289.9031,34.40829 1255.4948,0 1212.4964,0 c -42.9984,0 -77.4067,34.40829 -77.4067,77.40666 0,42.99837 34.4083,77.40666 77.4067,77.40666 42.9984,-1.24772 77.4067,-35.60802 77.4067,-77.40666 z"
       id="path818"
       style="stroke-width:47.98925018;fill:#4bcd3e;fill-opacity:1;stroke:none;stroke-opacity:1" />
    <path
       d="M 1044.1981,77.40666 C 1044.1981,34.40829 1009.7898,0 966.79144,0 c -42.99837,0 -77.40666,34.40829 -77.40666,77.40666 0,42.99837 34.40829,77.40666 77.40666,77.40666 42.99836,-1.24772 77.40666,-35.60802 77.40666,-77.40666 z"
       id="path820"
       style="stroke-width:47.98925018;fill:#4bcd3e;fill-opacity:0.80000001;stroke:none;stroke-opacity:1" />
    <path
       d="M 798.49314,77.40666 C 798.49314,34.40829 764.08484,0 721.08648,0 c -42.99837,0 -77.40666,34.40829 -77.40666,77.40666 0,42.99837 34.40829,77.40666 77.40666,77.40666 42.99836,-1.24772 77.40666,-35.60802 77.40666,-77.40666 z"
       id="path822"
       style="stroke-width:47.98925018;fill:#4bcd3e;fill-opacity:0.60000002;stroke:none;stroke-opacity:1" />
    <path
       d="M 554.0359,77.40666 C 554.0359,34.40829 519.6276,0 476.62924,0 c -42.99837,0 -77.40667,34.40829 -77.40667,77.40666 0,42.99837 34.4083,77.40666 77.40667,77.40666 42.99836,-1.24772 77.40666,-35.60802 77.40666,-77.40666 z"
       id="path824"
       style="stroke-width:47.98925018;fill:#4bcd3e;fill-opacity:0.40000001;stroke:none;stroke-opacity:1" />
    <path
       d="M 308.33093,77.40666 C 308.33093,34.40829 273.92264,0 230.92427,0 187.9259,0 153.51761,34.40829 153.51761,77.40666 c 0,42.99837 34.40829,77.40666 77.40666,77.40666 42.99837,-1.24772 77.40666,-35.60802 77.40666,-77.40666 z"
       id="path826"
       style="stroke-width:47.98925018;fill:#4bcd3e;fill-opacity:0.2;stroke:none;stroke-opacity:1" />
    <path
       d="m 871.00489,312.02611 c -1.24772,0 -3.69517,0 -4.8949,0 v 0 H 346.4344 C 140.03263,312.02611 0,447.16384 0,653.5656 V 942.26893 C 0,974.22977 25.818217,1000 57.731068,1000 89.64392,1000 115.46214,974.18178 115.46214,942.26893 V 653.5656 c 0,-142.52807 85.99673,-235.86716 230.97226,-235.86716 h 519.67559 c 1.24772,0 3.69517,0 4.8949,0 29.4654,0 52.83617,-23.32278 52.83617,-52.83617 0,-28.26567 -23.32278,-52.83616 -52.83617,-52.83616 z"
       id="path828"
       style="stroke-width:47.98925018;fill:#4bcd3e;fill-opacity:1;stroke:none;stroke-opacity:1" />
    <path
       d="m 174.39294,653.5656 c 0,29.4654 23.32277,52.83617 52.83616,52.83617 h 529.51339 c 29.4654,0 52.83616,-23.32278 52.83616,-52.83617 0,-29.51339 -23.32277,-52.83616 -52.83616,-52.83616 H 227.2291 c -29.4654,0 -52.83616,24.57049 -52.83616,52.83616 z"
       id="path830"
       style="stroke-width:47.98925018;fill:#4bcd3e;fill-opacity:1;stroke:none;stroke-opacity:1" />
    <path
       d="m 1154.7653,364.86227 v 577.40666 c 0,31.96084 25.8182,57.73107 57.7311,57.73107 31.9129,0 57.7311,-25.81822 57.7311,-57.73107 V 364.86227 c 0,-31.96084 -25.8182,-57.73107 -57.7311,-57.73107 -31.9608,1.24772 -57.7311,27.01795 -57.7311,57.73107 z"
       id="path832"
       style="stroke-width:47.98925018;fill:#4bcd3e;fill-opacity:1;stroke:none;stroke-opacity:1" />
  </g>
</svg>
