<svg xmlns="http://www.w3.org/2000/svg" viewBox="0 0 807.71 126.67"><defs><style>.cls-1{fill:#4284f3;}.cls-2{fill:#5f6368;}.cls-3{fill:#fabb05;}.cls-4{fill:#e94335;}.cls-5{fill:#34a753;}</style></defs><g id="Layer_1" data-name="Layer 1"><path class="cls-1" d="M181,346.86a56,56,0,0,1,17,25.84,8.25,8.25,0,0,0,3,4.25c19.08,14.65,21.68,43.39,5.57,61.21a41.47,41.47,0,0,1-32.18,14.28q-16-.06-32-.07a3,3,0,0,1-.57-2.07q0-11,0-21.95a4.44,4.44,0,0,1,.24-1.57c.72-1.25,2-.93,3-.94,9.79,0,19.58,0,29.36,0a15.61,15.61,0,0,0,4.13-30.73c-4-1.1-4.06-1-4.33-5.17-.56-8.63-3.57-16.17-9.93-22.22a6.58,6.58,0,0,1-1.63-2c-.28-.93.32-1.51.88-2.07q7.94-8,15.93-15.94C179.91,347.27,180.31,346.79,181,346.86Z" transform="translate(-67.51 -332.05)"/><path class="cls-2" d="M323.42,388.34c5.8,0,11.6.05,17.4,0,1.44,0,2.09.31,2.27,1.86,2.61,23.43-10.5,39.08-29.52,43.23A43.39,43.39,0,0,1,266.62,413c-9.31-15.51-6.68-36.54,5.93-49.49,9.63-9.89,21.21-14.4,34.92-13.44a40.09,40.09,0,0,1,24.46,10.57c.91.81.75,1.25,0,2-2.07,2-4.13,4-6.07,6.08-.92,1-1.47.79-2.39,0a30.12,30.12,0,0,0-48.37,14.1c-5.43,17.46,5.25,35.95,22.91,39.31,9.74,1.84,18.65-.18,26.23-6.93,4.13-3.69,6-8.5,7-13.79.26-1.37-.35-1.51-1.49-1.5-7.93,0-15.86,0-23.79.05-1.66,0-2.21-.41-2.12-2.1.14-2.65.1-5.33,0-8,0-1.25.4-1.57,1.61-1.56C311.42,388.37,317.42,388.34,323.42,388.34Z" transform="translate(-67.51 -332.05)"/><path class="cls-3" d="M84.34,443.92c-11.72-9.07-17.41-21.06-16.79-35.82.55-13.21,6.49-23.75,16.88-31.83A5.82,5.82,0,0,0,86,374.78c3-2.69,6.67-4.1,10.38-5.35a42.76,42.76,0,0,1,22-1.3A44.12,44.12,0,0,1,141,380.83c3.47,3.66,3.52,3.62-.07,7.2-4.75,4.75-9.5,9.52-14.26,14.25-1.93,1.92-2.17,1.87-3.67-.44-5.25-8.07-15.5-9.73-23.16-3.75-7,5.47-7.65,16.15-1.43,22.92a18.66,18.66,0,0,0,3.14,2.45c.64.44,1.46.7,1.81,1.5,0,.83-.68,1.26-1.18,1.76q-8,8-16,16C85.62,443.27,85.17,443.9,84.34,443.92Z" transform="translate(-67.51 -332.05)"/><path class="cls-4" d="M118.47,368.73a42.67,42.67,0,0,0-30.93,5.36c-.49.3-.9.82-1.59.69a57.21,57.21,0,0,1,27-34.75,58.31,58.31,0,0,1,66.82,5.59c.46.38.86.83,1.29,1.24L164.47,363.5c-.6.61-1.18,1.25-1.77,1.87-.83.23-1.41-.28-2-.7a32.09,32.09,0,0,0-40.28,2.72A6.39,6.39,0,0,1,118.47,368.73Z" transform="translate(-67.51 -332.05)"/><path class="cls-2" d="M618.72,395.74c0-18.62,11.62-33.69,29.44-37.44,13.16-2.77,25.13-.25,34.85,9.81,1,1,1,1.59-.06,2.5-1.55,1.35-3,2.81-4.46,4.28-.69.71-1.1.86-1.88,0-8.35-9-18.67-10.46-29.65-6.65C636.15,372,630,380.15,628.75,391.59c-1.33,11.78,1.94,21.8,12,28.78,11.58,8,27.49,6.05,37.5-4.5,1.13-1.2,1.73-1.16,2.75,0a34.27,34.27,0,0,0,4,3.94c1.3,1.08,1,1.84,0,2.86a36.67,36.67,0,0,1-21.77,11.21c-10.47,1.49-20.34-.25-29-6.67C623.71,419.4,618.67,408.79,618.72,395.74Z" transform="translate(-67.51 -332.05)"/><path class="cls-5" d="M84.34,443.92,103.19,425a2.14,2.14,0,0,1,1.75-.08c2.91.91,5.9.84,8.9.83q12.66,0,25.34,0c1.1,0,2.29-.26,3.19.7v25.91c-12,0-24,.28-36-.09A37.43,37.43,0,0,1,84.34,443.92Z" transform="translate(-67.51 -332.05)"/><path class="cls-2" d="M807.24,425.63c-4.46,5.81-9.84,8.79-16.62,8.72-11.48-.12-18.62-7.54-18.78-19.56-.14-10.26,0-20.52-.06-30.78,0-1.39.39-1.88,1.8-1.8a48.63,48.63,0,0,0,5.79,0c1.51-.1,1.91.38,1.9,1.88q-.1,13.49,0,27a27.9,27.9,0,0,0,.47,5.16c.87,4.55,3.29,7.83,8,8.92,5.38,1.25,10.07.15,13.56-4.41a16.5,16.5,0,0,0,3.55-10.37c0-8.73,0-17.45-.05-26.18,0-1.6.47-2.08,2-2a41.44,41.44,0,0,0,5.79,0c1.57-.11,1.86.51,1.84,1.94-.06,7.59,0,15.18,0,22.78,0,7.92,0,15.85,0,23.78,0,1.69-.48,2.18-2.12,2.05a37.3,37.3,0,0,0-5.39,0c-1.47.1-1.83-.48-1.75-1.83C807.32,429.35,807.24,427.77,807.24,425.63Z" transform="translate(-67.51 -332.05)"/><path class="cls-2" d="M526.46,392.71c0-12.65,0-25.3,0-37.95,0-1.58.4-2.05,2-2,2.86.13,5.72.09,8.59,0,1.19,0,1.63.3,1.59,1.55-.08,2.86,0,5.73,0,8.59,0,22.51,0,45,0,67.51,0,1.81-.42,2.44-2.3,2.32a73.43,73.43,0,0,0-8,0c-1.51.07-1.89-.41-1.88-1.9C526.49,418.14,526.46,405.43,526.46,392.71Z" transform="translate(-67.51 -332.05)"/><path class="cls-2" d="M704.15,396c0,11.59,0,23.18,0,34.77,0,1.58-.43,2.1-2,2-2.06-.13-4.13-.07-6.2,0-1.05,0-1.4-.36-1.38-1.39,0-2.4,0-4.8,0-7.19,0-20.92,0-41.83,0-62.74,0-1.94.48-2.61,2.42-2.41a30,30,0,0,0,5.19,0c1.6-.13,2,.44,2,2C704.12,372.68,704.15,384.34,704.15,396Z" transform="translate(-67.51 -332.05)"/><path class="cls-2" d="M518.42,383c0-1.19-.42-1.44-1.5-1.4-1.93.07-3.86,0-5.79,0-3.91,0-3.91,0-4.12,3.78,0,.12-.09.23-.25.62a17.76,17.76,0,0,0-8.52-5.22c-9-2.27-16.77.21-23.5,6.49-14.6,13.63-9.59,38.84,9.19,45.57,7,2.49,13.87,2.38,20.17-2.15.94-.68,1.74-1.54,2.93-2.61,0,1.74.05,3.05,0,4.36-.21,4.93-1.2,9.56-5.44,12.73-7.19,5.38-17.39,2.92-21.83-5.31-.76-1.42-1.37-1.54-2.7-.92a63.59,63.59,0,0,1-7,2.91c-1.67.56-1.56,1.3-.86,2.54,4.76,8.35,11.55,13.73,21.42,14.26,8.83.48,16.64-1.93,22.38-9.09,3.92-4.9,5.28-10.76,5.33-16.83C518.49,416.16,518.38,399.57,518.42,383Zm-20.33,39.76c-8.95,3.23-18.77-3.4-19.67-13.3-.39-4.36.26-8.49,2.84-12.17a14.41,14.41,0,0,1,15.51-6.11c5.55,1.36,10.09,6.82,10.82,13,.12,1,.15,2,.22,3C507.78,414.48,504,420.64,498.09,422.75Z" transform="translate(-67.51 -332.05)"/><path class="cls-2" d="M875.17,408.22c0-15.66,0-31.31.05-47,0-1.9-.57-2.39-2.34-2.24a31,31,0,0,1-5.19,0c-1.69-.14-2.13.46-2.09,2.12.18,9.25-.27,18.51.46,28.24-8-10.85-22.49-10.51-30.47-4.71-15.13,11-14.85,35.54.66,46a22.24,22.24,0,0,0,26.41-1.35,40,40,0,0,0,3.37-3.76c0,2.18.08,3.91,0,5.62-.08,1.27.4,1.62,1.6,1.56,1.93-.08,3.87-.1,5.79,0,1.39.08,1.81-.33,1.8-1.75C875.13,423.4,875.17,415.81,875.17,408.22ZM861.5,420.51c-4.36,4.64-9.75,6.27-15.83,4.4-6.46-2-10.06-6.74-11.24-13.28a20.53,20.53,0,0,1,2.21-14.49,15.43,15.43,0,0,1,16.5-7.53c6,1,11.14,6.39,12.42,12.88a23.24,23.24,0,0,1,.48,4.56C866,412.46,864.87,416.91,861.5,420.51Z" transform="translate(-67.51 -332.05)"/><path class="cls-2" d="M374.71,380c-15.47,0-27,11.6-27.34,26.81a27,27,0,0,0,27.38,27.62c15.48-.09,27.22-11.77,27.26-27.15S390.26,380,374.71,380Zm15.13,29.33c-1,7.09-5.81,12.66-11.91,13.91a15.33,15.33,0,0,1-18.36-13.75c-.08-.86-.11-1.72-.13-2.06.12-12.27,11-19.85,21.27-15.39C387,394.72,390.9,402.08,389.84,409.28Z" transform="translate(-67.51 -332.05)"/><path class="cls-2" d="M434.15,380c-15.54,0-27.34,11.7-27.34,27.22s11.88,27.25,27.38,27.21,27.18-11.75,27.18-27.15C461.38,391.61,449.79,380,434.15,380ZM444.72,419a14.63,14.63,0,0,1-21.1.1c-6.32-6.29-6.48-17.52-.2-23.86a14.16,14.16,0,0,1,15.41-3.72c6,2,9.36,6.52,10.36,12.76a20,20,0,0,1,.17,2.12C449.44,411.56,448,415.66,444.72,419Z" transform="translate(-67.51 -332.05)"/><path class="cls-2" d="M592.17,395c-4.6-9.24-11.65-14.88-22.37-15a24.14,24.14,0,0,0-12.43,3.2c-11.2,6.58-15,18.45-12.38,30.73,2.42,11.46,12.29,19.61,24.13,20.43,9.8.68,17.63-3,23.8-10.58,1-1.22.79-1.8-.47-2.54-1.72-1-3.34-2.18-5-3.28-2.69-1.79-2.69-1.79-4.81.55-6.66,7.35-18.2,6.7-23.47-1.29-.81-1.23-1-1.83.7-2.51,9.86-4,19.68-8.08,29.5-12.19,1.68-.7,4.33-.89,4.72-2.42S593,396.62,592.17,395Zm-13,1.73q-10.87,4.47-21.74,9c-2,.83-.88-.93-1.22-1.35.51-9.26,9.88-15.94,18.25-13.1a9.63,9.63,0,0,1,5.2,3.82C580.21,395.86,580.13,396.3,579.19,396.69Z" transform="translate(-67.51 -332.05)"/><path class="cls-2" d="M738.12,380.64c-7.33,0-13.15,2.24-17.79,6.77-7.58,7.4-9.41,16.52-7.46,26.46,1.81,9.21,7.23,15.91,16.22,18.94,9.28,3.12,18.21,2.07,25.9-4.45,6.71-5.69,9.15-13.21,9.1-21.89C764,392.88,753.46,380.15,738.12,380.64Zm4.15,44.44A16.42,16.42,0,0,1,722,411c-.71-5.93-.07-11.62,4.21-16.25,4.69-5.06,10.5-6.83,17-4.55s10.17,7.39,11.11,14.3c.13,1,.13,2,.18,2.74C754.51,416.21,749.7,423.11,742.27,425.08Z" transform="translate(-67.51 -332.05)"/></g></svg>