<?xml version="1.0" encoding="UTF-8"?>
<!-- Generator: Adobe Illustrator 28.1.0, SVG Export Plug-In . SVG Version: 6.00 Build 0)  -->
<svg version="1.1" id="Layer_1" xmlns="http://www.w3.org/2000/svg" xmlns:xlink="http://www.w3.org/1999/xlink" x="0px" y="0px" viewBox="0 0 417.75 200" style="enable-background:new 0 0 417.75 200;" xml:space="preserve">
<style type="text/css">
	.st0{fill:#003B4D;}
</style>
<g>
	<path class="st0" d="M20.28,20v160h160V20H20.28z M67.04,114.54v42.71H46.09l0-114.51h20.95v41.96h13.27l0,29.83H67.04z    M88.4,157.25l0-114.51h23.76l0,114.51H88.4z M154.47,157.25h-20.95v-42.71h-13.27l0-29.83h13.27V42.75h20.95L154.47,157.25z"/>
	<g>
		<polygon class="st0" points="289.3,91.14 244.32,91.14 244.32,52.3 228.64,52.3 228.64,147.7 244.32,147.7 244.32,105.45     289.3,105.45 289.3,147.7 304.97,147.7 304.97,52.3 289.3,52.3   "/>
		<rect x="325.69" y="52.3" class="st0" width="15.67" height="95.41"/>
		<rect x="362.08" y="52.3" class="st0" width="15.67" height="95.41"/>
	</g>
</g>
</svg>