<?xml version="1.0" encoding="utf-8"?>
<!-- Generator: Adobe Illustrator 26.3.1, SVG Export Plug-In . SVG Version: 6.00 Build 0)  -->
<svg version="1.1" id="Layer_1" xmlns="http://www.w3.org/2000/svg" xmlns:xlink="http://www.w3.org/1999/xlink" x="0px" y="0px"
	 viewBox="0 0 349.97 81.21" style="enable-background:new 0 0 349.97 81.21;" xml:space="preserve">
<style type="text/css">
	.st0{fill:#0084D5;}
</style>
<g>
	<path d="M34.35,24.43h2.46c3.07,0,5.56,2.49,5.56,5.56v26.16h-8.01V24.43z"/>
	<path d="M69.18,38.62c0-5.09-2.81-7.84-7.04-7.84c-4.35,0-7.16,2.75-7.16,7.84v17.52h-8.01V24.43h4.06c2.18,0,3.95,1.77,3.95,3.95
		c2.06-2.69,5.5-4.41,9.56-4.41c7.38,0,12.65,4.81,12.65,13.57v18.61h-8.01V38.62z"/>
	<path d="M96.52,56.66c-9.22,0-15.91-6.41-15.91-16.37c0-10.02,6.53-16.37,15.91-16.37c9.16,0,15.63,6.24,15.63,15.69
		c0,1.03-0.06,2.06-0.23,3.09H88.73c0.4,4.69,3.61,7.33,7.61,7.33c3.43,0,5.32-1.72,6.35-3.84h8.64
		C109.63,52.02,104.36,56.66,96.52,56.66 M88.79,37.31h15.06c-0.11-4.18-3.43-6.81-7.56-6.81C92.45,30.49,89.42,32.96,88.79,37.31"
		/>
	<path d="M117.66,31.01h-3.78v-6.58h3.78v-7.84h8.07v7.84h10.02v6.58h-10.02v15.34c0,2.12,0.86,3.03,3.38,3.03h3.72v6.76h-5.04
		c-6.07,0-10.13-2.58-10.13-9.85V31.01z"/>
	<path d="M139.19,24.43h2.5c3.04,0,5.51,2.47,5.51,5.51v26.2h-8.01V24.43z"/>
	<path d="M166.44,23.91c7.9,0,13.22,4.12,14.94,11.22h-8.64c-0.92-2.69-3.03-4.41-6.35-4.41c-4.47,0-7.44,3.38-7.44,9.56
		c0,6.18,2.98,9.5,7.44,9.5c3.32,0,5.38-1.49,6.35-4.35h8.64c-1.72,6.76-7.04,11.22-14.94,11.22c-9.16,0-15.69-6.41-15.69-16.37
		C150.76,30.32,157.28,23.91,166.44,23.91"/>
	<path d="M228.54,24.43h2.75c2.91,0,5.27,2.36,5.27,5.27v26.45h-8.01V24.43z"/>
	<path d="M253.3,56.66c-7.96,0-13.51-4.64-13.85-10.53h8.07c0.29,2.4,2.52,4.24,5.72,4.24c3.15,0,4.87-1.43,4.87-3.26
		c0-5.67-17.92-2.06-17.92-13.68c0-5.27,4.69-9.5,12.54-9.5c7.67,0,12.31,4.18,12.77,10.48h-7.67c-0.23-2.46-2.17-4.12-5.32-4.12
		c-2.98,0-4.52,1.2-4.52,3.03c0,5.78,17.57,2.18,17.8,13.8C265.78,52.53,261.02,56.66,253.3,56.66"/>
	<path d="M269.57,24.43h2.5c3.05,0,5.52,2.47,5.52,5.52v26.2h-8.01V24.43z"/>
	<path d="M297.42,56.66c-9.16,0-16.09-6.41-16.09-16.37c0-10.02,7.16-16.37,16.31-16.37c9.16,0,16.32,6.35,16.32,16.37
		C313.96,50.24,306.63,56.66,297.42,56.66 M297.42,49.67c4.24,0,8.3-3.09,8.3-9.39c0-6.35-3.95-9.39-8.19-9.39s-8.07,3.03-8.07,9.39
		C289.46,46.58,293.12,49.67,297.42,49.67"/>
	<path d="M339.42,38.62c0-5.09-2.81-7.84-7.04-7.84c-4.35,0-7.16,2.75-7.16,7.84v17.52h-8.01V24.43h4.06c2.18,0,3.95,1.77,3.95,3.95
		c2.06-2.69,5.5-4.41,9.56-4.41c7.38,0,12.65,4.81,12.65,13.57v18.61h-8.01V38.62z"/>
	<path d="M33.49,14.39c0-2.63,2.06-4.69,4.92-4.69c2.81,0,4.92,2.06,4.92,4.69c0,2.63-2.12,4.69-4.92,4.69
		C35.55,19.09,33.49,17.03,33.49,14.39"/>
	<path d="M227.68,14.39c0-2.63,2.06-4.69,4.92-4.69c2.81,0,4.92,2.06,4.92,4.69c0,2.63-2.12,4.69-4.92,4.69
		C229.74,19.09,227.68,17.03,227.68,14.39"/>
	<path d="M268.71,14.39c0-2.63,2.06-4.69,4.92-4.69c2.81,0,4.92,2.06,4.92,4.69c0,2.63-2.12,4.69-4.92,4.69
		C270.77,19.09,268.71,17.03,268.71,14.39"/>
	<polygon points="202.19,24.2 209.77,38.94 217.05,24.2 226.16,24.2 209.75,55.91 209.77,55.91 193.02,24.2 	"/>
	<polygon points="17.69,40.34 31.66,24.43 21.24,24.43 10.59,37.88 10.59,13.78 2.58,13.78 2.58,56.14 10.59,56.14 10.59,42.63 
		21.35,56.14 23.63,56.14 31.77,56.14 	"/>
</g>
<g>
	<path d="M9.9,75.3H5.13l-0.9,2.13H2.56l4.17-9.45h1.63l4.13,9.45h-1.7L9.9,75.3z M9.29,73.88l-1.78-4.2l-1.78,4.2H9.29z"/>
	<path d="M16.74,71.56c-1.24,0-2.13,0.93-2.13,2.29c0,1.36,0.89,2.3,2.13,2.3c0.9,0,1.63-0.3,2.12-0.86l0.86,0.86
		c-0.65,0.85-1.69,1.34-3.05,1.34c-2.13,0-3.62-1.47-3.62-3.63c0-2.17,1.49-3.66,3.62-3.66c1.3,0,2.31,0.42,2.97,1.17l-0.85,1
		C18.29,71.85,17.6,71.54,16.74,71.56z"/>
	<path d="M24.42,71.56c-1.24,0-2.13,0.93-2.13,2.29c0,1.36,0.89,2.3,2.13,2.3c0.9,0,1.63-0.3,2.12-0.86l0.86,0.86
		c-0.65,0.85-1.69,1.34-3.05,1.34c-2.13,0-3.62-1.47-3.62-3.63c0-2.17,1.49-3.66,3.62-3.66c1.3,0,2.31,0.42,2.97,1.17l-0.85,1
		C25.97,71.85,25.28,71.54,24.42,71.56z"/>
	<path d="M35.14,74.43h-5.43c0.24,1.11,1.09,1.8,2.23,1.8c0.78,0,1.5-0.3,2.03-0.84l0.82,0.88c-0.7,0.77-1.73,1.21-2.97,1.21
		c-2.21,0-3.67-1.47-3.67-3.63c0-2.17,1.5-3.65,3.63-3.66C34.3,70.19,35.33,71.84,35.14,74.43z M33.79,73.3
		c-0.05-1.16-0.82-1.86-2-1.86c-1.13,0-1.94,0.72-2.11,1.86H33.79z"/>
	<path d="M38.18,67.41v10.02h-1.55V67.41H38.18z"/>
	<path d="M46.66,74.43h-5.43c0.24,1.11,1.09,1.8,2.23,1.8c0.78,0,1.5-0.3,2.03-0.84l0.82,0.88c-0.7,0.77-1.73,1.21-2.97,1.21
		c-2.21,0-3.67-1.47-3.67-3.63c0-2.17,1.5-3.65,3.63-3.66C45.82,70.19,46.84,71.84,46.66,74.43z M45.3,73.3
		c-0.05-1.16-0.82-1.86-2-1.86c-1.13,0-1.94,0.72-2.11,1.86H45.3z"/>
	<path d="M52.11,70.19v1.49c-1.44-0.08-2.36,0.77-2.48,2v3.75h-1.55v-7.18h1.55v1.43C50.11,70.7,50.97,70.19,52.11,70.19z"/>
	<path d="M57.77,77.43v-0.88c-0.51,0.63-1.34,0.95-2.38,0.95c-1.55,0-2.53-0.96-2.53-2.23c0-1.31,0.99-2.15,2.71-2.16h2.17v-0.22
		c0-0.91-0.58-1.45-1.71-1.45c-0.69,0-1.4,0.24-2.12,0.73l-0.63-1.08c1-0.59,1.73-0.9,3.09-0.9c1.85,0,2.89,0.95,2.9,2.53l0.01,4.71
		H57.77z M57.75,74.9v-0.66h-1.94c-1.01,0-1.49,0.27-1.49,0.96c0,0.65,0.53,1.07,1.39,1.07C56.82,76.27,57.67,75.69,57.75,74.9z"/>
	<path d="M65.23,76.97c-0.57,0.34-1.16,0.53-1.77,0.53c-1.08,0-2.01-0.62-2.01-2.09v-3.73h-1.01v-1.16h1.01v-1.97h1.54v1.97h2.12
		v1.16h-2.12v3.44c0,0.74,0.28,0.97,0.77,0.97c0.32,0,0.66-0.11,1.08-0.31L65.23,76.97z"/>
	<path d="M68.4,68.19c0,0.53-0.39,0.92-0.9,0.92s-0.9-0.39-0.9-0.92c0-0.54,0.39-0.93,0.9-0.93S68.4,67.65,68.4,68.19z M68.27,70.24
		v7.18h-1.54v-7.18H68.27z"/>
	<path d="M77.23,72.96v4.47h-1.55v-4.04c0-1.08-0.65-1.74-1.73-1.74c-1.19,0.01-1.93,0.84-2.04,1.96v3.82h-1.55v-7.18h1.55v1.38
		c0.51-1,1.43-1.43,2.65-1.43C76.23,70.19,77.23,71.24,77.23,72.96z"/>
	<path d="M85.59,70.24v6.48c0,2.07-1.47,3.36-3.73,3.36c-1.12,0-2.11-0.35-2.98-0.95l0.66-1.12c0.68,0.5,1.38,0.78,2.25,0.78
		c1.36,0,2.26-0.8,2.26-2.04v-0.9c-0.49,0.78-1.3,1.21-2.38,1.21c-1.94,0-3.24-1.4-3.24-3.47c0-2.03,1.28-3.4,3.19-3.42
		c1.11-0.01,1.93,0.43,2.43,1.21v-1.16H85.59z M84.05,73.65c0-1.3-0.85-2.2-2.07-2.2c-1.23,0-2.08,0.92-2.09,2.2
		c0.01,1.3,0.85,2.21,2.09,2.21C83.2,75.86,84.05,74.94,84.05,73.65z"/>
	<path d="M94.43,67.98v9.45h-1.59v-9.45H94.43z"/>
	<path d="M103.49,72.96v4.47h-1.55v-4.04c0-1.08-0.65-1.74-1.73-1.74c-1.19,0.01-1.93,0.84-2.04,1.96v3.82h-1.55v-7.18h1.55v1.38
		c0.51-1,1.43-1.43,2.65-1.43C102.49,70.19,103.49,71.24,103.49,72.96z"/>
	<path d="M112.24,72.96v4.47h-1.55v-4.04c0-1.08-0.65-1.74-1.73-1.74c-1.19,0.01-1.93,0.84-2.04,1.96v3.82h-1.55v-7.18h1.55v1.38
		c0.51-1,1.43-1.43,2.65-1.43C111.24,70.19,112.24,71.24,112.24,72.96z"/>
	<path d="M120.66,73.82c0,2.17-1.53,3.66-3.74,3.66c-2.23,0-3.75-1.49-3.75-3.66c0-2.16,1.53-3.63,3.75-3.63
		C119.14,70.19,120.66,71.66,120.66,73.82z M114.72,73.85c0,1.39,0.9,2.34,2.2,2.34c1.28,0,2.19-0.95,2.19-2.34
		c0-1.38-0.9-2.34-2.19-2.34C115.62,71.51,114.72,72.47,114.72,73.85z"/>
	<path d="M122.56,70.24l2,5.66l1.97-5.66h1.55l-2.75,7.18h-1.61l-2.78-7.18H122.56z"/>
	<path d="M133.27,77.43v-0.88c-0.51,0.63-1.34,0.95-2.38,0.95c-1.55,0-2.53-0.96-2.53-2.23c0-1.31,0.99-2.15,2.71-2.16h2.17v-0.22
		c0-0.91-0.58-1.45-1.71-1.45c-0.69,0-1.4,0.24-2.12,0.73l-0.63-1.08c1-0.59,1.73-0.9,3.09-0.9c1.85,0,2.89,0.95,2.9,2.53l0.01,4.71
		H133.27z M133.26,74.9v-0.66h-1.94c-1.01,0-1.49,0.27-1.49,0.96c0,0.65,0.53,1.07,1.39,1.07C132.32,76.27,133.18,75.69,133.26,74.9
		z"/>
	<path d="M140.74,76.97c-0.57,0.34-1.16,0.53-1.77,0.53c-1.08,0-2.01-0.62-2.01-2.09v-3.73h-1.01v-1.16h1.01v-1.97h1.54v1.97h2.12
		v1.16h-2.12v3.44c0,0.74,0.28,0.97,0.77,0.97c0.32,0,0.66-0.11,1.08-0.31L140.74,76.97z"/>
	<path d="M143.91,68.19c0,0.53-0.39,0.92-0.9,0.92s-0.9-0.39-0.9-0.92c0-0.54,0.39-0.93,0.9-0.93S143.91,67.65,143.91,68.19z
		 M143.77,70.24v7.18h-1.54v-7.18H143.77z"/>
	<path d="M152.68,73.82c0,2.17-1.53,3.66-3.74,3.66c-2.23,0-3.75-1.49-3.75-3.66c0-2.16,1.53-3.63,3.75-3.63
		C151.16,70.19,152.68,71.66,152.68,73.82z M146.74,73.85c0,1.39,0.9,2.34,2.2,2.34c1.28,0,2.19-0.95,2.19-2.34
		c0-1.38-0.9-2.34-2.19-2.34C147.65,71.51,146.74,72.47,146.74,73.85z"/>
	<path d="M160.97,72.96v4.47h-1.55v-4.04c0-1.08-0.65-1.74-1.73-1.74c-1.19,0.01-1.93,0.84-2.04,1.96v3.82h-1.55v-7.18h1.55v1.38
		c0.51-1,1.43-1.43,2.65-1.43C159.97,70.19,160.97,71.24,160.97,72.96z"/>
	<path d="M167.42,70.24l1.86,5.64l1.81-5.64h1.61l1.82,5.64l1.84-5.64h1.58l-2.62,7.18h-1.61l-1.82-5.32l-1.82,5.32h-1.59
		l-2.65-7.18H167.42z"/>
	<path d="M180.76,68.19c0,0.53-0.39,0.92-0.9,0.92c-0.51,0-0.91-0.39-0.91-0.92c0-0.54,0.39-0.93,0.91-0.93
		C180.37,67.26,180.76,67.65,180.76,68.19z M180.63,70.24v7.18h-1.54v-7.18H180.63z"/>
	<path d="M186.78,76.97c-0.57,0.34-1.16,0.53-1.77,0.53c-1.08,0-2.01-0.62-2.01-2.09v-3.73h-1.01v-1.16H183v-1.97h1.54v1.97h2.12
		v1.16h-2.12v3.44c0,0.74,0.28,0.97,0.77,0.97c0.32,0,0.66-0.11,1.08-0.31L186.78,76.97z"/>
	<path d="M194.97,72.96v4.47h-1.55v-4.04c0-1.08-0.65-1.74-1.73-1.74c-1.28,0.01-2.05,0.97-2.05,2.24v3.54h-1.55V67.41h1.55v4.24
		c0.51-1.01,1.43-1.46,2.66-1.46C193.97,70.19,194.97,71.24,194.97,72.96z"/>
	<path d="M206.34,75.3h-4.77l-0.9,2.13h-1.66l4.17-9.45h1.63l4.13,9.45h-1.7L206.34,75.3z M205.74,73.88l-1.78-4.2l-1.78,4.2H205.74
		z"/>
	<path d="M216.75,67.41v10.02h-1.55V76.2c-0.51,0.84-1.38,1.3-2.53,1.3c-2.07,0-3.44-1.5-3.44-3.69c0-2.16,1.39-3.63,3.42-3.63
		c1.16,0,2.03,0.47,2.55,1.31v-4.08H216.75z M215.2,73.86c0-1.39-0.9-2.36-2.2-2.36c-1.3,0-2.2,0.99-2.21,2.36
		c0.01,1.36,0.91,2.34,2.21,2.34C214.3,76.2,215.2,75.23,215.2,73.86z"/>
	<path d="M219.4,70.24l2,5.66l1.97-5.66h1.55l-2.75,7.18h-1.61l-2.78-7.18H219.4z"/>
	<path d="M230.37,77.43v-0.88c-0.51,0.63-1.34,0.95-2.38,0.95c-1.55,0-2.53-0.96-2.53-2.23c0-1.31,0.99-2.15,2.71-2.16h2.17v-0.22
		c0-0.91-0.58-1.45-1.71-1.45c-0.69,0-1.41,0.24-2.12,0.73l-0.63-1.08c1-0.59,1.73-0.9,3.09-0.9c1.85,0,2.89,0.95,2.9,2.53
		l0.01,4.71H230.37z M230.36,74.9v-0.66h-1.95c-1.01,0-1.49,0.27-1.49,0.96c0,0.65,0.53,1.07,1.39,1.07
		C229.43,76.27,230.28,75.69,230.36,74.9z"/>
	<path d="M240.65,72.96v4.47h-1.55v-4.04c0-1.08-0.65-1.74-1.73-1.74c-1.19,0.01-1.93,0.84-2.04,1.96v3.82h-1.55v-7.18h1.55v1.38
		c0.51-1,1.43-1.43,2.65-1.43C239.65,70.19,240.65,71.24,240.65,72.96z"/>
	<path d="M245.8,71.56c-1.24,0-2.13,0.93-2.13,2.29c0,1.36,0.89,2.3,2.13,2.3c0.91,0,1.63-0.3,2.12-0.86l0.86,0.86
		c-0.65,0.85-1.69,1.34-3.05,1.34c-2.13,0-3.62-1.47-3.62-3.63c0-2.17,1.49-3.66,3.62-3.66c1.3,0,2.31,0.42,2.97,1.17l-0.85,1
		C247.36,71.85,246.67,71.54,245.8,71.56z"/>
	<path d="M256.79,74.43h-5.43c0.24,1.11,1.09,1.8,2.23,1.8c0.78,0,1.5-0.3,2.03-0.84l0.82,0.88c-0.7,0.77-1.73,1.21-2.97,1.21
		c-2.21,0-3.67-1.47-3.67-3.63c0-2.17,1.5-3.65,3.63-3.66C255.96,70.19,256.98,71.84,256.79,74.43z M255.44,73.3
		c-0.05-1.16-0.82-1.86-2-1.86c-1.13,0-1.95,0.72-2.11,1.86H255.44z"/>
	<path d="M265.6,67.41v10.02h-1.55V76.2c-0.51,0.84-1.38,1.3-2.53,1.3c-2.07,0-3.44-1.5-3.44-3.69c0-2.16,1.39-3.63,3.42-3.63
		c1.16,0,2.03,0.47,2.55,1.31v-4.08H265.6z M264.04,73.86c0-1.39-0.9-2.36-2.2-2.36c-1.3,0-2.2,0.99-2.21,2.36
		c0.01,1.36,0.91,2.34,2.21,2.34C263.14,76.2,264.04,75.23,264.04,73.86z"/>
	<path d="M278.96,67.98v1.43h-3v8.02h-1.59v-8.02h-2.98v-1.43H278.96z"/>
	<path d="M285.26,74.43h-5.43c0.24,1.11,1.09,1.8,2.23,1.8c0.78,0,1.5-0.3,2.03-0.84l0.82,0.88c-0.7,0.77-1.73,1.21-2.97,1.21
		c-2.21,0-3.67-1.47-3.67-3.63c0-2.17,1.5-3.65,3.63-3.66C284.43,70.19,285.45,71.84,285.26,74.43z M283.91,73.3
		c-0.05-1.16-0.82-1.86-2-1.86c-1.13,0-1.95,0.72-2.11,1.86H283.91z"/>
	<path d="M290.23,71.56c-1.24,0-2.13,0.93-2.13,2.29c0,1.36,0.89,2.3,2.13,2.3c0.91,0,1.63-0.3,2.12-0.86l0.86,0.86
		c-0.65,0.85-1.69,1.34-3.05,1.34c-2.13,0-3.62-1.47-3.62-3.63c0-2.17,1.49-3.66,3.62-3.66c1.3,0,2.31,0.42,2.97,1.17l-0.85,1
		C291.78,71.85,291.1,71.54,290.23,71.56z"/>
	<path d="M301.59,72.96v4.47h-1.55v-4.04c0-1.08-0.65-1.74-1.73-1.74c-1.28,0.01-2.05,0.97-2.05,2.24v3.54h-1.55V67.41h1.55v4.24
		c0.51-1.01,1.43-1.46,2.66-1.46C300.59,70.19,301.59,71.24,301.59,72.96z"/>
	<path d="M310.33,72.96v4.47h-1.55v-4.04c0-1.08-0.65-1.74-1.73-1.74c-1.19,0.01-1.93,0.84-2.04,1.96v3.82h-1.55v-7.18h1.55v1.38
		c0.51-1,1.43-1.43,2.65-1.43C309.34,70.19,310.33,71.24,310.33,72.96z"/>
	<path d="M319.3,73.82c0,2.17-1.53,3.66-3.74,3.66c-2.23,0-3.75-1.49-3.75-3.66c0-2.16,1.53-3.63,3.75-3.63
		C317.77,70.19,319.3,71.66,319.3,73.82z M313.36,73.85c0,1.39,0.91,2.34,2.2,2.34c1.28,0,2.19-0.95,2.19-2.34
		c0-1.38-0.9-2.34-2.19-2.34C314.26,71.51,313.36,72.47,313.36,73.85z"/>
	<path d="M322.06,67.41v10.02h-1.55V67.41H322.06z"/>
	<path d="M331.04,73.82c0,2.17-1.53,3.66-3.74,3.66c-2.23,0-3.75-1.49-3.75-3.66c0-2.16,1.53-3.63,3.75-3.63
		C329.52,70.19,331.04,71.66,331.04,73.82z M325.1,73.85c0,1.39,0.91,2.34,2.2,2.34c1.28,0,2.19-0.95,2.19-2.34
		c0-1.38-0.9-2.34-2.19-2.34C326.01,71.51,325.1,72.47,325.1,73.85z"/>
	<path d="M339.21,70.24v6.48c0,2.07-1.47,3.36-3.73,3.36c-1.12,0-2.11-0.35-2.98-0.95l0.66-1.12c0.67,0.5,1.38,0.78,2.25,0.78
		c1.36,0,2.25-0.8,2.25-2.04v-0.9c-0.49,0.78-1.3,1.21-2.38,1.21c-1.95,0-3.24-1.4-3.24-3.47c0-2.03,1.28-3.4,3.19-3.42
		c1.11-0.01,1.93,0.43,2.43,1.21v-1.16H339.21z M337.67,73.65c0-1.3-0.85-2.2-2.07-2.2c-1.23,0-2.08,0.92-2.09,2.2
		c0.01,1.3,0.85,2.21,2.09,2.21C336.82,75.86,337.67,74.94,337.67,73.65z"/>
	<path d="M341.92,80.12c-0.65,0-1.16-0.19-1.66-0.61l0.66-1.2c0.34,0.24,0.61,0.35,0.93,0.35c0.47,0,0.85-0.26,1.09-0.8l0.24-0.54
		l-2.97-7.08h1.61l2.15,5.44l2-5.44h1.55l-3.27,8.17C343.81,79.55,343,80.12,341.92,80.12z"/>
</g>
<path class="st0" d="M138.34,5.88c0-2.63,2.06-4.69,4.92-4.69c2.81,0,4.92,2.06,4.92,4.69c0,2.63-2.12,4.69-4.92,4.69
	C140.4,10.57,138.34,8.51,138.34,5.88"/>
</svg>
