<svg width="216" height="216" viewBox="0 0 216 216" fill="none" xmlns="http://www.w3.org/2000/svg">
<path d="M108.1 213.2C166.145 213.2 213.2 166.145 213.2 108.1C213.2 50.0548 166.145 3 108.1 3C50.0549 3 3 50.0548 3 108.1C3 166.145 50.0549 213.2 108.1 213.2Z" stroke="#C69E60" stroke-width="5" stroke-miterlimit="10"/>
<path d="M90.1997 135.7C95.4997 141.2 102.4 144 109.3 144C116.2 144 123.2 141.2 128.5 135.7C139.1 124.6 139.1 106.7 128.5 95.7L90.1997 135.7Z" stroke="#C69E60" stroke-width="5" stroke-miterlimit="10"/>
<path d="M128.6 95.7L109.4 75.6L51.7998 135.8" stroke="#C69E60" stroke-width="5" stroke-miterlimit="10"/>
<path d="M108.1 173.1C142.452 173.1 170.3 143.998 170.3 108.1C170.3 72.2015 142.452 43.1 108.1 43.1C73.7479 43.1 45.8999 72.2015 45.8999 108.1C45.8999 143.998 73.7479 173.1 108.1 173.1Z" stroke="#C69E60" stroke-width="5" stroke-miterlimit="10"/>
</svg>
