<?xml version="1.0" encoding="UTF-8"?>
<svg viewBox="0 0 298.21 173.7" version="1.1" xml:space="preserve" xmlns="http://www.w3.org/2000/svg" xmlns:xlink="http://www.w3.org/1999/xlink"><defs><linearGradient id="linearGradient5192" x1="243" x2="246" y1="42" y2="44" gradientUnits="userSpaceOnUse"><stop stop-color="#cecece" offset="0"/><stop stop-color="#a5a5a5" offset="1"/></linearGradient><linearGradient id="linearGradient6184" x1="227" x2="224" y1="101" y2="99" gradientUnits="userSpaceOnUse"><stop stop-color="#cecece" offset="0"/><stop stop-color="#a5a5a5" offset="1"/></linearGradient><linearGradient id="linearGradient6192" x1="159" x2="163" y1="90" y2="92" gradientUnits="userSpaceOnUse"><stop stop-color="#cecece" offset="0"/><stop stop-color="#a5a5a5" offset="1"/></linearGradient><linearGradient id="linearGradient6200" x1="86" x2="109" y1="62" y2="77" gradientUnits="userSpaceOnUse"><stop stop-color="#cecece" offset="0"/><stop stop-color="#a5a5a5" offset=".10714"/><stop stop-color="#a5a5a5" offset=".85714"/><stop stop-color="#cecece" offset="1"/></linearGradient></defs><path d="m297.25 42.53c0-22.74-18.5-42.53-41.24-42.53h-182c-28.712 0.10485-48.984 28.169-40.06 55.46-8.0074 1.651-15.372 5.566-21.22 11.28-8.21 8.11-12.73 19.45-12.73 31.93s4.67 24 13.14 32.12c5.66 5.41 15.63 11.86 31 11.86h29.28c7.7203 3e-3 15.295-2.0987 21.91-6.08 2.2673 21.243 20.277 37.302 41.64 37.13 15.558 0.0652 30.588-5.6348 42.19-16 6.4968-5.8291 11.999-12.679 16.29-20.28 5.4534 2.5862 11.414 3.9253 17.45 3.92h44.4c22.581-0.044 40.876-18.339 40.92-40.92z" fill="#491d55" stroke="#442b2b"/><g><path d="m91.682 124.33-37.346 35.614" stroke-width="5.9"/><g stroke-linecap="round"><g><path d="m74 43 45 58" fill="#fff" stroke="url(#linearGradient6200)" stroke-width="17.5"/><path d="m73 101 45-59" fill="none" stroke="#fff" stroke-width="17.5"/><path d="m140 42 26 60" fill="none" stroke="url(#linearGradient6192)" stroke-width="15.5"/><path d="m161 116c-5 8-13.385 15.536-25 17m56-91c-10.578 24.009-23.478 60.847-31 74" fill="#fff" stroke="#fff" stroke-width="15.5"/></g><g stroke-width="15"><path d="m257 101h-44" fill="none" stroke="url(#linearGradient6184)"/><path d="m256 43h-41" fill="none" stroke="url(#linearGradient5192)"/><path d="m213 101 43-58" fill="#fff" stroke="#fff"/></g></g></g><circle cx="44" cy="99" r="10" fill="#fff"/></svg>